<?xml version="1.0" encoding="UTF-8"?>
<!DOCTYPE svg PUBLIC "-//W3C//DTD SVG 1.1//EN" "http://www.w3.org/Graphics/SVG/1.1/DTD/svg11.dtd">
<!-- Creator: CorelDRAW 2019 (64-Bit) -->
<svg xmlns="http://www.w3.org/2000/svg" xml:space="preserve" width="3.33333in" height="2.66666in" version="1.1" style="shape-rendering:geometricPrecision; text-rendering:geometricPrecision; image-rendering:optimizeQuality; fill-rule:evenodd; clip-rule:evenodd"
viewBox="0 0 3333.33 2666.66"
 xmlns:xlink="http://www.w3.org/1999/xlink">
 <defs>
  <style type="text/css">
   <![CDATA[
    .fil0 {fill:none}
    .fil3 {fill:#494949}
    .fil11 {fill:#98AEA2}
    .fil15 {fill:white}
    .fil1 {fill:url(#id0)}
    .fil4 {fill:url(#id1)}
    .fil14 {fill:url(#id2)}
    .fil13 {fill:url(#id3)}
    .fil25 {fill:url(#id4)}
    .fil17 {fill:url(#id5)}
    .fil21 {fill:url(#id6)}
    .fil27 {fill:url(#id7)}
    .fil19 {fill:url(#id8)}
    .fil20 {fill:url(#id9)}
    .fil31 {fill:url(#id10)}
    .fil26 {fill:url(#id11)}
    .fil23 {fill:url(#id12)}
    .fil30 {fill:url(#id13)}
    .fil12 {fill:url(#id14)}
    .fil6 {fill:url(#id15)}
    .fil5 {fill:url(#id16)}
    .fil8 {fill:url(#id17)}
    .fil16 {fill:url(#id18)}
    .fil2 {fill:url(#id19)}
    .fil32 {fill:url(#id20)}
    .fil29 {fill:url(#id21)}
    .fil28 {fill:url(#id22)}
    .fil7 {fill:url(#id23)}
    .fil24 {fill:url(#id24)}
    .fil22 {fill:url(#id25)}
    .fil18 {fill:url(#id26)}
    .fil10 {fill:url(#id27)}
    .fil9 {fill:url(#id28)}
   ]]>
  </style>
  <linearGradient id="id0" gradientUnits="userSpaceOnUse" x1="1231.76" y1="1714.51" x2="1231.76" y2="1262.73">
   <stop offset="0" style="stop-opacity:1; stop-color:#414D47"/>
   <stop offset="0.380392" style="stop-opacity:1; stop-color:#54675D"/>
   <stop offset="0.658824" style="stop-opacity:1; stop-color:#727978"/>
   <stop offset="0.768627" style="stop-opacity:1; stop-color:#54675D"/>
   <stop offset="1" style="stop-opacity:1; stop-color:#414D47"/>
  </linearGradient>
  <linearGradient id="id1" gradientUnits="userSpaceOnUse" xlink:href="#id0" x1="1667.02" y1="1730.73" x2="1667.02" y2="1215.58">
  </linearGradient>
  <linearGradient id="id2" gradientUnits="userSpaceOnUse" xlink:href="#id0" x1="1130.84" y1="1329.07" x2="1130.84" y2="952.53">
  </linearGradient>
  <linearGradient id="id3" gradientUnits="userSpaceOnUse" xlink:href="#id0" x1="2104.04" y1="1661.96" x2="2104.04" y2="1271.62">
  </linearGradient>
  <linearGradient id="id4" gradientUnits="userSpaceOnUse" x1="1124.04" y1="1166.77" x2="1125.03" y2="1092.74">
   <stop offset="0" style="stop-opacity:1; stop-color:#B5846E"/>
   <stop offset="0.631373" style="stop-opacity:1; stop-color:#ECD1B4"/>
   <stop offset="1" style="stop-opacity:1; stop-color:#B5846E"/>
  </linearGradient>
  <linearGradient id="id5" gradientUnits="userSpaceOnUse" xlink:href="#id4" x1="2115.79" y1="1252.23" x2="2116.52" y2="1178.35">
  </linearGradient>
  <linearGradient id="id6" gradientUnits="userSpaceOnUse" xlink:href="#id4" x1="2115.79" y1="1096.91" x2="2116.52" y2="1023.03">
  </linearGradient>
  <linearGradient id="id7" gradientUnits="userSpaceOnUse" xlink:href="#id4" x1="1258.04" y1="1183.75" x2="1258.88" y2="1121.02">
  </linearGradient>
  <linearGradient id="id8" gradientUnits="userSpaceOnUse" xlink:href="#id4" x1="2288.44" y1="1252.23" x2="2289.19" y2="1178.35">
  </linearGradient>
  <linearGradient id="id9" gradientUnits="userSpaceOnUse" xlink:href="#id4" x1="2288.44" y1="1096.91" x2="2289.19" y2="1023.03">
  </linearGradient>
  <linearGradient id="id10" gradientUnits="userSpaceOnUse" xlink:href="#id4" x1="1197.99" y1="1044.24" x2="1198.63" y2="1001.79">
  </linearGradient>
  <linearGradient id="id11" gradientUnits="userSpaceOnUse" xlink:href="#id4" x1="1181.09" y1="1150.25" x2="1181.71" y2="1104.87">
  </linearGradient>
  <linearGradient id="id12" gradientUnits="userSpaceOnUse" xlink:href="#id4" x1="1009.52" y1="1212.91" x2="1010.17" y2="1170.46">
  </linearGradient>
  <linearGradient id="id13" gradientUnits="userSpaceOnUse" xlink:href="#id4" x1="1227.79" y1="1132.9" x2="1229.02" y2="1034.45">
  </linearGradient>
  <linearGradient id="id14" gradientUnits="userSpaceOnUse" xlink:href="#id0" x1="2138.29" y1="1746.52" x2="2138.29" y2="1243.4">
  </linearGradient>
  <linearGradient id="id15" gradientUnits="userSpaceOnUse" xlink:href="#id0" x1="1667.02" y1="1519.47" x2="1667.02" y2="1304.08">
  </linearGradient>
  <linearGradient id="id16" gradientUnits="userSpaceOnUse" xlink:href="#id0" x1="1667.02" y1="1312.79" x2="1667.02" y2="1265.75">
  </linearGradient>
  <linearGradient id="id17" gradientUnits="userSpaceOnUse" xlink:href="#id0" x1="1664.93" y1="1657.89" x2="1664.93" y2="1617.54">
  </linearGradient>
  <linearGradient id="id18" gradientUnits="userSpaceOnUse" xlink:href="#id0" x1="2202.49" y1="1329.06" x2="2202.49" y2="952.54">
  </linearGradient>
  <linearGradient id="id19" gradientUnits="userSpaceOnUse" xlink:href="#id0" x1="1263.41" y1="1631.48" x2="1263.41" y2="1264.88">
  </linearGradient>
  <linearGradient id="id20" gradientUnits="userSpaceOnUse" xlink:href="#id4" x1="1072.05" y1="1047.4" x2="1072.74" y2="994.93">
  </linearGradient>
  <linearGradient id="id21" gradientUnits="userSpaceOnUse" xlink:href="#id4" x1="1137.44" y1="1093.24" x2="1138.89" y2="984.96">
  </linearGradient>
  <linearGradient id="id22" gradientUnits="userSpaceOnUse" xlink:href="#id4" x1="1039.19" y1="1171.16" x2="1040.89" y2="1043.62">
  </linearGradient>
  <linearGradient id="id23" gradientUnits="userSpaceOnUse" xlink:href="#id4" x1="1660.86" y1="1838.48" x2="1673.06" y2="1384.52">
  </linearGradient>
  <linearGradient id="id24" gradientUnits="userSpaceOnUse" xlink:href="#id4" x1="1178.48" y1="1270.62" x2="1180.4" y2="1144.9">
  </linearGradient>
  <linearGradient id="id25" gradientUnits="userSpaceOnUse" xlink:href="#id4" x1="1077.86" y1="1272.46" x2="1079.22" y2="1173.79">
  </linearGradient>
  <linearGradient id="id26" gradientUnits="userSpaceOnUse" xlink:href="#id4" x1="2201.7" y1="1212.25" x2="2203.26" y2="1055.61">
  </linearGradient>
  <linearGradient id="id27" gradientUnits="userSpaceOnUse" xlink:href="#id0" x1="1666.8" y1="1623.3" x2="1666.8" y2="1582.95">
  </linearGradient>
  <linearGradient id="id28" gradientUnits="userSpaceOnUse" xlink:href="#id0" x1="1667.06" y1="1677.72" x2="1667.06" y2="1653.06">
  </linearGradient>
 </defs>
 <g id="Layer_x0020_1">
  <metadata id="CorelCorpID_0Corel-Layer"/>
  <g id="_871026288">
   <rect class="fil0" x="857.93" y="524.6" width="1617.47" height="1617.47"/>
   <path class="fil1" d="M1101.48 1634.3c0,24.71 20.36,45.07 45.07,45.07l110.85 0 0 9.99 17.13 -9.89 17.13 -9.89 -17.13 -9.89 -17.13 -9.89 0 9.99 -110.85 0c-13.91,0 -25.49,-11.59 -25.49,-25.49l0 -341.95c-6.66,-1 -13.19,-2.39 -19.57,-4.15l0 346.11zm187.11 45.07l73.44 0 -2.44 -19.57 -71 0 16.95 9.79 -16.95 9.79z"/>
   <path class="fil2" d="M1179.77 1601.08l47.5 0 0 9.99 17.13 -9.89 17.13 -9.89 -17.13 -9.89 -17.13 -9.89 0 9.99 -27.93 0 0 -295.96c-6.36,2.14 -12.89,3.9 -19.57,5.27l0 310.27zm78.7 0l88.59 0 -2.44 -19.57 -86.15 0 16.95 9.79 -16.95 9.78z"/>
   <path class="fil3" d="M1362.26 1521.38c-4.63,-56.29 -2.9,-230.28 83.11,-237.56 23.03,-1.95 46.33,-4.83 69.01,-9.27 23.93,-4.69 80.29,-22.57 80.72,-54.5l0.52 -26.47c-3.7,-2.13 -7.31,-4.41 -10.83,-6.85l-0.61 33.17c-0.61,32.91 -106.44,50.21 -139.72,53.02 -74.78,6.33 -104.02,116.26 -93.07,249.34 4.97,60.44 -3.84,147.29 1.53,196.23l314.11 0 314.11 0c5.37,-48.94 -3.44,-135.79 1.53,-196.23 10.95,-133.09 -18.29,-243.01 -93.07,-249.34 -33.28,-2.81 -139.12,-20.11 -139.72,-53.02l-0.61 -33.37c-3.52,2.44 -7.13,4.74 -10.83,6.89l0.52 26.63c0.43,31.92 56.79,49.81 80.72,54.5 22.68,4.44 45.98,7.32 69.01,9.27 86.01,7.28 87.74,181.28 83.11,237.56 -5.09,61.92 4.6,124.63 -0.56,186.2l-608.39 0c-5.17,-61.57 4.53,-124.28 -0.57,-186.2z"/>
   <path class="fil4" d="M1367.95 1702.05l104.52 0 3.15 -129.53 3.29 -135.06 3.28 135.06 3.15 129.53 181.68 0 181.68 0 3.15 -129.53 3.28 -135.06 3.28 135.06 3.15 129.53 104.52 0c4.28,-60.24 -4.8,-120.77 0.17,-181.12 4.5,-54.75 2.26,-224.79 -78.06,-231.59 -23.31,-1.97 -46.63,-4.85 -69.61,-9.35 -11.06,-2.17 -26.49,-6.44 -41.18,-12.95l14.84 130.53 -52.73 18.61 23.45 51.83 -95.95 92.73 -95.94 -92.73 23.44 -51.83 -52.73 -18.61 14.84 -130.53c-14.69,6.51 -30.12,10.78 -41.19,12.95 -22.97,4.5 -46.29,7.38 -69.6,9.35 -80.32,6.8 -82.56,176.84 -78.06,231.59 4.96,60.35 -4.11,120.88 0.17,181.12zm299.07 -20.39c-9.25,0 -16.75,-7.5 -16.75,-16.76 0,-9.25 7.5,-16.76 16.75,-16.76 9.26,0 16.76,7.5 16.76,16.76 0,9.25 -7.5,16.76 -16.76,16.76zm0 -72.71c-9.25,0 -16.75,-7.5 -16.75,-16.75 0,-9.25 7.5,-16.76 16.75,-16.76 9.26,0 16.76,7.5 16.76,16.76 0,9.25 -7.5,16.75 -16.76,16.75zm0 -58.35l87.2 -84.28 -24.6 -54.39 54.74 -19.32 -14.7 -129.28c-9.98,-5.12 -19.15,-11.34 -25.77,-18.73l-76.87 299.63 -76.87 -299.63c-6.62,7.39 -15.8,13.61 -25.78,18.73l-14.7 129.28 54.74 19.32 -24.6 54.39 87.2 84.28z"/>
   <path class="fil3" d="M1651.32 1213.35c-29.43,-4.04 -56.15,-19.04 -76.41,-40.55 -23.48,-24.93 -37.09,-57.01 -41.35,-90.81l-1.01 -7.98 -7.63 -2.57c-9.4,-3.17 -13.5,-4.26 -17.54,-13.8 -1.91,-4.52 -3.18,-9.86 -3.95,-15.44l0.05 -0.04c-0.2,-1.43 -0.36,-2.86 -0.49,-4.29 -0.31,-3.37 -0.5,-7.09 -0.51,-10.94 0.01,-3.85 0.19,-7.57 0.51,-10.94 0.13,-1.43 0.29,-2.86 0.49,-4.29l-0.05 -0.04c0.77,-5.57 2.04,-10.91 3.95,-15.44 4.04,-9.54 8.14,-10.63 17.54,-13.8l7.63 58.13 13.15 4.15c6.01,-47.67 -8.61,-128.94 39.83,-128.94 35.22,0 140.75,35.29 179.91,8.91 23.48,24.94 27.04,68.24 24.53,119.77l11.5 -3.9 7.63 -58.13c9.4,3.17 13.5,4.26 17.54,13.8 1.91,4.52 3.18,9.86 3.95,15.44l-0.04 0.04c0.2,1.43 0.35,2.86 0.49,4.29 0.31,3.37 0.5,7.09 0.5,10.94 -0.01,3.85 -0.19,7.57 -0.5,10.94 -0.13,1.43 -0.29,2.86 -0.49,4.29l0.04 0.04c-0.77,5.57 -2.04,10.91 -3.95,15.44 -4.03,9.54 -8.14,10.63 -17.54,13.8l-7.63 2.57 -1.01 7.98c-4.26,33.8 -17.87,65.88 -41.35,90.81 -20.26,21.51 -46.97,36.51 -76.4,40.55 -5.2,0.71 -10.44,1.07 -15.69,1.07l-0.01 0 -0.01 0c-5.25,0 -10.49,-0.36 -15.69,-1.07zm15.69 -386.74c-69.09,0.17 -128.59,-32.56 -148.46,43.39 -41.67,11.62 -17.83,109.08 -22.98,121.24 -5.14,12.15 -5.95,23.62 -5.94,35.7 -0.02,12.09 1.56,25.37 5.94,35.7 5.91,13.98 13.3,16.93 25.26,20.96 11.01,87.33 77.08,143.49 146.17,143.66l0.01 0 0.01 0c69.09,-0.17 135.17,-56.33 146.18,-143.66 11.96,-4.03 19.35,-6.98 25.26,-20.96 4.37,-10.33 5.95,-23.62 5.94,-35.7 0.02,-12.08 -1.56,-25.37 -5.94,-35.7 -5.91,-13.98 -13.3,-16.93 -25.26,-20.96 49.68,-156.24 -77.08,-143.49 -146.18,-143.66l-0.02 0z"/>
   <path class="fil5" d="M1639.31 1268.4c-8.19,5.31 -14.8,13.05 -17.01,24.2 4.04,-7.79 8.35,-8.98 13.22,-12.11l17.34 29.67 14.16 0 14.16 0 17.34 -29.67c4.87,3.13 9.19,4.32 13.22,12.11 -2.21,-11.15 -8.82,-18.89 -17.01,-24.2 -6.72,2.31 -16.64,3.78 -27.71,3.78 -11.06,0 -20.98,-1.46 -27.7,-3.78z"/>
   <polygon class="fil6" points="1667.02,1507.48 1636.64,1393.3 1652.86,1316.22 1667.02,1316.22 1681.18,1316.22 1697.4,1393.3 "/>
   <path class="fil3" d="M1354.92 1798.8c-4.28,-5.26 -7.2,-11.61 -8.07,-18.59l-40.83 -327.02c-2.55,-20.43 13.54,-36.61 33.68,-36.61l654.65 0c20.14,0 36.22,16.18 33.67,36.61l-40.82 327.02c-0.87,6.98 -3.8,13.33 -8.07,18.59l9.82 0 0 24.06c0,13.26 -10.8,24.06 -24.06,24.06l-595.41 0c-13.25,0 -24.06,-10.8 -24.06,-24.06l0 -24.06 9.51 0z"/>
   <path class="fil7" d="M1357.1 1810.49l620.15 0 0 12.37c0,6.81 -5.57,12.37 -12.37,12.37l-595.41 0c-6.8,0 -12.37,-5.57 -12.37,-12.37l0 -12.37zm-17.4 -382.22l162.85 0 328.95 0 162.85 0c13.76,0 23.69,10.56 22.07,23.47l-40.82 327.03c-1.61,12.91 -14.2,23.47 -27.94,23.47l-69.48 0 -422.32 0 -69.48 0c-13.74,0 -26.33,-10.56 -27.94,-23.47l-40.83 -327.03c-1.61,-12.91 8.32,-23.47 22.08,-23.47z"/>
   <path class="fil8" d="M1645.33 1639.85c10.81,0 21.63,0 32.45,0 10.81,0 21.63,0 32.45,0 0.41,-6.67 0.8,-13.35 1.2,-20.03 -11.12,0 -22.24,0 -33.36,0 -11.12,0 -22.23,0 -33.35,0 -4.27,2.63 -8.51,5.26 -12.7,7.9 -4.17,2.62 -8.3,5.27 -12.4,7.9 0.44,6.68 0.89,13.36 1.32,20.04 3.98,-2.63 8,-5.28 12.05,-7.9 4.07,-2.64 8.2,-5.26 12.35,-7.91z"/>
   <path class="fil9" d="M1713.24 1654.45c-11.25,0 -22.49,0 -33.74,0 -11.24,0 -22.48,0 -33.73,0 -4.06,2.63 -8.1,5.26 -12.09,7.9 -3.96,2.62 -7.89,5.26 -11.79,7.9 0.13,2.03 0.26,4.06 0.41,6.09 14.91,0 29.83,0 44.74,0 14.92,0 29.84,0 44.77,0 0.48,-7.3 0.95,-14.59 1.43,-21.89z"/>
   <path class="fil10" d="M1644.29 1605.26c11.93,0 23.89,0 35.83,0 11.93,0 23.89,0 35.84,0 0.43,-6.68 0.86,-13.36 1.31,-20.04 -12.27,0 -24.54,0 -36.8,0 -12.26,0 -24.52,0 -36.78,0 -4.48,2.63 -8.92,5.26 -13.31,7.9 -4.37,2.63 -8.72,5.27 -13.02,7.9 0.43,6.68 0.87,13.36 1.31,20.04 4.18,-2.63 8.41,-5.27 12.67,-7.9 4.28,-2.64 8.6,-5.27 12.96,-7.9z"/>
   <path class="fil11" d="M1146.55 1698.94c-35.51,0 -64.64,-29.13 -64.64,-64.64l0 -130.21 -9.78 16.95 -9.79 -16.95 0 130.21c0,46.31 37.89,84.21 84.21,84.21l192.59 0 -2.44 -19.57 -190.15 0zm-74.42 -191.79l9.89 -17.13 9.89 -17.13 -9.99 0 0 -191.44c-6.76,-2.81 -13.29,-6.06 -19.57,-9.69l0 201.14 -9.99 0 9.89 17.13 9.89 17.13z"/>
   <path class="fil11" d="M1146.55 1640.22l182.82 0 -2.44 -19.57 -166.72 0 0 -47.2 -9.79 16.95 -9.78 -16.95 0 60.85c0,3.1 2.82,5.92 5.92,5.92zm3.86 -63.71l9.89 -17.13 9.89 -17.13 -9.99 0 0 -248.63c-4.65,0.39 -9.36,0.59 -14.12,0.59 -1.83,0 -3.64,-0.03 -5.45,-0.09l0 248.13 -10 0 9.89 17.13 9.89 17.13z"/>
   <path class="fil12" d="M2187.48 1698.94c35.51,0 64.64,-29.13 64.64,-64.64l0 -43.9 -9.99 0 9.89 -17.13 9.89 -17.13 9.89 17.13 9.89 17.13 -9.99 0 0 43.9c0,46.31 -37.89,84.21 -84.21,84.21l-192.59 0 2.44 -19.57 190.15 0zm64.64 -139.74l0 -277.76c6.76,-2.81 13.3,-6.06 19.57,-9.69l0 287.45 -9.78 -16.95 -9.79 16.95z"/>
   <path class="fil13" d="M2187.48 1640.22l-182.81 0 2.44 -19.57 166.73 0 0 -99.61 -10 0 9.89 -17.13 9.89 -17.13 9.89 17.13 9.89 17.13 -9.99 0 0 113.26c0,3.1 -2.82,5.92 -5.93,5.92zm-13.65 -150.38l0 -196.22c4.65,0.39 9.36,0.59 14.11,0.59 1.83,0 3.65,-0.03 5.46,-0.09l0 195.72 -9.79 -16.95 -9.78 16.95z"/>
   <path class="fil11" d="M2232.55 1634.3c0,24.71 -20.36,45.07 -45.07,45.07l-123.31 0 16.95 -9.79 -16.95 -9.79 123.31 0c13.91,0 25.5,-11.59 25.5,-25.49l0 -341.95c6.66,-1 13.19,-2.39 19.57,-4.15l0 346.11zm-165.32 35.28l-17.13 9.89 -17.13 9.89 0 -9.99 -33.19 0 2.44 -19.57 30.75 0 0 -9.99 17.13 9.89 17.13 9.89z"/>
   <path class="fil11" d="M2154.27 1601.08l-59.97 0 16.95 -9.78 -16.95 -9.79 40.41 0 0 -295.96c6.36,2.14 12.89,3.9 19.57,5.27l0 310.27zm-56.92 -9.78l-17.13 9.89 -17.13 9.89 0 -9.99 -53.54 0 2.44 -19.57 51.09 0 0 -9.99 17.13 9.89 17.13 9.89z"/>
   <path class="fil14" d="M1130.84 973.76c-92.33,0 -167.18,74.84 -167.18,167.17 0,92.33 74.85,167.18 167.18,167.18 92.32,0 167.17,-74.85 167.17,-167.18 0,-92.32 -74.85,-167.17 -167.17,-167.17zm49 174.78c-2.93,-0.41 -5.6,-1.9 -7.62,-4.05 -2.35,-2.48 -3.71,-5.69 -4.14,-9.07l-0.1 -0.8 -0.76 -0.25c-0.94,-0.32 -1.35,-0.43 -1.75,-1.38 -0.19,-0.45 -0.32,-0.99 -0.4,-1.54l0.02 0c-0.02,-0.14 -0.04,-0.29 -0.06,-0.43 -0.03,-0.33 -0.05,-0.71 -0.05,-1.09 0,-0.39 0.02,-0.76 0.05,-1.09 0.01,-0.14 0.03,-0.29 0.06,-0.43l-0.02 -0.01c0.08,-0.55 0.21,-1.08 0.4,-1.54 0.4,-0.95 0.81,-1.06 1.75,-1.38l0.76 5.8 1.31 0.42c0.6,-4.76 -0.86,-12.88 3.98,-12.88 3.52,0 14.06,3.53 17.96,0.9 2.34,2.48 2.69,6.81 2.44,11.95l1.15 -0.39 0.77 -5.8c0.94,0.33 1.35,0.43 1.75,1.38 0.19,0.45 0.31,0.98 0.39,1.54l0 0.01c0.02,0.14 0.04,0.29 0.04,0.43 0.03,0.33 0.05,0.7 0.06,1.09 -0.01,0.37 -0.03,0.75 -0.06,1.09 -0.01,0.14 -0.03,0.29 -0.04,0.43l0 0c-0.08,0.55 -0.2,1.09 -0.39,1.54 -0.4,0.95 -0.81,1.06 -1.75,1.38l-0.77 0.25 -0.1 0.8c-0.41,3.38 -1.78,6.59 -4.12,9.07 -2.02,2.15 -4.68,3.64 -7.63,4.05 -0.52,0.07 -1.05,0.1 -1.57,0.1l0 0 0 0c-0.52,0 -1.06,-0.04 -1.57,-0.1zm1.57 -38.61c-6.9,0.02 -12.84,-3.25 -14.82,4.34 -4.17,1.16 -1.78,10.87 -2.3,12.1 -0.51,1.2 -0.59,2.35 -0.59,3.56 0,1.2 0.17,2.53 0.59,3.56 0.59,1.39 1.34,1.69 2.52,2.09 1.1,8.72 7.69,14.32 14.59,14.34l0 0 0 0c6.9,-0.02 13.49,-5.62 14.59,-14.34 1.2,-0.39 1.93,-0.69 2.52,-2.09 0.43,-1.03 0.59,-2.36 0.59,-3.56 0,-1.22 -0.17,-2.54 -0.59,-3.56 -0.59,-1.4 -1.32,-1.7 -2.52,-2.11 4.96,-15.58 -7.69,-14.31 -14.59,-14.33l0 0zm15.37 -67.37c-2.91,-0.4 -5.55,-1.88 -7.55,-4.01 -2.32,-2.46 -3.67,-5.63 -4.09,-8.98 0.74,1.3 1.09,1.82 2.4,3.51 -2.94,-14.73 3.76,-18.04 8.93,-12.76 4.66,4.76 12.54,7.06 11.19,12.15 5.33,-9.03 -4.91,-19.18 -8,-20.88 2.64,0.87 14.93,8.53 8.89,22.64 1.98,-0.67 2.98,-4.71 2.98,-4.66 -0.42,3.34 -1.77,6.51 -4.09,8.98 -2,2.13 -4.64,3.61 -7.55,4.01 -0.52,0.07 -1.04,0.1 -1.55,0.1l0 0 -0.01 0c-0.52,0 -1.03,-0.04 -1.55,-0.1zm-17 -1.81c1.47,-1.27 6.89,-1.71 8.33,-1.52 2.71,2.99 6.42,4.7 10.21,4.71l0.01 0 0 0c3.78,-0.02 7.47,-1.73 10.2,-4.71 1.86,-0.41 6.76,0 8.33,1.52 -5.86,-8.75 5.87,-34.63 -18.54,-34.85 -22.75,-0.2 -15.18,28.49 -18.55,34.85zm-39.53 77.19c3.74,3.98 4.31,10.89 3.92,19.12l1.83 -0.63 1.22 -9.28c1.5,0.5 2.15,0.68 2.8,2.2 0.3,0.72 0.51,1.57 0.63,2.46l-0.01 0.02c0.04,0.22 0.06,0.45 0.08,0.69 0.04,0.54 0.07,1.13 0.07,1.75 0,0.61 -0.03,1.2 -0.07,1.74 -0.03,0.23 -0.05,0.46 -0.08,0.69l0.01 0c-0.12,0.89 -0.33,1.75 -0.63,2.47 -0.64,1.52 -1.3,1.7 -2.8,2.2l-1.22 0.41 -0.17 1.28c-0.67,5.39 -2.85,10.51 -6.59,14.5 -3.23,3.43 -7.5,5.82 -12.2,6.48 -0.83,0.11 -1.67,0.17 -2.51,0.17 -0.84,0 -1.67,-0.06 -2.51,-0.17 -4.69,-0.65 -8.96,-3.04 -12.19,-6.48 -3.75,-3.98 -5.92,-9.1 -6.6,-14.5l-0.16 -1.28 -1.22 -0.41c-1.5,-0.5 -2.15,-0.68 -2.79,-2.2 -0.31,-0.72 -0.51,-1.58 -0.63,-2.47l0.01 0c-0.03,-0.22 -0.06,-0.46 -0.07,-0.69 -0.05,-0.54 -0.08,-1.13 -0.08,-1.74 0,-0.62 0.04,-1.21 0.08,-1.75 0.02,-0.23 0.05,-0.46 0.07,-0.69l-0.01 -0.02c0.12,-0.89 0.33,-1.74 0.63,-2.46 0.64,-1.52 1.3,-1.7 2.79,-2.2l1.22 9.28 1.84 0.63c-0.41,-8.23 0.16,-15.13 3.91,-19.12 3.11,2.09 28.32,2.09 31.43,0zm-15.71 48.3c11.04,-0.04 21.58,-9 23.34,-22.93 1.91,-0.65 3.09,-1.12 4.03,-3.35 0.69,-1.65 0.95,-3.76 0.94,-5.69 0,-1.94 -0.25,-4.05 -0.94,-5.7 -0.94,-2.23 -2.12,-2.7 -4.03,-3.35 6.96,-21.92 -30.94,-18.09 -39.03,-25.34 -11.14,5.28 -10.09,12.85 -7.64,25.34 -1.91,0.65 -3.09,1.12 -4.04,3.35 -0.69,1.65 -0.94,3.77 -0.94,5.7 0,1.93 0.25,4.04 0.94,5.69 0.94,2.23 2.13,2.7 4.04,3.35 1.76,13.93 12.31,22.9 23.33,22.93zm131.93 8.5c-3.78,-0.5 -7.22,-2.43 -9.81,-5.21 -3.02,-3.19 -4.77,-7.31 -5.32,-11.66 0.97,1.7 1.42,2.36 3.12,4.57 -6.69,-42.18 16.33,-6.15 28.7,-9.93 -0.37,-9.26 -8.92,-15.8 -12.94,-18.01 3.43,1.16 19.39,11.09 11.55,29.44 2.58,-0.88 3.87,-6.12 3.86,-6.06 -0.54,4.35 -2.29,8.47 -5.31,11.66 -2.61,2.78 -6.03,4.7 -9.81,5.21 -0.67,0.1 -1.34,0.14 -2.03,0.14l0 0 0 0c-0.67,0 -1.34,-0.04 -2.01,-0.14zm-22.09 8.56c1.8,-1.56 7.45,-2.02 13.07,-2.13 0.86,-0.79 1.4,-1.75 1.42,-2.87l0.06 -4.54c2.21,1.58 4.76,2.65 7.46,3.02 4.2,0.58 8.3,-0.6 11.68,-3.02l0.06 4.54c0.01,1.07 0.51,1.98 1.29,2.75 5.64,0.04 11.28,0.46 13.15,2.26 -7.61,-11.38 7.63,-55.94 -24.09,-56.21 -29.57,-0.25 -19.74,47.95 -24.1,56.21zm-226.06 27.93c-2.91,-0.4 -5.55,-1.88 -7.56,-4.01 -2.31,-2.47 -3.67,-5.64 -4.08,-8.98 0.74,1.31 1.09,1.81 2.4,3.52 -5.15,-32.46 12.56,-4.74 22.08,-7.64 -0.28,-7.11 -6.86,-12.15 -9.96,-13.86 2.64,0.89 14.93,8.54 8.89,22.65 1.98,-0.67 2.98,-4.7 2.98,-4.66 -0.43,3.34 -1.77,6.51 -4.09,8.98 -2.01,2.13 -4.65,3.61 -7.56,4.01 -0.51,0.07 -1.02,0.1 -1.55,0.1l-0.01 0 0 0c-0.52,0 -1.03,-0.04 -1.54,-0.1zm-17 -1.81c1.47,-1.27 6.89,-1.71 8.33,-1.52 2.71,2.99 6.43,4.69 10.22,4.7l0 0 0.01 0c3.78,-0.02 7.48,-1.73 10.19,-4.71 1.86,-0.41 6.75,0 8.33,1.52 -5.86,-8.75 5.87,-34.64 -18.54,-34.86 -22.76,-0.19 -15.19,28.5 -18.55,34.86zm79.31 -163.98c-3.33,-0.45 -6.35,-2.14 -8.64,-4.57 -2.65,-2.82 -4.19,-6.45 -4.67,-10.27l-0.11 -0.9 -0.86 -0.29c-1.07,-0.36 -1.53,-0.49 -1.99,-1.56 -0.21,-0.51 -0.36,-1.11 -0.44,-1.75l0 0c-0.02,-0.16 -0.04,-0.33 -0.06,-0.48 -0.03,-0.39 -0.06,-0.8 -0.06,-1.24 0,-0.43 0.02,-0.86 0.06,-1.23 0.02,-0.16 0.04,-0.33 0.06,-0.49l0 0c0.08,-0.63 0.23,-1.23 0.44,-1.75 0.46,-1.08 0.93,-1.2 1.99,-1.56l0.86 6.56 1.49 0.47c0.68,-5.39 -0.98,-14.57 4.5,-14.57 3.98,0 15.91,3.99 20.33,1.01 2.67,2.81 3.06,7.72 2.78,13.54l1.3 -0.44 0.86 -6.56c1.06,0.35 1.52,0.48 1.98,1.56 0.22,0.52 0.35,1.11 0.44,1.75l0 0c0.02,0.16 0.04,0.33 0.06,0.49 0.04,0.37 0.06,0.8 0.06,1.23 0,0.44 -0.02,0.85 -0.06,1.24 -0.02,0.16 -0.04,0.32 -0.06,0.48l0 0c-0.09,0.63 -0.22,1.24 -0.44,1.75 -0.46,1.07 -0.93,1.2 -1.98,1.56l-0.86 0.29 -0.12 0.9c-0.47,3.82 -2.02,7.45 -4.67,10.27 -2.29,2.43 -5.31,4.13 -8.64,4.57 -0.59,0.08 -1.18,0.13 -1.77,0.13l0 0 0 0c-0.59,0 -1.19,-0.05 -1.78,-0.13zm4.52 -45.46c-29.61,0.07 -17.17,8.63 -22.12,20.35 -0.58,1.38 -0.67,2.68 -0.67,4.04 0,1.37 0.18,2.87 0.67,4.04 0.67,1.57 1.5,1.92 2.85,2.37 1.24,9.86 8.71,16.21 16.52,16.23l0 0 0 0c7.81,-0.02 15.28,-6.37 16.52,-16.23 1.35,-0.45 2.19,-0.8 2.85,-2.37 0.5,-1.18 0.67,-2.67 0.67,-4.04 0,-1.36 -0.18,-2.86 -0.67,-4.04 -0.67,-1.57 -1.5,-1.91 -2.85,-2.37 4.94,-15.52 -1.84,-17.98 -13.78,-17.98zm172.75 72.3c4.65,4.94 5.35,13.52 4.87,23.72l2.28 -0.77 1.5 -11.51c1.86,0.64 2.67,0.84 3.47,2.73 0.39,0.9 0.64,1.96 0.78,3.06l-0.01 0c0.04,0.28 0.07,0.57 0.1,0.85 0.06,0.66 0.1,1.4 0.1,2.16 0,0.77 -0.04,1.5 -0.1,2.17 -0.03,0.28 -0.06,0.57 -0.1,0.85l0.01 0c-0.14,1.09 -0.39,2.16 -0.78,3.06 -0.8,1.89 -1.61,2.1 -3.47,2.74l-1.5 0.5 -0.21 1.58c-0.83,6.69 -3.54,13.04 -8.19,17.98 -4,4.26 -9.29,7.22 -15.12,8.03 -1.03,0.15 -2.07,0.21 -3.11,0.21 -1.04,0 -2.07,-0.06 -3.1,-0.21 -5.83,-0.8 -11.13,-3.77 -15.13,-8.03 -4.66,-4.94 -7.35,-11.3 -8.2,-17.98l-0.19 -1.58 -1.52 -0.5c-1.86,-0.64 -2.68,-0.85 -3.48,-2.74 -0.37,-0.9 -0.62,-1.96 -0.78,-3.06l0.01 -0c-0.04,-0.28 -0.07,-0.57 -0.1,-0.85 -0.06,-0.67 -0.09,-1.4 -0.09,-2.17 0,-0.76 0.04,-1.5 0.09,-2.16 0.03,-0.28 0.06,-0.57 0.1,-0.85l-0.01 -0c0.16,-1.1 0.41,-2.16 0.78,-3.06 0.8,-1.89 1.62,-2.09 3.48,-2.73l1.52 11.51 2.28 0.77c-0.5,-10.2 0.2,-18.78 4.86,-23.72 3.85,2.61 35.11,2.61 38.96,0zm-19.48 59.91c13.69,-0.04 26.76,-11.15 28.94,-28.45 2.36,-0.8 3.83,-1.37 5,-4.15 0.86,-2.05 1.17,-4.67 1.17,-7.07 0,-2.39 -0.31,-5.02 -1.17,-7.07 -1.18,-2.76 -2.65,-3.35 -5,-4.15 8.64,-27.18 -18.91,-28.38 -28.94,-37.37 -10.04,9 -37.58,10.19 -28.93,37.37 -2.37,0.8 -3.84,1.39 -5.01,4.15 -0.87,2.05 -1.18,4.67 -1.17,7.07 -0.01,2.4 0.3,5.02 1.17,7.07 1.17,2.77 2.63,3.35 5.01,4.15 2.17,17.3 15.25,28.41 28.93,28.45zm-192.67 34.22c-8.1,-1.1 -15.44,-5.21 -21,-11.13 -6.44,-6.86 -10.19,-15.68 -11.36,-24.96l-0.28 -2.19 -2.09 -0.7c-2.59,-0.87 -3.72,-1.19 -4.83,-3.79 -0.52,-1.24 -0.87,-2.71 -1.08,-4.25l0.01 -0.01c-0.06,-0.39 -0.08,-0.79 -0.13,-1.17 -0.09,-0.94 -0.13,-1.95 -0.14,-3.02 0.01,-1.04 0.06,-2.08 0.14,-3 0.05,-0.39 0.07,-0.79 0.13,-1.18l-0.01 -0.02c0.21,-1.52 0.56,-2.99 1.08,-4.23 1.11,-2.63 2.24,-2.93 4.83,-3.79l2.09 15.96 3.61 1.14c1.65,-13.1 -2.37,-35.43 10.94,-35.43 9.69,0 38.68,9.71 49.43,2.46 6.46,6.84 7.43,18.76 6.75,32.91l3.16 -1.08 2.09 -15.96c2.58,0.87 3.71,1.16 4.83,3.79 0.52,1.24 0.86,2.71 1.08,4.23l-0.01 0.02c0.04,0.39 0.09,0.79 0.13,1.18 0.08,0.92 0.12,1.95 0.14,3 -0.02,1.07 -0.06,2.08 -0.14,3.02 -0.05,0.38 -0.09,0.78 -0.13,1.17l0.01 0.01c-0.22,1.54 -0.56,3 -1.08,4.25 -1.11,2.61 -2.24,2.92 -4.83,3.79l-2.09 0.7 -0.28 2.19c-1.17,9.28 -4.91,18.11 -11.36,24.96 -5.57,5.91 -12.9,10.02 -21,11.13 -1.43,0.2 -2.87,0.31 -4.31,0.31l0 0 -0 0c-1.44,0 -2.87,-0.11 -4.3,-0.31zm10.98 -110.5c-71.98,0.18 -41.72,20.98 -53.78,49.47 -1.41,3.34 -1.64,6.5 -1.63,9.81 -0.01,3.33 0.43,6.98 1.63,9.82 1.63,3.84 3.66,4.66 6.94,5.76 3.03,23.98 21.17,39.41 40.16,39.47l0 0 0 0c18.99,-0.06 37.15,-15.48 40.16,-39.47 3.3,-1.11 5.32,-1.93 6.95,-5.76 1.2,-2.85 1.64,-6.5 1.64,-9.82 0,-3.31 -0.44,-6.96 -1.64,-9.81 -1.63,-3.83 -3.65,-4.64 -6.95,-5.75 12,-37.73 -4.47,-43.72 -33.49,-43.72zm128.17 209.75c-8.63,-1.18 -16.44,-5.57 -22.38,-11.87 -6.87,-7.3 -10.86,-16.7 -12.1,-26.59 2.2,3.86 3.24,5.37 7.1,10.4 -15.23,-96.14 37.21,-14.02 65.41,-22.62 -0.85,-21.08 -20.33,-36 -29.51,-41.05 7.81,2.62 44.22,25.28 26.33,67.08 5.89,-1.98 8.83,-13.95 8.83,-13.81 -1.26,9.89 -5.25,19.29 -12.11,26.59 -5.95,6.3 -13.76,10.69 -22.38,11.87 -1.52,0.2 -3.05,0.32 -4.59,0.32l-0.01 0 0 0c-1.55,0 -3.08,-0.11 -4.59,-0.32zm-50.35 -5.38c4.33,-3.76 20.41,-5.07 24.68,-4.49 8.03,8.86 19.03,13.91 30.27,13.93l0 0 0.01 0c11.2,-0.03 22.13,-5.11 30.2,-13.94 5.52,-1.2 20,0 24.69,4.5 -17.35,-25.93 17.39,-102.6 -54.89,-103.24 -67.42,-0.58 -44.99,84.4 -54.95,103.24zm-49.39 8.46c-6.38,-0.88 -12.18,-4.13 -16.57,-8.8 -5.1,-5.41 -8.05,-12.37 -8.97,-19.71l-0.22 -1.72 -1.66 -0.57c-2.04,-0.69 -2.93,-0.93 -3.81,-2.99 -0.41,-0.99 -0.69,-2.15 -0.85,-3.35l0 -0.01c-0.04,-0.31 -0.07,-0.63 -0.1,-0.93 -0.07,-0.74 -0.11,-1.55 -0.11,-2.37 0,-0.84 0.04,-1.65 0.11,-2.38 0.03,-0.31 0.06,-0.62 0.1,-0.94l-0 -0c0.17,-1.21 0.44,-2.37 0.85,-3.35 0.88,-2.07 1.77,-2.3 3.81,-3l1.66 12.61 2.85 0.91c1.31,-10.35 -1.87,-27.99 8.65,-27.99 7.64,0 30.55,7.67 39.06,1.94 5.08,5.4 5.87,14.81 5.31,25.99l2.5 -0.85 1.66 -12.61c2.05,0.7 2.93,0.93 3.8,3 0.42,0.98 0.69,2.14 0.87,3.35l-0.01 0c0.04,0.32 0.07,0.63 0.1,0.94 0.06,0.72 0.11,1.54 0.11,2.38 -0.01,0.82 -0.06,1.63 -0.11,2.37 -0.03,0.31 -0.07,0.63 -0.1,0.93l0.01 0.01c-0.18,1.2 -0.45,2.36 -0.87,3.35 -0.87,2.06 -1.75,2.3 -3.8,2.99l-1.66 0.57 -0.22 1.72c-0.93,7.34 -3.88,14.3 -8.97,19.71 -4.4,4.67 -10.19,7.93 -16.57,8.8 -1.14,0.15 -2.28,0.23 -3.41,0.23l-0.01 0 0 0c-1.13,0 -2.28,-0.08 -3.41,-0.23zm3.41 -83.94c-14.99,0.03 -27.91,-7.07 -32.22,9.41 -9.05,2.53 -3.87,23.67 -4.99,26.31 -1.12,2.64 -1.3,5.13 -1.29,7.76 -0,2.61 0.34,5.5 1.29,7.74 1.28,3.04 2.89,3.68 5.48,4.55 2.4,18.95 16.73,31.15 31.72,31.18l0 0 0.01 0c14.99,-0.03 29.33,-12.23 31.72,-31.18 2.59,-0.87 4.2,-1.51 5.49,-4.55 0.94,-2.24 1.29,-5.13 1.28,-7.74 0.01,-2.63 -0.35,-5.5 -1.28,-7.76 -1.29,-3.04 -2.9,-3.69 -5.49,-4.56 10.79,-33.9 -16.73,-31.14 -31.72,-31.17l-0.01 0zm56.17 -107.11c-6.53,-0.89 -12.46,-4.21 -16.94,-8.98 -5.2,-5.54 -8.22,-12.64 -9.18,-20.15 1.67,2.93 2.46,4.08 5.39,7.88 -11.55,-72.82 28.19,-10.63 49.56,-17.14 -0.65,-15.98 -15.41,-27.27 -22.35,-31.09 5.91,1.99 33.49,19.15 19.95,50.81 4.44,-1.51 6.68,-10.57 6.66,-10.46 -0.93,7.5 -3.96,14.61 -9.17,20.15 -4.49,4.77 -10.41,8.1 -16.94,8.98 -1.16,0.17 -2.32,0.24 -3.49,0.24l0 0 0 0c-1.16,0 -2.33,-0.07 -3.48,-0.24zm-38.14 14.79c3.11,-2.7 12.87,-3.5 22.57,-3.7 1.48,-1.36 2.42,-3.01 2.46,-4.97l0.09 -7.82c3.8,2.73 8.21,4.57 12.89,5.23 7.23,0.99 14.31,-1.05 20.14,-5.23l0.11 7.82c0.02,1.86 0.88,3.44 2.23,4.76 9.75,0.07 19.47,0.8 22.7,3.9 -13.14,-19.64 13.18,-96.58 -41.58,-97.06 -51.06,-0.43 -34.08,82.79 -41.62,97.06z"/>
   <path class="fil15" d="M1075.14 1268.74c-6.38,-0.88 -12.18,-4.13 -16.57,-8.8 -5.1,-5.41 -8.05,-12.37 -8.97,-19.71l-0.22 -1.72 -1.66 -0.57c-2.04,-0.69 -2.93,-0.93 -3.81,-2.99 -0.41,-0.99 -0.69,-2.15 -0.85,-3.35l0 -0.01c-0.04,-0.31 -0.07,-0.63 -0.1,-0.93 -0.07,-0.74 -0.11,-1.55 -0.11,-2.37 0,-0.84 0.04,-1.65 0.11,-2.38 0.03,-0.31 0.06,-0.62 0.1,-0.94l-0 -0c0.17,-1.21 0.44,-2.37 0.85,-3.35 0.88,-2.07 1.77,-2.3 3.81,-3l1.66 12.61 2.85 0.91c1.31,-10.35 -1.87,-27.99 8.65,-27.99 7.64,0 30.55,7.67 39.06,1.94 5.08,5.4 5.87,14.81 5.31,25.99l2.5 -0.85 1.66 -12.61c2.05,0.7 2.93,0.93 3.8,3 0.42,0.98 0.69,2.14 0.87,3.35l-0.01 0c0.04,0.32 0.07,0.63 0.1,0.94 0.06,0.72 0.11,1.54 0.11,2.38 -0.01,0.82 -0.06,1.63 -0.11,2.37 -0.03,0.31 -0.07,0.63 -0.1,0.93l0.01 0.01c-0.18,1.2 -0.45,2.36 -0.87,3.35 -0.87,2.06 -1.75,2.3 -3.8,2.99l-1.66 0.57 -0.22 1.72c-0.93,7.34 -3.88,14.3 -8.97,19.71 -4.4,4.67 -10.19,7.93 -16.57,8.8 -1.14,0.15 -2.28,0.23 -3.41,0.23l-0.01 0 0 0c-1.13,0 -2.28,-0.08 -3.41,-0.23zm3.41 -83.94c-14.99,0.03 -27.91,-7.07 -32.22,9.41 -9.05,2.53 -3.87,23.67 -4.99,26.31 -1.12,2.64 -1.3,5.13 -1.29,7.76 -0,2.61 0.34,5.5 1.29,7.74 1.28,3.04 2.89,3.68 5.48,4.55 2.4,18.95 16.73,31.15 31.72,31.18l0 0 0.01 0c14.99,-0.03 29.33,-12.23 31.72,-31.18 2.59,-0.87 4.2,-1.51 5.49,-4.55 0.94,-2.24 1.29,-5.13 1.28,-7.74 0.01,-2.63 -0.35,-5.5 -1.28,-7.76 -1.29,-3.04 -2.9,-3.69 -5.49,-4.56 10.79,-33.9 -16.73,-31.14 -31.72,-31.17l-0.01 0z"/>
   <path class="fil16" d="M2202.49 973.76c-92.33,0 -167.18,74.85 -167.18,167.17 0,92.33 74.85,167.17 167.18,167.17 92.32,0 167.17,-74.84 167.17,-167.17 0,-92.32 -74.85,-167.17 -167.17,-167.17zm90.06 211.71l-5.57 0 0 5.26c-8,0.38 -17,6.02 -17,16 0,10.22 7.85,13.57 16.62,15.93l0 13.34c-3.35,-0.08 -8.08,-2.29 -10.82,-5.26 -2.59,2.82 -5.33,5.64 -8,8.39 5.03,4.5 12.27,6.78 18.83,7.01l0 5.57 5.64 0 0 -5.57c8.92,-0.3 17.61,-5.56 17.61,-16.69 0,-10.9 -9.45,-14.25 -17.3,-16.62l0 -12.19c3.2,0.07 7.17,1.6 9.68,4.11 2.52,-2.74 4.96,-5.48 7.39,-8.31 -4.72,-3.81 -11.35,-5.64 -17.07,-5.79l0 -5.18zm-5.57 26.06c-3.2,-0.83 -5.33,-2.44 -5.33,-5.64 0,-3.35 2.59,-5.11 5.33,-5.41l0 11.05zm5.26 12.5c3.2,0.99 5.57,2.59 5.57,6.1 0,3.51 -2.14,5.79 -5.57,5.94l0 -12.04zm-172.35 -193.88l-5.56 0 0 5.26c-8,0.38 -16.99,6.02 -16.99,16 0,10.21 7.85,13.57 16.61,15.93l0 13.34c-3.35,-0.07 -8.08,-2.29 -10.83,-5.26 -2.59,2.82 -5.33,5.64 -8,8.38 5.03,4.5 12.27,6.78 18.83,7.01l0 5.56 5.64 0 0 -5.56c8.92,-0.3 17.61,-5.56 17.61,-16.69 0,-10.9 -9.45,-14.25 -17.3,-16.61l0 -12.2c3.2,0.08 7.17,1.6 9.68,4.12 2.52,-2.74 4.95,-5.49 7.39,-8.31 -4.72,-3.81 -11.36,-5.64 -17.07,-5.8l0 -5.18zm-5.56 26.07c-3.2,-0.84 -5.33,-2.44 -5.33,-5.64 0,-3.35 2.59,-5.11 5.33,-5.41l0 11.05zm5.26 12.5c3.2,1 5.56,2.59 5.56,6.1 0,3.51 -2.13,5.8 -5.56,5.94l0 -12.04zm0.3 116.75l-5.56 0 0 5.26c-8,0.38 -16.99,6.02 -16.99,16 0,10.22 7.85,13.57 16.61,15.93l0 13.34c-3.35,-0.08 -8.08,-2.29 -10.83,-5.26 -2.59,2.82 -5.33,5.64 -8,8.39 5.03,4.5 12.27,6.78 18.83,7.01l0 5.57 5.64 0 0 -5.57c8.92,-0.3 17.61,-5.56 17.61,-16.69 0,-10.9 -9.45,-14.25 -17.3,-16.62l0 -12.19c3.2,0.07 7.17,1.6 9.68,4.11 2.52,-2.74 4.95,-5.48 7.39,-8.31 -4.72,-3.81 -11.36,-5.64 -17.07,-5.79l0 -5.18zm-5.56 26.06c-3.2,-0.83 -5.33,-2.44 -5.33,-5.64 0,-3.35 2.59,-5.11 5.33,-5.41l0 11.05zm5.26 12.5c3.2,0.99 5.56,2.59 5.56,6.1 0,3.51 -2.13,5.79 -5.56,5.94l0 -12.04zm172.96 -193.88l-5.57 0 0 5.26c-8,0.38 -17,6.02 -17,16 0,10.21 7.85,13.57 16.62,15.93l0 13.34c-3.35,-0.07 -8.08,-2.29 -10.82,-5.26 -2.59,2.82 -5.33,5.64 -8,8.38 5.03,4.5 12.27,6.78 18.83,7.01l0 5.56 5.64 0 0 -5.56c8.92,-0.3 17.61,-5.56 17.61,-16.69 0,-10.9 -9.45,-14.25 -17.3,-16.61l0 -12.2c3.2,0.08 7.17,1.6 9.68,4.12 2.52,-2.74 4.96,-5.49 7.39,-8.31 -4.72,-3.81 -11.35,-5.64 -17.07,-5.8l0 -5.18zm-5.57 26.07c-3.2,-0.84 -5.33,-2.44 -5.33,-5.64 0,-3.35 2.59,-5.11 5.33,-5.41l0 11.05zm5.26 12.5c3.2,1 5.57,2.59 5.57,6.1 0,3.51 -2.14,5.8 -5.57,5.94l0 -12.04zm-81.84 2l-11.8 0 0 11.15c-16.96,0.8 -36.03,12.76 -36.03,33.93 0,21.65 16.64,28.76 35.22,33.77l0 28.28c-7.11,-0.17 -17.13,-4.85 -22.94,-11.15 -5.49,5.98 -11.31,11.95 -16.96,17.77 10.66,9.53 26.02,14.38 39.91,14.87l0 11.8 11.95 0 0 -11.8c18.91,-0.65 37.33,-11.8 37.33,-35.39 0,-23.11 -20.04,-30.22 -36.68,-35.22l0 -25.85c6.79,0.16 15.19,3.39 20.52,8.72 5.33,-5.82 10.5,-11.63 15.67,-17.61 -10.02,-8.08 -24.08,-11.96 -36.2,-12.28l0 -10.98zm-11.8 55.26c-6.79,-1.78 -11.31,-5.17 -11.31,-11.96 0,-7.11 5.49,-10.82 11.31,-11.47l0 23.43zm11.15 26.5c6.79,2.1 11.8,5.5 11.8,12.93 0,7.43 -4.52,12.28 -11.8,12.6l0 -25.53z"/>
   <path class="fil17" d="M2137.2 1229.44c0,-10.9 -9.45,-14.26 -17.3,-16.61l0 -12.2c3.2,0.08 7.16,1.61 9.68,4.11 2.51,-2.74 4.96,-5.48 7.4,-8.3 -4.72,-3.81 -11.36,-5.64 -17.07,-5.79l0 -5.18 -5.57 0 0 5.26c-8,0.39 -16.99,6.02 -16.99,16 0,10.22 7.85,13.57 16.61,15.93l0 13.34c-3.36,-0.07 -8.09,-2.29 -10.82,-5.26 -2.59,2.82 -5.34,5.64 -8.01,8.39 5.04,4.49 12.27,6.78 18.83,7.01l0 5.57 5.63 0 0 -5.57c8.93,-0.3 17.61,-5.57 17.61,-16.69zm-12.05 0.69c0,3.5 -2.13,5.79 -5.57,5.94l0 -12.05c3.2,0.99 5.57,2.59 5.57,6.1zm-10.82 -18.6c-3.2,-0.84 -5.33,-2.44 -5.33,-5.64 0,-3.36 2.59,-5.1 5.33,-5.41l0 11.06z"/>
   <path class="fil18" d="M2157.89 1184.47c10.66,9.54 26.02,14.39 39.91,14.87l0 11.8 11.95 0 0 -11.8c18.91,-0.65 37.33,-11.8 37.33,-35.39 0,-23.11 -20.04,-30.22 -36.68,-35.23l0 -25.85c6.78,0.16 15.19,3.39 20.52,8.72 5.33,-5.82 10.5,-11.64 15.68,-17.61 -10.02,-8.09 -24.08,-11.96 -36.19,-12.28l0 -10.99 -11.8 0 0 11.15c-16.97,0.8 -36.04,12.76 -36.04,33.93 0,21.65 16.64,28.76 35.22,33.77l0 28.28c-7.1,-0.16 -17.12,-4.85 -22.94,-11.15 -5.49,5.98 -11.31,11.96 -16.96,17.77zm63.67 -19.06c0,7.44 -4.53,12.28 -11.81,12.61l0 -25.53c6.8,2.1 11.81,5.49 11.81,12.92zm-22.94 -39.43c-6.8,-1.77 -11.32,-5.17 -11.32,-11.96 0,-7.11 5.5,-10.82 11.32,-11.47l0 23.43z"/>
   <path class="fil19" d="M2286.98 1190.72c-8,0.39 -16.99,6.02 -16.99,16 0,10.22 7.85,13.57 16.61,15.93l0 13.34c-3.35,-0.07 -8.08,-2.29 -10.82,-5.26 -2.59,2.82 -5.34,5.64 -8,8.39 5.03,4.49 12.26,6.78 18.82,7.01l0 5.57 5.64 0 0 -5.57c8.92,-0.3 17.61,-5.57 17.61,-16.69 0,-10.9 -9.46,-14.26 -17.3,-16.61l0 -12.2c3.2,0.08 7.17,1.61 9.68,4.11 2.52,-2.74 4.96,-5.48 7.4,-8.3 -4.73,-3.81 -11.36,-5.64 -17.07,-5.79l0 -5.18 -5.57 0 0 5.26zm-5.33 15.17c0,-3.36 2.59,-5.1 5.33,-5.41l0 11.06c-3.2,-0.84 -5.33,-2.44 -5.33,-5.64zm10.59 18.14c3.2,0.99 5.57,2.59 5.57,6.1 0,3.5 -2.14,5.79 -5.57,5.94l0 -12.05z"/>
   <path class="fil20" d="M2292.25 1090.83c8.92,-0.31 17.61,-5.57 17.61,-16.7 0,-10.9 -9.46,-14.25 -17.3,-16.62l0 -12.19c3.2,0.07 7.17,1.6 9.68,4.11 2.52,-2.74 4.96,-5.49 7.4,-8.3 -4.73,-3.82 -11.36,-5.64 -17.07,-5.8l0 -5.18 -5.57 0 0 5.26c-8,0.38 -16.99,6.02 -16.99,16 0,10.21 7.85,13.57 16.61,15.93l0 13.34c-3.35,-0.07 -8.08,-2.28 -10.82,-5.26 -2.59,2.82 -5.34,5.63 -8,8.38 5.03,4.5 12.26,6.78 18.82,7.02l0 5.56 5.64 0 0 -5.56zm-5.26 -34.61c-3.2,-0.84 -5.33,-2.43 -5.33,-5.64 0,-3.35 2.59,-5.11 5.33,-5.41l0 11.06zm10.83 18.59c0,3.51 -2.14,5.8 -5.57,5.94l0 -12.04c3.2,0.99 5.57,2.59 5.57,6.09z"/>
   <path class="fil21" d="M2119.59 1090.83c8.93,-0.31 17.61,-5.57 17.61,-16.7 0,-10.9 -9.45,-14.25 -17.3,-16.62l0 -12.19c3.2,0.07 7.16,1.6 9.68,4.11 2.51,-2.74 4.96,-5.49 7.4,-8.3 -4.72,-3.82 -11.36,-5.64 -17.07,-5.8l0 -5.18 -5.57 0 0 5.26c-8,0.38 -16.99,6.02 -16.99,16 0,10.21 7.85,13.57 16.61,15.93l0 13.34c-3.36,-0.07 -8.09,-2.28 -10.82,-5.26 -2.59,2.82 -5.34,5.63 -8.01,8.38 5.04,4.5 12.27,6.78 18.83,7.02l0 5.56 5.63 0 0 -5.56zm0 -22.11c3.2,0.99 5.57,2.59 5.57,6.09 0,3.51 -2.13,5.8 -5.57,5.94l0 -12.04zm-5.26 -12.5c-3.2,-0.84 -5.33,-2.43 -5.33,-5.64 0,-3.35 2.59,-5.11 5.33,-5.41l0 11.06z"/>
   <path class="fil22" d="M1078.54 1184.8c-14.99,0.03 -27.91,-7.07 -32.21,9.41 -9.06,2.53 -3.88,23.68 -4.99,26.32 -1.13,2.64 -1.3,5.12 -1.29,7.76 -0.01,2.6 0.33,5.5 1.29,7.74 1.28,3.04 2.89,3.68 5.48,4.54 2.4,18.95 16.73,31.15 31.73,31.18 15,-0.03 29.33,-12.23 31.72,-31.18 2.59,-0.86 4.2,-1.5 5.49,-4.54 0.94,-2.24 1.3,-5.14 1.29,-7.74 0.01,-2.64 -0.35,-5.51 -1.29,-7.76 -1.28,-3.04 -2.89,-3.69 -5.49,-4.55 10.8,-33.91 -16.72,-31.15 -31.73,-31.18zm-17.68 19.35c7.64,0 30.55,7.67 39.05,1.94 5.09,5.4 5.87,14.81 5.31,25.98l2.5 -0.85 1.66 -12.61c2.04,0.7 2.93,0.93 3.8,3 0.43,0.98 0.7,2.14 0.85,3.36 0.04,0.32 0.07,0.62 0.1,0.93 0.07,0.73 0.11,1.54 0.12,2.39 -0.01,0.82 -0.05,1.63 -0.12,2.37 -0.03,0.31 -0.07,0.63 -0.09,0.94 -0.17,1.2 -0.44,2.37 -0.87,3.35 -0.87,2.06 -1.76,2.3 -3.8,2.99l-1.66 0.56 -0.22 1.73c-0.92,7.34 -3.88,14.3 -8.96,19.71 -4.4,4.67 -10.2,7.93 -16.58,8.8 -1.13,0.15 -2.28,0.24 -3.42,0.24 -1.13,0 -2.28,-0.09 -3.41,-0.24 -6.38,-0.87 -12.17,-4.13 -16.57,-8.8 -5.1,-5.41 -8.05,-12.37 -8.98,-19.71l-0.22 -1.73 -1.66 -0.56c-2.04,-0.69 -2.93,-0.93 -3.8,-2.99 -0.42,-0.98 -0.69,-2.15 -0.85,-3.36 -0.04,-0.3 -0.07,-0.62 -0.11,-0.93 -0.07,-0.74 -0.1,-1.54 -0.1,-2.37 0,-0.85 0.03,-1.65 0.1,-2.39 0.03,-0.31 0.07,-0.61 0.1,-0.94 0.17,-1.21 0.44,-2.37 0.86,-3.35 0.87,-2.07 1.76,-2.3 3.8,-3l1.66 12.61 2.85 0.91c1.3,-10.35 -1.87,-27.99 8.65,-27.99z"/>
   <path class="fil23" d="M1021.15 1194.13c-0.29,-7.12 -6.86,-12.15 -9.97,-13.86 2.65,0.89 14.93,8.54 8.89,22.65 1.99,-0.67 2.98,-4.71 2.98,-4.67 -0.42,3.34 -1.77,6.52 -4.09,8.98 -2,2.13 -4.64,3.6 -7.56,4.01 -0.51,0.07 -1.02,0.1 -1.55,0.1 -0.52,0 -1.04,-0.03 -1.55,-0.1 -2.91,-0.41 -5.55,-1.88 -7.56,-4.01 -2.32,-2.46 -3.67,-5.64 -4.09,-8.98 0.74,1.31 1.1,1.81 2.4,3.52 -5.15,-32.46 12.56,-4.74 22.08,-7.64zm7.24 15.3c-5.85,-8.76 5.88,-34.64 -18.53,-34.86 -22.76,-0.19 -15.19,28.5 -18.56,34.86 1.47,-1.27 6.89,-1.71 8.33,-1.51 2.71,2.99 6.43,4.69 10.23,4.7 3.78,-0.02 7.47,-1.73 10.19,-4.71 1.87,-0.41 6.75,0 8.33,1.52z"/>
   <path class="fil24" d="M1179.48 1157.04c-67.43,-0.58 -44.99,84.4 -54.96,103.24 4.34,-3.76 20.42,-5.08 24.68,-4.49 8.04,8.85 19.03,13.9 30.28,13.93 11.2,-0.03 22.14,-5.1 30.2,-13.94 5.52,-1.2 20,0 24.69,4.5 -17.35,-25.93 17.39,-102.6 -54.89,-103.24zm-31.97 80.56c-15.24,-96.14 37.21,-14.02 65.41,-22.62 -0.85,-21.09 -20.33,-36 -29.51,-41.06 7.81,2.62 44.22,25.28 26.33,67.08 5.89,-1.97 8.83,-13.94 8.82,-13.81 -1.26,9.89 -5.25,19.3 -12.11,26.59 -5.95,6.3 -13.77,10.69 -22.38,11.87 -1.52,0.21 -3.06,0.32 -4.59,0.32 -1.56,0 -3.08,-0.11 -4.6,-0.32 -8.62,-1.18 -16.44,-5.57 -22.37,-11.87 -6.87,-7.3 -10.86,-16.7 -12.1,-26.59 2.19,3.86 3.23,5.37 7.1,10.41z"/>
   <path class="fil25" d="M1108.82 1117.94c3.11,2.08 28.32,2.08 31.43,0 3.74,3.98 4.31,10.88 3.92,19.11l1.84 -0.63 1.22 -9.28c1.49,0.5 2.15,0.68 2.79,2.21 0.31,0.71 0.51,1.57 0.63,2.47 0.03,0.22 0.05,0.46 0.08,0.69 0.04,0.54 0.07,1.13 0.07,1.74 0,0.61 -0.03,1.2 -0.07,1.74 -0.04,0.23 -0.05,0.46 -0.07,0.69 -0.13,0.89 -0.33,1.75 -0.64,2.47 -0.64,1.52 -1.3,1.7 -2.79,2.2l-1.22 0.42 -0.17 1.28c-0.68,5.4 -2.85,10.51 -6.6,14.5 -3.23,3.43 -7.5,5.82 -12.2,6.47 -0.83,0.11 -1.67,0.17 -2.51,0.17 -0.83,0 -1.67,-0.06 -2.5,-0.17 -4.69,-0.65 -8.96,-3.05 -12.2,-6.47 -3.74,-3.99 -5.92,-9.1 -6.6,-14.5l-0.16 -1.28 -1.22 -0.42c-1.5,-0.5 -2.15,-0.68 -2.8,-2.2 -0.3,-0.72 -0.5,-1.58 -0.62,-2.47 -0.03,-0.23 -0.05,-0.46 -0.07,-0.69 -0.05,-0.54 -0.09,-1.13 -0.09,-1.74 0,-0.62 0.04,-1.21 0.09,-1.74 0.02,-0.23 0.05,-0.46 0.07,-0.7 0.13,-0.89 0.33,-1.75 0.63,-2.46 0.65,-1.53 1.3,-1.7 2.8,-2.21l1.22 9.28 1.84 0.63c-0.4,-8.24 0.17,-15.13 3.91,-19.11zm15.71 48.3c11.04,-0.04 21.58,-9 23.34,-22.93 1.91,-0.65 3.09,-1.13 4.04,-3.35 0.69,-1.65 0.95,-3.77 0.94,-5.7 0.01,-1.94 -0.25,-4.05 -0.94,-5.7 -0.95,-2.23 -2.13,-2.7 -4.04,-3.35 6.97,-21.92 -30.94,-18.09 -39.03,-25.34 -11.14,5.28 -10.09,12.84 -7.64,25.34 -1.91,0.65 -3.09,1.11 -4.04,3.35 -0.69,1.65 -0.94,3.76 -0.94,5.7 0,1.93 0.25,4.05 0.94,5.7 0.95,2.22 2.13,2.7 4.04,3.35 1.76,13.93 12.31,22.89 23.33,22.93z"/>
   <path class="fil26" d="M1166.59 1114.27c-4.16,1.17 -1.78,10.88 -2.3,12.11 -0.5,1.21 -0.59,2.35 -0.59,3.56 0,1.21 0.16,2.54 0.59,3.57 0.59,1.39 1.34,1.69 2.53,2.08 1.1,8.72 7.69,14.32 14.59,14.34 6.89,-0.02 13.49,-5.61 14.59,-14.34 1.19,-0.39 1.93,-0.69 2.52,-2.08 0.43,-1.03 0.59,-2.36 0.59,-3.57 0,-1.21 -0.17,-2.54 -0.59,-3.56 -0.59,-1.4 -1.33,-1.7 -2.52,-2.11 4.96,-15.58 -7.7,-14.31 -14.59,-14.33 -6.9,0.02 -12.84,-3.25 -14.82,4.33zm6.69 4.57c3.51,0 14.05,3.52 17.96,0.89 2.34,2.48 2.69,6.81 2.44,11.96l1.15 -0.39 0.76 -5.81c0.94,0.33 1.35,0.43 1.74,1.39 0.19,0.45 0.32,0.98 0.39,1.54 0.02,0.14 0.04,0.28 0.04,0.43 0.04,0.33 0.06,0.7 0.06,1.09 0,0.38 -0.02,0.76 -0.06,1.09 -0.01,0.14 -0.02,0.29 -0.04,0.43 -0.07,0.56 -0.2,1.09 -0.39,1.54 -0.39,0.95 -0.8,1.06 -1.74,1.38l-0.76 0.25 -0.1 0.8c-0.42,3.37 -1.78,6.58 -4.12,9.07 -2.02,2.15 -4.69,3.64 -7.62,4.04 -0.52,0.07 -1.06,0.1 -1.57,0.1 -0.53,0 -1.06,-0.03 -1.56,-0.1 -2.94,-0.4 -5.6,-1.89 -7.62,-4.04 -2.35,-2.49 -3.71,-5.69 -4.14,-9.07l-0.1 -0.8 -0.76 -0.25c-0.93,-0.32 -1.34,-0.43 -1.74,-1.38 -0.19,-0.45 -0.32,-0.99 -0.39,-1.54 -0.02,-0.14 -0.04,-0.29 -0.05,-0.43 -0.04,-0.33 -0.05,-0.71 -0.05,-1.09 0,-0.39 0.02,-0.76 0.05,-1.09 0.01,-0.15 0.03,-0.29 0.03,-0.44 0.09,-0.55 0.22,-1.07 0.41,-1.53 0.4,-0.96 0.81,-1.06 1.74,-1.39l0.76 5.81 1.31 0.42c0.59,-4.77 -0.87,-12.88 3.98,-12.88z"/>
   <path class="fil27" d="M1258.47 1127.09c-29.57,-0.24 -19.74,47.96 -24.09,56.22 1.79,-1.56 7.44,-2.02 13.07,-2.13 0.85,-0.79 1.4,-1.74 1.42,-2.88l0.06 -4.54c2.21,1.58 4.76,2.65 7.46,3.03 4.19,0.57 8.29,-0.6 11.68,-3.03l0.06 4.54c0.01,1.07 0.51,1.99 1.3,2.75 5.64,0.04 11.27,0.46 13.14,2.26 -7.61,-11.37 7.63,-55.94 -24.09,-56.22zm-14.02 35.35c-6.69,-42.18 16.33,-6.15 28.7,-9.93 -0.37,-9.26 -8.91,-15.79 -12.94,-18.01 3.43,1.15 19.39,11.09 11.54,29.43 2.58,-0.88 3.87,-6.13 3.86,-6.06 -0.54,4.35 -2.29,8.46 -5.3,11.66 -2.61,2.77 -6.04,4.7 -9.81,5.2 -0.68,0.1 -1.34,0.14 -2.03,0.14 -0.67,0 -1.33,-0.04 -2.01,-0.14 -3.78,-0.5 -7.22,-2.44 -9.81,-5.2 -3.01,-3.2 -4.77,-7.31 -5.31,-11.66 0.97,1.7 1.42,2.36 3.12,4.57z"/>
   <path class="fil28" d="M1080.2 1099.63c12.01,-37.73 -4.46,-43.72 -33.49,-43.72 -71.98,0.19 -41.72,20.98 -53.77,49.48 -1.41,3.34 -1.64,6.49 -1.64,9.81 0,3.31 0.44,6.96 1.64,9.81 1.63,3.85 3.65,4.66 6.94,5.77 3.02,23.99 21.17,39.41 40.17,39.47 18.99,-0.06 37.14,-15.48 40.15,-39.47 3.3,-1.11 5.32,-1.92 6.95,-5.77 1.2,-2.85 1.64,-6.5 1.64,-9.81 0,-3.33 -0.44,-6.97 -1.64,-9.81 -1.63,-3.84 -3.65,-4.65 -6.95,-5.75zm-62.56 -14.99c9.69,0 38.68,9.71 49.43,2.46 6.46,6.84 7.44,18.76 6.75,32.91l3.16 -1.07 2.1 -15.97c2.57,0.87 3.71,1.16 4.83,3.8 0.52,1.24 0.85,2.71 1.07,4.25 0.03,0.39 0.08,0.79 0.13,1.17 0.07,0.93 0.12,1.96 0.13,3.01 -0.02,1.06 -0.06,2.07 -0.13,3.01 -0.05,0.38 -0.1,0.77 -0.13,1.18 -0.22,1.54 -0.56,3 -1.07,4.25 -1.12,2.61 -2.25,2.92 -4.83,3.79l-2.1 0.71 -0.28 2.19c-1.17,9.28 -4.91,18.1 -11.35,24.96 -5.57,5.91 -12.9,10.02 -21,11.12 -1.43,0.2 -2.87,0.31 -4.31,0.31 -1.44,0 -2.87,-0.11 -4.3,-0.31 -8.1,-1.1 -15.44,-5.21 -21.01,-11.12 -6.44,-6.86 -10.18,-15.68 -11.36,-24.96l-0.28 -2.19 -2.08 -0.71c-2.59,-0.87 -3.72,-1.18 -4.83,-3.79 -0.52,-1.24 -0.87,-2.71 -1.07,-4.26 -0.05,-0.39 -0.09,-0.79 -0.13,-1.17 -0.09,-0.94 -0.14,-1.95 -0.14,-3.01 0,-1.05 0.05,-2.08 0.14,-3.01 0.04,-0.39 0.07,-0.78 0.12,-1.19 0.21,-1.52 0.56,-2.99 1.08,-4.23 1.11,-2.64 2.24,-2.93 4.83,-3.8l2.08 15.97 3.62 1.14c1.65,-13.1 -2.38,-35.44 10.93,-35.44z"/>
   <path class="fil29" d="M1138.19 995.41c-51.06,-0.43 -34.07,82.79 -41.61,97.06 3.11,-2.7 12.86,-3.51 22.57,-3.69 1.48,-1.36 2.43,-3.02 2.46,-4.97l0.09 -7.82c3.8,2.73 8.21,4.57 12.89,5.23 7.23,0.99 14.31,-1.05 20.14,-5.23l0.11 7.82c0.02,1.87 0.88,3.44 2.23,4.76 9.74,0.07 19.47,0.79 22.69,3.9 -13.13,-19.63 13.18,-96.57 -41.57,-97.05zm-3.48 82.28c-6.52,-0.89 -12.46,-4.22 -16.94,-8.99 -5.2,-5.53 -8.23,-12.64 -9.18,-20.14 1.67,2.93 2.45,4.08 5.39,7.88 -11.54,-72.82 28.19,-10.63 49.55,-17.14 -0.64,-15.98 -15.41,-27.27 -22.35,-31.09 5.91,1.99 33.49,19.15 19.95,50.82 4.44,-1.51 6.69,-10.57 6.66,-10.47 -0.93,7.5 -3.95,14.61 -9.17,20.14 -4.49,4.78 -10.41,8.1 -16.94,8.99 -1.17,0.17 -2.31,0.24 -3.49,0.24 -1.16,0 -2.32,-0.08 -3.48,-0.24z"/>
   <path class="fil30" d="M1228.41 1043.94c-10.04,9 -37.58,10.2 -28.94,37.38 -2.37,0.8 -3.83,1.39 -5,4.15 -0.87,2.05 -1.17,4.68 -1.17,7.07 0,2.39 0.3,5.02 1.17,7.07 1.17,2.77 2.64,3.35 5,4.14 2.17,17.31 15.26,28.42 28.94,28.45 13.69,-0.04 26.76,-11.14 28.94,-28.45 2.35,-0.79 3.82,-1.37 5,-4.14 0.87,-2.05 1.18,-4.67 1.18,-7.07 0,-2.39 -0.31,-5.02 -1.18,-7.07 -1.17,-2.76 -2.65,-3.35 -5,-4.15 8.63,-27.18 -18.91,-28.38 -28.94,-37.38zm-19.49 28.34c3.85,2.6 35.11,2.6 38.97,0 4.64,4.94 5.35,13.52 4.86,23.72l2.28 -0.78 1.5 -11.51c1.87,0.65 2.68,0.85 3.47,2.74 0.39,0.9 0.64,1.96 0.78,3.06 0.04,0.28 0.07,0.56 0.1,0.85 0.06,0.66 0.1,1.4 0.1,2.17 0,0.76 -0.04,1.5 -0.1,2.17 -0.04,0.28 -0.07,0.57 -0.1,0.86 -0.14,1.09 -0.39,2.16 -0.78,3.06 -0.79,1.89 -1.6,2.1 -3.47,2.74l-1.5 0.5 -0.21 1.58c-0.83,6.69 -3.53,13.05 -8.19,17.98 -4,4.26 -9.29,7.23 -15.12,8.02 -1.04,0.15 -2.07,0.21 -3.11,0.21 -1.04,0 -2.07,-0.06 -3.11,-0.21 -5.83,-0.8 -11.13,-3.77 -15.13,-8.02 -4.65,-4.94 -7.35,-11.3 -8.19,-17.98l-0.19 -1.58 -1.51 -0.5c-1.86,-0.64 -2.68,-0.85 -3.48,-2.74 -0.37,-0.9 -0.61,-1.96 -0.77,-3.07 -0.04,-0.28 -0.07,-0.57 -0.09,-0.85 -0.07,-0.66 -0.1,-1.4 -0.1,-2.17 0,-0.76 0.03,-1.5 0.1,-2.17 0.03,-0.29 0.06,-0.57 0.09,-0.86 0.17,-1.1 0.41,-2.16 0.78,-3.06 0.8,-1.89 1.62,-2.09 3.48,-2.74l1.51 11.51 2.28 0.78c-0.5,-10.2 0.2,-18.78 4.85,-23.72z"/>
   <path class="fil31" d="M1208.52 1039.23c1.86,-0.4 6.76,0 8.33,1.52 -5.85,-8.75 5.88,-34.64 -18.53,-34.85 -22.76,-0.19 -15.19,28.5 -18.56,34.86 1.47,-1.28 6.89,-1.71 8.34,-1.53 2.71,2.99 6.42,4.7 10.22,4.71 3.78,-0.01 7.46,-1.72 10.19,-4.71zm-8.87 -27.63c2.65,0.88 14.93,8.53 8.89,22.64 1.99,-0.66 2.98,-4.71 2.98,-4.66 -0.42,3.34 -1.77,6.5 -4.09,8.97 -2,2.13 -4.65,3.61 -7.56,4.02 -0.51,0.07 -1.03,0.1 -1.55,0.1 -0.52,0 -1.03,-0.03 -1.56,-0.1 -2.9,-0.41 -5.54,-1.89 -7.55,-4.02 -2.31,-2.47 -3.67,-5.63 -4.09,-8.97 0.74,1.3 1.1,1.82 2.4,3.51 -2.95,-14.72 3.76,-18.03 8.93,-12.75 4.66,4.76 12.53,7.06 11.18,12.14 5.34,-9.02 -4.9,-19.17 -8,-20.88z"/>
   <path class="fil32" d="M1088.92 1017.97c4.94,-15.52 -1.84,-17.98 -13.78,-17.98 -29.61,0.07 -17.17,8.63 -22.12,20.35 -0.58,1.38 -0.67,2.68 -0.67,4.04 0,1.37 0.18,2.86 0.67,4.04 0.67,1.58 1.5,1.92 2.86,2.38 1.24,9.85 8.71,16.2 16.52,16.23 7.81,-0.03 15.28,-6.37 16.52,-16.23 1.35,-0.46 2.19,-0.8 2.85,-2.38 0.5,-1.17 0.67,-2.67 0.67,-4.04 0,-1.36 -0.17,-2.87 -0.67,-4.04 -0.67,-1.58 -1.5,-1.91 -2.85,-2.37zm-25.73 -6.17c3.99,0 15.91,4 20.33,1.01 2.66,2.81 3.06,7.72 2.78,13.54l1.29 -0.44 0.87 -6.57c1.06,0.35 1.53,0.48 1.99,1.56 0.21,0.51 0.35,1.11 0.44,1.74 0.02,0.16 0.03,0.33 0.06,0.49 0.03,0.37 0.05,0.8 0.05,1.24 0,0.43 -0.02,0.85 -0.05,1.24 -0.03,0.15 -0.04,0.32 -0.06,0.48 -0.08,0.63 -0.23,1.23 -0.44,1.74 -0.46,1.07 -0.93,1.2 -1.99,1.56l-0.87 0.3 -0.11 0.9c-0.48,3.82 -2.02,7.44 -4.68,10.27 -2.28,2.43 -5.3,4.13 -8.63,4.57 -0.59,0.08 -1.18,0.13 -1.78,0.13 -0.59,0 -1.18,-0.04 -1.77,-0.13 -3.33,-0.44 -6.35,-2.14 -8.64,-4.57 -2.65,-2.82 -4.19,-6.45 -4.67,-10.27l-0.12 -0.9 -0.85 -0.3c-1.07,-0.36 -1.53,-0.49 -1.99,-1.56 -0.21,-0.51 -0.36,-1.11 -0.44,-1.74 -0.02,-0.16 -0.04,-0.33 -0.05,-0.48 -0.04,-0.39 -0.06,-0.81 -0.06,-1.24 0,-0.44 0.02,-0.87 0.06,-1.24 0.02,-0.16 0.03,-0.33 0.05,-0.49 0.08,-0.64 0.23,-1.23 0.44,-1.74 0.46,-1.08 0.92,-1.21 1.99,-1.56l0.85 6.57 1.49 0.47c0.68,-5.39 -0.97,-14.57 4.5,-14.57z"/>
  </g>
 </g>
</svg>
