<?xml version="1.0" encoding="UTF-8"?>
<!DOCTYPE svg PUBLIC "-//W3C//DTD SVG 1.1//EN" "http://www.w3.org/Graphics/SVG/1.1/DTD/svg11.dtd">
<!-- Creator: CorelDRAW 2019 (64-Bit) -->
<svg xmlns="http://www.w3.org/2000/svg" xml:space="preserve" width="10.5497in" height="8.4865in" version="1.1" style="shape-rendering:geometricPrecision; text-rendering:geometricPrecision; image-rendering:optimizeQuality; fill-rule:evenodd; clip-rule:evenodd"
viewBox="0 0 9873.35 7942.45"
 xmlns:xlink="http://www.w3.org/1999/xlink">
 <defs>
  <style type="text/css">
   <![CDATA[
    .fil52 {fill:none}
    .fil51 {fill:#717F99}
    .fil41 {fill:black}
    .fil21 {fill:black}
    .fil50 {fill:#181712}
    .fil55 {fill:#241E1E}
    .fil40 {fill:#242424}
    .fil42 {fill:#252422}
    .fil27 {fill:#333333}
    .fil38 {fill:#3B3B3B}
    .fil44 {fill:#414141}
    .fil18 {fill:#999999}
    .fil9 {fill:#E2E9DB}
    .fil0 {fill:white}
    .fil1 {fill:white}
    .fil39 {fill:black;fill-opacity:0.301961}
    .fil23 {fill:black;fill-opacity:0.501961}
    .fil58 {fill:#333333;fill-opacity:0.501961}
    .fil31 {fill:#4D4D4D;fill-opacity:0.501961}
    .fil45 {fill:url(#id22)}
    .fil54 {fill:url(#id23)}
    .fil49 {fill:url(#id24)}
    .fil47 {fill:url(#id25)}
    .fil19 {fill:url(#id26)}
    .fil26 {fill:url(#id27)}
    .fil3 {fill:url(#id28)}
    .fil48 {fill:url(#id29)}
    .fil10 {fill:url(#id30)}
    .fil25 {fill:url(#id31)}
    .fil33 {fill:url(#id32)}
    .fil2 {fill:url(#id33)}
    .fil34 {fill:url(#id34)}
    .fil30 {fill:url(#id35)}
    .fil22 {fill:url(#id36)}
    .fil32 {fill:url(#id37)}
    .fil24 {fill:url(#id38)}
    .fil57 {fill:url(#id39)}
    .fil29 {fill:url(#id40)}
    .fil28 {fill:url(#id41)}
    .fil20 {fill:url(#id42)}
    .fil36 {fill:url(#id43)}
    .fil12 {fill:url(#id44)}
    .fil14 {fill:url(#id45)}
    .fil17 {fill:url(#id46)}
    .fil13 {fill:url(#id47)}
    .fil43 {fill:url(#id48)}
    .fil46 {fill:url(#id49)}
    .fil4 {fill:url(#id50)}
    .fil15 {fill:url(#id51)}
    .fil16 {fill:url(#id52)}
    .fil7 {fill:url(#id53)}
    .fil8 {fill:url(#id54)}
    .fil6 {fill:url(#id55)}
    .fil5 {fill:url(#id56)}
    .fil11 {fill:url(#id57)}
    .fil37 {fill:url(#id58)}
    .fil56 {fill:url(#id59)}
    .fil53 {fill:url(#id60)}
    .fil35 {fill:url(#id61);fill-rule:nonzero}
   ]]>
  </style>
      <clipPath id="id0">
       <rect width="9873.35" height="7942.45"/>
      </clipPath>
      <mask id="id1">
  <linearGradient id="id2" gradientUnits="userSpaceOnUse" x1="3209.54" y1="4124.88" x2="4651.22" y2="4124.48">
   <stop offset="0" style="stop-opacity:1; stop-color:white"/>
   <stop offset="0.0901961" style="stop-opacity:16.0588; stop-color:white"/>
   <stop offset="1" style="stop-opacity:0; stop-color:white"/>
  </linearGradient>
       <rect style="fill:url(#id2)" x="4150.5" y="4124.51" width="758.71" height="2592.09"/>
      </mask>
      <mask id="id3">
  <linearGradient id="id4" gradientUnits="userSpaceOnUse" x1="9028.66" y1="4091.1" x2="5510.27" y2="4127.41">
   <stop offset="0" style="stop-opacity:1; stop-color:white"/>
   <stop offset="0.341176" style="stop-opacity:-97.8863; stop-color:white"/>
   <stop offset="1" style="stop-opacity:0; stop-color:white"/>
  </linearGradient>
       <rect style="fill:url(#id4)" x="5130.88" y="4124.51" width="758.71" height="598.96"/>
      </mask>
      <mask id="id5">
  <linearGradient id="id6" gradientUnits="userSpaceOnUse" x1="3209.54" y1="2947.96" x2="4651.22" y2="2947.01">
   <stop offset="0" style="stop-opacity:1; stop-color:white"/>
   <stop offset="0.0901961" style="stop-opacity:16.0588; stop-color:white"/>
   <stop offset="1" style="stop-opacity:0; stop-color:white"/>
  </linearGradient>
       <rect style="fill:url(#id6)" x="4150.5" y="2947.41" width="758.71" height="1095.62"/>
      </mask>
      <mask id="id7">
  <linearGradient id="id8" gradientUnits="userSpaceOnUse" x1="9028.79" y1="2946.02" x2="5510.14" y2="2966.54">
   <stop offset="0" style="stop-opacity:1; stop-color:white"/>
   <stop offset="0.341176" style="stop-opacity:-97.8863; stop-color:white"/>
   <stop offset="1" style="stop-opacity:0; stop-color:white"/>
  </linearGradient>
       <rect style="fill:url(#id8)" x="5130.88" y="2983.28" width="758.71" height="1059.76"/>
      </mask>
      <mask id="id9">
  <linearGradient id="id10" gradientUnits="userSpaceOnUse" x1="7349.66" y1="7412.1" x2="7354.61" y2="7230.29">
   <stop offset="0" style="stop-opacity:1; stop-color:white"/>
   <stop offset="1" style="stop-opacity:0; stop-color:white"/>
  </linearGradient>
       <rect style="fill:url(#id10)" x="4827.7" y="6878.65" width="5048.9" height="1067.05"/>
      </mask>
      <mask id="id11">
  <linearGradient id="id12" gradientUnits="userSpaceOnUse" x1="2418.08" y1="7412.1" x2="2412.91" y2="7230.29">
   <stop offset="0" style="stop-opacity:1; stop-color:white"/>
   <stop offset="1" style="stop-opacity:0; stop-color:white"/>
  </linearGradient>
       <rect style="fill:url(#id12)" x="-3.25" y="6878.65" width="4837.45" height="1067.05"/>
      </mask>
      <mask id="id13">
  <linearGradient id="id14" gradientUnits="userSpaceOnUse" x1="1800.09" y1="7230.39" x2="1820.06" y2="6954.36">
   <stop offset="0" style="stop-opacity:1; stop-color:white"/>
   <stop offset="1" style="stop-opacity:0; stop-color:white"/>
  </linearGradient>
       <rect style="fill:url(#id14)" x="884.63" y="6878.65" width="1486.77" height="605.46"/>
      </mask>
      <mask id="id15">
  <linearGradient id="id16" gradientUnits="userSpaceOnUse" x1="7590.9" y1="7230.39" x2="7570.92" y2="6954.36">
   <stop offset="0" style="stop-opacity:1; stop-color:white"/>
   <stop offset="1" style="stop-opacity:0; stop-color:white"/>
  </linearGradient>
       <rect style="fill:url(#id16)" x="7019.59" y="6878.65" width="1486.76" height="605.46"/>
      </mask>
     <clipPath id="id17">
      <path d="M3381.72 6247.1l0 394.8 889.57 0 -21.31 -198.28 21.12 -196.53 -889.39 0z"/>
     </clipPath>
       <clipPath id="id18">
        <path d="M3381.72 6247.1l0 394.8 449.24 0 0 -394.8 -449.24 0z"/>
       </clipPath>
       <clipPath id="id19">
        <path d="M3381.72 6247.1l0 394.8 889.57 0 -21.31 -198.28 21.12 -196.53 -889.39 0z"/>
       </clipPath>
       <clipPath id="id20">
        <path d="M3822.07 6641.91l449.22 0 -21.31 -198.28 21.12 -196.53 -449.04 0 0 394.8z"/>
       </clipPath>
       <clipPath id="id21">
        <path d="M3381.72 6247.1l0 394.8 889.57 0 -21.31 -198.28 21.12 -196.53 -889.39 0z"/>
       </clipPath>
  <linearGradient id="id22" gradientUnits="userSpaceOnUse" x1="3606.46" y1="5497.34" x2="3027.25" y2="5497.29">
   <stop offset="0" style="stop-opacity:1; stop-color:#333333"/>
   <stop offset="1" style="stop-opacity:1; stop-color:#666666"/>
  </linearGradient>
  <linearGradient id="id23" gradientUnits="userSpaceOnUse" x1="5770.32" y1="6015.74" x2="5770.37" y2="5551.82">
   <stop offset="0" style="stop-opacity:1; stop-color:black"/>
   <stop offset="1" style="stop-opacity:1; stop-color:#4D4D4D"/>
  </linearGradient>
  <linearGradient id="id24" gradientUnits="userSpaceOnUse" xlink:href="#id22" x1="3201.8" y1="6073.14" x2="3027.25" y2="6073.09">
  </linearGradient>
  <linearGradient id="id25" gradientUnits="userSpaceOnUse" xlink:href="#id22" x1="3606.46" y1="5792.66" x2="3027.25" y2="5792.61">
  </linearGradient>
  <linearGradient id="id26" gradientUnits="userSpaceOnUse" x1="3898.98" y1="4114.38" x2="6031.12" y2="4124.51">
   <stop offset="0" style="stop-opacity:1; stop-color:#B5846E"/>
   <stop offset="0.458824" style="stop-opacity:1; stop-color:#ECD1B4"/>
   <stop offset="1" style="stop-opacity:1; stop-color:#946651"/>
  </linearGradient>
  <linearGradient id="id27" gradientUnits="userSpaceOnUse" x1="4181.43" y1="3675.02" x2="4749.87" y2="3675.86">
   <stop offset="0" style="stop-opacity:1; stop-color:gray"/>
   <stop offset="0.321569" style="stop-opacity:1; stop-color:#B3B3B3"/>
   <stop offset="0.658824" style="stop-opacity:1; stop-color:gray"/>
   <stop offset="0.839216" style="stop-opacity:1; stop-color:#747474"/>
   <stop offset="0.878431" style="stop-opacity:1; stop-color:#B3B3B3"/>
   <stop offset="0.929412" style="stop-opacity:1; stop-color:#666666"/>
   <stop offset="1" style="stop-opacity:1; stop-color:#666666"/>
  </linearGradient>
  <linearGradient id="id28" gradientUnits="userSpaceOnUse" x1="4838.17" y1="2889.5" x2="4949.2" y2="2889.5">
   <stop offset="0" style="stop-opacity:1; stop-color:#414D47"/>
   <stop offset="0.380392" style="stop-opacity:1; stop-color:#54675D"/>
   <stop offset="0.658824" style="stop-opacity:1; stop-color:#727978"/>
   <stop offset="0.768627" style="stop-opacity:1; stop-color:#54675D"/>
   <stop offset="1" style="stop-opacity:1; stop-color:#414D47"/>
  </linearGradient>
  <linearGradient id="id29" gradientUnits="userSpaceOnUse" x1="3138.37" y1="6072.37" x2="3138.71" y2="6045.06">
   <stop offset="0" style="stop-opacity:1; stop-color:black"/>
   <stop offset="1" style="stop-opacity:1; stop-color:gray"/>
  </linearGradient>
  <linearGradient id="id30" gradientUnits="userSpaceOnUse" x1="8226.35" y1="3042.65" x2="5880.31" y2="1428.4">
   <stop offset="0" style="stop-opacity:1; stop-color:#A1A97D"/>
   <stop offset="1" style="stop-opacity:1; stop-color:#DAE2D2"/>
  </linearGradient>
  <linearGradient id="id31" gradientUnits="userSpaceOnUse" x1="4178.71" y1="3675.09" x2="4752.6" y2="3675.73">
   <stop offset="0" style="stop-opacity:1; stop-color:#B3B3B3"/>
   <stop offset="0.321569" style="stop-opacity:1; stop-color:#B3B3B3"/>
   <stop offset="0.658824" style="stop-opacity:1; stop-color:gray"/>
   <stop offset="0.839216" style="stop-opacity:1; stop-color:#747474"/>
   <stop offset="0.878431" style="stop-opacity:1; stop-color:#B3B3B3"/>
   <stop offset="1" style="stop-opacity:1; stop-color:gray"/>
  </linearGradient>
  <linearGradient id="id32" gradientUnits="userSpaceOnUse" x1="4178.71" y1="4518.25" x2="4752.6" y2="4518.89">
   <stop offset="0" style="stop-opacity:1; stop-color:#E6E6E6"/>
   <stop offset="0.321569" style="stop-opacity:1; stop-color:#B3B3B3"/>
   <stop offset="0.658824" style="stop-opacity:1; stop-color:#B3B3B3"/>
   <stop offset="0.788235" style="stop-opacity:1; stop-color:#B3B3B3"/>
   <stop offset="0.878431" style="stop-opacity:1; stop-color:#E6E6E6"/>
   <stop offset="1" style="stop-opacity:1; stop-color:#E6E6E6"/>
  </linearGradient>
  <linearGradient id="id33" gradientUnits="userSpaceOnUse" xlink:href="#id28" x1="4832.68" y1="1329.87" x2="4948.99" y2="1329.87">
  </linearGradient>
  <linearGradient id="id34" gradientUnits="userSpaceOnUse" x1="4181.43" y1="4518.17" x2="4749.87" y2="4519.02">
   <stop offset="0" style="stop-opacity:1; stop-color:#999999"/>
   <stop offset="0.321569" style="stop-opacity:1; stop-color:#E6E6E6"/>
   <stop offset="0.658824" style="stop-opacity:1; stop-color:#999999"/>
   <stop offset="0.839216" style="stop-opacity:1; stop-color:#999999"/>
   <stop offset="0.878431" style="stop-opacity:1; stop-color:#E6E6E6"/>
   <stop offset="0.929412" style="stop-opacity:1; stop-color:#999999"/>
   <stop offset="1" style="stop-opacity:1; stop-color:gray"/>
  </linearGradient>
  <linearGradient id="id35" gradientUnits="userSpaceOnUse" x1="4149.02" y1="4486.41" x2="4369.67" y2="4487.2">
   <stop offset="0" style="stop-opacity:1; stop-color:black"/>
   <stop offset="0.180392" style="stop-opacity:1; stop-color:#999999"/>
   <stop offset="0.360784" style="stop-opacity:1; stop-color:#E6E6E6"/>
   <stop offset="0.470588" style="stop-opacity:1; stop-color:#B1B1B1"/>
   <stop offset="0.529412" style="stop-opacity:1; stop-color:#E6E6E6"/>
   <stop offset="0.74902" style="stop-opacity:1; stop-color:#E6E6E6"/>
   <stop offset="0.870588" style="stop-opacity:1; stop-color:#666666"/>
   <stop offset="1" style="stop-opacity:1; stop-color:black"/>
  </linearGradient>
  <linearGradient id="id36" gradientUnits="userSpaceOnUse" x1="4149.02" y1="3643.25" x2="4369.67" y2="3644.05">
   <stop offset="0" style="stop-opacity:1; stop-color:black"/>
   <stop offset="0.180392" style="stop-opacity:1; stop-color:gray"/>
   <stop offset="0.360784" style="stop-opacity:1; stop-color:#B3B3B3"/>
   <stop offset="0.470588" style="stop-opacity:1; stop-color:gray"/>
   <stop offset="0.529412" style="stop-opacity:1; stop-color:#B3B3B3"/>
   <stop offset="0.74902" style="stop-opacity:1; stop-color:#B3B3B3"/>
   <stop offset="0.870588" style="stop-opacity:1; stop-color:#4D4D4D"/>
   <stop offset="1" style="stop-opacity:1; stop-color:black"/>
  </linearGradient>
  <linearGradient id="id37" gradientUnits="userSpaceOnUse" x1="4150.98" y1="4495.01" x2="4367.36" y2="4495">
   <stop offset="0" style="stop-opacity:1; stop-color:black"/>
   <stop offset="0.109804" style="stop-opacity:1; stop-color:#333333"/>
   <stop offset="0.25098" style="stop-opacity:1; stop-color:#666666"/>
   <stop offset="0.368627" style="stop-opacity:1; stop-color:#B3B3B3"/>
   <stop offset="0.470588" style="stop-opacity:1; stop-color:#4D4D4D"/>
   <stop offset="1" style="stop-opacity:1; stop-color:black"/>
  </linearGradient>
  <linearGradient id="id38" gradientUnits="userSpaceOnUse" x1="4150.98" y1="3651.85" x2="4367.36" y2="3651.84">
   <stop offset="0" style="stop-opacity:1; stop-color:black"/>
   <stop offset="0.109804" style="stop-opacity:1; stop-color:#1A1A1A"/>
   <stop offset="0.25098" style="stop-opacity:1; stop-color:#333333"/>
   <stop offset="0.368627" style="stop-opacity:1; stop-color:#999999"/>
   <stop offset="0.470588" style="stop-opacity:1; stop-color:#333333"/>
   <stop offset="1" style="stop-opacity:1; stop-color:black"/>
  </linearGradient>
  <linearGradient id="id39" gradientUnits="userSpaceOnUse" x1="5777.56" y1="5988.18" x2="5777.56" y2="5637.06">
   <stop offset="0" style="stop-opacity:1; stop-color:#1A1A1A"/>
   <stop offset="1" style="stop-opacity:1; stop-color:#4D4D4D"/>
  </linearGradient>
  <linearGradient id="id40" gradientUnits="userSpaceOnUse" x1="3916.09" y1="4119.41" x2="6031.13" y2="4124.51">
   <stop offset="0" style="stop-opacity:1; stop-color:black"/>
   <stop offset="0.0196078" style="stop-opacity:1; stop-color:#333333"/>
   <stop offset="0.0313725" style="stop-opacity:1; stop-color:#4D4D4D"/>
   <stop offset="0.0392157" style="stop-opacity:1; stop-color:#999999"/>
   <stop offset="0.0509804" style="stop-opacity:1; stop-color:#666666"/>
   <stop offset="0.101961" style="stop-opacity:1; stop-color:#666666"/>
   <stop offset="0.121569" style="stop-opacity:1; stop-color:#A8A8A8"/>
   <stop offset="0.180392" style="stop-opacity:1; stop-color:#B3B3B3"/>
   <stop offset="0.321569" style="stop-opacity:1; stop-color:#4D4D4D"/>
   <stop offset="0.439216" style="stop-opacity:1; stop-color:#999999"/>
   <stop offset="0.54902" style="stop-opacity:1; stop-color:#4D4D4D"/>
   <stop offset="0.780392" style="stop-opacity:1; stop-color:#999999"/>
   <stop offset="0.960784" style="stop-opacity:1; stop-color:gray"/>
   <stop offset="1" style="stop-opacity:1; stop-color:black"/>
  </linearGradient>
  <linearGradient id="id41" gradientUnits="userSpaceOnUse" xlink:href="#id40" x1="3916.09" y1="4076.4" x2="6031.13" y2="4081.51">
  </linearGradient>
  <linearGradient id="id42" gradientUnits="userSpaceOnUse" xlink:href="#id26" x1="3905.76" y1="2943.06" x2="6031.14" y2="2947.35">
  </linearGradient>
  <linearGradient id="id43" gradientUnits="userSpaceOnUse" xlink:href="#id28" x1="4422.73" y1="2433.84" x2="4422.73" y2="2238.24">
  </linearGradient>
  <linearGradient id="id44" gradientUnits="userSpaceOnUse" x1="8244.8" y1="3204.67" x2="8117.5" y2="3955.08">
   <stop offset="0" style="stop-opacity:1; stop-color:#7F885C"/>
   <stop offset="1" style="stop-opacity:1; stop-color:#BBC0A0"/>
  </linearGradient>
  <linearGradient id="id45" gradientUnits="userSpaceOnUse" xlink:href="#id44" x1="6981.09" y1="3053.95" x2="6826.76" y2="4108.5">
  </linearGradient>
  <linearGradient id="id46" gradientUnits="userSpaceOnUse" x1="1417.7" y1="3264.78" x2="4472.06" y2="1523.37">
   <stop offset="0" style="stop-opacity:1; stop-color:#BBC0A0"/>
   <stop offset="1" style="stop-opacity:1; stop-color:#DAE2D2"/>
  </linearGradient>
  <linearGradient id="id47" gradientUnits="userSpaceOnUse" xlink:href="#id30" x1="7750.46" y1="3577.96" x2="7248.7" y2="2658.04">
  </linearGradient>
  <linearGradient id="id48" gradientUnits="userSpaceOnUse" xlink:href="#id29" x1="3181" y1="5497.34" x2="3181.05" y2="5469.66">
  </linearGradient>
  <linearGradient id="id49" gradientUnits="userSpaceOnUse" xlink:href="#id29" x1="3370.92" y1="5791.9" x2="3371.01" y2="5764.58">
  </linearGradient>
  <linearGradient id="id50" gradientUnits="userSpaceOnUse" xlink:href="#id44" x1="4393.73" y1="2941.66" x2="4050.8" y2="4133.58">
  </linearGradient>
  <linearGradient id="id51" gradientUnits="userSpaceOnUse" xlink:href="#id44" x1="5659.42" y1="2928.98" x2="5365.4" y2="4111.42">
  </linearGradient>
  <linearGradient id="id52" gradientUnits="userSpaceOnUse" xlink:href="#id46" x1="3073.49" y1="2744.93" x2="5900.7" y2="1592.26">
  </linearGradient>
  <linearGradient id="id53" gradientUnits="userSpaceOnUse" xlink:href="#id46" x1="1634.48" y1="5096.68" x2="1397" y2="2281.07">
  </linearGradient>
  <linearGradient id="id54" gradientUnits="userSpaceOnUse" xlink:href="#id46" x1="1394.02" y1="3373.9" x2="2498.28" y2="3025.58">
  </linearGradient>
  <linearGradient id="id55" gradientUnits="userSpaceOnUse" xlink:href="#id44" x1="1679.29" y1="3216.83" x2="1577.17" y2="3928.82">
  </linearGradient>
  <linearGradient id="id56" gradientUnits="userSpaceOnUse" xlink:href="#id44" x1="2970.08" y1="2980.39" x2="2790.19" y2="4146.04">
  </linearGradient>
  <linearGradient id="id57" gradientUnits="userSpaceOnUse" x1="8704.31" y1="3246.91" x2="6297.05" y2="1604.45">
   <stop offset="0" style="stop-opacity:1; stop-color:#A1A97D"/>
   <stop offset="1" style="stop-opacity:1; stop-color:#BBC0A0"/>
  </linearGradient>
  <linearGradient id="id58" gradientUnits="userSpaceOnUse" xlink:href="#id28" x1="4422.7" y1="2065.1" x2="4422.7" y2="1745.08">
  </linearGradient>
  <radialGradient id="id59" gradientUnits="userSpaceOnUse" gradientTransform="matrix(0.000211383 -1.26412 1.38086 -2.22045E-16 -2298 13137)" cx="5770.32" cy="5842.2" r="228.67" fx="5770.32" fy="5842.2">
   <stop offset="0" style="stop-opacity:1; stop-color:black"/>
   <stop offset="0.580392" style="stop-opacity:1; stop-color:#131313"/>
   <stop offset="0.270588" style="stop-opacity:1; stop-color:#333333"/>
   <stop offset="1" style="stop-opacity:1; stop-color:#666666"/>
  </radialGradient>
  <radialGradient id="id60" gradientUnits="userSpaceOnUse" gradientTransform="matrix(0.000127972 -2.02049 2.21428 0.000287938 -7821 17795)" cx="5770.32" cy="6137.49" r="387.68" fx="5770.32" fy="6137.49">
   <stop offset="0" style="stop-opacity:1; stop-color:black"/>
   <stop offset="0.34902" style="stop-opacity:1; stop-color:#B3B3B3"/>
   <stop offset="0.588235" style="stop-opacity:1; stop-color:#333333"/>
   <stop offset="0.266667" style="stop-opacity:1; stop-color:#737373"/>
   <stop offset="1" style="stop-opacity:1; stop-color:#E6E6E6"/>
  </radialGradient>
  <linearGradient id="id61" gradientUnits="userSpaceOnUse" x1="4620.81" y1="2338.28" x2="4622.08" y2="1971.1">
   <stop offset="0" style="stop-opacity:1; stop-color:#B5846E"/>
   <stop offset="0.619608" style="stop-opacity:1; stop-color:#ECD1B4"/>
   <stop offset="1" style="stop-opacity:1; stop-color:#B5846E"/>
  </linearGradient>
 </defs>
 <g id="Layer_x0020_1">
  <metadata id="CorelCorpID_0Corel-Layer"/>
  <g id="_1949555616">
   <g>
    <g>
     <rect class="fil0" x="-0" y="0" width="1272.99" height="7942.44"/>
     <g style="clip-path:url(#id0)">
      <image x="0" y="-0" width="9873.35" height="7942.44" xlink:href="Banner_Images\Banner_ImgID1.png"/>
     </g>
     <polygon class="fil1" points="-0,0 1404.06,0 5781.52,0 4533.27,1207.31 3925.51,3566.61 3910.08,4598.15 1019.74,4657.05 -0,4686.07 -0,3844.3 "/>
     <path class="fil2" d="M4891.58 1038.83l0.01 0c31.57,0 57.4,25.81 57.4,57.43l0 440.55 -114.8 0 0 -440.55c0,-31.62 25.83,-57.43 57.4,-57.43z"/>
     <rect class="fil3" x="4839.61" y="2794.48" width="109.59" height="162.58"/>
     <polygon class="fil1" points="8895.51,4723.47 6036.3,4723.47 6073.64,2971.55 4948.99,2917.13 4948.99,1407.73 7285.04,1748.62 8895.51,2347.49 "/>
     <polygon class="fil1" points="1019.74,4043.04 3928.68,4043.04 3928.68,2965.01 4839.61,2910.59 4833.82,1402.04 2503.55,1742.08 1019.74,1934.56 "/>
     <path class="fil4" d="M3925.51 3566.61c2.8,-157.72 6.1,-349.72 7.75,-445.73 1.65,-96 1.65,-96 9.73,-99.78 8.08,-3.78 24.24,-11.34 72.4,-19.65 48.15,-8.32 128.31,-17.39 211.42,-24.04 83.11,-6.65 169.2,-10.88 250.17,-13.46 80.97,-2.57 156.83,-3.47 247.04,-4.54 36.55,-0.43 75.45,-0.88 115.58,-1.31 0,-49.31 0,-98.62 0,-147.93 -68.89,0.42 -148.85,1.81 -228.57,5.31 -93.01,4.08 -185.69,11.04 -273.59,19.35 -87.9,8.32 -171.02,17.99 -230.39,25.7 -28.96,3.76 -52.26,7.05 -70.69,9.79 0,0 0,0 -44.36,7.7 -4.06,0.71 -8.5,1.47 -13.3,2.31 -5.24,2.27 -7.11,6.21 -10.67,16.19 -5.77,16.18 -16,48.22 -31.34,99.93 -15.34,51.7 -35.78,123.06 -56.89,203.19 -21.11,80.13 -42.88,169.02 -65.8,274.25 -22.92,105.22 -47,226.77 -63,310.23 -16,83.45 -23.91,128.81 -26.88,153.64 -2.97,24.83 -0.99,29.15 3.46,28.7 4.45,-0.45 11.38,-5.67 33.15,-14.64 21.77,-8.96 58.38,-21.66 87.57,-31.34 28.48,-9.44 49.89,-16 71.14,-22.49 1.87,-100.19 3.81,-204.73 6.06,-331.38z"/>
     <path class="fil5" d="M3751.04 3689.22c22.59,-115.54 54.25,-263.4 83.61,-384.19 29.35,-120.8 56.4,-214.53 77.01,-283.77 17.21,-57.82 29.94,-98.56 41.94,-136.48 -49.04,8.76 -121.26,22.35 -207.65,41.88 -112.97,25.53 -250.18,61.21 -363.97,95.08 -113.79,33.87 -204.16,65.91 -292.56,101.29 -34.22,13.7 -68.15,27.89 -101.89,42.39 -18.09,7.77 -36.14,15.64 -54.15,23.56 -1.61,0.7 -3.22,1.41 -4.82,2.12 0.08,-0.55 0.16,-1.09 0.24,-1.64 0.06,-0.42 0.12,-0.83 0.18,-1.25 -15.24,-2.62 -30.48,-5.15 -45.74,-7.56 -15.64,-2.48 -31.3,-4.82 -46.97,-7 -73.88,-10.28 -148.1,-16.94 -217.52,-19.66 -69.43,-2.72 -134.08,-1.51 -188.5,0.15 -26.92,0.83 -51.34,1.76 -79.92,3.88 -39.82,64.66 -80.16,130.94 -125.56,213.37 -50.46,91.62 -107.2,203.19 -148.1,290.12 -27.16,57.72 -47.34,104.58 -65.17,147.78 27.83,-7.53 55.22,-14.8 81.98,-21.7 81.47,-21.02 157,-38.56 251.17,-51.11 94.16,-12.55 206.96,-20.11 330.82,-20.56 123.85,-0.45 258.75,6.2 400.57,31.45 141.83,25.24 290.58,69.09 388.37,103.41 97.79,34.32 144.63,59.11 180.42,78.92 23.12,12.8 41.63,23.51 58.51,33.49 0.8,-5.25 1.63,-10.71 2.51,-16.39 9.07,-58.81 22.59,-142.04 45.19,-257.58z"/>
     <path class="fil6" d="M2087.06 3595.61c56.56,-115.35 124.51,-240.53 170.03,-318.69 34.6,-59.41 56.23,-91.66 74.76,-117.39 -24.89,2.17 -53.45,5.28 -89.27,9.9 -89.05,11.49 -222.97,32.35 -354.49,61.23 -131.52,28.88 -260.65,65.76 -347.89,93.12 -87.24,27.37 -132.59,45.2 -155.27,53.82 -14.88,5.66 -20,7.34 -24.55,7.44 -2.39,0.05 -4.62,-0.32 -8.02,-0.79 -9.9,-1.36 -29.68,-3.48 -60.85,3.78 -31.17,7.26 -73.72,23.88 -103.73,43.09 -30.01,19.2 -47.5,40.97 -77.35,75.89 -11.64,13.61 -25.15,29.23 -39.82,46.07 -3.99,8.79 -7.9,17.54 -11.75,26.26 0.21,-0.02 0.41,-0.04 0.62,-0.06 47.49,-4.99 122.69,-11.64 188.66,-12.85 65.97,-1.21 122.7,3.02 181.08,9.83 58.38,6.8 118.4,16.18 170.19,30.24 51.78,14.06 95.32,32.81 153.04,61.84 57.72,29.02 129.62,68.33 177.29,102.05 23.31,16.49 40.83,31.64 55.37,46.11 0.18,-0.05 0.35,-0.1 0.53,-0.14 31,-71.15 63.67,-143.76 101.43,-220.74z"/>
     <path class="fil7" d="M1381.01 3339.21c20.3,-43.76 44.29,-91.16 77.09,-147.24 56.4,-96.46 138.85,-218.61 219.5,-321.11 80.64,-102.5 159.47,-185.35 241.11,-265.17 81.63,-79.82 166.07,-156.63 267.33,-236.6 101.25,-79.97 219.33,-163.13 330.49,-235.69 28.72,-18.75 56.98,-36.79 84.69,-54.06 -80.8,45.16 -186.78,107.4 -278.81,166.31 -103.35,66.16 -189.1,128.14 -267.11,186.35 -78.01,58.21 -148.26,112.63 -237.15,192.31 -88.89,79.67 -196.41,184.59 -276.89,267.74 -80.48,83.15 -133.91,144.53 -196.59,224.77 -62.67,80.24 -134.58,179.33 -188.01,269.36 -34.81,58.66 -61.78,113.46 -86.02,166.92 14.67,-16.84 28.19,-32.45 39.82,-46.07 29.85,-34.92 47.33,-56.7 77.35,-75.89 30.01,-19.2 72.56,-35.83 103.73,-43.09 31.17,-7.26 50.95,-5.14 60.85,-3.78 3.4,0.46 5.63,0.84 8.02,0.79 6.55,-14.97 13.35,-30.17 20.62,-45.83z"/>
     <path class="fil8" d="M1447.04 3317.76c-23.61,7.48 -45.53,14.61 -66.04,21.46 -7.27,15.67 -14.06,30.87 -20.62,45.83 4.55,-0.1 9.67,-1.79 24.55,-7.44 22.68,-8.62 68.02,-26.46 155.27,-53.82 87.24,-27.37 216.37,-64.25 347.89,-93.12 131.52,-28.88 265.43,-49.74 354.49,-61.23 35.82,-4.62 64.38,-7.73 89.27,-9.9 6.38,-0.56 12.51,-1.05 18.47,-1.49 28.59,-2.12 53.01,-3.05 79.92,-3.88 54.42,-1.67 119.07,-2.87 188.5,-0.15 69.43,2.72 143.64,9.37 217.52,19.66 15.67,2.18 31.33,4.52 46.97,7 15.25,2.41 30.5,4.94 45.74,7.56 1.52,-10.27 3.15,-20.75 4.9,-31.42 0.12,-0.73 0.24,-1.45 0.36,-2.18 -24.83,-4.61 -51.34,-8.93 -80.16,-12.86 -106.37,-14.52 -244.24,-23.73 -389.53,-21.08 -145.29,2.65 -298,17.18 -479.57,54.22 -181.57,37.04 -392,96.6 -537.95,142.85z"/>
     <path class="fil9" d="M2987.53 3165.42c33.74,-14.5 67.67,-28.7 101.89,-42.39 88.39,-35.38 178.77,-67.43 292.56,-101.29 113.79,-33.87 251,-69.54 363.97,-95.08 86.39,-19.53 158.61,-33.12 207.65,-41.88 9.21,-1.64 17.6,-3.12 25.12,-4.43 3.25,-1.4 7.81,-2.16 14.89,-3.32 9.46,-1.55 23.43,-3.81 42.77,-6.69 18.42,-2.74 41.73,-6.03 70.69,-9.79 59.37,-7.71 142.49,-17.39 230.39,-25.7 87.9,-8.31 180.58,-15.27 273.59,-19.35 79.72,-3.5 159.68,-4.89 228.57,-5.31 11.48,-0.07 22.66,-0.11 33.48,-0.14 26.61,-0.05 51.04,0.03 75.33,0.38 44.78,0.66 89.06,2.26 145.59,5.75 87.17,5.38 203.47,15.22 322.64,29.22 119.17,13.99 241.21,32.13 380.39,59.6 79.42,15.67 164.43,34.38 258.08,58.1 7.21,1.82 14.46,3.68 21.77,5.56 64.18,16.55 132.41,35.44 205.64,57.3 135.34,40.39 287.75,90.88 445.08,144.27 15.01,5.09 30.07,10.21 45.17,15.36 0.08,-10.02 0.09,-20.27 -0.05,-30.96 -0,-0.35 -0.01,-0.69 -0.01,-1.04 -57,-22.32 -116.14,-44.77 -179.86,-67.51 -119.73,-42.71 -255.62,-86.41 -404.54,-125.87 -46.93,-12.44 -95.15,-24.45 -144.05,-35.93 -106.29,-24.96 -215.82,-47.4 -322.33,-66.19 -155.51,-27.44 -304.6,-47.09 -444.11,-59.94 -139.52,-12.85 -269.47,-18.9 -380.3,-21.01 -110.82,-2.12 -202.51,-0.31 -322.24,5.84 -119.73,6.14 -267.5,16.6 -401.73,33.54 -134.24,16.93 -254.96,40.33 -364.63,64.65 -109.67,24.32 -208.29,49.55 -323.56,81.3 -115.28,31.75 -247.21,70 -369.24,116.65 -61.7,23.58 -120.87,49.3 -178.8,76.09 -1.15,0.53 -2.3,1.07 -3.46,1.6 -1.75,10.67 -3.39,21.15 -4.9,31.42 1.46,0.25 2.93,0.51 4.4,0.76 18.01,-7.93 36.05,-15.79 54.15,-23.56z"/>
     <path class="fil10" d="M6687.36 2651.49c39.74,138.03 63.82,269.56 75.37,363.14 7.13,57.82 9.47,101.14 10,138.94 0.49,0.19 0.97,0.38 1.45,0.57 20.73,-6.85 41.46,-13.22 62.16,-19.01 92.02,-25.7 183.72,-39.61 280.35,-48.38 96.64,-8.77 198.23,-12.4 313.88,-5.74 115.66,6.65 245.38,23.59 371.7,51.1 126.32,27.51 249.25,65.61 381.36,123.43 67.25,29.43 136.88,63.98 207.69,101.03 -28.53,-65.82 -58.53,-127.17 -94.41,-192.71 -42.06,-76.8 -92.19,-159.34 -147.93,-238.87 -55.74,-79.52 -117.09,-156.02 -183.22,-229.36 -66.13,-73.34 -137.04,-143.53 -194.27,-197.5 -57.23,-53.97 -100.76,-91.73 -176.46,-150.83 -75.7,-59.09 -183.55,-139.53 -302.78,-215.87 -107.94,-69.12 -225.2,-134.89 -330.02,-187.89 -60.1,-28.45 -121.2,-56.88 -182.29,-85.32 -52.64,-22.69 -102.81,-42.74 -153.29,-62.42 -95.82,-37.34 -192.78,-73.32 -372.86,-122.63 -180.09,-49.31 -443.29,-111.96 -710.78,-143.82 -119.71,-14.25 -240.27,-22.34 -356.77,-26.38 26.85,2.17 54.85,4.94 84.02,8.46 120.39,14.51 260.56,41.73 375.68,72.57 115.11,30.84 205.15,65.31 298.66,115.81 93.5,50.49 190.48,117.01 289.76,207.12 99.27,90.11 200.86,203.8 279.36,332.9 78.5,129.11 133.91,273.64 173.65,411.67z"/>
     <path class="fil11" d="M8296.91 3163.85c35.88,65.54 65.89,126.89 94.41,192.71 4.9,11.31 9.76,22.75 14.59,34.36 1.08,2.59 2.16,5.19 3.23,7.8 1.79,0.92 3.59,1.85 5.39,2.78 12.31,-4.97 24.92,-9.23 37.99,-12.49 7.61,-1.9 15.37,-3.45 23.31,-4.59 51.45,-7.41 110.49,2.27 156.67,19.5 46.18,17.24 79.49,42.03 115.27,78.61 19.83,20.27 40.43,44.17 61.36,69.69 -21.89,-40.53 -47.02,-84.31 -84.61,-140.59 -50.79,-76.04 -124.34,-174.92 -214.71,-284.67 -90.38,-109.76 -197.57,-230.41 -326.86,-353.92 -129.29,-123.52 -280.69,-249.91 -421.85,-358 -141.16,-108.1 -272.11,-197.9 -433.93,-287.65 -110.52,-61.3 -235.44,-122.58 -364.94,-183.85 104.82,53 222.08,118.77 330.02,187.89 119.23,76.35 227.08,156.78 302.78,215.87 75.7,59.09 119.23,96.85 176.46,150.83 57.23,53.97 128.14,124.16 194.27,197.5 66.13,73.34 127.48,149.84 183.22,229.36 55.74,79.52 105.87,162.06 147.93,238.87z"/>
     <path class="fil12" d="M8632.51 3403.93c-46.18,-17.23 -105.21,-26.91 -156.67,-19.5 -7.94,1.15 -15.71,2.69 -23.31,4.59 -13.07,3.25 -25.69,7.52 -37.99,12.49l-1.48 0.6c-2.42,-2 -3.84,-3.21 -3.9,-3.38 -36.45,-18.79 -72.12,-36.71 -106.73,-53.46 -131.28,-63.5 -247.37,-110.06 -361.16,-143.92 -92.16,-27.43 -182.8,-46.52 -270.88,-60.02 8.44,16.78 18.27,36.78 31.8,65.29 21.77,45.87 53.1,113.76 91.36,206.78 38.26,93.02 83.44,211.17 113.29,296.36 18.58,53.01 31.21,93.25 41.6,128.67 8.7,-8.07 17.57,-16.17 26.65,-24.31 43.21,-38.7 91.36,-78.32 146.28,-115.13 54.92,-36.82 116.6,-70.84 197.22,-94.88 47.37,-14.12 101.28,-24.8 157.42,-32.35 39.42,-5.3 79.95,-9.07 120.09,-11.4 36.15,-2.1 71.98,-3.05 107.62,-3.27 36.38,-0.23 72.55,0.31 108.64,1.14 -1.06,-1.99 -2.14,-3.99 -3.22,-5.99 -20.93,-25.51 -41.53,-49.41 -61.36,-69.69 -35.78,-36.59 -69.1,-61.38 -115.27,-78.61z"/>
     <path class="fil13" d="M8405.92 3390.93c-4.83,-11.61 -9.69,-23.05 -14.59,-34.36 -70.8,-37.05 -140.44,-71.6 -207.69,-101.03 -132.12,-57.82 -255.05,-95.92 -381.36,-123.43 -126.33,-27.51 -256.05,-44.45 -371.7,-51.1 -115.66,-6.65 -217.24,-3.03 -313.88,5.74 -96.64,8.77 -188.33,22.68 -280.35,48.38 -20.7,5.78 -41.43,12.16 -62.16,19.01 -0.48,0.15 -0.95,0.31 -1.43,0.47 0.14,10.69 0.13,20.94 0.05,30.96 3.83,1.31 7.68,2.62 11.51,3.93 6.69,-2.59 13.34,-5.09 19.97,-7.49 7.21,-2.61 14.37,-5.1 21.51,-7.48 70.62,-23.52 138.35,-36.09 212.06,-45.29 81.16,-10.13 169.55,-16.18 265.2,-16.18 95.65,0 198.56,6.05 305.75,19.65 12.08,1.53 24.21,3.16 36.4,4.9 8.37,1.19 16.77,2.43 25.19,3.72 88.07,13.5 178.72,32.59 270.88,60.02 113.79,33.87 229.89,80.43 361.16,143.92 34.61,16.75 70.28,34.66 106.73,53.46 -1.07,-2.61 -2.16,-5.21 -3.23,-7.8z"/>
     <path class="fil14" d="M7789.09 3448.93c-34.8,-84.13 -72.07,-164.26 -97.96,-218.38 -20.62,-43.09 -34.01,-69.69 -45.94,-92.94 -12.19,-1.74 -24.31,-3.36 -36.4,-4.9 -107.2,-13.61 -210.1,-19.65 -305.75,-19.65 -95.65,0 -184.04,6.05 -265.2,16.18 -73.71,9.2 -141.44,21.77 -212.06,45.29 -7.14,2.38 -14.31,4.87 -21.51,7.48 -6.62,2.4 -13.28,4.9 -19.97,7.49 -3.86,1.5 -7.73,3.03 -11.61,4.58 0.04,-2.82 0.07,-5.65 0.09,-8.5 -15.1,-5.14 -30.15,-10.27 -45.17,-15.36 -157.32,-53.39 -309.74,-103.88 -445.08,-144.27 -73.23,-21.85 -141.46,-40.75 -205.64,-57.3 16.13,58.35 32.26,118.48 48.39,192.67 18.47,84.96 36.94,188.37 53.6,293.44 16.65,105.07 31.5,211.81 41.06,308.26 6.27,63.24 10.27,122.05 13.49,179.34 12.87,-8.43 26.59,-16.86 41.55,-25.3 47.99,-27.06 108.68,-54.12 178.6,-80.05 69.92,-25.93 149.08,-50.72 232.2,-69.47 83.11,-18.74 170.19,-31.45 246.38,-40.21 76.19,-8.77 141.5,-13.61 209.61,-16.18 68.11,-2.57 139.02,-2.87 218.84,1.96 79.82,4.84 168.54,14.82 240.94,27.37 72.4,12.55 128.47,27.66 196.42,50.8 39.43,13.43 82.87,29.55 127.99,46.81 -13.04,-43.92 -27.1,-89.68 -44.36,-141.16 -25.39,-75.74 -57.72,-163.88 -92.51,-248.01z"/>
     <path class="fil15" d="M6170.8 3536.03c-17.15,-115.05 -40.24,-252.29 -64.16,-364.44 -16.85,-79.02 -34.12,-145.6 -51.51,-208.49 -93.66,-23.71 -178.66,-42.42 -258.08,-58.1 -139.19,-27.47 -261.22,-45.6 -380.39,-59.6 -119.17,-13.99 -235.47,-23.84 -322.64,-29.22 -56.53,-3.49 -100.81,-5.09 -145.59,-5.75 0.26,48.88 0.52,97.76 0.78,146.63 23.84,-0.2 47.75,-0.37 71.52,-0.51 101.92,-0.61 201.21,-0.61 321.04,3.56 119.82,4.17 260.18,12.5 373.9,20.85 113.72,8.35 200.79,16.72 247.3,23.98 46.5,7.26 52.44,13.4 55.74,34.92 3.3,21.51 3.96,58.4 5.94,247.68 1.44,137.36 3.57,354.97 5.89,594.59 16.89,4.59 34.53,9.64 53.17,15.28 38.39,11.62 81.01,25.8 125.7,41.23 -0.39,-36.07 -1.6,-74.57 -4.78,-118.94 -5.45,-75.76 -16.66,-168.63 -33.81,-283.67z"/>
     <path class="fil16" d="M5277.84 2798.14c139.51,12.85 288.6,32.5 444.11,59.94 106.51,18.79 216.03,41.23 322.33,66.19 48.9,11.48 97.12,23.49 144.05,35.93 148.92,39.45 284.81,83.15 404.54,125.87 63.71,22.73 122.85,45.19 179.86,67.51 -0.52,-37.79 -2.87,-81.12 -10,-138.94 -11.55,-93.58 -35.63,-225.11 -75.37,-363.14 -39.75,-138.03 -95.16,-282.56 -173.65,-411.67 -78.5,-129.11 -180.09,-242.8 -279.36,-332.9 -99.28,-90.1 -196.25,-156.62 -289.76,-207.12 -93.51,-50.5 -183.55,-84.97 -298.66,-115.81 -115.11,-30.84 -255.29,-58.05 -375.68,-72.57 -29.16,-3.52 -57.17,-6.29 -84.02,-8.46 -143.83,-4.99 -281.47,-3.81 -403.65,-0.46 -38.56,1.06 -75.59,2.34 -111.17,3.8 -66.23,3.95 -137.83,9.27 -199.35,17.06 -84.76,10.73 -150.4,26.15 -227.58,46.71 -77.18,20.56 -165.91,46.26 -266.34,91.32 -100.43,45.05 -212.58,109.45 -299.81,167.06 -87.24,57.6 -149.58,108.39 -227.58,193.81 -78,85.42 -171.68,205.46 -249.18,344.7 -77.51,139.24 -138.86,297.68 -183.72,441.6 -40.11,128.71 -67.04,245.8 -83.6,346.06l3.1 0.57c57.92,-26.79 117.1,-52.51 178.8,-76.09 122.03,-46.65 253.97,-84.9 369.24,-116.65 115.27,-31.75 213.9,-56.99 323.56,-81.3 109.67,-24.32 230.38,-47.72 364.63,-64.65 134.24,-16.93 282,-27.4 401.73,-33.54 119.72,-6.14 211.42,-7.96 322.24,-5.84 110.82,2.11 240.77,8.16 380.3,21.01z"/>
     <path class="fil17" d="M2934.25 3154.62c16.56,-100.25 43.49,-217.35 83.6,-346.06 44.86,-143.92 106.21,-302.37 183.72,-441.6 77.51,-139.24 171.18,-259.28 249.18,-344.7 78,-85.42 140.34,-136.21 227.58,-193.81 87.24,-57.61 199.38,-122 299.81,-167.06 100.43,-45.05 189.16,-70.76 266.34,-91.32 77.18,-20.56 142.82,-35.98 227.58,-46.71 61.52,-7.79 133.12,-13.11 199.35,-17.06 -168.46,6.92 -304.57,17.98 -418.53,29.8 -138.04,14.32 -243.58,29.74 -377.32,58.77 -133.75,29.02 -295.69,71.66 -433.72,114.6 -138.04,42.93 -252.16,86.17 -349.13,124.12 -96.97,37.94 -176.79,70.6 -268.81,117.92 -68.24,35.09 -143.2,78.25 -222.71,127.8 -27.71,17.27 -55.97,35.31 -84.69,54.06 -111.15,72.57 -229.23,155.72 -330.49,235.69 -101.26,79.97 -185.7,156.78 -267.33,236.6 -81.63,79.82 -160.46,162.67 -241.11,265.17 -80.64,102.5 -163.1,224.66 -219.5,321.11 -32.8,56.09 -56.78,103.49 -77.09,147.24 20.5,-6.84 42.43,-13.98 66.04,-21.46 145.95,-46.26 356.38,-105.81 537.95,-142.85 181.57,-37.04 334.28,-51.56 479.57,-54.22 145.28,-2.66 283.16,6.56 389.53,21.08 28.82,3.93 55.33,8.25 80.16,12.86z"/>
     <path class="fil18" d="M2011.51 3809.3c17.83,-43.2 38.01,-90.06 65.17,-147.78 40.9,-86.93 97.63,-198.5 148.1,-290.12 45.4,-82.43 85.74,-148.71 125.56,-213.37 -5.96,0.45 -12.09,0.94 -18.47,1.49 -18.53,25.73 -40.17,57.98 -74.76,117.39 -45.52,78.16 -113.46,203.34 -170.03,318.69 -37.76,76.98 -70.43,149.59 -101.43,220.74 8.66,-2.37 17.29,-4.72 25.87,-7.04z"/>
     <path class="fil18" d="M3703.34 3963.19c4.41,2.61 8.7,5.16 12.93,7.69 3.43,-1.47 6.86,-2.94 10.29,-4.42 -3.71,-0.39 -5.16,-5.87 -2.43,-28.7 2.97,-24.83 10.88,-70.19 26.88,-153.64 15.99,-83.45 40.07,-205 63,-310.23 22.92,-105.22 44.69,-194.12 65.8,-274.25 21.11,-80.13 41.56,-151.49 56.89,-203.19 15.34,-51.71 25.56,-83.75 31.34,-99.93 1.78,-4.99 3.14,-8.47 4.71,-10.98 1.57,-2.51 3.34,-4.07 5.97,-5.2 -7.52,1.32 -15.91,2.79 -25.12,4.43 -11.99,37.92 -24.72,78.66 -41.94,136.48 -20.61,69.24 -47.66,162.97 -77.01,283.77 -29.36,120.79 -61.01,268.65 -83.61,384.19 -22.59,115.55 -36.12,198.77 -45.19,257.58 -0.88,5.69 -1.71,11.14 -2.51,16.39z"/>
     <path class="fil18" d="M6204.61 3819.7c3.18,44.37 4.39,82.87 4.78,118.94 6.44,2.23 12.94,4.48 19.47,6.75 1.51,-1.01 3.04,-2.02 4.58,-3.03 -3.22,-57.29 -7.23,-116.11 -13.49,-179.34 -9.57,-96.46 -24.41,-203.19 -41.06,-308.26 -16.66,-105.07 -35.13,-208.48 -53.6,-293.44 -16.13,-74.19 -32.26,-134.32 -48.39,-192.67 -7.31,-1.88 -14.56,-3.74 -21.77,-5.56 17.39,62.9 34.66,129.47 51.51,208.49 23.92,112.16 47.01,249.4 64.16,364.44 17.15,115.05 28.36,207.91 33.81,283.67z"/>
     <path class="fil18" d="M7881.6 3696.94c17.26,51.48 31.33,97.23 44.36,141.16 5.36,2.05 10.76,4.12 16.17,6.2 2.09,-1.96 4.19,-3.91 6.3,-5.87 -10.39,-35.42 -23.03,-75.66 -41.6,-128.67 -29.85,-85.19 -75.03,-203.34 -113.29,-296.36 -38.26,-93.03 -69.6,-160.91 -91.36,-206.78 -13.53,-28.51 -23.36,-48.51 -31.8,-65.29 -8.42,-1.29 -16.82,-2.53 -25.19,-3.72 11.93,23.25 25.33,49.85 45.94,92.94 25.89,54.12 63.16,134.25 97.96,218.38 34.79,84.13 67.12,172.26 92.51,248.01z"/>
     <polygon class="fil19" points="6036.3,4124.51 6036.3,4723.47 4909.21,4723.47 4909.21,6045.05 4909.21,6716.6 4756.66,6716.6 4756.66,6045.05 3910.08,6045.05 3910.08,4124.51 "/>
     <polygon class="fil1" style="mask:url(#id1)" points="4909.21,4723.47 4909.21,6045.05 4909.21,6716.6 4756.66,6716.6 4756.66,6045.05 4150.5,6045.05 4150.5,4124.51 4909.21,4124.51 "/>
     <path class="fil20" d="M3916.82 3023.75c0,-12.02 6.39,-17.68 10.22,-19.16 85.98,-33.14 522.05,-57.89 1047.02,-57.23 586.7,0.73 1062.28,32.93 1062.23,71.91 -0.01,3.89 0,3.04 0,4.48l0 1019.29 -2119.48 0 0 -1019.29z"/>
     <rect class="fil21" x="3916.82" y="4049.57" width="2122.97" height="55.7"/>
     <polygon class="fil1" style="mask:url(#id3)" points="5889.59,4723.47 5889.59,4124.51 5130.88,4124.51 5130.88,4723.47 "/>
     <path class="fil1" style="mask:url(#id5)" d="M4909.21 4043.04l-152.55 0 -606.16 0c0,-356.91 0,-713.81 0,-1070.72 248.32,-18.03 502.41,-23.82 758.71,-24.91l0 1095.62z"/>
     <polygon class="fil1" style="mask:url(#id7)" points="5889.59,4043.04 5889.59,2983.28 5130.88,2983.28 5130.88,4043.04 "/>
     <rect class="fil22" x="4150.5" y="3611.85" width="219.17" height="123.37" rx="35.12" ry="32.2"/>
     <path class="fil23" d="M4717.97 3707.55l-348.65 0c-1.09,7.02 -4.68,13.33 -9.9,18.14l381.31 0c19.05,0 34.63,-14.29 34.63,-31.75 0,-14.59 -10.88,-26.96 -25.57,-30.63 1.81,3.84 2.81,8.06 2.81,12.49 0,17.46 -15.58,31.75 -34.63,31.75z"/>
     <rect class="fil24" x="4150.5" y="3627.73" width="219.17" height="91.62" rx="35.12" ry="23.91"/>
     <rect class="fil25" x="4177.21" y="3644.06" width="575.39" height="63.5" rx="38.58" ry="31.75"/>
     <rect class="fil26" x="4179.95" y="3646.56" width="569.92" height="58.48" rx="34.28" ry="31.42"/>
     <rect class="fil27" x="3905.76" y="4039.84" width="2136.43" height="41.49" rx="11.06" ry="10.93"/>
     <rect class="fil27" x="3905.76" y="4086.22" width="2136.43" height="41.49" rx="11.06" ry="10.93"/>
     <rect class="fil28" x="3905.76" y="4043.04" width="2136.43" height="38.47" rx="11.06" ry="10.14"/>
     <rect class="fil29" x="3905.76" y="4086.04" width="2136.43" height="38.47" rx="11.06" ry="10.14"/>
     <rect class="fil30" x="4150.5" y="4455.01" width="219.17" height="123.37" rx="35.12" ry="32.2"/>
     <path class="fil31" d="M4717.97 4550.71l-348.65 0c-1.09,7.02 -4.68,13.33 -9.9,18.14l381.31 0c19.05,0 34.63,-14.29 34.63,-31.75 0,-14.59 -10.88,-26.96 -25.57,-30.63 1.81,3.84 2.81,8.06 2.81,12.49 0,17.46 -15.58,31.75 -34.63,31.75z"/>
     <rect class="fil32" x="4150.5" y="4470.88" width="219.17" height="91.62" rx="35.12" ry="23.91"/>
     <rect class="fil33" x="4177.21" y="4487.21" width="575.39" height="63.5" rx="38.58" ry="31.75"/>
     <rect class="fil34" x="4179.95" y="4489.71" width="569.92" height="58.48" rx="34.28" ry="31.42"/>
     <rect class="fil0" x="-0" y="4518.96" width="1317.26" height="3423.49"/>
     <polygon class="fil0" style="mask:url(#id9)" points="9873.35,6881.9 4830.95,6881.9 4830.95,7942.45 9873.35,7942.45 "/>
     <polygon class="fil0" style="mask:url(#id11)" points="-0,6881.9 4830.95,6881.9 4830.95,7942.45 -0,7942.45 "/>
     <rect class="fil1" x="-0" y="7343.49" width="9873.35" height="598.96"/>
     <polygon class="fil1" style="mask:url(#id13)" points="887.88,6881.9 2368.14,6881.9 2368.14,7480.85 887.88,7480.85 "/>
     <polygon class="fil1" style="mask:url(#id15)" points="8503.11,6881.9 7022.84,6881.9 7022.84,7480.85 8503.11,7480.85 "/>
     <rect class="fil1" x="8469.29" y="3844.3" width="1404.06" height="4098.15"/>
     <polygon class="fil1" points="9873.35,0 8469.29,0 4091.83,0 5340.09,1207.31 6352.32,1343.28 7590.94,2079.32 8469.29,2947.41 8809.14,3454.24 8872.34,3644.23 8241.37,3844.3 8938.89,3844.3 9873.35,3844.3 "/>
     <g>
      <path class="fil35" d="M4658.21 2154.51c94.74,-4.36 189.32,-8.02 283.8,-7.47 94.68,0.56 189.76,5.54 285.54,12.07 -5.2,-44.11 -11.26,-88.28 -17.93,-132.38 -91.28,-4.11 -181.95,-7.31 -272.37,-7.65 -90.33,-0.34 -180.83,1.99 -271.25,4.73 -36.98,18.66 -74.71,37.63 -112.41,57.17 -38.51,19.96 -77.34,40.43 -116.49,61.21 -5.2,45.6 -9.52,91.19 -13.25,136.73 39.84,-21.96 79.28,-43.65 118.56,-64.57 38.84,-20.69 77.51,-40.43 115.8,-59.84z"/>
      <path class="fil36" d="M5273.01 2259.51c-104.62,-10.01 -207.98,-17.76 -310.91,-18.98 -102.35,-1.21 -205,3.49 -307.71,9.21 -38.8,20.03 -78,40.4 -117.18,61.77 -39.72,21.67 -79.33,44.23 -119.43,67.06 -0.61,13.81 -1.13,27.69 -1.82,41.56 145.76,-18.78 289.58,-35.48 432.85,-39.01 142.83,-3.51 287.01,7.9 433.2,24.51 -2.34,-48.71 -5.2,-97.42 -9.01,-146.12z"/>
      <path class="fil37" d="M4673.8 1928.88c90.93,-1.68 181.96,-3.08 272.72,-2.74 91.02,0.34 182.22,2.55 273.67,5.41 -9.79,-44.48 -20.27,-88.95 -31.53,-133.49 -83.49,0 -166.98,0 -250.38,0 -83.4,0 -166.8,0 -250.2,0 -33.61,17.35 -67.89,34.92 -102.89,52.69 -35.67,18.11 -72.14,36.51 -108.95,55.18 -9.44,45.66 -17.84,91.26 -25.38,136.92 38.36,-19.97 76.44,-39.54 113.8,-58.66 36.86,-18.88 73.26,-37.26 109.12,-55.3z"/>
     </g>
     <rect class="fil1" x="1019.74" y="6869.77" width="8151.58" height="542.41"/>
     <rect class="fil1" x="692.92" y="4492.28" width="1458.5" height="994.17"/>
    </g>
    <rect class="fil38" x="1355.57" y="6804.27" width="1655.11" height="41.85"/>
    <polygon class="fil39" points="2358.16,5569.55 2937.37,5571.19 2937.37,6641.01 2696.87,6640.33 2688.47,6605.59 2683.42,6585.62 2772.06,6233.72 2493.79,6089.56 2483.84,6071.48 2358.16,5825.53 "/>
    <path class="fil40" d="M2078.71 5532.93l932 0 0 1313.2c-90.8,0 -181.59,0 -272.4,0 -12.61,-74.69 -28.76,-155.67 -49.85,-240.53 126.67,-36.23 218.49,-143.31 218.49,-269.79 0,-156.27 -140.13,-282.94 -313,-282.94 -35.97,0 -70.51,5.5 -102.68,15.6 -2.28,0.6 -6.46,2.9 -7.43,3.01 -110.19,-178.78 -237.71,-382.69 -405.13,-538.55zm721.59 262.37c0,-107.84 -93.67,-195.26 -209.2,-195.26 -115.53,0 -209.2,87.42 -209.2,195.26 0,107.84 93.67,195.26 209.2,195.26 115.53,0 209.2,-87.41 209.2,-195.26zm-404.68 -5.64l59.31 0 0 13.64 -59.21 0c4.49,97.1 90.24,174.55 195.38,174.55 108.02,0 195.58,-81.72 195.58,-182.55 0,-100.83 -87.56,-182.55 -195.58,-182.55 -106,0 -192.28,78.68 -195.48,176.91zm287.8 795.96c-40.22,-157.2 -106.26,-328.18 -189.63,-496.06 2.17,-1.24 5.03,-1.7 6.91,-2.45 29.27,-8.97 60.64,-13.83 93.26,-13.83 160.4,0 290.42,117.53 290.42,262.52l-30.32 0 0 -6.77 -21.95 0 0 6.77 18.26 0 0 11.89 33.71 0c-5.5,111.54 -88.02,205 -200.64,237.93z"/>
    <path class="fil40" d="M2696.87 6640.33c-2.7,-11.5 -5.51,-23.08 -8.41,-34.74 126.67,-36.23 218.49,-143.31 218.49,-269.79 0,-156.27 -140.13,-282.94 -313,-282.94 -35.97,0 -70.51,5.5 -102.68,15.6 -2.28,0.6 -6.46,2.9 -7.43,3.01 -39.34,-63.82 -80.9,-130.88 -125.68,-197.78l0 -48.17 0 -255.97 579.21 1.64 0 1069.82 -240.49 -0.68zm103.43 -845.03c0,-107.84 -93.67,-195.26 -209.2,-195.26 -115.53,0 -209.2,87.42 -209.2,195.26 0,107.84 93.67,195.26 209.2,195.26 115.53,0 209.2,-87.41 209.2,-195.26zm-404.68 -5.64l59.31 0 0 13.64 -59.21 0c4.49,97.1 90.24,174.55 195.38,174.55 108.02,0 195.58,-81.72 195.58,-182.55 0,-100.83 -87.56,-182.55 -195.58,-182.55 -106,0 -192.28,78.68 -195.48,176.91zm287.8 795.96c-40.22,-157.2 -106.26,-328.18 -189.63,-496.06 2.17,-1.24 5.03,-1.7 6.91,-2.45 29.27,-8.97 60.64,-13.83 93.26,-13.83 160.4,0 290.42,117.53 290.42,262.52l-30.32 0 0 -6.77 -21.95 0 0 6.77 18.26 0 0 11.89 33.71 0c-5.5,111.54 -88.02,205 -200.64,237.93z"/>
    <polygon class="fil41" points="2274.11,5489.85 2477.56,5489.85 2477.56,5325.45 3606.46,5325.45 3606.46,5489.85 3816.46,5489.85 3816.46,5267.22 2274.11,5267.22 "/>
    <rect class="fil41" x="3606.46" y="5267.29" width="210" height="772"/>
    <rect class="fil42" x="2477.56" y="5325.44" width="1128.9" height="162.05"/>
    <path class="fil43" d="M3188.26 5474.4c3.57,1.09 6.18,4.41 6.18,8.33l0 5.89c0,4.8 -3.92,8.72 -8.72,8.72l-4.71 0c-4.8,0 -8.72,-3.92 -8.72,-8.72l0 -5.89c0,-3.92 2.61,-7.24 6.18,-8.33l-0.03 -0.39c0,-2.72 2.21,-4.92 4.92,-4.92 2.72,0 4.93,2.21 4.93,4.92l-0.03 0.39zm-499.87 0.38c3.57,1.09 6.18,4.41 6.18,8.33l0 5.89c0,4.8 -3.92,8.72 -8.72,8.72l-4.71 0c-4.8,0 -8.72,-3.92 -8.72,-8.72l0 -5.89c0,-3.92 2.61,-7.24 6.18,-8.33l-0.02 -0.38c0,-2.72 2.21,-4.93 4.92,-4.93 2.72,0 4.92,2.21 4.92,4.93l-0.02 0.38zm-124.96 0c3.57,1.09 6.18,4.41 6.18,8.33l0 5.89c0,4.8 -3.92,8.72 -8.72,8.72l-4.71 0c-4.8,0 -8.72,-3.92 -8.72,-8.72l0 -5.89c0,-3.92 2.61,-7.24 6.18,-8.33l-0.03 -0.38c0,-2.72 2.21,-4.93 4.93,-4.93 2.72,0 4.92,2.21 4.92,4.93l-0.03 0.38zm499.87 -0.38c3.57,1.09 6.18,4.41 6.18,8.33l0 5.89c0,4.8 -3.92,8.72 -8.72,8.72l-4.71 0c-4.8,0 -8.72,-3.92 -8.72,-8.72l0 -5.89c0,-3.92 2.61,-7.24 6.18,-8.33l-0.03 -0.39c0,-2.72 2.21,-4.92 4.92,-4.92 2.72,0 4.93,2.21 4.93,4.92l-0.03 0.39zm-124.96 0c3.57,1.09 6.18,4.41 6.18,8.33l0 5.89c0,4.8 -3.92,8.72 -8.72,8.72l-4.72 0c-4.8,0 -8.72,-3.92 -8.72,-8.72l0 -5.89c0,-3.92 2.61,-7.24 6.18,-8.33l-0.02 -0.39c0,-2.72 2.21,-4.92 4.92,-4.92 2.72,0 4.92,2.21 4.92,4.92l-0.02 0.39zm-124.96 0c3.57,1.09 6.18,4.41 6.18,8.33l0 5.89c0,4.8 -3.92,8.72 -8.72,8.72l-4.71 0c-4.8,0 -8.72,-3.92 -8.72,-8.72l0 -5.89c0,-3.92 2.61,-7.24 6.18,-8.33l-0.03 -0.39c0,-2.72 2.21,-4.92 4.93,-4.92 2.72,0 4.92,2.21 4.92,4.92l-0.03 0.39zm749.76 0c3.57,1.09 6.18,4.41 6.18,8.33l0 5.89c0,4.8 -3.92,8.72 -8.72,8.72l-4.71 0c-4.8,0 -8.72,-3.92 -8.72,-8.72l0 -5.89c0,-3.92 2.61,-7.24 6.18,-8.33l-0.03 -0.39c0,-2.72 2.21,-4.92 4.93,-4.92 2.72,0 4.92,2.21 4.92,4.92l-0.03 0.39zm-124.96 0c3.57,1.09 6.18,4.41 6.18,8.33l0 5.89c0,4.8 -3.92,8.72 -8.72,8.72l-4.71 0c-4.8,0 -8.72,-3.92 -8.72,-8.72l0 -5.89c0,-3.92 2.61,-7.24 6.18,-8.33l-0.03 -0.39c0,-2.72 2.21,-4.92 4.93,-4.92 2.72,0 4.92,2.21 4.92,4.92l-0.03 0.39zm-124.96 0c3.57,1.09 6.18,4.41 6.18,8.33l0 5.89c0,4.8 -3.92,8.72 -8.72,8.72l-4.71 0c-4.8,0 -8.72,-3.92 -8.72,-8.72l0 -5.89c0,-3.92 2.61,-7.24 6.18,-8.33l-0.03 -0.39c0,-2.72 2.21,-4.92 4.92,-4.92 2.72,0 4.93,2.21 4.93,4.92l-0.03 0.39z"/>
    <rect class="fil44" x="1345.21" y="5489.84" width="1664.96" height="43.08"/>
    <rect class="fil45" x="3027.26" y="5487.49" width="579.21" height="9.85"/>
    <rect class="fil42" x="3027.25" y="5497.34" width="579.21" height="285.47"/>
    <rect class="fil42" x="3027.25" y="5792.27" width="579.21" height="246.94"/>
    <path class="fil46" d="M3188.26 5769.33c3.57,1.09 6.18,4.41 6.18,8.33l0 5.89c0,4.8 -3.92,8.72 -8.72,8.72l-4.71 0c-4.8,0 -8.72,-3.92 -8.72,-8.72l0 -5.89c0,-3.92 2.61,-7.24 6.18,-8.33l-0.03 -0.38c0,-2.72 2.21,-4.93 4.92,-4.93 2.72,0 4.93,2.21 4.93,4.93l-0.03 0.38zm-124.96 0c3.57,1.09 6.18,4.41 6.18,8.33l0 5.89c0,4.8 -3.92,8.72 -8.72,8.72l-4.71 0c-4.8,0 -8.72,-3.92 -8.72,-8.72l0 -5.89c0,-3.92 2.61,-7.24 6.18,-8.33l-0.03 -0.38c0,-2.72 2.21,-4.93 4.92,-4.93 2.72,0 4.93,2.21 4.93,4.93l-0.03 0.38zm499.84 0c3.57,1.09 6.18,4.41 6.18,8.33l0 5.89c0,4.8 -3.92,8.72 -8.72,8.72l-4.71 0c-4.8,0 -8.72,-3.92 -8.72,-8.72l0 -5.89c0,-3.92 2.61,-7.24 6.18,-8.33l-0.03 -0.38c0,-2.72 2.21,-4.93 4.93,-4.93 2.72,0 4.92,2.21 4.92,4.93l-0.03 0.38zm-124.96 0c3.57,1.09 6.18,4.41 6.18,8.33l0 5.89c0,4.8 -3.92,8.72 -8.72,8.72l-4.71 0c-4.8,0 -8.72,-3.92 -8.72,-8.72l0 -5.89c0,-3.92 2.61,-7.24 6.18,-8.33l-0.03 -0.38c0,-2.72 2.21,-4.93 4.93,-4.93 2.72,0 4.92,2.21 4.92,4.93l-0.03 0.38zm-124.96 0c3.57,1.09 6.18,4.41 6.18,8.33l0 5.89c0,4.8 -3.92,8.72 -8.72,8.72l-4.71 0c-4.8,0 -8.72,-3.92 -8.72,-8.72l0 -5.89c0,-3.92 2.61,-7.24 6.18,-8.33l-0.03 -0.38c0,-2.72 2.21,-4.93 4.92,-4.93 2.72,0 4.93,2.21 4.93,4.93l-0.03 0.38z"/>
    <rect class="fil47" x="3027.26" y="5782.81" width="579.21" height="9.85"/>
    <rect class="fil42" x="3027.25" y="5792.27" width="174.55" height="454.83"/>
    <path class="fil48" d="M3188.26 6049.81c3.57,1.09 6.18,4.41 6.18,8.33l0 5.89c0,4.8 -3.92,8.72 -8.72,8.72l-4.71 0c-4.8,0 -8.72,-3.92 -8.72,-8.72l0 -5.89c0,-3.92 2.61,-7.24 6.18,-8.33l-0.03 -0.39c0,-2.72 2.21,-4.92 4.92,-4.92 2.72,0 4.93,2.21 4.93,4.92l-0.03 0.39zm-124.96 0c3.57,1.09 6.18,4.41 6.18,8.33l0 5.89c0,4.8 -3.92,8.72 -8.72,8.72l-4.71 0c-4.8,0 -8.72,-3.92 -8.72,-8.72l0 -5.89c0,-3.92 2.61,-7.24 6.18,-8.33l-0.03 -0.39c0,-2.72 2.21,-4.92 4.92,-4.92 2.72,0 4.93,2.21 4.93,4.92l-0.03 0.39z"/>
    <rect class="fil49" x="3027.26" y="6063.29" width="174.55" height="9.85"/>
    <polygon class="fil50" points="4271.29,6641.91 3381.72,6641.91 3381.72,6247.1 4271.11,6247.1 4285.54,6112.73 3294.22,6112.73 3294.22,6774.55 4285.54,6774.55 "/>
    <polygon class="fil51" points="3381.72,6247.1 3381.72,6641.91 4271.29,6641.91 4249.98,6443.63 4271.11,6247.1 "/>
    <g style="clip-path:url(#id17)">
     <g>
      <g>
      </g>
      <g style="clip-path:url(#id18)">
       <image x="3366.96" y="6238.5" width="463.99" height="412.02" xlink:href="Banner_Images\Banner_ImgID2.png"/>
      </g>
      <g style="clip-path:url(#id19)">
      </g>
      <g style="clip-path:url(#id20)">
       <image transform="matrix(-0.104374 -0 -0 0.108926 4286.06 6238.5)" x="0" y="0" width="4445.48" height="3782.56" xlink:href="Banner_Images\Banner_ImgID3.png"/>
      </g>
      <g style="clip-path:url(#id21)">
      </g>
     </g>
    </g>
    <polygon class="fil52" points="3381.72,6247.1 3381.72,6641.91 4271.29,6641.91 4249.98,6443.63 4271.11,6247.1 "/>
   </g>
   <path class="fil53" d="M6158 5783.78c0,-195.35 -173.57,-353.71 -387.68,-353.71 -214.11,0 -387.68,158.36 -387.68,353.71 0,195.34 173.57,353.71 387.68,353.71 214.11,0 387.68,-158.36 387.68,-353.71z"/>
   <g>
    <path class="fil21" d="M5742.96 5528.03c3.71,0 6.93,2.15 7.21,4.8 0.28,2.65 -2.5,4.8 -6.2,4.8 -3.71,0 -6.94,-2.15 -7.22,-4.8 -0.27,-2.65 2.5,-4.8 6.21,-4.8zm54.73 0c-3.71,0 -6.93,2.15 -7.21,4.8 -0.28,2.65 2.5,4.8 6.2,4.8 3.71,0 6.94,-2.15 7.22,-4.8 0.27,-2.65 -2.5,-4.8 -6.21,-4.8zm7.71 -73.5c-3.71,0 -6.94,2.15 -7.22,4.8 -0.28,2.65 2.5,4.8 6.21,4.8 3.71,0 6.93,-2.15 7.21,-4.8 0.28,-2.65 -2.5,-4.8 -6.2,-4.8zm-2.57 24.5c-3.71,0 -6.94,2.15 -7.22,4.8 -0.27,2.65 2.5,4.8 6.21,4.8 3.71,0 6.93,-2.15 7.21,-4.8 0.28,-2.65 -2.5,-4.8 -6.2,-4.8zm-2.57 24.5c-3.71,0 -6.93,2.15 -7.21,4.8 -0.28,2.65 2.5,4.8 6.2,4.8 3.71,0 6.95,-2.15 7.21,-4.8 0.28,-2.65 -2.5,-4.8 -6.2,-4.8zm-65.01 -49.01c3.71,0 6.94,2.15 7.22,4.8 0.28,2.65 -2.5,4.8 -6.21,4.8 -3.71,0 -6.93,-2.15 -7.21,-4.8 -0.28,-2.65 2.5,-4.8 6.2,-4.8zm2.57 24.5c3.71,0 6.94,2.15 7.22,4.8 0.27,2.65 -2.5,4.8 -6.21,4.8 -3.71,0 -6.93,-2.15 -7.21,-4.8 -0.28,-2.65 2.5,-4.8 6.2,-4.8zm2.57 24.5c3.71,0 6.93,2.15 7.21,4.8 0.28,2.65 -2.5,4.8 -6.2,4.8 -3.71,0 -6.94,-2.15 -7.21,-4.8 -0.28,-2.65 2.5,-4.8 6.2,-4.8z"/>
    <path class="fil21" d="M5742.96 6039.53c3.71,0 6.93,-2.15 7.21,-4.8 0.28,-2.65 -2.5,-4.8 -6.2,-4.8 -3.71,0 -6.94,2.15 -7.22,4.8 -0.27,2.65 2.5,4.8 6.21,4.8zm54.73 0c-3.71,0 -6.93,-2.15 -7.21,-4.8 -0.28,-2.65 2.5,-4.8 6.2,-4.8 3.71,0 6.94,2.15 7.22,4.8 0.27,2.65 -2.5,4.8 -6.21,4.8zm7.71 73.5c-3.71,0 -6.94,-2.15 -7.22,-4.8 -0.28,-2.65 2.5,-4.8 6.21,-4.8 3.71,0 6.93,2.15 7.21,4.8 0.28,2.65 -2.5,4.8 -6.2,4.8zm-2.57 -24.5c-3.71,0 -6.94,-2.15 -7.22,-4.8 -0.27,-2.65 2.5,-4.8 6.21,-4.8 3.71,0 6.93,2.15 7.21,4.8 0.28,2.65 -2.5,4.8 -6.2,4.8zm-2.57 -24.5c-3.71,0 -6.93,-2.15 -7.21,-4.8 -0.28,-2.65 2.5,-4.8 6.2,-4.8 3.71,0 6.95,2.15 7.21,4.8 0.28,2.65 -2.5,4.8 -6.2,4.8zm-65.01 49c3.71,0 6.94,-2.15 7.22,-4.8 0.28,-2.65 -2.5,-4.8 -6.21,-4.8 -3.71,0 -6.93,2.15 -7.21,4.8 -0.28,2.65 2.5,4.8 6.2,4.8zm2.57 -24.5c3.71,0 6.94,-2.15 7.22,-4.8 0.27,-2.65 -2.5,-4.8 -6.21,-4.8 -3.71,0 -6.93,2.15 -7.21,4.8 -0.28,2.65 2.5,4.8 6.2,4.8zm2.57 -24.5c3.71,0 6.93,-2.15 7.21,-4.8 0.28,-2.65 -2.5,-4.8 -6.2,-4.8 -3.71,0 -6.94,2.15 -7.21,4.8 -0.28,2.65 2.5,4.8 6.2,4.8z"/>
   </g>
   <g>
    <path class="fil21" d="M6051.16 5756.42c0,3.71 -2.36,6.93 -5.27,7.21 -2.91,0.28 -5.28,-2.5 -5.28,-6.2 0,-3.71 2.37,-6.94 5.28,-7.22 2.91,-0.27 5.27,2.5 5.27,6.21zm0 54.73c0,-3.71 -2.36,-6.93 -5.27,-7.21 -2.91,-0.28 -5.28,2.5 -5.28,6.2 0,3.71 2.37,6.94 5.28,7.22 2.91,0.27 5.27,-2.5 5.27,-6.21zm80.72 7.71c0,-3.71 -2.37,-6.94 -5.28,-7.22 -2.91,-0.28 -5.27,2.5 -5.27,6.21 0,3.71 2.36,6.93 5.27,7.21 2.91,0.28 5.28,-2.5 5.28,-6.2zm-26.91 -2.57c0,-3.71 -2.36,-6.95 -5.27,-7.22 -2.91,-0.27 -5.27,2.5 -5.27,6.21 0,3.71 2.36,6.93 5.27,7.21 2.91,0.28 5.27,-2.5 5.27,-6.2zm-26.91 -2.57c0,-3.71 -2.36,-6.93 -5.27,-7.21 -2.91,-0.28 -5.27,2.5 -5.27,6.2 0,3.71 2.36,6.95 5.27,7.21 2.91,0.28 5.27,-2.5 5.27,-6.2zm53.81 -65.01c0,3.71 -2.37,6.94 -5.28,7.22 -2.91,0.28 -5.27,-2.5 -5.27,-6.21 0,-3.71 2.36,-6.93 5.27,-7.21 2.91,-0.28 5.28,2.5 5.28,6.2zm-26.91 2.57c0,3.71 -2.36,6.94 -5.27,7.22 -2.91,0.27 -5.27,-2.5 -5.27,-6.21 0,-3.71 2.36,-6.93 5.27,-7.21 2.91,-0.28 5.27,2.5 5.27,6.2zm-26.91 2.57c0,3.71 -2.36,6.93 -5.27,7.21 -2.91,0.28 -5.27,-2.5 -5.27,-6.2 0,-3.71 2.36,-6.94 5.27,-7.21 2.91,-0.28 5.27,2.5 5.27,6.2z"/>
    <path class="fil21" d="M5489.46 5756.42c0,3.71 2.37,6.93 5.28,7.21 2.91,0.28 5.27,-2.5 5.27,-6.2 0,-3.71 -2.36,-6.94 -5.27,-7.22 -2.91,-0.27 -5.28,2.5 -5.28,6.21zm0 54.73c0,-3.71 2.37,-6.93 5.28,-7.21 2.91,-0.28 5.27,2.5 5.27,6.2 0,3.71 -2.36,6.94 -5.27,7.22 -2.91,0.27 -5.28,-2.5 -5.28,-6.21zm-80.72 7.71c0,-3.71 2.36,-6.94 5.27,-7.22 2.91,-0.28 5.28,2.5 5.28,6.21 0,3.71 -2.37,6.93 -5.28,7.21 -2.91,0.28 -5.27,-2.5 -5.27,-6.2zm26.91 -2.57c0,-3.71 2.36,-6.95 5.27,-7.22 2.91,-0.27 5.28,2.5 5.28,6.21 0,3.71 -2.36,6.93 -5.28,7.21 -2.91,0.28 -5.27,-2.5 -5.27,-6.2zm26.91 -2.57c0,-3.71 2.36,-6.93 5.28,-7.21 2.91,-0.28 5.27,2.5 5.27,6.2 0,3.71 -2.36,6.95 -5.27,7.21 -2.91,0.28 -5.28,-2.5 -5.28,-6.2zm-53.81 -65.01c0,3.71 2.36,6.94 5.27,7.22 2.91,0.28 5.28,-2.5 5.28,-6.21 0,-3.71 -2.37,-6.93 -5.28,-7.21 -2.91,-0.28 -5.27,2.5 -5.27,6.2zm26.91 2.57c0,3.71 2.36,6.94 5.27,7.22 2.91,0.27 5.28,-2.5 5.28,-6.21 0,-3.71 -2.36,-6.93 -5.28,-7.21 -2.91,-0.28 -5.27,2.5 -5.27,6.2zm26.91 2.57c0,3.71 2.36,6.93 5.28,7.21 2.91,0.28 5.27,-2.5 5.27,-6.2 0,-3.71 -2.36,-6.94 -5.27,-7.21 -2.91,-0.28 -5.28,2.5 -5.28,6.2z"/>
   </g>
   <g>
    <path class="fil21" d="M5979.56 5954.33c-2.62,2.62 -6.5,3.3 -8.66,1.53 -2.17,-1.77 -1.8,-5.34 0.82,-7.95 2.62,-2.62 6.5,-3.31 8.67,-1.54 2.16,1.78 1.8,5.34 -0.83,7.96zm-38.7 38.7c2.62,-2.62 3.31,-6.5 1.53,-8.67 -1.77,-2.16 -5.33,-1.8 -7.95,0.82 -2.62,2.62 -3.31,6.51 -1.54,8.67 1.78,2.16 5.33,1.8 7.96,-0.83zm49.13 60.03c2.62,-2.62 3.31,-6.51 1.54,-8.67 -1.77,-2.17 -5.34,-1.8 -7.96,0.83 -2.62,2.62 -3.31,6.5 -1.53,8.66 1.77,2.17 5.33,1.8 7.95,-0.81zm-16.37 -20.01c2.62,-2.62 3.31,-6.51 1.54,-8.67 -1.78,-2.16 -5.34,-1.8 -7.96,0.83 -2.62,2.62 -3.3,6.5 -1.53,8.67 1.77,2.16 5.33,1.8 7.95,-0.82zm-16.37 -20.01c2.62,-2.62 3.3,-6.5 1.53,-8.66 -1.77,-2.17 -5.33,-1.8 -7.95,0.82 -2.62,2.62 -3.31,6.5 -1.53,8.66 1.77,2.17 5.34,1.8 7.95,-0.82zm82.35 -9.59c-2.62,2.62 -6.51,3.31 -8.67,1.54 -2.17,-1.77 -1.8,-5.33 0.82,-7.96 2.62,-2.62 6.5,-3.3 8.67,-1.53 2.17,1.77 1.8,5.34 -0.82,7.95zm-20.01 -16.37c-2.62,2.62 -6.51,3.31 -8.67,1.54 -2.16,-1.78 -1.8,-5.33 0.83,-7.96 2.62,-2.62 6.5,-3.31 8.66,-1.53 2.17,1.77 1.8,5.34 -0.81,7.95zm-20.01 -16.37c-2.62,2.62 -6.5,3.31 -8.66,1.53 -2.17,-1.77 -1.8,-5.34 0.81,-7.95 2.62,-2.62 6.51,-3.31 8.67,-1.53 2.16,1.77 1.8,5.33 -0.82,7.95z"/>
    <path class="fil21" d="M5599.76 5574.53c-2.62,2.62 -3.31,6.5 -1.53,8.67 1.77,2.17 5.34,1.8 7.95,-0.82 2.62,-2.62 3.31,-6.51 1.54,-8.67 -1.78,-2.16 -5.33,-1.8 -7.96,0.83zm-38.7 38.7c2.62,-2.62 6.5,-3.3 8.66,-1.53 2.17,1.77 1.8,5.33 -0.81,7.95 -2.62,2.62 -6.51,3.31 -8.67,1.54 -2.16,-1.78 -1.8,-5.34 0.83,-7.96zm-60.03 -49.12c2.62,-2.62 6.51,-3.31 8.67,-1.54 2.17,1.77 1.8,5.33 -0.83,7.96 -2.62,2.62 -6.5,3.31 -8.66,1.53 -2.17,-1.77 -1.8,-5.34 0.81,-7.95zm20.01 16.37c2.62,-2.62 6.51,-3.31 8.67,-1.54 2.16,1.78 1.8,5.34 -0.83,7.96 -2.62,2.62 -6.5,3.31 -8.66,1.53 -2.17,-1.77 -1.8,-5.33 0.82,-7.95zm20.01 16.37c2.62,-2.62 6.5,-3.3 8.67,-1.53 2.17,1.77 1.8,5.34 -0.82,7.95 -2.62,2.62 -6.51,3.31 -8.66,1.53 -2.17,-1.77 -1.8,-5.33 0.81,-7.95zm9.59 -82.35c-2.62,2.62 -3.31,6.5 -1.54,8.67 1.77,2.17 5.34,1.8 7.96,-0.83 2.62,-2.62 3.3,-6.5 1.53,-8.66 -1.77,-2.17 -5.34,-1.8 -7.95,0.82zm16.38 20.01c-2.62,2.62 -3.31,6.51 -1.54,8.67 1.78,2.16 5.34,1.8 7.96,-0.83 2.62,-2.62 3.3,-6.5 1.53,-8.66 -1.77,-2.17 -5.34,-1.8 -7.95,0.81zm16.37 20.01c-2.62,2.62 -3.31,6.5 -1.53,8.66 1.77,2.17 5.34,1.8 7.95,-0.81 2.62,-2.62 3.31,-6.51 1.53,-8.67 -1.77,-2.17 -5.34,-1.8 -7.95,0.82z"/>
   </g>
   <g>
    <path class="fil21" d="M5940.87 5574.53c2.62,2.62 3.3,6.5 1.53,8.67 -1.77,2.17 -5.33,1.8 -7.95,-0.82 -2.62,-2.62 -3.31,-6.51 -1.54,-8.67 1.78,-2.16 5.34,-1.8 7.96,0.82zm38.7 38.7c-2.62,-2.62 -6.5,-3.3 -8.67,-1.53 -2.17,1.77 -1.8,5.33 0.82,7.95 2.62,2.62 6.51,3.31 8.67,1.54 2.16,-1.78 1.8,-5.34 -0.82,-7.96zm60.03 -49.12c-2.62,-2.62 -6.5,-3.31 -8.67,-1.54 -2.17,1.77 -1.8,5.33 0.83,7.96 2.62,2.62 6.5,3.31 8.66,1.53 2.17,-1.77 1.8,-5.34 -0.82,-7.95zm-20.01 16.37c-2.62,-2.62 -6.51,-3.31 -8.67,-1.54 -2.16,1.78 -1.8,5.34 0.83,7.96 2.62,2.62 6.5,3.31 8.66,1.53 2.17,-1.77 1.8,-5.33 -0.81,-7.95zm-20.01 16.37c-2.62,-2.62 -6.5,-3.3 -8.66,-1.53 -2.17,1.77 -1.8,5.34 0.81,7.95 2.62,2.62 6.51,3.31 8.67,1.53 2.17,-1.77 1.8,-5.33 -0.82,-7.95zm-9.59 -82.35c2.62,2.62 3.31,6.5 1.54,8.67 -1.77,2.17 -5.33,1.8 -7.96,-0.83 -2.62,-2.62 -3.31,-6.5 -1.53,-8.66 1.77,-2.17 5.34,-1.8 7.95,0.82zm-16.37 20.01c2.62,2.62 3.31,6.51 1.54,8.67 -1.78,2.16 -5.34,1.8 -7.96,-0.83 -2.62,-2.62 -3.31,-6.5 -1.53,-8.66 1.77,-2.17 5.33,-1.8 7.95,0.81zm-16.37 20.01c2.62,2.62 3.3,6.5 1.53,8.66 -1.77,2.17 -5.34,1.8 -7.95,-0.81 -2.62,-2.62 -3.31,-6.51 -1.53,-8.67 1.77,-2.17 5.33,-1.8 7.95,0.82z"/>
    <path class="fil21" d="M5561.07 5954.33c2.62,2.62 6.5,3.3 8.67,1.53 2.16,-1.77 1.8,-5.34 -0.82,-7.95 -2.62,-2.62 -6.51,-3.31 -8.67,-1.54 -2.16,1.78 -1.8,5.34 0.83,7.96zm38.7 38.7c-2.62,-2.62 -3.3,-6.5 -1.53,-8.66 1.77,-2.17 5.34,-1.8 7.95,0.81 2.62,2.62 3.31,6.51 1.54,8.67 -1.78,2.16 -5.34,1.8 -7.96,-0.83zm-49.12 60.03c-2.62,-2.62 -3.31,-6.51 -1.54,-8.67 1.77,-2.17 5.34,-1.8 7.96,0.83 2.62,2.62 3.3,6.5 1.53,8.66 -1.77,2.17 -5.34,1.8 -7.95,-0.81zm16.37 -20.01c-2.62,-2.62 -3.31,-6.51 -1.54,-8.67 1.78,-2.16 5.33,-1.8 7.96,0.83 2.62,2.62 3.31,6.5 1.53,8.67 -1.77,2.17 -5.34,1.8 -7.95,-0.82zm16.37 -20.01c-2.62,-2.62 -3.31,-6.5 -1.53,-8.67 1.77,-2.17 5.34,-1.8 7.95,0.82 2.62,2.62 3.31,6.51 1.53,8.66 -1.77,2.17 -5.33,1.8 -7.95,-0.81zm-82.36 -9.59c2.62,2.62 6.51,3.31 8.67,1.54 2.17,-1.77 1.8,-5.34 -0.83,-7.96 -2.62,-2.62 -6.5,-3.3 -8.66,-1.53 -2.17,1.77 -1.8,5.34 0.81,7.95zm20.01 -16.38c2.62,2.62 6.51,3.31 8.67,1.54 2.16,-1.78 1.8,-5.33 -0.83,-7.96 -2.62,-2.62 -6.5,-3.31 -8.67,-1.53 -2.17,1.77 -1.8,5.34 0.82,7.95zm20.01 -16.37c2.62,2.62 6.5,3.31 8.66,1.53 2.17,-1.77 1.8,-5.34 -0.82,-7.95 -2.62,-2.62 -6.5,-3.31 -8.66,-1.53 -2.17,1.77 -1.8,5.33 0.82,7.95z"/>
   </g>
   <path class="fil54" d="M6024.56 5783.78c0,-128.11 -113.83,-231.96 -254.24,-231.96 -140.41,0 -254.23,103.85 -254.23,231.96 0,128.1 113.83,231.96 254.23,231.96 140.41,0 254.24,-103.85 254.24,-231.96z"/>
   <path class="fil55" d="M6013.26 5783.78c0,-130.16 -118.41,-220.68 -242.94,-220.68 -124.53,0 -242.94,90.51 -242.94,220.68 0,130.16 118.41,220.67 242.94,220.67 124.53,0 242.94,-90.51 242.94,-220.67z"/>
   <path class="fil56" d="M5998.99 5783.78c0,-115.23 -102.38,-208.64 -228.67,-208.64 -126.29,0 -228.67,93.41 -228.67,208.64 0,115.22 102.38,208.63 228.67,208.63 126.29,0 228.67,-93.41 228.67,-208.63z"/>
   <path class="fil57" d="M5994.76 5783.78c0,-120.37 -109.13,-204.41 -224.44,-204.41 -115.31,0 -224.44,84.03 -224.44,204.41 0,120.37 109.13,204.4 224.44,204.4 115.31,0 224.44,-84.03 224.44,-204.4zm-4.23 0c0,-118.32 -107.61,-200.18 -220.21,-200.18 -112.6,0 -220.21,81.86 -220.21,200.18 0,118.32 107.61,200.18 220.21,200.18 112.61,0 220.21,-81.86 220.21,-200.18z"/>
   <path class="fil58" d="M5393.67 5867.79c41.33,154.79 194.27,269.7 376.64,269.7 182.38,0 335.32,-114.91 376.65,-269.7 -59.36,118.45 -205.62,202.24 -376.65,202.24 -171.03,0 -317.29,-83.8 -376.64,-202.24z"/>
   <path class="fil58" d="M5998.99 5783.78c0,-5.43 -0.23,-10.82 -0.68,-16.13 -9.03,92.21 -107.66,164.86 -228,164.86 -120.34,0 -218.97,-72.64 -227.99,-164.86 -0.45,5.32 -0.68,10.71 -0.68,16.13 0,115.22 102.38,208.63 228.67,208.63 126.29,0 228.67,-93.41 228.67,-208.63z"/>
  </g>
 </g>
</svg>
