<?xml version="1.0" encoding="UTF-8"?>
<!DOCTYPE svg PUBLIC "-//W3C//DTD SVG 1.1//EN" "http://www.w3.org/Graphics/SVG/1.1/DTD/svg11.dtd">
<!-- Creator: CorelDRAW 2019 (64-Bit) -->
<svg xmlns="http://www.w3.org/2000/svg" xml:space="preserve" width="3.33333in" height="2.66666in" version="1.1" style="shape-rendering:geometricPrecision; text-rendering:geometricPrecision; image-rendering:optimizeQuality; fill-rule:evenodd; clip-rule:evenodd"
viewBox="0 0 3333.33 2666.66"
 xmlns:xlink="http://www.w3.org/1999/xlink">
 <defs>
  <style type="text/css">
   <![CDATA[
    .fil0 {fill:none}
    .fil4 {fill:#98AEA2}
    .fil2 {fill:url(#id0)}
    .fil3 {fill:url(#id1)}
    .fil1 {fill:url(#id2)}
    .fil5 {fill:url(#id3)}
   ]]>
  </style>
  <linearGradient id="id0" gradientUnits="userSpaceOnUse" x1="1705.87" y1="1673.53" x2="1713.82" y2="960.44">
   <stop offset="0" style="stop-opacity:1; stop-color:#B5846E"/>
   <stop offset="0.458824" style="stop-opacity:1; stop-color:#ECD1B4"/>
   <stop offset="1" style="stop-opacity:1; stop-color:#B5846E"/>
  </linearGradient>
  <linearGradient id="id1" gradientUnits="userSpaceOnUse" x1="1720.07" y1="1559.09" x2="1720.07" y2="1487.13">
   <stop offset="0" style="stop-opacity:1; stop-color:#414D47"/>
   <stop offset="0.380392" style="stop-opacity:1; stop-color:#54675D"/>
   <stop offset="0.658824" style="stop-opacity:1; stop-color:#727978"/>
   <stop offset="0.768627" style="stop-opacity:1; stop-color:#54675D"/>
   <stop offset="1" style="stop-opacity:1; stop-color:#414D47"/>
  </linearGradient>
  <linearGradient id="id2" gradientUnits="userSpaceOnUse" xlink:href="#id1" x1="1781.39" y1="1763.94" x2="1781.39" y2="857.44">
  </linearGradient>
  <linearGradient id="id3" gradientUnits="objectBoundingBox" xlink:href="#id1" x1="62.1797%" y1="103.792%" x2="62.1797%" y2="0%">
  </linearGradient>
 </defs>
 <g id="Layer_x0020_1">
  <metadata id="CorelCorpID_0Corel-Layer"/>
  <g id="_992143280">
   <rect class="fil0" x="901.15" y="539.27" width="1617.46" height="1617.46"/>
   <path class="fil1" d="M1416.34 1040.12l293.55 -78.76 293.55 78.76 0 350.83c-14.63,223.09 -167.56,327.44 -293.55,343.67 -125.99,-16.23 -278.92,-120.58 -293.55,-343.67l0 -350.83zm47.73 36.61l0 312.61c5.61,81.35 32.73,158.76 91.09,217.32 41.33,41.48 96.64,70.81 154.72,79.75 58.09,-8.94 113.39,-38.27 154.72,-79.75 58.36,-58.56 85.48,-135.97 91.09,-217.32l0 -312.61 -245.81 -65.95 -245.82 65.95z"/>
   <path class="fil2" d="M1709.89 1029.18l-228.05 61.19 0 298.37c5.4,76.78 30.76,150.07 85.91,205.4 38.04,38.18 88.82,65.46 142.14,74.3 53.32,-8.84 104.1,-36.13 142.14,-74.3 55.14,-55.33 80.51,-128.62 85.91,-205.4l0 -298.37 -228.05 -61.19zm-140.17 132.25l46.05 0 0 -12.54 -46.05 0 -17.13 9.89 0 12.54 17.13 -9.89zm46.37 30.79l-46.37 0 -17.13 9.89 0 3.81 63.5 0 0 -13.7zm-46.37 -9.14l43.71 0 0 -12.54 -43.71 0 -17.13 9.89 0 12.54 17.13 -9.89zm233.97 -34.19l63.18 0 0 13.41 -46.05 0 0 8.24 43.71 0 0 12.54 -43.71 0 0 9.14 46.38 0 0 13.7 -63.5 0 0 -57.03zm-176.14 0l18.26 0 0 42.48 40.57 0 0 14.55 -58.83 0 0 -57.03zm97.69 0l69.02 0 0 14.55 -25.37 0 0 42.48 -18.26 0 0 -42.48 -25.4 0 0 -14.55zm-10.61 57.03l0 -57.03 -18.25 0 0 57.03 0 0 18.25 0 0 0zm94.78 172.94l-145.21 -0.56 -53.76 30.76 -0.05 11.96 198.85 0.76 0.16 -42.93zm-144.85 -96.95l144.19 0.54 0.14 -39.24 -144.17 -0.56 -53.77 30.77 -0.13 39.26 53.74 -30.76zm-0.26 67.78l136.85 0.53 0.16 -39.26 -136.85 -0.53 -53.76 30.76 -0.15 39.26 53.74 -30.76zm45.59 116.24c33.21,0 60.13,26.92 60.13,60.13 0,33.21 -26.92,60.13 -60.13,60.13 -33.21,0 -60.13,-26.92 -60.13,-60.13 0,-33.21 26.92,-60.13 60.13,-60.13z"/>
   <polygon class="fil3" points="1699.66,1556.76 1721.8,1534.63 1751.69,1504.73 1742.33,1495.38 1699.66,1538.05 1677.44,1515.82 1668.08,1525.18 1682.9,1540 "/>
   <path class="fil4" d="M2095.01 899.04l111.62 -29.94 111.62 29.94 0 133.41c-5.56,84.83 -63.71,124.51 -111.62,130.68 -47.91,-6.17 -106.06,-45.85 -111.62,-130.68l0 -133.41zm150.92 138.15c0,-13.24 -9.11,-21.5 -20.65,-23.5l0 -0.28c9.82,-3.28 16.52,-10.68 16.52,-21.79 0,-20.36 -18.65,-25.91 -34.31,-25.91l-40.16 0 0 100.81 40.16 0c19.22,0 38.44,-7.4 38.44,-29.33zm-27.63 -42.3c0,7.12 -5.27,10.96 -14.38,10.96l-13.1 0 0 -20.79 11.96 0c10.25,0 15.52,2.99 15.52,9.82zm3.28 40.02c0,9.83 -9.4,11.96 -17.09,11.96l-13.67 0 0 -23.07 13.53 0c10.39,0 17.23,2.71 17.23,11.11z"/>
   <path class="fil4" d="M1101.52 899.04l111.62 -29.94 111.62 29.94 0 133.41c-5.56,84.83 -63.71,124.51 -111.62,130.68 -47.91,-6.17 -106.06,-45.85 -111.62,-130.68l0 -133.41zm165.52 167.48l-41.86 -100.81 -23.64 0 -42.3 100.81 26.49 0 7.4 -19.79 39.02 0 7.83 19.79 27.06 0zm-41.58 -39.3l-25.35 0 12.81 -34.6 12.53 34.6z"/>
   <path class="fil4" d="M2095.01 1562.81l111.62 -29.94 111.62 29.94 0 133.41c-5.56,84.83 -63.71,124.51 -111.62,130.68 -47.91,-6.17 -106.06,-45.85 -111.62,-130.68l0 -133.41zm158.68 116.78c0,-38.16 -29.05,-50.13 -57.67,-50.13l-36.45 0 0 100.82 37.59 0c27.77,0 56.53,-15.24 56.53,-50.69zm-25.35 0c0,22.5 -16.09,29.62 -33.46,29.62l-11.54 0 0 -58.95 12.1 0c16.8,0 32.89,6.69 32.89,29.33z"/>
   <path class="fil4" d="M1101.52 1562.81l111.62 -29.94 111.62 29.94 0 133.41c-5.56,84.83 -63.71,124.51 -111.62,130.68 -47.91,-6.17 -106.06,-45.85 -111.62,-130.68l0 -133.41zm158.33 153.52l-16.94 -15.95c-4.27,5.98 -11.82,10.25 -21.36,10.25 -16.8,0 -28.62,-12.53 -28.62,-30.9 0,-17.8 12.11,-30.9 29.05,-30.9 7.69,0 15.81,2.99 20.36,9.26l16.52 -16.52c-8.4,-9.69 -23.64,-14.81 -37.74,-14.81 -30.76,0 -54.68,20.65 -54.68,52.97 0,31.61 23.21,53.26 54.25,53.26 16.94,0 30.33,-6.41 39.16,-16.66z"/>
   <path class="fil5" d="M1569.71 1161.43l46.05 0 0 -12.54 -46.05 0 -17.13 9.89 0 12.54 17.13 -9.89zm233.97 -12.54l0 57.03 63.5 0 0 -13.7 -46.38 0 0 -9.14 43.71 0 0 -12.54 -43.71 0 0 -8.24 46.05 0 0 -13.41 -63.18 0zm-53.06 14.55l0 42.48 18.26 0 0 -42.48 25.37 0 0 -14.55 -69.02 0 0 14.55 25.4 0zm-54.26 -14.55l0 57.03 18.25 0 0 -57.03 -18.25 0zm-68.82 0l0 57.03 58.83 0 0 -14.55 -40.57 0 0 -42.48 -18.26 0zm-11.46 43.33l-46.37 0 -17.13 9.89 0 3.81 63.5 0 0 -13.7zm-2.67 -21.68l-43.71 0 -17.13 9.89 0 12.54 17.13 -9.89 43.71 0 0 -12.54z"/>
   <polygon class="fil5" points="1808.88,1243.21 1664.71,1242.65 1610.94,1273.42 1610.81,1312.68 1664.55,1281.92 1808.74,1282.46 "/>
   <polygon class="fil5" points="1801.3,1310.97 1664.46,1310.44 1610.69,1341.2 1610.55,1380.46 1664.29,1349.7 1801.15,1350.22 "/>
   <polygon class="fil5" points="1809.39,1378.87 1664.18,1378.31 1610.43,1409.07 1610.38,1421.03 1809.23,1421.79 "/>
  </g>
 </g>
</svg>
