<?xml version="1.0" encoding="UTF-8"?>
<!DOCTYPE svg PUBLIC "-//W3C//DTD SVG 1.1//EN" "http://www.w3.org/Graphics/SVG/1.1/DTD/svg11.dtd">
<!-- Creator: CorelDRAW 2019 (64-Bit) -->
<svg xmlns="http://www.w3.org/2000/svg" xml:space="preserve" width="3.33333in" height="2.66666in" version="1.1" style="shape-rendering:geometricPrecision; text-rendering:geometricPrecision; image-rendering:optimizeQuality; fill-rule:evenodd; clip-rule:evenodd"
viewBox="0 0 3633.33 2000.66"
 xmlns:xlink="http://www.w3.org/1999/xlink">
 <defs>
  <style type="text/css">
   <![CDATA[
    .fil1 {fill:none}
    .fil2 {fill:#98AEA2}
    .fil0 {fill:#566A61;fill-rule:nonzero}
    .fil4 {fill:url(#id0)}
    .fil7 {fill:url(#id1)}
    .fil3 {fill:url(#id2)}
    .fil6 {fill:url(#id3)}
    .fil8 {fill:url(#id4)}
    .fil5 {fill:url(#id5)}
    .fil9 {fill:url(#id6)}
   ]]>
  </style>
  <linearGradient id="id0" gradientUnits="userSpaceOnUse" x1="1820.32" y1="1471.13" x2="1830.52" y2="557.13">
   <stop offset="0" style="stop-opacity:1; stop-color:#B5846E"/>
   <stop offset="0.458824" style="stop-opacity:1; stop-color:#ECD1B4"/>
   <stop offset="1" style="stop-opacity:1; stop-color:#B5846E"/>
  </linearGradient>
  <linearGradient id="id1" gradientUnits="userSpaceOnUse" x1="1859.65" y1="1016.14" x2="1859.65" y2="899.63">
   <stop offset="0" style="stop-opacity:1; stop-color:#414D47"/>
   <stop offset="0.380392" style="stop-opacity:1; stop-color:#54675D"/>
   <stop offset="0.658824" style="stop-opacity:1; stop-color:#727978"/>
   <stop offset="0.768627" style="stop-opacity:1; stop-color:#54675D"/>
   <stop offset="1" style="stop-opacity:1; stop-color:#414D47"/>
  </linearGradient>
  <linearGradient id="id2" gradientUnits="userSpaceOnUse" xlink:href="#id1" x1="1917.13" y1="1587.02" x2="1917.13" y2="425.1">
  </linearGradient>
  <linearGradient id="id3" gradientUnits="userSpaceOnUse" xlink:href="#id1" x1="1879.85" y1="863.93" x2="1879.85" y2="769.05">
  </linearGradient>
  <linearGradient id="id4" gradientUnits="userSpaceOnUse" xlink:href="#id1" x1="1852.83" y1="1112.32" x2="1852.83" y2="995.83">
  </linearGradient>
  <linearGradient id="id5" gradientUnits="userSpaceOnUse" xlink:href="#id1" x1="1838.52" y1="1324.45" x2="1838.52" y2="1232.21">
  </linearGradient>
  <linearGradient id="id6" gradientUnits="userSpaceOnUse" xlink:href="#id1" x1="1859.87" y1="1169.55" x2="1859.87" y2="1097.21">
  </linearGradient>
 </defs>
 <g id="Layer_x0020_1">
  <metadata id="CorelCorpID_0Corel-Layer"/>
  <g id="_862813200">
   <g>
    <rect class="fil1" x="1016.74" y="261.82" width="1617.46" height="1617.46"/>
    <g>
     <path class="fil2" d="M2277.27 621.59l111.62 -29.94 111.62 29.94 0 133.41c-5.56,84.83 -63.71,124.51 -111.62,130.68 -47.91,-6.17 -106.06,-45.85 -111.62,-130.68l0 -133.41zm150.92 138.15c0,-13.24 -9.11,-21.5 -20.65,-23.5l0 -0.28c9.82,-3.28 16.52,-10.68 16.52,-21.79 0,-20.36 -18.65,-25.91 -34.31,-25.91l-40.16 0 0 100.81 40.16 0c19.22,0 38.44,-7.4 38.44,-29.33zm-27.63 -42.3c0,7.12 -5.27,10.96 -14.38,10.96l-13.1 0 0 -20.79 11.96 0c10.25,0 15.52,2.99 15.52,9.82zm3.28 40.02c0,9.83 -9.4,11.96 -17.09,11.96l-13.67 0 0 -23.07 13.53 0c10.39,0 17.23,2.71 17.23,11.11z"/>
     <path class="fil2" d="M1150.44 621.59l111.62 -29.94 111.62 29.94 0 133.41c-5.56,84.83 -63.71,124.51 -111.62,130.68 -47.91,-6.17 -106.06,-45.85 -111.62,-130.68l0 -133.41zm165.52 167.48l-41.86 -100.81 -23.64 0 -42.3 100.81 26.49 0 7.4 -19.79 39.02 0 7.83 19.79 27.06 0zm-41.58 -39.3l-25.35 0 12.81 -34.6 12.53 34.6z"/>
    </g>
    <g>
     <path class="fil2" d="M2277.27 1285.35l111.62 -29.94 111.62 29.94 0 133.41c-5.56,84.83 -63.71,124.51 -111.62,130.68 -47.91,-6.17 -106.06,-45.85 -111.62,-130.68l0 -133.41zm158.68 116.78c0,-38.16 -29.05,-50.13 -57.67,-50.13l-36.45 0 0 100.82 37.59 0c27.77,0 56.53,-15.24 56.53,-50.69zm-25.35 0c0,22.5 -16.09,29.62 -33.46,29.62l-11.54 0 0 -58.95 12.1 0c16.8,0 32.89,6.69 32.89,29.33z"/>
     <path class="fil2" d="M1150.44 1285.35l111.62 -29.94 111.62 29.94 0 133.41c-5.56,84.83 -63.71,124.51 -111.62,130.68 -47.91,-6.17 -106.06,-45.85 -111.62,-130.68l0 -133.41zm158.33 153.52l-16.94 -15.95c-4.27,5.98 -11.82,10.25 -21.36,10.25 -16.8,0 -28.62,-12.53 -28.62,-30.9 0,-17.8 12.11,-30.9 29.05,-30.9 7.69,0 15.81,2.99 20.36,9.26l16.52 -16.52c-8.4,-9.69 -23.64,-14.81 -37.74,-14.81 -30.76,0 -54.68,20.65 -54.68,52.97 0,31.61 23.21,53.26 54.25,53.26 16.94,0 30.33,-6.41 39.16,-16.66z"/>
    </g>
    <path class="fil3" d="M1449.22 659.26l376.26 -100.95 376.26 100.95 0 449.68c-18.75,285.95 -214.76,419.7 -376.26,440.5 -161.49,-20.8 -357.5,-154.55 -376.26,-440.5l0 -449.68zm61.18 46.93l0 400.7c7.19,104.27 41.95,203.49 116.76,278.56 52.98,53.16 123.87,90.76 198.32,102.22 74.45,-11.46 145.34,-49.06 198.32,-102.22 74.8,-75.07 109.57,-174.28 116.76,-278.56l0 -400.7 -315.07 -84.53 -315.08 84.53z"/>
    <path class="fil4" d="M1825.47 645.23l-292.31 78.43 0 382.44c6.92,98.42 39.44,192.35 110.11,263.27 48.76,48.93 113.85,83.9 182.19,95.24 68.35,-11.33 133.43,-46.3 182.19,-95.24 70.68,-70.93 103.2,-164.85 110.11,-263.27l0 -382.44 -292.31 -78.43zm0 559.82c42.57,0 77.07,34.5 77.07,77.07 0,42.57 -34.51,77.07 -77.07,77.07 -42.57,0 -77.07,-34.51 -77.07,-77.07 0,-42.57 34.51,-77.07 77.07,-77.07z"/>
    <polygon class="fil5" points="1812.37,1321.46 1840.74,1293.09 1879.06,1254.78 1867.06,1242.78 1812.37,1297.47 1783.88,1268.99 1771.89,1280.98 1790.88,1299.98 "/>
    <g>
     <path class="fil6" d="M1626.55 797.72l65.35 0 0 -17.79 -65.35 0 -24.31 14.04 0 17.79 24.31 -14.04zm332.04 -17.79l0 80.94 90.12 0 0 -19.45 -65.81 0 0 -12.97 62.04 0 0 -17.79 -62.04 0 0 -11.7 65.35 0 0 -19.02 -89.66 0zm-75.29 20.65l0 60.29 25.91 0 0 -60.29 36 0 0 -20.65 -97.95 0 0 20.65 36.04 0zm-77.01 -20.65l0 80.94 25.9 0 0 -80.94 -25.9 0zm-97.66 0l0 80.94 83.49 0 0 -20.65 -57.58 0 0 -60.29 -25.91 0zm-16.26 61.49l-65.81 0 -24.31 14.04 0 5.41 90.12 0 0 -19.45zm-3.78 -30.76l-62.03 0 -24.31 14.04 0 17.79 24.31 -14.03 62.03 0 0 -17.79z"/>
     <polygon class="fil7" points="1965.96,913.78 1761.37,912.98 1685.06,956.65 1684.87,1012.37 1761.13,968.71 1965.76,969.47 "/>
     <polygon class="fil8" points="1955.2,1009.94 1761,1009.19 1684.71,1052.84 1684.5,1108.56 1760.77,1064.9 1954.98,1065.65 "/>
     <polygon class="fil9" points="1966.69,1106.29 1760.61,1105.5 1684.33,1149.16 1684.26,1166.13 1966.46,1167.21 "/>
    </g>
   </g>
  </g>
 </g>
</svg>
