<?xml version="1.0" encoding="UTF-8"?>
<!DOCTYPE svg PUBLIC "-//W3C//DTD SVG 1.1//EN" "http://www.w3.org/Graphics/SVG/1.1/DTD/svg11.dtd">
<!-- Creator: CorelDRAW 2019 (64-Bit) -->
<svg xmlns="http://www.w3.org/2000/svg" xml:space="preserve" width="0.463543in" height="0.100004in" version="1.1" style="shape-rendering:geometricPrecision; text-rendering:geometricPrecision; image-rendering:optimizeQuality; fill-rule:evenodd; clip-rule:evenodd"
viewBox="0 0 26.99 5.82"
 xmlns:xlink="http://www.w3.org/1999/xlink">
 <defs>
  <style type="text/css">
   <![CDATA[
    .fil3 {fill:none}
    .fil1 {fill:url(#id0)}
    .fil2 {fill:url(#id1)}
    .fil0 {fill:url(#id2)}
   ]]>
  </style>
  <linearGradient id="id0" gradientUnits="userSpaceOnUse" x1="2.76" y1="4.34" x2="2.76" y2="1.47">
   <stop offset="0" style="stop-opacity:1; stop-color:#B5846E"/>
   <stop offset="0.501961" style="stop-opacity:1; stop-color:#ECD1B4"/>
   <stop offset="1" style="stop-opacity:1; stop-color:#B5846E"/>
  </linearGradient>
  <linearGradient id="id1" gradientUnits="userSpaceOnUse" xlink:href="#id0" x1="2.76" y1="4.34" x2="2.76" y2="1.47">
  </linearGradient>
  <linearGradient id="id2" gradientUnits="userSpaceOnUse" xlink:href="#id0" x1="14.97" y1="1.44" x2="14.97" y2="4.42">
  </linearGradient>
 </defs>
 <g id="Layer_x0020_1">
  <metadata id="CorelCorpID_0Corel-Layer"/>
  <g id="_1203398960">
   <g>
    <path class="fil0" d="M8.33 3.57c0,0.09 -0.01,0.17 -0.02,0.23 -0.02,0.06 -0.05,0.13 -0.1,0.19 -0.08,0.11 -0.23,0.18 -0.43,0.23 -0.13,0.03 -0.28,0.04 -0.45,0.04 -0.04,0 -0.07,0 -0.08,0l-0.93 0c-0.3,0 -0.52,-0.03 -0.67,-0.08 -0.09,-0.03 -0.18,-0.09 -0.25,-0.17 -0.08,-0.08 -0.13,-0.23 -0.17,-0.46 -0.03,-0.15 -0.04,-0.3 -0.04,-0.44l0 -0.22c0,-0.02 0,-0.04 0,-0.06 0,-0.02 0,-0.05 0,-0.07 0,-0.2 0.01,-0.37 0.04,-0.51 0.04,-0.22 0.11,-0.38 0.22,-0.48 0.09,-0.08 0.2,-0.14 0.34,-0.17 0.09,-0.02 0.23,-0.03 0.42,-0.03l0.18 0 0.55 0c0.04,0 0.09,0 0.13,0 0.04,0 0.09,0 0.14,0 0.33,0 0.57,0.03 0.71,0.08 0.12,0.04 0.22,0.12 0.28,0.21 0.04,0.06 0.07,0.13 0.08,0.2 0.01,0.05 0.02,0.11 0.02,0.17 0,0.04 0,0.07 0,0.09l0 0.13 -0.34 0 0 -0.13c0,-0.02 0,-0.04 0,-0.05 0,-0.08 -0,-0.14 -0.01,-0.17 -0.01,-0.05 -0.04,-0.1 -0.09,-0.14 -0.05,-0.04 -0.12,-0.07 -0.21,-0.08 -0.09,-0.01 -0.2,-0.02 -0.34,-0.02 -0.04,0 -0.07,0 -0.09,0l-1.05 0c-0.14,0 -0.24,0.01 -0.31,0.02 -0.07,0.02 -0.12,0.05 -0.17,0.1 -0.07,0.08 -0.11,0.2 -0.13,0.36 -0.01,0.1 -0.02,0.26 -0.02,0.48l0 0.32c0,0.12 0.01,0.23 0.02,0.33 0.02,0.14 0.06,0.25 0.11,0.32 0.04,0.06 0.13,0.1 0.26,0.13 0.1,0.02 0.21,0.03 0.34,0.03 0.03,0 0.06,0 0.08,0 0.02,0 0.05,0 0.07,0l0.72 0c0.04,0 0.06,0 0.09,0 0.14,0 0.25,-0 0.33,-0.01 0.14,-0.01 0.24,-0.04 0.31,-0.09 0.07,-0.04 0.1,-0.12 0.11,-0.22 0,-0.04 0.01,-0.09 0.01,-0.17l0 -0.13 0.35 0 0 0.23zm3.98 0.68l-0.41 0 -0.36 -0.57 -2.08 0 -0.33 0.57 -0.39 0 1.53 -2.68 0.43 0 1.61 2.68zm-0.95 -0.88l-0.88 -1.48 -0.85 1.48 1.73 0zm3.75 0.88l-2.44 0 0 -2.68 0.36 0 0 2.39 2.09 0 0 0.29zm2.82 0l-2.44 0 0 -2.68 0.36 0 0 2.39 2.09 0 0 0.29zm4.35 -0.7c0,0.14 -0.01,0.23 -0.02,0.29 -0.02,0.09 -0.07,0.17 -0.15,0.24 -0.08,0.07 -0.21,0.12 -0.38,0.15 -0.12,0.02 -0.28,0.03 -0.48,0.03 -0.02,0 -0.03,0 -0.04,0 -0.02,0 -0.03,0 -0.04,0 -0.02,0 -0.03,0 -0.03,0 -0.04,0 -0.07,0 -0.11,0 -0.04,0 -0.07,0 -0.1,0l-0.36 0c-0.04,0 -0.1,0 -0.18,0 -0.08,0 -0.15,0 -0.2,0 -0.24,0 -0.42,-0.01 -0.54,-0.04 -0.11,-0.02 -0.2,-0.06 -0.27,-0.11 -0.09,-0.07 -0.15,-0.15 -0.19,-0.26 -0.03,-0.08 -0.04,-0.2 -0.04,-0.34l0 -1.94 0.32 0 0 1.92c0,0.07 0,0.13 0.01,0.18 0.01,0.05 0.03,0.1 0.06,0.15 0.04,0.05 0.1,0.08 0.19,0.1 0.09,0.02 0.28,0.03 0.57,0.03l0.79 0 0.18 0c0.18,0 0.31,-0.01 0.39,-0.03 0.07,-0.02 0.13,-0.05 0.17,-0.09 0.04,-0.04 0.06,-0.09 0.08,-0.15 0.01,-0.06 0.02,-0.14 0.02,-0.22l0 -1.91 0.33 0 0 1.98zm3.41 0c0,0.12 -0.02,0.22 -0.05,0.3 -0.04,0.08 -0.09,0.15 -0.16,0.21 -0.09,0.08 -0.21,0.13 -0.36,0.16 -0.11,0.02 -0.25,0.03 -0.43,0.03 -0.02,0 -0.03,0 -0.04,0 -0.02,0 -0.03,0 -0.04,0 -0.02,0 -0.03,0 -0.03,0 -0.04,0 -0.07,0 -0.11,0 -0.03,0 -0.07,0 -0.1,0l-0.63 0c-0.01,0 -0.03,0 -0.05,0 -0.02,0 -0.04,0 -0.06,0 -0.12,0 -0.22,-0.01 -0.31,-0.03 -0.14,-0.03 -0.26,-0.09 -0.36,-0.17 -0.05,-0.04 -0.09,-0.1 -0.12,-0.18 -0.03,-0.08 -0.04,-0.17 -0.04,-0.28l0 -0.17 0.33 0 0 0.14c0,0.05 0,0.1 0.01,0.14 0.01,0.04 0.02,0.08 0.05,0.11 0.05,0.07 0.16,0.12 0.35,0.14 0.08,0.01 0.26,0.01 0.53,0.01l0.45 0c0.14,0 0.26,-0.01 0.36,-0.02 0.19,-0.02 0.32,-0.07 0.38,-0.12 0.07,-0.07 0.11,-0.15 0.11,-0.24l0 -0.1c0,-0.11 -0.01,-0.19 -0.03,-0.24 -0.02,-0.05 -0.05,-0.09 -0.09,-0.13 -0.03,-0.03 -0.07,-0.05 -0.13,-0.06 -0.05,-0.01 -0.12,-0.01 -0.2,-0.01 -0.04,0 -0.07,0 -0.09,0l-1.16 0c-0.08,0 -0.15,-0 -0.21,-0.01 -0.13,-0.01 -0.23,-0.03 -0.3,-0.07 -0.13,-0.05 -0.22,-0.12 -0.28,-0.21 -0.06,-0.09 -0.09,-0.2 -0.09,-0.34l0 -0.09c0,-0.16 0.02,-0.29 0.07,-0.39 0.06,-0.12 0.15,-0.21 0.29,-0.27 0.1,-0.04 0.24,-0.07 0.45,-0.08 0.2,-0.01 0.35,-0.01 0.45,-0.01l0.35 0c0.29,0 0.48,0.01 0.6,0.02 0.23,0.03 0.39,0.1 0.47,0.2 0.06,0.08 0.11,0.15 0.13,0.22 0.02,0.07 0.04,0.15 0.04,0.24l0 0.1 -0.34 0 0 -0.13c0,-0.1 -0.03,-0.18 -0.1,-0.25 -0.05,-0.05 -0.14,-0.08 -0.26,-0.1 -0.07,-0.01 -0.17,-0.02 -0.28,-0.02 -0.04,0 -0.06,0 -0.07,0l-0.71 0c-0.21,0 -0.36,0.01 -0.45,0.03 -0.09,0.02 -0.16,0.06 -0.21,0.11 -0.03,0.04 -0.05,0.08 -0.06,0.12 -0.01,0.04 -0.01,0.09 -0.01,0.16 0,0.02 0,0.03 0,0.04l0 0.04c0,0.06 0.01,0.11 0.02,0.15 0.01,0.04 0.04,0.08 0.07,0.11 0.04,0.05 0.09,0.08 0.16,0.09 0.04,0.01 0.11,0.02 0.19,0.02 0.02,0 0.04,0 0.06,0 0.02,0 0.03,0 0.05,0l1.21 0c0.05,0 0.13,0.01 0.22,0.02 0.14,0.02 0.24,0.05 0.31,0.09 0.1,0.06 0.18,0.13 0.22,0.21 0.06,0.09 0.08,0.21 0.08,0.35l0 0.15z"/>
    <g>
     <path class="fil1" d="M2.11 2.84c-0.09,-0.12 -0.08,-0.14 -0.06,-0.21 0.02,-0.07 0.09,-0.16 0.13,-0.22 0.04,-0.06 0.03,-0.08 -0.03,-0.2 -0.07,-0.12 -0.2,-0.32 -0.27,-0.43 -0.07,-0.11 -0.08,-0.12 -0.14,-0.11 -0.06,0.01 -0.16,0.05 -0.24,0.09 -0.08,0.04 -0.14,0.1 -0.17,0.19 -0.03,0.09 -0.04,0.21 -0.01,0.34 0.03,0.13 0.1,0.28 0.17,0.43 0.08,0.15 0.17,0.3 0.3,0.46 0.13,0.16 0.36,0.4 0.52,0.53 0.15,0.14 0.3,0.23 0.45,0.32 0.15,0.08 0.29,0.16 0.42,0.19 0.13,0.03 0.25,0.03 0.34,0 0.09,-0.03 0.14,-0.08 0.19,-0.16 0.05,-0.08 0.09,-0.18 0.1,-0.24 0.01,-0.06 0,-0.07 -0.1,-0.14 -0.11,-0.07 -0.31,-0.21 -0.42,-0.28 -0.11,-0.07 -0.14,-0.07 -0.2,-0.04 -0.06,0.03 -0.15,0.1 -0.22,0.12 -0.07,0.02 -0.13,-0.01 -0.21,-0.07 -0.16,-0.12 -0.46,-0.45 -0.55,-0.57z"/>
     <path class="fil2" d="M3.57 3.11c0,-0.3 -0.11,-0.6 -0.34,-0.83 -0.23,-0.23 -0.53,-0.34 -0.83,-0.34 -0.05,0 -0.09,0.04 -0.09,0.09 0,0.05 0.04,0.09 0.09,0.09l0 0c0.25,-0 0.5,0.09 0.69,0.29 0.19,0.19 0.29,0.44 0.29,0.69l0 0c0,0.05 0.04,0.09 0.09,0.09 0.05,0 0.09,-0.04 0.09,-0.09zm0.38 0c-0,0.05 -0.04,0.09 -0.09,0.09 -0.05,0 -0.09,-0.04 -0.09,-0.09l0 0 0 0c0,-0.35 -0.13,-0.7 -0.4,-0.96 -0.27,-0.27 -0.61,-0.4 -0.96,-0.4l0 0 0 -0c-0.05,0 -0.09,-0.04 -0.09,-0.09 0,-0.05 0.04,-0.09 0.09,-0.09l0 0 0 0c0.4,-0 0.79,0.15 1.09,0.45 0.3,0.3 0.45,0.7 0.45,1.09l0 0 0 0z"/>
    </g>
   </g>
   <rect class="fil3" y="-0" width="26.99" height="5.82"/>
  </g>
 </g>
</svg>
