<?xml version="1.0" encoding="UTF-8"?>
<!DOCTYPE svg PUBLIC "-//W3C//DTD SVG 1.1//EN" "http://www.w3.org/Graphics/SVG/1.1/DTD/svg11.dtd">
<!-- Creator: CorelDRAW 2019 (64-Bit) -->
<svg xmlns="http://www.w3.org/2000/svg" xml:space="preserve" width="3.33333in" height="2.66666in" version="1.1" style="shape-rendering:geometricPrecision; text-rendering:geometricPrecision; image-rendering:optimizeQuality; fill-rule:evenodd; clip-rule:evenodd"
viewBox="0 0 3333.33 2666.66"
 xmlns:xlink="http://www.w3.org/1999/xlink">
 <defs>
  <style type="text/css">
   <![CDATA[
    .fil0 {fill:none}
    .fil2 {fill:#494949}
    .fil3 {fill:#98AEA2}
    .fil1 {fill:url(#id0)}
    .fil4 {fill:url(#id1)}
    .fil5 {fill:url(#id2)}
   ]]>
  </style>
  <linearGradient id="id0" gradientUnits="userSpaceOnUse" x1="2083.06" y1="1413.61" x2="2083.06" y2="1012.89">
   <stop offset="0" style="stop-opacity:1; stop-color:#414D47"/>
   <stop offset="0.380392" style="stop-opacity:1; stop-color:#54675D"/>
   <stop offset="0.658824" style="stop-opacity:1; stop-color:#727978"/>
   <stop offset="0.768627" style="stop-opacity:1; stop-color:#54675D"/>
   <stop offset="1" style="stop-opacity:1; stop-color:#414D47"/>
  </linearGradient>
  <linearGradient id="id1" gradientUnits="userSpaceOnUse" xlink:href="#id0" x1="1666.66" y1="1953.05" x2="1666.66" y2="1363.47">
  </linearGradient>
  <linearGradient id="id2" gradientUnits="userSpaceOnUse" x1="1408.36" y1="1899.93" x2="1417.13" y2="1635.87">
   <stop offset="0" style="stop-opacity:1; stop-color:#B5846E"/>
   <stop offset="0.631373" style="stop-opacity:1; stop-color:#ECD1B4"/>
   <stop offset="1" style="stop-opacity:1; stop-color:#B5846E"/>
  </linearGradient>
 </defs>
 <g id="Layer_x0020_1">
  <metadata id="CorelCorpID_0Corel-Layer"/>
  <g id="_871053200">
   <polygon class="fil0" points="857.94,524.61 2475.39,524.61 2475.39,2142.06 857.94,2142.06 "/>
   <path class="fil1" d="M2086.83 1036.94l4.26 3.9c1.86,1.7 4.51,1.96 6.67,0.66l4.94 -2.99c2.48,-1.5 5.68,-0.87 7.39,1.47l3.42 4.65c1.49,2.03 4.04,2.8 6.4,1.94l5.43 -1.97c2.72,-0.99 5.73,0.26 6.96,2.88l2.45 5.23c1.06,2.28 3.41,3.54 5.9,3.15l5.71 -0.87c2.87,-0.44 5.57,1.37 6.27,4.19l1.38 5.61c0.6,2.44 2.66,4.13 5.17,4.24l5.77 0.26c2.9,0.13 5.2,2.43 5.33,5.33l0.26 5.77c0.11,2.51 1.81,4.57 4.25,5.17l5.61 1.38c2.82,0.69 4.63,3.4 4.19,6.27l-0.87 5.71c-0.38,2.49 0.87,4.84 3.15,5.9l5.23 2.45c2.63,1.23 3.88,4.24 2.89,6.96l-1.97 5.43c-0.86,2.37 -0.08,4.92 1.94,6.41l4.65 3.42c2.34,1.72 2.97,4.91 1.47,7.39l-2.99 4.94c-1.3,2.15 -1.04,4.8 0.66,6.66l3.89 4.26c1.96,2.14 1.96,5.4 0,7.54l-3.89 4.26c-1.7,1.85 -1.96,4.51 -0.66,6.66l2.99 4.94c1.5,2.48 0.87,5.68 -1.47,7.39l-4.65 3.42c-2.02,1.49 -2.8,4.04 -1.94,6.4l1.97 5.43c0.99,2.73 -0.26,5.74 -2.89,6.96l-5.23 2.44c-2.28,1.07 -3.54,3.42 -3.15,5.91l0.87 5.71c0.44,2.87 -1.37,5.57 -4.19,6.27l-5.61 1.38c-2.44,0.6 -4.13,2.66 -4.24,5.17l-0.26 5.77c-0.13,2.9 -2.43,5.2 -5.33,5.33l-5.77 0.26c-2.51,0.11 -4.57,1.8 -5.17,4.25l-1.38 5.61c-0.69,2.82 -3.4,4.63 -6.27,4.19l-5.71 -0.87c-2.49,-0.38 -4.84,0.88 -5.9,3.16l-2.45 5.23c-1.23,2.63 -4.24,3.87 -6.96,2.89l-5.43 -1.97c-2.37,-0.86 -4.92,-0.09 -6.41,1.94l-3.42 4.65c-1.72,2.34 -4.91,2.97 -7.39,1.47l-4.94 -2.99c-2.15,-1.3 -4.8,-1.04 -6.66,0.66l-4.26 3.9c-2.14,1.96 -5.39,1.96 -7.54,0l-4.26 -3.9c-1.86,-1.7 -4.51,-1.96 -6.67,-0.66l-4.94 2.99c-2.48,1.5 -5.68,0.87 -7.39,-1.47l-3.42 -4.65c-1.49,-2.03 -4.04,-2.8 -6.4,-1.94l-5.43 1.97c-2.72,0.99 -5.73,-0.26 -6.96,-2.89l-2.45 -5.23c-1.06,-2.28 -3.41,-3.54 -5.9,-3.15l-5.71 0.87c-2.87,0.44 -5.57,-1.37 -6.27,-4.19l-1.38 -5.61c-0.6,-2.44 -2.66,-4.13 -5.17,-4.25l-5.77 -0.26c-2.9,-0.13 -5.2,-2.43 -5.33,-5.33l-0.26 -5.77c-0.11,-2.51 -1.8,-4.57 -4.25,-5.17l-5.61 -1.38c-2.82,-0.69 -4.63,-3.4 -4.19,-6.27l0.87 -5.71c0.38,-2.49 -0.87,-4.84 -3.15,-5.91l-5.23 -2.44c-2.63,-1.23 -3.88,-4.24 -2.89,-6.96l1.97 -5.43c0.86,-2.36 0.08,-4.91 -1.94,-6.4l-4.65 -3.42c-2.34,-1.72 -2.97,-4.91 -1.47,-7.39l2.99 -4.94c1.3,-2.15 1.04,-4.8 -0.66,-6.66l-3.89 -4.26c-1.96,-2.14 -1.96,-5.4 0,-7.54l3.89 -4.26c1.7,-1.85 1.96,-4.51 0.66,-6.66l-2.99 -4.94c-1.5,-2.48 -0.87,-5.68 1.47,-7.39l4.65 -3.42c2.02,-1.49 2.8,-4.04 1.94,-6.41l-1.97 -5.43c-0.99,-2.73 0.26,-5.74 2.89,-6.96l5.23 -2.44c2.28,-1.07 3.54,-3.42 3.15,-5.91l-0.87 -5.71c-0.44,-2.87 1.37,-5.57 4.19,-6.27l5.61 -1.38c2.44,-0.6 4.13,-2.66 4.24,-5.17l0.26 -5.77c0.13,-2.9 2.43,-5.2 5.33,-5.33l5.77 -0.26c2.52,-0.11 4.57,-1.8 5.17,-4.24l1.38 -5.61c0.69,-2.82 3.4,-4.63 6.27,-4.19l5.71 0.87c2.49,0.38 4.84,-0.87 5.9,-3.15l2.45 -5.23c1.23,-2.63 4.24,-3.87 6.96,-2.88l5.43 1.97c2.37,0.86 4.92,0.08 6.41,-1.94l3.42 -4.65c1.72,-2.34 4.91,-2.98 7.39,-1.47l4.94 2.99c2.15,1.3 4.8,1.04 6.66,-0.66l4.26 -3.9c2.14,-1.96 5.39,-1.96 7.54,0zm68.39 222.94l43.32 104.89 -45.83 -19.93 -18.41 46.46 -45.47 -110.1c0.55,-0.35 1.08,-0.74 1.57,-1.2l4.26 -3.9c0.12,-0.11 0.2,-0.12 0.33,-0.03l4.94 2.99c4.82,2.92 11.07,1.67 14.41,-2.87l3.42 -4.65c0.1,-0.13 0.17,-0.15 0.32,-0.1l5.43 1.97c5.3,1.92 11.19,-0.52 13.58,-5.62l2.44 -5.23c0.07,-0.15 0.14,-0.18 0.3,-0.16l5.7 0.87c3.7,0.56 7.28,-0.8 9.66,-3.39zm-77.93 21.31l-45.47 110.1 -18.41 -46.46 -45.82 19.93 43.32 -104.89c2.38,2.59 5.96,3.95 9.66,3.39l5.7 -0.87c0.16,-0.02 0.23,0.01 0.3,0.16l2.44 5.23c2.39,5.11 8.28,7.54 13.58,5.62l5.43 -1.97c0.15,-0.06 0.22,-0.03 0.32,0.1l3.42 4.65c3.34,4.54 9.59,5.78 14.41,2.87l4.94 -2.99c0.14,-0.09 0.22,-0.08 0.33,0.03l4.26 3.9c0.5,0.45 1.02,0.85 1.57,1.2zm-8.76 -75.95l31.46 -31.45 42.47 -42.48 -13.3 -13.3 -60.63 60.63 -31.58 -31.58 -13.3 13.3 21.06 21.06 23.82 23.82zm14.53 -148.48c55.09,0 99.74,44.65 99.74,99.74 0,55.09 -44.66,99.74 -99.74,99.74 -55.09,0 -99.74,-44.66 -99.74,-99.74 0,-55.09 44.66,-99.74 99.74,-99.74zm0 4.15c52.79,0 95.59,42.8 95.59,95.59 0,52.79 -42.8,95.59 -95.59,95.59 -52.79,0 -95.59,-42.8 -95.59,-95.59 0,-52.79 42.8,-95.59 95.59,-95.59z"/>
   <path class="fil2" d="M1434.76 1011.37c0,-113.6 67.41,-209.85 160.59,-242.97l2.88 37.04 3.57 45.98 3.57 -45.98 3.21 -41.28c16.52,-4.69 33.74,-7.43 51.47,-7.97l3.02 43.65 3.57 51.59 3.57 -51.59 3.02 -43.65c17.72,0.55 34.96,3.28 51.47,7.97l3.21 41.28 3.57 45.98 3.57 -45.98 2.88 -37.04c93.19,33.11 160.6,129.37 160.6,242.97 0,7.22 -0.27,14.37 -0.81,21.44l4.34 -1.42 -13.91 4.56c-17.84,5.85 -35.93,10.55 -54.38,14.02 -31.07,5.84 -63.31,8.23 -95.54,9.21l-3.19 -85.42 -3.57 -95.8 -3.57 95.8 -3.2 85.75c-19.52,0.38 -38.96,0.34 -58.07,0.34 -19.11,0 -38.57,0.04 -58.08,-0.34l-3.2 -85.75 -3.57 -95.8 -3.57 95.8 -3.19 85.42c-32.22,-0.98 -64.46,-3.37 -95.53,-9.21 -18.45,-3.47 -36.54,-8.17 -54.38,-14.02l-13.91 -4.56 4.34 1.42c-0.54,-7.07 -0.81,-14.22 -0.81,-21.44zm479.87 39.98l0.13 0.23c1.76,-13.12 2.68,-26.55 2.68,-40.2 0,-151.41 -112.27,-274.15 -250.77,-274.15 -138.5,0 -250.77,122.74 -250.77,274.15 0,13.66 0.91,27.08 2.68,40.2l0.13 -0.23c-7.26,12.57 -12.97,26.65 -9.89,41.25 3.89,18.39 19.72,29.34 35.61,36.98 64.23,30.85 151.9,36.74 222.23,36.74 70.33,0 158,-5.89 222.23,-36.74 15.89,-7.64 31.72,-18.59 35.61,-36.98 3.08,-14.59 -2.63,-28.69 -9.88,-41.25zm-20.56 2.53c17.35,27.19 19.65,42.85 -13.33,58.69 -51.91,24.94 -126.85,34.88 -214.06,34.88 -87.21,0 -162.16,-9.94 -214.06,-34.88 -32.99,-15.85 -30.69,-31.5 -13.34,-58.69 70.04,22.96 129.33,24.84 227.4,24.84 98.06,0 157.35,-1.88 227.4,-24.84z"/>
   <path class="fil2" d="M1643.6 1415.06c-43.27,-5.93 -82.54,-27.98 -112.31,-59.6 -34.51,-36.65 -54.51,-83.8 -60.78,-133.48l-1.48 -11.74 -11.21 -3.78c-13.81,-4.66 -19.85,-6.27 -25.78,-20.28 -7.32,-17.3 -8.2,-42.72 -6.49,-61.21 0.2,-2.1 0.43,-4.2 0.72,-6.3 -6.48,-5.06 -11.93,-11.19 -15.17,-18.78 -0.85,2.61 -1.59,5.48 -2.22,8.58 -0.91,4.44 -1.61,9.37 -2.11,14.76 -1.98,21.33 -0.79,49.76 7.9,70.3 8.69,20.54 19.55,24.88 37.13,30.81 16.19,128.36 113.3,210.91 214.86,211.17 101.56,-0.25 198.67,-82.8 214.86,-211.17 17.57,-5.93 28.44,-10.27 37.13,-30.81 8.69,-20.54 9.87,-48.98 7.9,-70.3 -0.5,-5.39 -1.2,-10.32 -2.11,-14.76 -0.64,-3.11 -1.38,-5.97 -2.22,-8.59 -3.24,7.6 -8.69,13.73 -15.17,18.79 0.29,2.1 0.52,4.2 0.72,6.3 1.71,18.5 0.83,43.91 -6.49,61.21 -5.93,14.01 -11.96,15.62 -25.78,20.28l-11.21 3.78 -1.48 11.74c-6.26,49.68 -26.26,96.83 -60.77,133.48 -29.78,31.62 -69.04,53.67 -112.31,59.6 -7.64,1.05 -15.35,1.58 -23.06,1.58 -7.71,0 -15.42,-0.53 -23.06,-1.58z"/>
   <path class="fil3" d="M1590.22 1054l6.76 -181.06 9.67 0 6.78 181.64c17.75,0.28 35.5,0.26 53.24,0.26 17.74,0 35.49,0.03 53.24,-0.26l6.77 -181.64 9.68 0 6.76 181.06c30.04,-1.05 60.22,-3.41 89.78,-8.96 18.2,-3.42 36.14,-8.09 53.74,-13.85l6.36 -2.09c0.37,-5.9 0.56,-11.81 0.56,-17.72 0,-48.25 -12.46,-95.87 -37.22,-137.37 -22.93,-38.44 -55.89,-70.54 -96.04,-90.63 -5.83,-2.92 -11.78,-5.56 -17.83,-7.93l-6.3 81.01 -9.29 0 -6.87 -88.39c-13.76,-3.66 -27.85,-5.89 -42.06,-6.65l-6.59 95.04 -9.37 0 -6.59 -95.04c-14.21,0.77 -28.31,3 -42.07,6.65l-6.87 88.39 -9.29 0 -6.3 -81.01c-6.06,2.37 -12.01,5.02 -17.83,7.93 -40.14,20.09 -73.1,52.2 -96.04,90.63 -24.76,41.5 -37.22,89.12 -37.22,137.37 0,5.91 0.19,11.82 0.56,17.72l6.36 2.09c17.6,5.77 35.53,10.43 53.74,13.85 29.55,5.55 59.73,7.91 89.77,8.96zm60.13 -66.03l48.78 0 0 -13.99 -48.78 0 -19.11 11.04 0 13.99 19.11 -11.04zm0 -24.16l51.39 0 0 -13.99 -51.39 0 -19.11 11.04 0 13.99 19.11 -11.04zm51.76 34.36l-51.76 0 -19.11 11.04 0 4.26 70.87 0 0 -15.3z"/>
   <path class="fil3" d="M1441.43 1059.85c-4.92,7.96 -11.05,19.27 -9.24,27.81 2.06,9.74 14.47,16.49 22.59,20.39 28.57,13.72 61.19,21.52 92.39,26.35 39.31,6.1 79.75,8.03 119.5,8.03 39.74,0 80.19,-1.93 119.5,-8.03 31.2,-4.84 63.82,-12.63 92.39,-26.35 8.11,-3.9 20.52,-10.65 22.58,-20.39 1.81,-8.54 -4.33,-19.85 -9.24,-27.81 -17.62,5.61 -35.48,10.17 -53.67,13.59 -25.73,4.83 -51.69,7.32 -77.81,8.64 -31.18,1.58 -62.54,1.65 -93.75,1.65 -31.22,0 -62.57,-0.07 -93.76,-1.65 -26.12,-1.32 -52.08,-3.81 -77.8,-8.64 -18.19,-3.42 -36.06,-7.98 -53.67,-13.59z"/>
   <path class="fil2" d="M1405.76 1396.32c-85.85,17.9 -142.6,68.7 -148.52,139.81l-86.65 384.08 16.77 0 86.65 -369.58c2.17,-70.87 51.29,-117.69 135.72,-135.3l120.35 -25.11c-5.95,-5.12 -11.65,-10.56 -17.08,-16.28l-107.23 22.37z"/>
   <path class="fil4" d="M1666.66 1920.22l50.84 0 206.27 0 -6.14 -110.75 9.75 -162.38 46.58 273.13 159.79 0 -86.67 -387.93c-15.5,-55.98 -52.32,-94 -125.11,-109.19l-126.59 -26.41c-29.52,23.22 -64.51,38.97 -102.12,44.11 -8.81,1.21 -17.7,1.82 -26.6,1.82 -8.89,0 -17.78,-0.61 -26.59,-1.82 -37.61,-5.15 -72.6,-20.89 -102.12,-44.11l-126.59 26.41c-72.79,15.18 -109.61,53.2 -125.11,109.19l-86.67 387.93 159.79 0 46.58 -273.13 9.75 162.38 -6.14 110.75 206.27 0 50.84 0zm175.36 -205.22l-66.14 0 -24.43 14.11 0 5.44 90.57 0 0 -19.55zm-66.14 -13.04l62.33 0 0 -17.88 -62.33 0 -24.43 14.11 0 17.88 24.43 -14.1zm0 -30.87l65.67 0 0 -17.88 -65.67 0 -24.43 14.1 0 17.88 24.43 -14.11z"/>
   <path class="fil2" d="M1927.56 1396.32c85.85,17.9 142.6,68.7 148.52,139.81l86.67 384.08 -16.77 0 -86.67 -369.58c-2.17,-70.87 -51.28,-117.69 -135.72,-135.3l-120.35 -25.11c5.95,-5.12 11.65,-10.56 17.08,-16.28l107.23 22.37z"/>
   <polygon class="fil2" points="2312.31,1903.45 2312.31,1929.45 1964.6,1929.45 1935.84,1929.45 1021.02,1929.45 1021.02,1903.45 1934.4,1903.45 1930.63,1835.47 1931.4,1734.76 1960.17,1903.45 "/>
   <path class="fil2" d="M1336.43 1585.5l152.72 0c15.49,0 28.16,12.67 28.16,28.17l0 47.66 -28.7 0 0 -47.12 -151.64 0 0 47.12 -28.7 0 0 -47.66c0,-15.49 12.67,-28.17 28.16,-28.17z"/>
   <polygon class="fil2" points="1147.96,1750.14 1147.96,1727.22 1227.39,1647.8 1598.19,1647.8 1677.61,1727.22 1677.61,1911.57 1147.96,1911.57 "/>
   <path class="fil5" d="M1161.49 1898.04l502.59 0 0 -149.52 -502.59 0 0 149.52zm502.59 -161.43l0 -3.78 -71.5 -71.5 -359.6 0 -71.5 71.5 0 3.78 502.59 0z"/>
   <path class="fil2" d="M1461.3 1846.13l-70.86 0 -26.17 15.11 0 5.83 97.03 0 0 -20.94zm-70.86 -13.96l66.78 0 0 -19.15 -66.78 0 -26.17 15.11 0 19.15 26.17 -15.11zm0 -33.07l70.36 0 0 -19.15 -70.36 0 -26.17 15.11 0 19.16 26.17 -15.11z"/>
  </g>
 </g>
</svg>
