<?xml version="1.0" encoding="UTF-8"?>
<!DOCTYPE svg PUBLIC "-//W3C//DTD SVG 1.1//EN" "http://www.w3.org/Graphics/SVG/1.1/DTD/svg11.dtd">
<!-- Creator: CorelDRAW 2019 (64-Bit) -->
<svg xmlns="http://www.w3.org/2000/svg" xml:space="preserve" width="3.33333in" height="2.66666in" version="1.1" style="shape-rendering:geometricPrecision; text-rendering:geometricPrecision; image-rendering:optimizeQuality; fill-rule:evenodd; clip-rule:evenodd"
viewBox="0 0 3333.33 2666.66"
 xmlns:xlink="http://www.w3.org/1999/xlink">
 <defs>
  <style type="text/css">
   <![CDATA[
    .fil0 {fill:none}
    .fil1 {fill:url(#id0)}
    .fil2 {fill:url(#id1)}
    .fil3 {fill:url(#id2)}
   ]]>
  </style>
  <linearGradient id="id0" gradientUnits="userSpaceOnUse" x1="2200.26" y1="1852.39" x2="2200.26" y2="743.27">
   <stop offset="0" style="stop-opacity:1; stop-color:#414D47"/>
   <stop offset="0.380392" style="stop-opacity:1; stop-color:#54675D"/>
   <stop offset="0.658824" style="stop-opacity:1; stop-color:#727978"/>
   <stop offset="0.768627" style="stop-opacity:1; stop-color:#54675D"/>
   <stop offset="1" style="stop-opacity:1; stop-color:#414D47"/>
  </linearGradient>
  <linearGradient id="id1" gradientUnits="userSpaceOnUse" x1="1576.06" y1="1904.36" x2="1575.89" y2="671.99">
   <stop offset="0" style="stop-opacity:1; stop-color:#B5846E"/>
   <stop offset="0.509804" style="stop-opacity:1; stop-color:#ECD1B4"/>
   <stop offset="1" style="stop-opacity:1; stop-color:#B5846E"/>
  </linearGradient>
  <linearGradient id="id2" gradientUnits="userSpaceOnUse" xlink:href="#id0" x1="1696.6" y1="1670.31" x2="1696.6" y2="967.86">
  </linearGradient>
 </defs>
 <g id="Layer_x0020_1">
  <metadata id="CorelCorpID_0Corel-Layer"/>
  <g id="_700229536">
   <polygon class="fil0" points="901.15,539.26 2518.62,539.26 2518.62,2156.73 901.15,2156.73 "/>
   <path class="fil1" d="M2049.78 1743.89l71.7 72.61c120.88,-119.37 195.8,-285.19 195.8,-468.5 0,-187.98 -78.78,-357.56 -205.12,-477.53l-70.26 74.01 -34 35.82c97.28,92.37 157.94,222.95 157.94,367.7 0,141.15 -57.69,268.83 -150.76,360.74l34.7 35.14z"/>
   <path class="fil2" d="M1990.86 964.84l32.34 -37.33c-97.61,-84.65 -225,-135.88 -364.35,-135.88 -307.27,0 -556.37,249.09 -556.37,556.37 0,307.27 249.09,556.36 556.37,556.36 144.16,0 275.52,-54.83 374.35,-144.77l-33.23 -36.54 -68.67 -75.49c-71.93,65.46 -167.54,105.37 -272.46,105.37 -223.64,0 -404.93,-181.29 -404.93,-404.93 0,-223.64 181.29,-404.93 404.93,-404.93 101.42,0 194.13,37.29 265.17,98.9l66.83 -77.13z"/>
   <path class="fil3" d="M1684.03 1048.42l-50.34 0 0 47.57c-72.39,3.44 -153.75,54.46 -153.75,144.8 0,92.39 71.01,122.73 150.3,144.1l0 120.66c-30.33,-0.69 -73.09,-20.69 -97.91,-47.57 -23.44,25.52 -48.26,51.02 -72.39,75.84 45.5,40.69 111.01,61.37 170.3,63.44l0 50.33 51.02 0 0 -50.33c80.67,-2.76 159.28,-50.33 159.28,-151 0,-98.6 -85.5,-128.94 -156.52,-150.31l0 -110.32c28.96,0.69 64.81,14.48 87.57,37.23 22.75,-24.82 44.81,-49.65 66.88,-75.15 -42.76,-34.48 -102.74,-51.03 -154.45,-52.4l0 -46.89zm-50.34 235.81c-28.96,-7.58 -48.26,-22.06 -48.26,-51.03 0,-30.33 23.44,-46.19 48.26,-48.95l0 99.98zm47.57 113.07c28.96,8.97 50.33,23.44 50.33,55.17 0,31.71 -19.31,52.39 -50.33,53.78l0 -108.94z"/>
  </g>
 </g>
</svg>
