<?xml version="1.0" encoding="utf-8"?>
<!-- Generator: Adobe Illustrator 25.2.1, SVG Export Plug-In . SVG Version: 6.00 Build 0)  -->
<svg version="1.1" id="Layer_1" xmlns="http://www.w3.org/2000/svg" xmlns:xlink="http://www.w3.org/1999/xlink" x="0px" y="0px"
	 viewBox="0 0 100 150" style="enable-background:new 0 0 100 150;" xml:space="preserve">
<style type="text/css">
	.st0{fill:url(#SVGID_1_);}
	.st1{fill-rule:evenodd;clip-rule:evenodd;fill:url(#SVGID_2_);}
	.st2{fill:url(#SVGID_3_);}
</style>
<g>
	<radialGradient id="SVGID_1_" cx="49.2755" cy="64.6946" r="22.9177" gradientUnits="userSpaceOnUse">
		<stop  offset="0" style="stop-color:#2F4E46"/>
		<stop  offset="0.2432" style="stop-color:#315048"/>
		<stop  offset="0.4672" style="stop-color:#3A564F"/>
		<stop  offset="0.6836" style="stop-color:#48615B"/>
		<stop  offset="0.8942" style="stop-color:#5C716D"/>
		<stop  offset="1" style="stop-color:#697B79"/>
	</radialGradient>
	<path class="st0" d="M27.23,75.21l25.31-19.56l25.31,19.56h5.09l-10.52-8.22v-6.74h-6.25v1.97l-12.33-9.53
		c-0.66-0.49-1.64-0.49-2.3,0L22.3,75.21h5.09H27.23z"/>
	
		<linearGradient id="SVGID_2_" gradientUnits="userSpaceOnUse" x1="-164.6858" y1="351.0123" x2="-164.6858" y2="361.438" gradientTransform="matrix(3.4051 0 0 -3.4051 613.3091 1287.2019)">
		<stop  offset="0" style="stop-color:#476059"/>
		<stop  offset="0.1099" style="stop-color:#506761"/>
		<stop  offset="0.383" style="stop-color:#627572"/>
		<stop  offset="0.5566" style="stop-color:#697B79"/>
		<stop  offset="0.6466" style="stop-color:#627673"/>
		<stop  offset="0.787" style="stop-color:#516863"/>
		<stop  offset="0.9593" style="stop-color:#36534C"/>
		<stop  offset="1" style="stop-color:#2F4E46"/>
	</linearGradient>
	<path class="st1" d="M31.34,72.91v17.91c0,0.66,0.66,1.15,1.48,1.15h11.01h10.52V73.24c0-0.33,0.33-0.66,0.82-0.66h10.68
		c0.49,0,0.82,0.33,0.82,0.66v18.74h5.59c0.82,0,1.48-0.49,1.48-1.15V72.91l-21.2-16.44C52.54,56.47,31.34,72.91,31.34,72.91z
		 M37.58,75.54h5.09h0.99h5.09v5.09l0,0v0.99l0,0v5.09h-5.09h-0.99h-5.09V75.37V75.54z M43.83,80.63h4.11v-4.11h-4.11V80.63z
		 M38.73,80.63h4.11v-4.11h-4.11V80.63z M42.84,81.62h-4.11v4.11h4.11V81.62z M47.94,81.62h-4.11v4.11h4.11V81.62z"/>
	<g>
		<linearGradient id="SVGID_3_" gradientUnits="userSpaceOnUse" x1="60.3661" y1="86.7488" x2="60.4259" y2="80.6804">
			<stop  offset="0" style="stop-color:#B5846E"/>
			<stop  offset="0.364" style="stop-color:#ECD1B5"/>
			<stop  offset="1" style="stop-color:#B5846E"/>
		</linearGradient>
		<path class="st2" d="M60.38,80.68c1.65,0,2.76,0.19,3.36,0.57c0.59,0.38,0.89,1.11,0.89,2.18v0.68c0,1.05-0.27,1.76-0.82,2.11
			c-0.55,0.35-1.69,0.53-3.43,0.53c-1.64,0-2.75-0.18-3.33-0.54c-0.58-0.36-0.88-1.09-0.88-2.2v-0.69c0-1.04,0.29-1.74,0.88-2.1
			C57.63,80.86,58.74,80.68,60.38,80.68z M62.33,84.01v-0.57c0-0.58-0.08-0.95-0.24-1.12c-0.16-0.17-0.63-0.25-1.4-0.25h-0.52
			c-0.77,0-1.23,0.09-1.4,0.25c-0.17,0.17-0.25,0.54-0.25,1.12v0.56c0,0.53,0.08,0.89,0.25,1.08c0.17,0.19,0.64,0.29,1.4,0.29h0.52
			c0.7,0,1.15-0.09,1.35-0.26C62.23,84.92,62.33,84.56,62.33,84.01z"/>
	</g>
</g>
</svg>
