<svg id="Layer_1" data-name="Layer 1" xmlns="http://www.w3.org/2000/svg" xmlns:xlink="http://www.w3.org/1999/xlink" viewBox="0 0 39.22 27.05"><defs><style>.cls-1,.cls-2{fill-rule:evenodd;}.cls-1{fill:url(#linear-gradient);}.cls-2{fill:url(#linear-gradient-2);}.cls-3{fill:none;}</style><linearGradient id="linear-gradient" x1="1349.54" y1="-800.9" x2="1349.54" y2="-735.59" gradientTransform="matrix(0.4, 0, 0, -0.4, -525.99, -294.4)" gradientUnits="userSpaceOnUse"><stop offset="0" stop-color="#b5846e"/><stop offset="0.5" stop-color="#ecd1b4"/><stop offset="1" stop-color="#b5846e"/></linearGradient><linearGradient id="linear-gradient-2" x1="1400.08" y1="-754.25" x2="1400.08" y2="-735.15" gradientTransform="matrix(0.4, 0, 0, -0.4, -525.99, -294.4)" gradientUnits="userSpaceOnUse"><stop offset="0" stop-color="#b5846e"/><stop offset="0.5" stop-color="#f0cba0"/><stop offset="1" stop-color="#b5846e"/></linearGradient></defs><g id="Layer_1-2" data-name="Layer_1"><g id="_1141733216" data-name=" 1141733216"><path class="cls-1" d="M8.1,6H29.87V.1H8.1L0,4.77V10.7ZM30,20.58H8.1L0,25.25v1.8H30V20.58ZM8.1,16.25H28.76V10.33H8.1L0,15v5.93Z"/><path class="cls-2" d="M39.22,4.14a3.95,3.95,0,1,0-3.95,3.94A3.94,3.94,0,0,0,39.22,4.14ZM36.79,2.85a2.51,2.51,0,0,0-1.16-.2H33.42v3h.91V4.71h1.16a1.22,1.22,0,0,1,.48.07.27.27,0,0,1,.16.27v.58h.94V5a.59.59,0,0,0-.19-.45.88.88,0,0,0-.57-.16.89.89,0,0,0,.61-.26.73.73,0,0,0,.21-.51.78.78,0,0,0-.34-.73Zm-1.24.46a1.09,1.09,0,0,1,.52.08.38.38,0,0,1,.1.3A.3.3,0,0,1,36,4a1.26,1.26,0,0,1-.53.08H34.33V3.31Zm-3.41.83a3.14,3.14,0,1,1,3.14,3.13A3.14,3.14,0,0,1,32.14,4.14Z"/><rect class="cls-3" x="-14.93" y="-11.21" width="192" height="61.87"/></g></g></svg>