<?xml version="1.0" encoding="UTF-8"?>
<!DOCTYPE svg PUBLIC "-//W3C//DTD SVG 1.1//EN" "http://www.w3.org/Graphics/SVG/1.1/DTD/svg11.dtd">
<!-- Creator: CorelDRAW 2019 (64-Bit) -->
<svg xmlns="http://www.w3.org/2000/svg" xml:space="preserve" width="3.33333in" height="2.66666in" version="1.1" style="shape-rendering:geometricPrecision; text-rendering:geometricPrecision; image-rendering:optimizeQuality; fill-rule:evenodd; clip-rule:evenodd"
viewBox="0 0 3333.33 2666.66"
 xmlns:xlink="http://www.w3.org/1999/xlink">
 <defs>
  <style type="text/css">
   <![CDATA[
    .fil0 {fill:none}
    .fil2 {fill:#98AEA2}
    .fil3 {fill:url(#id0)}
    .fil1 {fill:url(#id1)}
    .fil4 {fill:url(#id2)}
   ]]>
  </style>
  <linearGradient id="id0" gradientUnits="userSpaceOnUse" x1="2004.82" y1="1552.98" x2="2014.64" y2="925.38">
   <stop offset="0" style="stop-opacity:1; stop-color:#B5846E"/>
   <stop offset="0.458824" style="stop-opacity:1; stop-color:#ECD1B4"/>
   <stop offset="1" style="stop-opacity:1; stop-color:#B5846E"/>
  </linearGradient>
  <linearGradient id="id1" gradientUnits="userSpaceOnUse" x1="1817.29" y1="1963.84" x2="1817.29" y2="1405.09">
   <stop offset="0" style="stop-opacity:1; stop-color:#414D47"/>
   <stop offset="0.380392" style="stop-opacity:1; stop-color:#54675D"/>
   <stop offset="0.658824" style="stop-opacity:1; stop-color:#727978"/>
   <stop offset="0.768627" style="stop-opacity:1; stop-color:#54675D"/>
   <stop offset="1" style="stop-opacity:1; stop-color:#414D47"/>
  </linearGradient>
  <linearGradient id="id2" gradientUnits="objectBoundingBox" xlink:href="#id1" x1="62.1797%" y1="103.792%" x2="62.1797%" y2="0%">
  </linearGradient>
 </defs>
 <g id="Layer_x0020_1">
  <metadata id="CorelCorpID_0Corel-Layer"/>
  <g id="_700242720">
   <rect class="fil0" x="901.16" y="539.27" width="1617.46" height="1617.46"/>
   <path class="fil1" d="M1318.33 1513.19c32.19,-6.56 64.42,-13.02 96.79,-18.55 33.78,-5.77 68.72,-10.89 102.99,-12.07 51.17,-1.77 96.02,6.01 141.9,28.95 33.58,16.79 57.93,34.65 95.29,45.09 45.87,12.82 98.64,16.89 145.94,23.02 35.69,4.62 76.89,10.31 83.08,53.63 5.37,37.57 -17.74,75.5 -51.22,91.71 -35.47,17.18 -87.74,14.81 -126.58,10.83 -16,-1.64 -31.83,-3.9 -47.74,-6.26 -8.2,-1.21 -17.97,-3.01 -26.22,-3.17 -2.26,-0.04 -5.23,1.31 -5.15,3.81 21.37,14.74 64.65,29.3 90.88,31.61 40.01,3.52 87.5,-2.19 126.77,-10.65 25.31,-5.46 53.57,-21.06 75.87,-34 20.57,-11.93 40.64,-24.72 61.22,-36.63 17.7,-10.24 38.52,-21.69 58.52,-26.34 34.75,-8.08 77.79,-3.49 91.72,35 12.89,35.61 -10.01,79.44 -32.22,106.43 -28.43,34.55 -69.67,61.15 -109.02,81.62 -46.78,24.33 -97.83,43.64 -149.31,55.21 -55.65,12.5 -111.47,15.41 -168.31,12.05 -61.72,-3.65 -126.85,-14.37 -185.22,-35.22 -27.74,-9.91 -54.31,-22.34 -80.54,-35.68 -20.01,-10.17 -40.05,-21.33 -60.5,-30.51 -31.85,-14.3 -54.47,-16.3 -89.07,-17.95 -13.28,-0.64 -26.58,-1.12 -39.87,-1.53l0 12.72 0 52.78 -189.65 0 0 -419.94 189.65 0 0 44.04zm0 276.53l0 -241.96c73.62,-15.03 146.37,-29.46 200.94,-31.34 57.29,-1.98 94.55,9.88 125.59,25.4 31.04,15.52 55.88,34.71 101.31,47.41 45.44,12.7 111.48,18.91 150.7,23.98 39.23,5.08 51.65,9.03 53.91,24.84 2.26,15.8 -5.65,43.46 -32.46,56.44 -26.81,12.98 -72.53,11.29 -108.37,7.62 -35.84,-3.67 -61.81,-9.31 -76.76,-9.59 -37.61,-0.71 -53.52,45.84 -25.12,65.48 17.27,11.94 65.47,33.86 107.24,37.53 41.77,3.67 93.7,-1.97 136.87,-11.29 66.98,-14.45 151.19,-86.63 196.14,-97.08 24.27,-5.64 46.29,-2.82 52.21,13.55 5.93,16.37 -4.24,46.28 -26.53,73.37 -22.29,27.09 -56.72,51.37 -98.49,73.09 -41.77,21.73 -90.87,40.93 -141.11,52.21 -50.24,11.29 -101.6,14.67 -158.89,11.29 -57.29,-3.39 -120.51,-13.55 -175.82,-33.3 -55.31,-19.75 -102.73,-49.11 -138.57,-65.19 -35.84,-16.09 -60.11,-18.91 -101.32,-20.89 -12.44,-0.6 -26.43,-1.12 -41.49,-1.58zm-33.87 -286.7l-121.92 0 0 352.21 121.92 0 0 -352.21zm-60.96 276.85c12.39,0 22.44,10.05 22.44,22.44 0,12.39 -10.04,22.44 -22.44,22.44 -12.39,0 -22.44,-10.04 -22.44,-22.44 0,-12.39 10.05,-22.44 22.44,-22.44z"/>
   <path class="fil2" d="M1574.43 750.21c140.74,0 257.34,103.36 278.04,238.31 -97.1,54.94 -162.65,159.13 -162.65,278.66 0,6.94 0.24,13.82 0.68,20.65 -35.39,16.06 -74.68,24.99 -116.07,24.99 -155.36,0 -281.31,-125.94 -281.31,-281.31 0,-155.36 125.94,-281.31 281.31,-281.31zm267.35 369c-7.22,22 -17.07,42.81 -29.19,62.05 2.02,-27.06 12.73,-48.24 29.19,-62.05zm-144.17 -31.36c0,-105.07 -161.66,-72.42 -161.66,-116.06 0,-14.39 12.21,-25.8 46.01,-25.8 24.84,0 51.72,7.33 79,22.06l24.84 -59.93c-22.8,-13.44 -52.53,-21.58 -82.67,-24.02l0 -43.98 -48.87 0 0 44.8c-65.97,8.21 -98.14,46.08 -98.14,90.94 0,105.87 162.07,72.96 162.07,118.03 0,13.85 -13.04,23.14 -46.43,23.14 -32.98,0 -68.81,-11.33 -94.06,-27.96l-26.47 59.31c23.62,16.29 62.3,28.09 103.03,30.95l0 43.57 48.87 0 0 -45.2c63.53,-9.37 94.47,-46.76 94.47,-89.86z"/>
   <path class="fil3" d="M2009.78 985.88c155.36,0 281.31,125.94 281.31,281.31 0,155.36 -125.95,281.31 -281.31,281.31 -155.36,0 -281.31,-125.94 -281.31,-281.31 0,-155.36 125.95,-281.31 281.31,-281.31zm-100.78 293.11c42.35,0 73.3,-29.32 73.3,-79 0,-49.28 -30.95,-79 -73.3,-79 -41.94,0 -72.89,29.72 -72.89,79 0,49.68 30.95,79 72.89,79zm-26.07 130.72l58.64 0 194.65 -285.06 -58.64 0 -194.65 285.06zm26.07 -169.41c-13.03,0 -24.03,-11.4 -24.03,-40.31 0,-28.91 11,-40.31 24.03,-40.31 13.84,0 24.02,11.4 24.02,40.31 0,28.91 -10.18,40.31 -24.02,40.31zm201.17 173.07c42.35,0 73.3,-29.32 73.3,-79 0,-49.27 -30.94,-79 -73.3,-79 -42.35,0 -72.89,29.73 -72.89,79 0,49.68 30.54,79 72.89,79zm0 -38.69c-13.44,0 -24.02,-11.4 -24.02,-40.31 0,-28.91 10.58,-40.31 24.02,-40.31 13.44,0 24.03,11.41 24.03,40.31 0,28.91 -10.59,40.31 -24.03,40.31z"/>
   <path class="fil4" d="M1456.13 975.87c0,105.87 162.07,72.96 162.07,118.03 0,13.85 -13.04,23.14 -46.43,23.14 -32.98,0 -68.81,-11.33 -94.06,-27.96l-26.47 59.31c23.62,16.29 62.3,28.09 103.03,30.95l0 43.57 48.87 0 0 -45.2c63.53,-9.37 94.47,-46.76 94.47,-89.86 0,-105.07 -161.66,-72.42 -161.66,-116.06 0,-14.39 12.21,-25.8 46.01,-25.8 24.84,0 51.72,7.33 79,22.06l24.84 -59.93c-22.8,-13.44 -52.53,-21.58 -82.67,-24.02l0 -43.98 -48.87 0 0 44.8c-65.97,8.21 -98.14,46.08 -98.14,90.94z"/>
   <path class="fil4" d="M2134.19 1334.37c0,28.91 -10.59,40.31 -24.03,40.31 -13.44,0 -24.02,-11.4 -24.02,-40.31 0,-28.91 10.58,-40.31 24.02,-40.31 13.44,0 24.03,11.41 24.03,40.31zm-225.2 -55.38c42.35,0 73.3,-29.32 73.3,-79 0,-49.28 -30.95,-79 -73.3,-79 -41.94,0 -72.89,29.72 -72.89,79 0,49.68 30.95,79 72.89,79zm24.02 -79c0,28.91 -10.18,40.31 -24.02,40.31 -13.03,0 -24.03,-11.4 -24.03,-40.31 0,-28.91 11,-40.31 24.03,-40.31 13.84,0 24.02,11.4 24.02,40.31zm144.56 -75.33l-194.65 285.06 58.64 0 194.65 -285.06 -58.64 0zm32.58 130.72c-42.35,0 -72.89,29.73 -72.89,79 0,49.68 30.54,79 72.89,79 42.35,0 73.3,-29.32 73.3,-79 0,-49.27 -30.94,-79 -73.3,-79z"/>
  </g>
 </g>
</svg>
