<?xml version="1.0" encoding="utf-8"?>
<!-- Generator: Adobe Illustrator 25.2.1, SVG Export Plug-In . SVG Version: 6.00 Build 0)  -->
<svg version="1.1" id="Layer_1" xmlns="http://www.w3.org/2000/svg" xmlns:xlink="http://www.w3.org/1999/xlink" x="0px" y="0px"
	 viewBox="0 0 81.32 63" style="enable-background:new 0 0 81.32 63;" xml:space="preserve">
<style type="text/css">
	.st0{fill:url(#SVGID_1_);}
	.st1{fill-rule:evenodd;clip-rule:evenodd;fill:url(#SVGID_2_);}
	.st2{fill:url(#SVGID_3_);}
</style>
<radialGradient id="SVGID_1_" cx="37.4893" cy="24.0852" r="22.9177" gradientUnits="userSpaceOnUse">
	<stop  offset="0" style="stop-color:#2F4E46"/>
	<stop  offset="0.2432" style="stop-color:#315048"/>
	<stop  offset="0.4672" style="stop-color:#3A564F"/>
	<stop  offset="0.6836" style="stop-color:#48615B"/>
	<stop  offset="0.8942" style="stop-color:#5C716D"/>
	<stop  offset="1" style="stop-color:#697B79"/>
</radialGradient>
<path class="st0" d="M15.44,34.6l25.31-19.56L66.06,34.6h5.09l-10.52-8.22v-6.74h-6.25v1.97l-12.33-9.53c-0.66-0.49-1.64-0.49-2.3,0
	L10.51,34.6h5.09L15.44,34.6z"/>
<linearGradient id="SVGID_2_" gradientUnits="userSpaceOnUse" x1="-172.3818" y1="306.0166" x2="-172.3818" y2="316.4423" gradientTransform="matrix(3.4051 0 0 -3.4051 627.7285 1093.3779)">
	<stop  offset="0" style="stop-color:#476059"/>
	<stop  offset="0.1099" style="stop-color:#506761"/>
	<stop  offset="0.383" style="stop-color:#627572"/>
	<stop  offset="0.5566" style="stop-color:#697B79"/>
	<stop  offset="0.6466" style="stop-color:#627673"/>
	<stop  offset="0.787" style="stop-color:#516863"/>
	<stop  offset="0.9593" style="stop-color:#36534C"/>
	<stop  offset="1" style="stop-color:#2F4E46"/>
</linearGradient>
<path class="st1" d="M19.55,32.3v17.91c0,0.66,0.66,1.15,1.48,1.15h11.01h10.52V32.63c0-0.33,0.33-0.66,0.82-0.66h10.68
	c0.49,0,0.82,0.33,0.82,0.66v18.74h5.59c0.82,0,1.48-0.49,1.48-1.15V32.3l-21.2-16.44C40.75,15.86,19.55,32.3,19.55,32.3z
	 M25.8,34.93h5.09h0.99h5.09v5.09l0,0v0.99l0,0v5.09h-5.09h-0.99H25.8V34.76V34.93z M32.04,40.02h4.11v-4.11h-4.11V40.02z
	 M26.95,40.02h4.11v-4.11h-4.11V40.02z M31.06,41.01h-4.11v4.11h4.11V41.01z M36.15,41.01h-4.11v4.11h4.11V41.01z"/>
<g>
	<linearGradient id="SVGID_3_" gradientUnits="userSpaceOnUse" x1="48.5799" y1="46.1395" x2="48.6396" y2="40.0711">
		<stop  offset="0" style="stop-color:#B5846E"/>
		<stop  offset="0.364" style="stop-color:#ECD1B5"/>
		<stop  offset="1" style="stop-color:#B5846E"/>
	</linearGradient>
	<path class="st2" d="M48.59,40.07c1.65,0,2.76,0.19,3.36,0.57c0.59,0.38,0.89,1.11,0.89,2.18v0.68c0,1.05-0.27,1.76-0.82,2.11
		c-0.55,0.35-1.69,0.53-3.43,0.53c-1.64,0-2.75-0.18-3.33-0.54c-0.58-0.36-0.88-1.09-0.88-2.2v-0.69c0-1.04,0.29-1.74,0.88-2.1
		C45.84,40.25,46.95,40.07,48.59,40.07z M50.54,43.4v-0.57c0-0.58-0.08-0.95-0.24-1.12s-0.63-0.25-1.4-0.25h-0.52
		c-0.77,0-1.23,0.09-1.4,0.25c-0.17,0.17-0.25,0.54-0.25,1.12v0.56c0,0.53,0.08,0.89,0.25,1.08c0.17,0.19,0.64,0.29,1.4,0.29h0.52
		c0.7,0,1.15-0.09,1.35-0.26C50.44,44.31,50.54,43.95,50.54,43.4z"/>
</g>
</svg>
