<?xml version="1.0" encoding="UTF-8"?>
<!DOCTYPE svg PUBLIC "-//W3C//DTD SVG 1.1//EN" "http://www.w3.org/Graphics/SVG/1.1/DTD/svg11.dtd">
<!-- Creator: CorelDRAW 2019 (64-Bit) -->
<svg xmlns="http://www.w3.org/2000/svg" xml:space="preserve" width="2.66667in" height="0.859276in" version="1.1" style="shape-rendering:geometricPrecision; text-rendering:geometricPrecision; image-rendering:optimizeQuality; fill-rule:evenodd; clip-rule:evenodd"
viewBox="0 0 1273.25 410.28"
 xmlns:xlink="http://www.w3.org/1999/xlink">
 <defs>
  <style type="text/css">
   <![CDATA[
    .fil0 {fill:none}
    .fil4 {fill:url(#id0)}
    .fil5 {fill:url(#id1)}
    .fil3 {fill:url(#id2)}
    .fil1 {fill:url(#id3)}
    .fil2 {fill:url(#id4)}
   ]]>
  </style>
  <linearGradient id="id0" gradientUnits="userSpaceOnUse" x1="1149.72" y1="137.01" x2="1149.72" y2="60.68">
   <stop offset="0" style="stop-opacity:1; stop-color:#414D47"/>
   <stop offset="0.321569" style="stop-opacity:1; stop-color:#54675D"/>
   <stop offset="0.478431" style="stop-opacity:1; stop-color:#727978"/>
   <stop offset="0.619608" style="stop-opacity:1; stop-color:#54675D"/>
   <stop offset="1" style="stop-opacity:1; stop-color:#414D47"/>
  </linearGradient>
  <linearGradient id="id1" gradientUnits="userSpaceOnUse" x1="144.48" y1="212.11" x2="144.48" y2="143.82">
   <stop offset="0" style="stop-opacity:1; stop-color:#B5846E"/>
   <stop offset="0.501961" style="stop-opacity:1; stop-color:#F0CBA0"/>
   <stop offset="1" style="stop-opacity:1; stop-color:#B5846E"/>
  </linearGradient>
  <linearGradient id="id2" gradientUnits="userSpaceOnUse" x1="741.24" y1="343" x2="741.24" y2="276.68">
   <stop offset="0" style="stop-opacity:1; stop-color:#414D47"/>
   <stop offset="0.380392" style="stop-opacity:1; stop-color:#54675D"/>
   <stop offset="0.658824" style="stop-opacity:1; stop-color:#727978"/>
   <stop offset="0.768627" style="stop-opacity:1; stop-color:#54675D"/>
   <stop offset="1" style="stop-opacity:1; stop-color:#414D47"/>
  </linearGradient>
  <linearGradient id="id3" gradientUnits="userSpaceOnUse" xlink:href="#id1" x1="113.56" y1="339.71" x2="113.56" y2="285.41">
  </linearGradient>
  <linearGradient id="id4" gradientUnits="userSpaceOnUse" xlink:href="#id0" x1="712.24" y1="260.51" x2="712.24" y2="50.92">
  </linearGradient>
 </defs>
 <g id="Layer_x0020_1">
  <metadata id="CorelCorpID_0Corel-Layer"/>
  <g id="_1138373488">
   <rect class="fil0" x="-0" y="0" width="1273.25" height="410.28"/>
   <path class="fil1" d="M129.75 339.5l8.02 -8.02c1.36,-1.36 1.36,-3.58 0,-4.94 -1.36,-1.36 -3.58,-1.36 -4.94,0l-8.02 8.02c-1.36,1.36 -1.36,3.58 0,4.94 1.36,1.36 3.58,1.36 4.94,0zm5.72 -2.58l-3.59 3.59c2.02,0.07 3.66,-1.58 3.59,-3.59zm-7.41 -20c0.55,-0.08 1.1,-0.07 1.64,0.01l-1.58 -1.58c-0.04,-0.04 -0.07,-0.11 -0.09,-0.2 0.1,0.59 0.11,1.18 0.03,1.77zm6.44 6.44c0.55,-0.08 1.1,-0.07 1.64,0.01l-1.58 -1.58c-0.04,-0.04 -0.07,-0.11 -0.09,-0.23 0.1,0.59 0.11,1.2 0.03,1.8zm6.41 4.65c0.32,1.78 -0.21,3.68 -1.58,5.05l-1.02 1.02c3.1,0.1 4.74,-3.57 2.69,-5.83 -0.04,-0.04 -0.06,-0.12 -0.09,-0.23zm-4.68 -33.47l19.12 19.12c0.04,0.04 0.08,0.08 0.11,0.11 6.56,-6.71 6.52,-17.47 -0.14,-24.13 -5.54,-5.54 -13.93,-6.5 -20.46,-2.88 -2.64,1.39 -8.77,7.3 -10.6,8.87 -0.56,0.48 -0.93,1.11 -1.1,1.78 -0.84,3.32 3.1,5.72 5.65,3.51l7.41 -6.4zm-14.62 15.93c1.71,-0.24 3.52,0.3 4.83,1.61 0.23,0.22 0.43,0.46 0.61,0.71l1.52 -0.02 9.01 9.01 4.82 4.82c3.22,3.25 8.19,-1.68 4.93,-4.94l-13.83 -13.83c-0.99,-0.99 0.52,-2.5 1.51,-1.51l13.83 13.83c3.17,3.17 8.07,-1.5 5.05,-4.82 -0.04,-0.04 -0.08,-0.08 -0.11,-0.12l-17.66 -17.66 -5.85 5.05c-4.46,3.84 -11.17,-0.87 -9.04,-6.4 0.52,-1.34 4.04,-4.56 6.68,-6.86 -6.72,-6.42 -17.38,-6.33 -23.98,0.28 -6.66,6.65 -6.7,17.42 -0.14,24.13 0.04,-0.04 0.08,-0.08 0.11,-0.12l8.02 -8.02c2.22,-2.22 5.85,-2.22 8.08,0 1.31,1.31 1.85,3.12 1.61,4.83zm-11.2 9.69l8.02 -8.02c1.36,-1.36 1.36,-3.58 0,-4.94 -1.36,-1.36 -3.58,-1.36 -4.94,0l-8.02 8.02c-1.36,1.36 -1.36,3.58 0,4.94 1.36,1.36 3.58,1.36 4.93,0zm6.45 6.44l8.02 -8.02c1.36,-1.36 1.36,-3.58 0,-4.94 -1.36,-1.36 -3.58,-1.36 -4.94,0l-8.02 8.02c-1.36,1.36 -1.36,3.58 0,4.94 1.36,1.36 3.58,1.36 4.94,0zm6.44 6.45l8.02 -8.02c1.36,-1.36 1.36,-3.58 0,-4.93 -1.36,-1.36 -3.58,-1.36 -4.94,0l-8.02 8.02c-1.36,1.36 -1.36,3.58 0,4.94 1.36,1.36 3.58,1.36 4.94,0z"/>
   <path class="fil2" d="M886.13 74.96l198.04 0 0 42.02 -144.35 0 0 25.84 137.01 0 0 39.3 -137.01 0 0 28.65 145.37 0 0 42.96 -199.06 0 0 -178.77zm-733.41 39.3l144.35 0 0 -39.3 -144.35 0 -53.69 31 0 39.3 53.69 -31zm145.38 96.51l-145.38 0 -53.69 31 0 11.96 199.06 0 0 -42.96zm35.92 -135.81l57.22 0 0 133.18 127.18 0 0 45.6 -184.41 0 0 -178.77zm272.94 0l0 178.77 -57.22 0 0 -178.77 57.22 0zm33.25 0l216.37 0 0 45.6 -79.53 0 0 133.17 -57.22 0 0 -133.17 -79.62 0 0 -45.6z"/>
   <path class="fil3" d="M192.12 284.62l0 55.81 -16.39 0 0 -55.81 16.39 0zm89.07 0l0 55.81 -27.91 0 -29.25 -43.71 0 43.71 -16.47 0 0 -55.81 27.65 0 28.74 43.62 0 -43.62 17.23 0zm67.72 0l0 55.81 -16.39 0 0 -55.81 16.39 0zm77.47 0l0 12.44 -24.63 0 0 43.37 -17.56 0 0 -43.37 -24.21 0 0 -12.44 66.4 0zm105.8 0l0 12.44 -24.63 0 0 43.37 -17.56 0 0 -43.37 -24.21 0 0 -12.44 66.4 0zm81.59 16.84l0 21.55c0,5.72 -2.65,10.1 -7.94,13.1 -5.29,3 -11.25,4.5 -17.86,4.5 -0.45,0 -1.44,0 -2.98,0 -1.54,0 -2.84,0 -3.91,0 -6.22,0 -10.3,-0.02 -12.23,-0.03 -1.93,-0.01 -3.64,-0.13 -5.08,-0.14 -6.33,-0.05 -11.81,-1.57 -16.43,-4.71 -4.62,-3.14 -6.93,-7.4 -6.93,-12.78l0 -21.52c0,-4.88 2.39,-8.9 7.14,-12.06 4.76,-3.16 9.86,-4.75 15.3,-4.75l25.89 0c6.72,0 12.59,1.49 17.57,4.46 4.98,2.97 7.48,7.11 7.48,12.38zm-17.65 16.31l0 -10.14c0,-3.85 -1.04,-6.88 -3.11,-9.02 -2.06,-2.14 -5.47,-3.22 -10.17,-3.22l-13.95 0c-3.74,0 -6.55,1.04 -8.36,3.1 -1.82,2.06 -2.73,5 -2.73,8.73l0 10.56c0,3.61 0.9,6.47 2.69,8.47 1.78,2 4.59,3.01 8.4,3.01l13.95 0c4.76,0 8.18,-0.95 10.21,-2.84 2.04,-1.9 3.06,-4.79 3.06,-8.64zm103.61 3.16c0,7.83 -1.72,13.04 -5.17,15.59 -3.45,2.55 -8.36,3.82 -14.75,3.82 -2.74,0 -6.19,0.09 -10.34,0.25 -4.15,0.17 -6.25,0.25 -6.3,0.25 -13.84,0 -23.63,-1.49 -29.38,-4.46 -5.74,-2.97 -8.62,-8.85 -8.62,-17.65l0 -10.42c0,-9.92 2.76,-16.41 8.28,-19.46 5.52,-3.05 14.56,-4.58 27.11,-4.58l7.4 0c11.82,0 20.06,1.13 24.71,3.4 4.65,2.27 6.98,7.19 6.98,14.75l-17.4 0c0,-2.63 -0.7,-4.47 -2.1,-5.51 -1.4,-1.04 -3.93,-1.56 -7.57,-1.56l-16.98 0c-5.6,0 -9.09,1.04 -10.46,3.11 -1.37,2.07 -2.06,5.36 -2.06,9.83l0 10.67c0,4.98 1.17,8 3.49,9.04 2.32,1.03 7.86,1.55 16.6,1.55 6.78,0 11.71,-0.25 14.79,-0.75 3.08,-0.5 4.62,-3.39 4.62,-8.66l-21.27 0 0 -10 38.41 0 0 10.76zm71 7.65l0 11.85 -58.41 0 0 -55.81 58 0 0 12.36 -41.19 0 0 9.58 39.25 0 0 10.76 -39.25 0 0 11.26 41.6 0zm79.13 -43.96l0 12.44 -24.63 0 0 43.37 -17.56 0 0 -43.37 -24.21 0 0 -12.44 66.4 0zm86.94 0l0 55.81 -17.57 0 0 -22.36 -37.74 0 0 22.36 -17.32 0 0 -55.81 17.32 0 0 21.35 37.74 0 0 -21.35 17.57 0zm68.53 43.96l0 11.85 -58.41 0 0 -55.81 58 0 0 12.36 -41.19 0 0 9.58 39.25 0 0 10.76 -39.25 0 0 11.26 41.6 0zm51.88 -43.96c10.14,0 17.35,1.26 21.6,3.76 4.25,2.49 6.39,7.03 6.39,13.6 0,3.65 -1.31,6.88 -3.91,9.65 -2.6,2.77 -6.4,4.43 -11.39,4.93 4.82,0 8.41,0.99 10.76,2.94 2.34,1.95 3.53,4.75 3.53,8.32l0 12.61 -17.56 0 0 -10.84c0,-2.41 -1.02,-4.08 -3.03,-5 -2.01,-0.92 -5.03,-1.39 -8.99,-1.39l-21.85 0 0 17.23 -16.98 0 0 -55.81 41.44 0zm-2.61 26.56c4.82,0 8.14,-0.48 9.96,-1.4 1.81,-0.92 2.73,-2.83 2.73,-5.7 0,-2.65 -0.67,-4.51 -1.97,-5.54 -1.31,-1.04 -4.58,-1.57 -9.71,-1.57l-22.86 0 0 14.2 21.85 0z"/>
   <path class="fil4" d="M1174.34 101.98c0,-17.98 -14.57,-32.55 -32.55,-32.55 -17.98,0 -32.55,14.58 -32.55,32.55 0,17.98 14.58,32.55 32.55,32.55 17.98,0 32.55,-14.57 32.55,-32.55zm-20.07 -10.64c-1.88,-1.11 -5.05,-1.65 -9.52,-1.65l-18.25 0 0 24.59 7.48 0 0 -7.59 9.63 0c1.75,0 3.07,0.2 3.96,0.61 0.89,0.41 1.33,1.14 1.33,2.2l0 4.78 7.74 0 0 -5.55c0,-1.58 -0.52,-2.8 -1.55,-3.67 -1.04,-0.86 -2.62,-1.3 -4.74,-1.3 2.2,-0.22 3.87,-0.94 5.02,-2.17 1.15,-1.22 1.72,-2.64 1.72,-4.25 0,-2.89 -0.94,-4.89 -2.81,-5.99zm-10.22 3.79c2.27,0 3.7,0.23 4.28,0.69 0.58,0.46 0.87,1.27 0.87,2.44 0,1.27 -0.4,2.1 -1.2,2.51 -0.8,0.41 -2.26,0.62 -4.39,0.62l-9.63 0 0 -6.26 10.07 0zm-28.13 6.85c0,-14.29 11.58,-25.87 25.87,-25.87 14.29,0 25.87,11.58 25.87,25.87 0,14.29 -11.58,25.87 -25.87,25.87 -14.29,0 -25.87,-11.58 -25.87,-25.87z"/>
   <polygon class="fil5" points="152.73,182.12 289.74,182.12 289.74,142.82 152.73,142.82 99.04,173.82 99.04,213.11 "/>
  </g>
 </g>
</svg>
