<?xml version="1.0" encoding="UTF-8"?>
<!DOCTYPE svg PUBLIC "-//W3C//DTD SVG 1.1//EN" "http://www.w3.org/Graphics/SVG/1.1/DTD/svg11.dtd">
<!-- Creator: CorelDRAW 2019 (64-Bit) -->
<svg xmlns="http://www.w3.org/2000/svg" xml:space="preserve" width="3.33333in" height="2.66666in" version="1.1" style="shape-rendering:geometricPrecision; text-rendering:geometricPrecision; image-rendering:optimizeQuality; fill-rule:evenodd; clip-rule:evenodd"
viewBox="0 0 3333.33 2666.66"
 xmlns:xlink="http://www.w3.org/1999/xlink">
 <defs>
  <style type="text/css">
   <![CDATA[
    .fil0 {fill:none}
    .fil5 {fill:#98AEA2}
    .fil1 {fill:url(#id0)}
    .fil7 {fill:url(#id1)}
    .fil8 {fill:url(#id2)}
    .fil6 {fill:url(#id3)}
    .fil3 {fill:url(#id4)}
    .fil10 {fill:url(#id5)}
    .fil9 {fill:url(#id6)}
    .fil4 {fill:url(#id7)}
    .fil2 {fill:url(#id8)}
   ]]>
  </style>
  <linearGradient id="id0" gradientUnits="userSpaceOnUse" x1="1513.54" y1="1797.84" x2="1513.54" y2="634.22">
   <stop offset="0" style="stop-opacity:1; stop-color:#414D47"/>
   <stop offset="0.380392" style="stop-opacity:1; stop-color:#54675D"/>
   <stop offset="0.658824" style="stop-opacity:1; stop-color:#727978"/>
   <stop offset="0.768627" style="stop-opacity:1; stop-color:#54675D"/>
   <stop offset="1" style="stop-opacity:1; stop-color:#414D47"/>
  </linearGradient>
  <linearGradient id="id1" gradientUnits="userSpaceOnUse" x1="1548.58" y1="1795.17" x2="2188.27" y2="1212.64">
   <stop offset="0" style="stop-opacity:1; stop-color:#B5846E"/>
   <stop offset="0.458824" style="stop-opacity:1; stop-color:#ECD1B4"/>
   <stop offset="1" style="stop-opacity:1; stop-color:#B5846E"/>
  </linearGradient>
  <linearGradient id="id2" gradientUnits="userSpaceOnUse" xlink:href="#id0" x1="2225.62" y1="1862.65" x2="2225.62" y2="1665.72">
  </linearGradient>
  <linearGradient id="id3" gradientUnits="userSpaceOnUse" xlink:href="#id0" x1="1978.91" y1="1853.24" x2="1978.91" y2="1030.54">
  </linearGradient>
  <linearGradient id="id4" gradientUnits="userSpaceOnUse" xlink:href="#id0" x1="1481.23" y1="1433.11" x2="1481.23" y2="1396.64">
  </linearGradient>
  <linearGradient id="id5" gradientUnits="userSpaceOnUse" xlink:href="#id0" x1="1481.23" y1="1205.97" x2="1481.23" y2="1169.5">
  </linearGradient>
  <linearGradient id="id6" gradientUnits="userSpaceOnUse" xlink:href="#id0" x1="1481.23" y1="1319.55" x2="1481.23" y2="1283.07">
  </linearGradient>
  <linearGradient id="id7" gradientUnits="userSpaceOnUse" xlink:href="#id0" x1="1672.15" y1="1893.91" x2="1672.15" y2="730.29">
  </linearGradient>
  <linearGradient id="id8" gradientUnits="userSpaceOnUse" xlink:href="#id0" x1="1481.23" y1="1092.41" x2="1481.23" y2="1055.93">
  </linearGradient>
 </defs>
 <g id="Layer_x0020_1">
  <metadata id="CorelCorpID_0Corel-Layer"/>
  <g id="_1164204224">
   <rect class="fil0" x="901.15" y="539.27" width="1617.46" height="1617.46"/>
   <path class="fil1" d="M1043.39 994.77l227.14 -227.15 528.96 0 0 198.22 0 55.61 0 55.05 0 123.25 0 312.28 -3.94 3.16c-9.01,7.23 -18.08,14.4 -27.18,21.52l0 -336.96 0 -94.52 0 -55.06 0 -84.33 0 -167.11 -484.96 0 -0.88 208.92 -208.04 0 0 488.28c-11.55,8.7 -22,18.78 -31.11,30l0 -531.17zm756.11 601.07l0 164.36 -189.81 0c14.78,-9.19 29.27,-19.83 43.25,-31.11l115.44 0 0 -98.72c6.35,-6.99 12.58,-14.04 18.64,-20.73l12.48 -13.8zm-274.12 164.36l-216.06 0c9.02,-9.44 17,-19.87 23.78,-31.11l209.75 0c-0.47,0.42 -0.94,0.85 -1.41,1.28 -8.94,8.27 -14.23,18.78 -16.07,29.83zm-419.76 -783.67l146.13 -146.13 -0.32 146.13 -145.8 0z"/>
   <path class="fil2" d="M1132.09 1091.22l555.41 0c8.56,0 15.56,-7 15.56,-15.56l0 0c0,-8.56 -7,-15.56 -15.56,-15.56l-555.41 0c-8.56,0 -15.56,7 -15.56,15.56l0 0c0,8.56 7,15.56 15.56,15.56z"/>
   <path class="fil3" d="M1132.09 1431.94l555.41 0c8.56,0 15.56,-7 15.56,-15.56l0 0c0,-8.56 -7,-15.56 -15.56,-15.56l-555.41 0c-8.56,0 -15.56,7 -15.56,15.56l0 0c0,8.56 7,15.56 15.56,15.56z"/>
   <path class="fil4" d="M1768.38 863.69l115.13 0 0 70.02 0 10.17 0 55.06 0 96.59 0 96.59c-12.28,13.19 -25.5,29.83 -31.11,45.53l0 -142.12 0 -67.87 0 -55.05 0 -38.9 0 -38.9 -84.01 0 0 -31.12zm115.13 455.13l0 118.51c-5.16,5.52 -9.95,10.3 -12.43,12.72 -6.08,5.91 -12.33,11.72 -18.68,17.45l0 -203.47c0.72,1.4 1.58,2.76 2.61,4.07 -3.67,13.33 -0.59,28.22 9.44,39.07 5.34,5.77 11.98,9.67 19.06,11.65zm0 186.91l0 350.55 -546.01 0 -12.85 -31.12 245.93 0c7.29,1.47 14.8,1.51 22.07,0l259.74 0 0 -287c10.18,-10.84 20.54,-21.74 31.11,-32.43z"/>
   <path class="fil5" d="M1185.78 1488.08l5.29 4.84c2.31,2.11 5.61,2.44 8.28,0.82l6.14 -3.72c3.08,-1.87 7.05,-1.08 9.19,1.83l4.25 5.78c1.85,2.52 5.02,3.48 7.96,2.42l6.75 -2.45c3.39,-1.23 7.12,0.32 8.65,3.59l3.04 6.5c1.32,2.83 4.24,4.39 7.33,3.92l7.09 -1.08c3.56,-0.54 6.93,1.7 7.79,5.2l1.71 6.96c0.75,3.04 3.31,5.14 6.43,5.28l7.17 0.32c3.6,0.16 6.46,3.02 6.62,6.63l0.32 7.17c0.14,3.12 2.24,5.68 5.28,6.43l6.96 1.71c3.5,0.86 5.75,4.22 5.2,7.79l-1.08 7.09c-0.47,3.09 1.09,6.01 3.92,7.33l6.5 3.04c3.26,1.53 4.81,5.26 3.58,8.65l-2.44 6.74c-1.07,2.94 -0.1,6.11 2.41,7.96l5.78 4.25c2.91,2.13 3.7,6.1 1.83,9.19l-3.72 6.14c-1.62,2.68 -1.3,5.97 0.81,8.28l4.84 5.3c2.43,2.66 2.43,6.7 0,9.37l-4.84 5.3c-2.11,2.31 -2.43,5.6 -0.81,8.28l3.72 6.14c1.87,3.08 1.07,7.05 -1.83,9.19l-5.78 4.25c-2.52,1.85 -3.48,5.02 -2.41,7.96l2.44 6.74c1.23,3.39 -0.32,7.13 -3.58,8.65l-6.5 3.04c-2.83,1.33 -4.39,4.24 -3.92,7.33l1.08 7.09c0.54,3.56 -1.7,6.93 -5.2,7.79l-6.96 1.71c-3.04,0.74 -5.13,3.3 -5.28,6.43l-0.32 7.17c-0.16,3.6 -3.02,6.46 -6.62,6.62l-7.17 0.32c-3.13,0.14 -5.69,2.24 -6.43,5.28l-1.71 6.96c-0.86,3.5 -4.22,5.75 -7.79,5.2l-7.09 -1.08c-3.09,-0.47 -6.01,1.09 -7.33,3.92l-3.04 6.5c-1.53,3.27 -5.26,4.81 -8.65,3.58l-6.74 -2.44c-2.94,-1.07 -6.11,-0.11 -7.96,2.42l-4.25 5.78c-2.13,2.9 -6.1,3.69 -9.19,1.83l-6.14 -3.72c-2.67,-1.62 -5.97,-1.29 -8.28,0.81l-5.3 4.84c-2.66,2.43 -6.7,2.43 -9.37,0l-5.3 -4.84c-2.31,-2.11 -5.6,-2.43 -8.28,-0.81l-6.14 3.72c-3.08,1.87 -7.05,1.07 -9.19,-1.83l-4.25 -5.78c-1.85,-2.52 -5.02,-3.48 -7.96,-2.42l-6.74 2.44c-3.39,1.23 -7.13,-0.31 -8.65,-3.58l-3.04 -6.5c-1.32,-2.83 -4.24,-4.39 -7.33,-3.92l-7.09 1.08c-3.56,0.54 -6.93,-1.7 -7.79,-5.2l-1.71 -6.96c-0.75,-3.04 -3.31,-5.14 -6.43,-5.28l-7.17 -0.32c-3.6,-0.16 -6.46,-3.02 -6.62,-6.62l-0.32 -7.17c-0.14,-3.12 -2.24,-5.68 -5.28,-6.43l-6.97 -1.71c-3.5,-0.86 -5.75,-4.22 -5.2,-7.79l1.08 -7.09c0.47,-3.09 -1.09,-6.01 -3.92,-7.33l-6.5 -3.04c-3.27,-1.53 -4.81,-5.27 -3.59,-8.65l2.44 -6.74c1.07,-2.94 0.11,-6.11 -2.41,-7.96l-5.78 -4.25c-2.91,-2.13 -3.69,-6.1 -1.83,-9.19l3.71 -6.14c1.62,-2.68 1.3,-5.97 -0.81,-8.28l-4.84 -5.3c-2.43,-2.66 -2.43,-6.7 0,-9.37l4.84 -5.3c2.11,-2.31 2.44,-5.6 0.81,-8.28l-3.71 -6.14c-1.87,-3.08 -1.08,-7.05 1.83,-9.19l5.78 -4.25c2.52,-1.85 3.48,-5.02 2.41,-7.96l-2.44 -6.74c-1.23,-3.39 0.32,-7.13 3.59,-8.65l6.5 -3.04c2.83,-1.33 4.39,-4.25 3.92,-7.33l-1.08 -7.09c-0.55,-3.56 1.7,-6.93 5.2,-7.79l6.97 -1.71c3.04,-0.75 5.13,-3.3 5.28,-6.43l0.32 -7.17c0.16,-3.6 3.02,-6.46 6.62,-6.63l7.17 -0.32c3.12,-0.14 5.68,-2.24 6.43,-5.28l1.71 -6.96c0.86,-3.5 4.22,-5.75 7.79,-5.2l7.09 1.08c3.09,0.47 6.01,-1.09 7.33,-3.92l3.04 -6.5c1.53,-3.27 5.27,-4.81 8.65,-3.59l6.74 2.45c2.94,1.06 6.11,0.1 7.96,-2.42l4.25 -5.78c2.13,-2.91 6.1,-3.69 9.19,-1.83l6.14 3.72c2.67,1.62 5.97,1.29 8.28,-0.81l5.3 -4.84c2.66,-2.43 6.7,-2.43 9.37,0zm84.97 277l53.82 130.32 -56.93 -24.76 -22.87 57.72 -56.5 -136.8c0.69,-0.43 1.34,-0.93 1.96,-1.49l5.3 -4.84c0.15,-0.14 0.24,-0.15 0.42,-0.04l6.14 3.72c5.99,3.63 13.76,2.08 17.91,-3.56l4.25 -5.78c0.12,-0.17 0.21,-0.19 0.4,-0.12l6.74 2.44c6.58,2.39 13.9,-0.65 16.87,-6.98l3.04 -6.5c0.09,-0.18 0.17,-0.22 0.37,-0.19l7.09 1.08c4.6,0.7 9.04,-1 12,-4.21zm-96.83 26.49l-56.5 136.8 -22.87 -57.72 -56.94 24.76 53.83 -130.32c2.96,3.22 7.4,4.92 12,4.21l7.09 -1.08c0.2,-0.03 0.28,0.01 0.37,0.19l3.04 6.5c2.97,6.34 10.28,9.38 16.87,6.99l6.74 -2.44c0.19,-0.07 0.28,-0.04 0.4,0.12l4.25 5.78c4.15,5.64 11.92,7.19 17.91,3.56l6.14 -3.72c0.17,-0.1 0.27,-0.09 0.42,0.04l5.29 4.84c0.62,0.56 1.28,1.06 1.96,1.49zm-10.88 -94.37l39.08 -39.08 52.78 -52.78 -16.52 -16.52 -75.33 75.33 -39.24 -39.23 -16.52 16.52 26.16 26.16 29.6 29.6zm18.05 -184.49c68.44,0 123.93,55.48 123.93,123.93 0,68.45 -55.49,123.93 -123.93,123.93 -68.44,0 -123.93,-55.48 -123.93,-123.93 0,-68.44 55.48,-123.93 123.93,-123.93zm0 5.16c65.59,0 118.77,53.18 118.77,118.77 0,65.59 -53.18,118.77 -118.77,118.77 -65.59,0 -118.77,-53.18 -118.77,-118.77 0,-65.59 53.18,-118.77 118.77,-118.77z"/>
   <path class="fil6" d="M2202.26 1347.51c13.6,-2.53 28.19,1.75 38.24,12.6 10.07,10.89 13.2,25.83 9.57,39.23 22.07,28.57 -30,78.83 -48.36,95.83 -18.36,16.99 -72.52,65.02 -99.28,40.8 -13.64,2.58 -28.29,-1.69 -38.37,-12.57 -10.04,-10.85 -13.18,-25.74 -9.61,-39.11l-33.7 -36.42c-16.76,15.8 -30.08,27.62 -56.07,28.61 -21.18,2.8 -96.81,82.4 -112.85,99.49 -21.82,23.26 -43.16,46.95 -64.55,70.6 -14.15,15.64 -29.22,33.2 -44.65,47.48 -26.26,24.3 -55.74,49.36 -86.37,68.02 -3.92,2.39 -16.54,10.26 -20.07,14.61 -1.22,16.01 -6.75,25.07 -18.57,36.01 -22.46,20.79 -57.52,17.56 -77.94,-4.51 -20.52,-22.18 -21,-57.2 1.53,-78.06 11.82,-10.93 21.29,-15.75 37.35,-15.72 4.61,-3.19 13.43,-15.15 16.11,-18.88 20.97,-29.09 48.24,-56.55 74.5,-80.85 15.44,-14.28 34.11,-27.94 50.8,-40.84 25.24,-19.5 50.51,-38.93 75.39,-58.89 18.28,-14.67 103.5,-83.92 107.9,-104.61 3.02,-25.97 15.8,-38.36 32.89,-53.9l-33.7 -36.42c-13.6,2.53 -28.2,-1.74 -38.24,-12.6 -10.08,-10.89 -13.2,-25.83 -9.57,-39.23 -22.06,-28.57 30,-78.83 48.36,-95.83 18.37,-16.99 72.52,-65.02 99.28,-40.8 13.64,-2.57 28.29,1.69 38.37,12.57 10.04,10.86 13.18,25.74 9.61,39.1l152.02 164.28z"/>
   <path class="fil7" d="M2024.8 1158.78l0 0c7.49,8.09 7,20.84 -1.1,28.33l-115.35 106.74c-8.09,7.49 -20.85,7 -28.33,-1.1l-0 0c-7.49,-8.09 -7,-20.84 1.1,-28.33l115.35 -106.74c8.09,-7.49 20.84,-7 28.33,1.1zm-36.58 -10.81l4.23 4.58 -0.4 0.36 -115.35 106.74 -0.39 0.37 -4.23 -4.57c-6.91,-7.47 13.48,-37.58 45.56,-67.26 32.07,-29.68 63.67,-47.69 70.59,-40.22zm40.3 43.56l163.8 177 -0.4 0.37 -115.35 106.74 -0.39 0.37 -163.8 -177.01 0.4 -0.36 115.35 -106.74 0.4 -0.37zm199.87 215.98l4.23 4.57 0 0c6.91,7.47 -13.49,37.58 -45.56,67.26 -32.07,29.68 -63.67,47.69 -70.59,40.22l-0.02 -0.03 -4.21 -4.55 0.4 -0.36 115.35 -106.74 0.39 -0.37zm-672.89 386.03c-13.01,-14.06 -12.85,-35.36 0.35,-47.58 26.24,-24.28 21.76,10.1 56.31,-37.82 14.9,-20.67 38.45,-46.91 71.65,-77.63 36.88,-34.13 235.64,-172.19 240.85,-217.68 2.3,-19.11 8.3,-23.96 34.45,-48.16l1.59 -1.45 55.19 59.64 -1.57 1.48c-26.15,24.2 -31.44,29.8 -50.68,30.62 -45.76,1.67 -198.79,189.15 -235.67,223.28 -33.2,30.72 -61.18,52.17 -82.94,65.43 -50.45,30.73 -15.83,28.93 -42.07,53.21 -13.2,12.22 -34.46,10.73 -47.46,-3.33zm669.17 -418.77l0 0c7.49,8.09 7,20.85 -1.1,28.33l-115.35 106.74c-8.09,7.49 -20.85,7 -28.33,-1.1l-0 0c-7.49,-8.09 -6.99,-20.85 1.1,-28.33l115.35 -106.74c8.09,-7.49 20.84,-7 28.33,1.1z"/>
   <path class="fil8" d="M2389.07 1782.74c-14.2,-1.17 -16.98,-5.39 -16.98,-13.39 0,-12.58 -10.29,-22.88 -22.87,-22.88l-176.24 0 -176.24 0c-12.58,0 -22.87,10.3 -22.87,22.88 0,8 -2.78,12.22 -16.98,13.39l0 73.54 39.85 0 176.24 0 176.24 0 39.85 0 0 -73.54zm-83.82 -94.44l-264.54 0c-11.22,0 -20.41,10.6 -20.41,23.56l0 27.27 305.36 0 0 -27.27c0,-12.96 -9.19,-23.56 -20.41,-23.56z"/>
   <path class="fil9" d="M1132.09 1318.36l555.41 0c8.56,0 15.56,-7 15.56,-15.56l0 0c0,-8.56 -7,-15.56 -15.56,-15.56l-555.41 0c-8.56,0 -15.56,7 -15.56,15.56l0 0c0,8.56 7,15.56 15.56,15.56z"/>
   <path class="fil10" d="M1132.09 1204.79l555.41 0c8.56,0 15.56,-7 15.56,-15.56l0 0c0,-8.56 -7,-15.56 -15.56,-15.56l-555.41 0c-8.56,0 -15.56,7 -15.56,15.56l0 0c0,8.56 7,15.56 15.56,15.56z"/>
  </g>
 </g>
</svg>
