<svg id="Layer_1" data-name="Layer 1" xmlns="http://www.w3.org/2000/svg" xmlns:xlink="http://www.w3.org/1999/xlink" viewBox="0 0 24 23.6"><defs><style>.cls-1{fill:url(#New_Gradient_Swatch_3);}.cls-2{fill:url(#linear-gradient);}.cls-3{fill:url(#New_Gradient_Swatch_2);}.cls-4{fill:url(#New_Gradient_Swatch_2-2);}.cls-5{fill:url(#New_Gradient_Swatch_3-2);}.cls-6{fill:url(#New_Gradient_Swatch_3-3);}.cls-7{fill:url(#New_Gradient_Swatch_3-4);}.cls-8{fill:url(#New_Gradient_Swatch_3-5);}.cls-9{fill:url(#New_Gradient_Swatch_3-6);}</style><linearGradient id="New_Gradient_Swatch_3" x1="3.48" y1="0.1" x2="3.48" y2="6.85" gradientUnits="userSpaceOnUse"><stop offset="0" stop-color="#3c5249"/><stop offset="0.5" stop-color="#3e534b"/><stop offset="0.69" stop-color="#455951"/><stop offset="0.82" stop-color="#51625c"/><stop offset="0.93" stop-color="#626f6b"/><stop offset="1" stop-color="#717b79"/></linearGradient><linearGradient id="linear-gradient" x1="3.45" y1="8.53" x2="3.5" y2="15.48" gradientUnits="userSpaceOnUse"><stop offset="0" stop-color="#717a7a"/><stop offset="0.52" stop-color="#717f7d"/><stop offset="1" stop-color="#717b7a"/></linearGradient><linearGradient id="New_Gradient_Swatch_2" x1="11.98" y1="8.35" x2="12.02" y2="15.35" gradientUnits="userSpaceOnUse"><stop offset="0" stop-color="#717a7a"/><stop offset="0.54" stop-color="#717b79"/><stop offset="1" stop-color="#717b7a"/></linearGradient><linearGradient id="New_Gradient_Swatch_2-2" x1="17.05" y1="11.85" x2="24" y2="11.85" xlink:href="#New_Gradient_Swatch_2"/><linearGradient id="New_Gradient_Swatch_3-2" x1="12" y1="0.1" x2="12" y2="6.85" xlink:href="#New_Gradient_Swatch_3"/><linearGradient id="New_Gradient_Swatch_3-3" x1="20.52" y1="0.1" x2="20.52" y2="6.85" xlink:href="#New_Gradient_Swatch_3"/><linearGradient id="New_Gradient_Swatch_3-4" x1="3.48" y1="16.75" x2="3.48" y2="23.5" gradientTransform="translate(17.05 0)" xlink:href="#New_Gradient_Swatch_3"/><linearGradient id="New_Gradient_Swatch_3-5" x1="12" y1="16.75" x2="12" y2="23.5" gradientTransform="translate(0 0)" xlink:href="#New_Gradient_Swatch_3"/><linearGradient id="New_Gradient_Swatch_3-6" x1="20.52" y1="16.75" x2="20.52" y2="23.5" gradientTransform="translate(-17.05 0)" xlink:href="#New_Gradient_Swatch_3"/></defs><path class="cls-1" d="M2,0H7A0,0,0,0,1,7,0V7A0,0,0,0,1,7,7H0A0,0,0,0,1,0,7V2A2,2,0,0,1,2,0Z"/><rect class="cls-2" y="8.38" width="6.95" height="6.95"/><rect class="cls-3" x="8.52" y="8.38" width="6.95" height="6.95"/><rect class="cls-4" x="17.05" y="8.38" width="6.95" height="6.95"/><rect class="cls-5" x="8.52" width="6.95" height="6.95"/><path class="cls-6" d="M17,0h5a2,2,0,0,1,2,2V7a0,0,0,0,1,0,0H17a0,0,0,0,1,0,0V0A0,0,0,0,1,17,0Z"/><path class="cls-7" d="M19,16.65h5a0,0,0,0,1,0,0v7a0,0,0,0,1,0,0H17a0,0,0,0,1,0,0v-5A2,2,0,0,1,19,16.65Z" transform="translate(41.05 40.25) rotate(180)"/><rect class="cls-8" x="8.52" y="16.65" width="6.95" height="6.95" transform="translate(24 40.25) rotate(180)"/><path class="cls-9" d="M0,16.65H5a2,2,0,0,1,2,2v5a0,0,0,0,1,0,0H0a0,0,0,0,1,0,0v-7a0,0,0,0,1,0,0Z" transform="translate(6.95 40.25) rotate(180)"/></svg>