<?xml version="1.0" encoding="utf-8"?>
<!-- Generator: Adobe Illustrator 25.2.1, SVG Export Plug-In . SVG Version: 6.00 Build 0)  -->
<svg version="1.1" id="Layer_1" xmlns="http://www.w3.org/2000/svg" xmlns:xlink="http://www.w3.org/1999/xlink" x="0px" y="0px"
	 viewBox="0 0 24 23.6" style="enable-background:new 0 0 24 23.6;" xml:space="preserve">
<style type="text/css">
	.st0{fill:url(#SVGID_1_);}
	.st1{fill:#E6C9AC;}
	.st2{fill:url(#SVGID_2_);}
	.st3{fill:url(#SVGID_3_);}
	.st4{fill:url(#SVGID_4_);}
	.st5{fill:url(#SVGID_5_);}
	.st6{fill:url(#SVGID_6_);}
</style>
<linearGradient id="SVGID_1_" gradientUnits="userSpaceOnUse" x1="3.5" y1="0" x2="3.5" y2="7">
	<stop  offset="0" style="stop-color:#B88873"/>
	<stop  offset="1" style="stop-color:#E6C9AC"/>
</linearGradient>
<path class="st0" d="M2,0h5l0,0v7l0,0H0l0,0V2C0,0.9,0.9,0,2,0z"/>
<rect y="8.4" class="st1" width="6.9" height="6.9"/>
<rect x="8.5" y="8.4" class="st1" width="6.9" height="6.9"/>
<rect x="17" y="8.4" class="st1" width="7" height="6.9"/>
<linearGradient id="SVGID_2_" gradientUnits="userSpaceOnUse" x1="11.995" y1="25.9" x2="11.995" y2="19.15" gradientTransform="matrix(1 0 0 -1 0 26)">
	<stop  offset="0" style="stop-color:#B88873"/>
	<stop  offset="1" style="stop-color:#E6C9AC"/>
</linearGradient>
<rect x="8.5" class="st2" width="6.9" height="6.9"/>
<linearGradient id="SVGID_3_" gradientUnits="userSpaceOnUse" x1="20.5" y1="25.9" x2="20.5" y2="19.15" gradientTransform="matrix(1 0 0 -1 0 26)">
	<stop  offset="0" style="stop-color:#B88873"/>
	<stop  offset="1" style="stop-color:#E6C9AC"/>
</linearGradient>
<path class="st3" d="M17,0h5c1.1,0,2,0.9,2,2v5l0,0h-7l0,0V0L17,0z"/>
<linearGradient id="SVGID_4_" gradientUnits="userSpaceOnUse" x1="-1890.55" y1="1063.25" x2="-1890.55" y2="1056.5" gradientTransform="matrix(-1 0 0 1 -1870 -1039.75)">
	<stop  offset="0" style="stop-color:#B88873"/>
	<stop  offset="1" style="stop-color:#E6C9AC"/>
</linearGradient>
<path class="st4" d="M22,23.6h-5l0,0v-7l0,0h7l0,0v5C24,22.7,23.2,23.6,22,23.6z"/>
<linearGradient id="SVGID_5_" gradientUnits="userSpaceOnUse" x1="-1882.005" y1="1063.25" x2="-1882.005" y2="1056.5" gradientTransform="matrix(-1 0 0 1 -1870 -1039.75)">
	<stop  offset="0" style="stop-color:#B88873"/>
	<stop  offset="1" style="stop-color:#E6C9AC"/>
</linearGradient>
<rect x="8.5" y="16.7" class="st5" width="6.9" height="6.9"/>
<linearGradient id="SVGID_6_" gradientUnits="userSpaceOnUse" x1="-1873.45" y1="1063.25" x2="-1873.45" y2="1056.5" gradientTransform="matrix(-1 0 0 1 -1870 -1039.75)">
	<stop  offset="0" style="stop-color:#B88873"/>
	<stop  offset="1" style="stop-color:#E6C9AC"/>
</linearGradient>
<path class="st6" d="M6.9,23.6h-5c-1.1,0-2-0.9-2-2v-5l0,0h7l0,0V23.6L6.9,23.6z"/>
</svg>
