<?xml version="1.0" encoding="UTF-8"?>
<!DOCTYPE svg PUBLIC "-//W3C//DTD SVG 1.1//EN" "http://www.w3.org/Graphics/SVG/1.1/DTD/svg11.dtd">
<!-- Creator: CorelDRAW 2019 (64-Bit) -->
<svg xmlns="http://www.w3.org/2000/svg" xml:space="preserve" width="0.829606in" height="0.829602in" version="1.1" style="shape-rendering:geometricPrecision; text-rendering:geometricPrecision; image-rendering:optimizeQuality; fill-rule:evenodd; clip-rule:evenodd"
viewBox="0 0 106.08 106.07"
 xmlns:xlink="http://www.w3.org/1999/xlink">
 <defs>
  <style type="text/css">
   <![CDATA[
    .fil0 {fill:url(#id0)}
   ]]>
  </style>
  <linearGradient id="id0" gradientUnits="objectBoundingBox" x1="62.1805%" y1="103.794%" x2="62.1805%" y2="0%">
   <stop offset="0" style="stop-opacity:1; stop-color:#414D47"/>
   <stop offset="0.380392" style="stop-opacity:1; stop-color:#54675D"/>
   <stop offset="0.658824" style="stop-opacity:1; stop-color:#727978"/>
   <stop offset="0.768627" style="stop-opacity:1; stop-color:#54675D"/>
   <stop offset="1" style="stop-opacity:1; stop-color:#414D47"/>
  </linearGradient>
 </defs>
 <g id="Layer_x0020_1">
  <metadata id="CorelCorpID_0Corel-Layer"/>
  <g id="_1242259648">
   <path class="fil0" d="M46.75 19.45l12.57 0c1.08,0 1.95,0.88 1.95,1.95l0 12.57c0,1.08 -0.88,1.95 -1.95,1.95l-12.57 0c-1.08,0 -1.95,-0.88 -1.95,-1.95l0 -12.57c0,-1.07 0.88,-1.95 1.95,-1.95zm-25.36 67.18l12.57 0c1.08,0 1.95,-0.88 1.95,-1.95l0 -12.57c0,-1.08 -0.88,-1.95 -1.95,-1.95l-12.57 0c-1.08,0 -1.95,0.88 -1.95,1.95l0 12.57c0,1.08 0.88,1.95 1.95,1.95zm25.36 0l12.57 0c1.08,0 1.95,-0.88 1.95,-1.95l0 -12.57c0,-1.08 -0.88,-1.95 -1.95,-1.95l-12.57 0c-1.08,0 -1.95,0.88 -1.95,1.95l0 12.57c0,1.08 0.88,1.95 1.95,1.95zm25.36 0l12.57 0c1.08,0 1.95,-0.88 1.95,-1.95l0 -12.57c0,-1.08 -0.88,-1.95 -1.95,-1.95l-12.57 0c-1.08,0 -1.95,0.88 -1.95,1.95l0 12.57c0,1.08 0.88,1.95 1.95,1.95zm14.52 -39.88l0 12.57c0,1.08 -0.88,1.95 -1.95,1.95l-12.57 0c-1.08,0 -1.95,-0.88 -1.95,-1.95l0 -12.57c0,-1.08 0.88,-1.95 1.95,-1.95l12.57 0c1.08,0 1.95,0.88 1.95,1.95zm-14.52 -27.31l12.57 0c1.08,0 1.95,0.88 1.95,1.95l0 12.57c0,1.08 -0.88,1.95 -1.95,1.95l-12.57 0c-1.08,0 -1.95,-0.88 -1.95,-1.95l0 -12.57c0,-1.07 0.88,-1.95 1.95,-1.95zm-10.84 27.31l0 12.57c0,1.08 -0.88,1.95 -1.95,1.95l-12.57 0c-1.08,0 -1.95,-0.88 -1.95,-1.95l0 -12.57c0,-1.08 0.88,-1.95 1.95,-1.95l12.57 0c1.08,0 1.95,0.88 1.95,1.95zm-25.36 0l0 12.57c0,1.08 -0.88,1.95 -1.95,1.95l-12.57 0c-1.08,0 -1.95,-0.88 -1.95,-1.95l0 -12.57c0,-1.08 0.88,-1.95 1.95,-1.95l12.57 0c1.08,0 1.95,0.88 1.95,1.95zm-14.52 -27.31l12.57 0c1.08,0 1.95,0.88 1.95,1.95l0 12.57c0,1.08 -0.88,1.95 -1.95,1.95l-12.57 0c-1.08,0 -1.95,-0.88 -1.95,-1.95l0 -12.57c0,-1.07 0.88,-1.95 1.95,-1.95l0 0z"/>
  </g>
 </g>
</svg>
