<?xml version="1.0" encoding="UTF-8"?>
<!DOCTYPE svg PUBLIC "-//W3C//DTD SVG 1.1//EN" "http://www.w3.org/Graphics/SVG/1.1/DTD/svg11.dtd">
<!-- Creator: CorelDRAW 2019 (64-Bit) -->
<svg xmlns="http://www.w3.org/2000/svg" xml:space="preserve" width="3.33333in" height="2.66666in" version="1.1" style="shape-rendering:geometricPrecision; text-rendering:geometricPrecision; image-rendering:optimizeQuality; fill-rule:evenodd; clip-rule:evenodd"
viewBox="0 0 3333.33 2666.66"
 xmlns:xlink="http://www.w3.org/1999/xlink">
 <defs>
  <style type="text/css">
   <![CDATA[
    .fil0 {fill:none}
    .fil2 {fill:#98AEA2}
    .fil7 {fill:white}
    .fil1 {fill:url(#id0)}
    .fil6 {fill:url(#id1)}
    .fil11 {fill:url(#id2)}
    .fil10 {fill:url(#id3)}
    .fil3 {fill:url(#id4)}
    .fil9 {fill:url(#id5)}
    .fil8 {fill:url(#id6)}
    .fil5 {fill:url(#id7)}
    .fil4 {fill:url(#id8)}
   ]]>
  </style>
  <linearGradient id="id0" gradientUnits="userSpaceOnUse" x1="1744.09" y1="1883.27" x2="1744.09" y2="1259.64">
   <stop offset="0" style="stop-opacity:1; stop-color:#414D47"/>
   <stop offset="0.380392" style="stop-opacity:1; stop-color:#54675D"/>
   <stop offset="0.658824" style="stop-opacity:1; stop-color:#727978"/>
   <stop offset="0.768627" style="stop-opacity:1; stop-color:#54675D"/>
   <stop offset="1" style="stop-opacity:1; stop-color:#414D47"/>
  </linearGradient>
  <linearGradient id="id1" gradientUnits="userSpaceOnUse" x1="1660.5" y1="1983.07" x2="1672.7" y2="1529.11">
   <stop offset="0" style="stop-opacity:1; stop-color:#B5846E"/>
   <stop offset="0.458824" style="stop-opacity:1; stop-color:#ECD1B4"/>
   <stop offset="1" style="stop-opacity:1; stop-color:#B5846E"/>
  </linearGradient>
  <linearGradient id="id2" gradientUnits="userSpaceOnUse" xlink:href="#id0" x1="2029.97" y1="1022.17" x2="2029.97" y2="630.21">
  </linearGradient>
  <linearGradient id="id3" gradientUnits="userSpaceOnUse" xlink:href="#id0" x1="1384.81" y1="1022.45" x2="1384.81" y2="630.49">
  </linearGradient>
  <linearGradient id="id4" gradientUnits="userSpaceOnUse" xlink:href="#id0" x1="1709.87" y1="1387.31" x2="1709.87" y2="909.57">
  </linearGradient>
  <linearGradient id="id5" gradientUnits="userSpaceOnUse" xlink:href="#id0" x1="1178.95" y1="1404.94" x2="1178.95" y2="1012.98">
  </linearGradient>
  <linearGradient id="id6" gradientUnits="userSpaceOnUse" xlink:href="#id0" x1="2235.83" y1="1404.94" x2="2235.83" y2="1012.98">
  </linearGradient>
  <linearGradient id="id7" gradientUnits="userSpaceOnUse" xlink:href="#id0" x1="1754.66" y1="2007.83" x2="1754.66" y2="1503.35">
  </linearGradient>
  <linearGradient id="id8" gradientUnits="userSpaceOnUse" xlink:href="#id0" x1="1677.56" y1="1661.14" x2="1677.56" y2="1380.86">
  </linearGradient>
 </defs>
 <g id="Layer_x0020_1">
  <metadata id="CorelCorpID_0Corel-Layer"/>
  <g id="_992195344">
   <rect class="fil0" x="857.94" y="524.6" width="1617.46" height="1617.46"/>
   <path class="fil1" d="M1361.91 1665.98c-4.63,-56.29 -2.9,-230.28 83.11,-237.56 23.03,-1.95 46.33,-4.83 69.01,-9.27 23.93,-4.68 80.28,-22.57 80.71,-54.49l0.52 -26.47c-3.7,-2.13 -7.31,-4.41 -10.83,-6.85l-0.61 33.17c-0.61,32.91 -106.44,50.21 -139.72,53.03 -74.78,6.33 -104.02,116.25 -93.07,249.34 4.97,60.44 -3.84,147.29 1.53,196.23l314.11 0 314.11 0c5.37,-48.94 -3.44,-135.79 1.53,-196.23 10.94,-133.09 -18.29,-243.01 -93.07,-249.34 -33.28,-2.81 -139.12,-20.11 -139.72,-53.03l-0.61 -33.37c-3.52,2.44 -7.13,4.74 -10.83,6.89l0.52 26.63c0.43,31.92 56.79,49.81 80.72,54.49 22.68,4.44 45.98,7.32 69.01,9.27 86.01,7.28 87.74,181.27 83.11,237.56 -5.09,61.92 4.6,124.63 -0.57,186.2l-608.38 0c-5.17,-61.57 4.53,-124.28 -0.56,-186.2z"/>
   <path class="fil2" d="M1367.59 1846.64l104.52 0 3.15 -129.53 3.28 -135.06 3.28 135.06 3.15 129.53 181.67 0 181.68 0 3.15 -129.53 3.29 -135.06 3.28 135.06 3.15 129.53 104.52 0c4.28,-60.24 -4.79,-120.77 0.17,-181.12 4.5,-54.75 2.26,-224.79 -78.06,-231.59 -23.31,-1.98 -46.63,-4.85 -69.6,-9.35 -11.06,-2.17 -26.49,-6.43 -41.18,-12.94l14.84 130.52 -52.73 18.61 23.45 51.83 -95.95 92.73 -95.94 -92.73 23.44 -51.83 -52.73 -18.61 14.84 -130.52c-14.69,6.51 -30.12,10.78 -41.18,12.94 -22.97,4.5 -46.29,7.38 -69.61,9.35 -80.31,6.8 -82.56,176.83 -78.06,231.59 4.96,60.35 -4.11,120.88 0.17,181.12zm299.07 -20.39c-9.25,0 -16.75,-7.5 -16.75,-16.75 0,-9.25 7.5,-16.76 16.75,-16.76 9.26,0 16.76,7.5 16.76,16.76 0,9.25 -7.5,16.75 -16.76,16.75zm0 -72.7c-9.25,0 -16.75,-7.5 -16.75,-16.75 0,-9.25 7.5,-16.76 16.75,-16.76 9.26,0 16.76,7.5 16.76,16.76 0,9.25 -7.5,16.75 -16.76,16.75zm0 -58.35l87.2 -84.28 -24.6 -54.38 54.74 -19.32 -14.7 -129.28c-9.98,-5.12 -19.15,-11.34 -25.77,-18.73l-76.87 299.62 -76.87 -299.62c-6.62,7.39 -15.8,13.61 -25.77,18.73l-14.7 129.28 54.74 19.32 -24.6 54.38 87.2 84.28z"/>
   <path class="fil3" d="M1650.96 1357.95c-29.43,-4.03 -56.15,-19.03 -76.41,-40.54 -23.48,-24.94 -37.08,-57.02 -41.35,-90.81l-1.01 -7.98 -7.63 -2.57c-9.4,-3.17 -13.5,-4.26 -17.54,-13.8 -1.91,-4.52 -3.18,-9.86 -3.95,-15.44l0.05 -0.04c-0.2,-1.43 -0.36,-2.86 -0.49,-4.29 -0.31,-3.37 -0.5,-7.09 -0.51,-10.94 0.01,-3.85 0.2,-7.57 0.51,-10.94 0.13,-1.43 0.29,-2.86 0.49,-4.28l-0.05 -0.04c0.77,-5.57 2.04,-10.91 3.95,-15.44 4.03,-9.53 8.14,-10.63 17.54,-13.8l7.63 58.12 13.15 4.15c6.01,-47.67 -8.61,-128.93 39.83,-128.93 35.22,0 140.75,35.28 179.91,8.91 23.48,24.93 27.04,68.24 24.53,119.76l11.5 -3.9 7.63 -58.12c9.4,3.17 13.5,4.26 17.54,13.8 1.91,4.52 3.18,9.86 3.95,15.44l-0.05 0.04c0.2,1.43 0.36,2.86 0.49,4.28 0.31,3.38 0.5,7.09 0.51,10.94 -0.01,3.85 -0.19,7.57 -0.51,10.94 -0.13,1.43 -0.29,2.86 -0.49,4.29l0.05 0.04c-0.77,5.57 -2.04,10.91 -3.95,15.44 -4.04,9.54 -8.14,10.63 -17.54,13.8l-7.63 2.57 -1.01 7.98c-4.26,33.8 -17.87,65.87 -41.35,90.81 -20.26,21.51 -46.97,36.51 -76.4,40.54 -5.2,0.71 -10.44,1.07 -15.69,1.07l-0.01 0 -0.01 0c-5.25,0 -10.49,-0.36 -15.69,-1.07zm15.69 -386.73c-69.09,0.17 -128.59,-32.56 -148.45,43.38 -41.67,11.62 -17.84,109.08 -22.98,121.24 -5.14,12.15 -5.95,23.62 -5.93,35.7 -0.02,12.08 1.56,25.37 5.93,35.7 5.91,13.97 13.3,16.93 25.26,20.96 11.01,87.33 77.08,143.49 146.17,143.66l0.01 0 0.01 0c69.09,-0.17 135.17,-56.33 146.17,-143.66 11.96,-4.03 19.35,-6.98 25.26,-20.96 4.37,-10.34 5.95,-23.62 5.94,-35.7 0.02,-12.09 -1.56,-25.37 -5.94,-35.7 -5.91,-13.97 -13.3,-16.93 -25.26,-20.96 49.69,-156.24 -77.08,-143.49 -146.17,-143.66l-0.02 0z"/>
   <path class="fil4" d="M1638.95 1412.99c-8.19,5.31 -14.8,13.05 -17.01,24.2 4.04,-7.78 8.35,-8.98 13.22,-12.11l17.34 29.67 14.17 0 14.16 0 17.33 -29.67c4.87,3.13 9.19,4.32 13.23,12.11 -2.22,-11.15 -8.82,-18.89 -17.02,-24.2 -6.72,2.32 -16.64,3.78 -27.7,3.78 -11.07,0 -20.99,-1.46 -27.71,-3.78zm27.71 239.08l-30.38 -114.18 16.22 -77.07 14.17 0 14.16 0 16.22 77.07 -30.38 114.18z"/>
   <path class="fil5" d="M1354.56 1943.4c-4.28,-5.26 -7.2,-11.61 -8.07,-18.59l-40.82 -327.02c-2.55,-20.43 13.54,-36.61 33.67,-36.61l654.64 0c20.14,0 36.22,16.18 33.67,36.61l-40.82 327.02c-0.87,6.98 -3.79,13.33 -8.07,18.59l9.82 0 0 24.06c0,13.25 -10.81,24.06 -24.06,24.06l-595.41 0c-13.25,0 -24.06,-10.81 -24.06,-24.06l0 -24.06 9.51 0z"/>
   <path class="fil6" d="M1356.74 1955.09l620.15 0 0 12.37c0,6.8 -5.57,12.37 -12.37,12.37l-595.41 0c-6.8,0 -12.37,-5.57 -12.37,-12.37l0 -12.37zm-17.41 -382.22l162.85 0 328.95 0 162.85 0c13.76,0 23.69,10.56 22.08,23.47l-40.83 327.02c-1.61,12.91 -14.2,23.47 -27.94,23.47l-69.48 0 -422.32 0 -69.48 0c-13.74,0 -26.33,-10.56 -27.94,-23.47l-40.82 -327.02c-1.61,-12.91 8.32,-23.47 22.07,-23.47z"/>
   <path class="fil7" d="M1712.88 1799.05c-11.25,0 -22.49,0 -33.74,0 -11.24,0 -22.48,0 -33.72,0 -4.06,2.63 -8.1,5.26 -12.08,7.9 -3.96,2.62 -7.9,5.26 -11.79,7.9 0.13,2.03 0.26,4.06 0.41,6.09 14.91,0 29.83,0 44.74,0 14.92,0 29.84,0 44.77,0 0.48,-7.3 0.95,-14.6 1.43,-21.89zm-67.9 -14.61c10.81,0 21.63,0 32.44,0 10.81,0 21.62,0 32.45,0 0.41,-6.67 0.8,-13.35 1.21,-20.03 -11.12,0 -22.24,0 -33.37,0 -11.12,0 -22.23,0 -33.35,0 -4.27,2.63 -8.51,5.26 -12.7,7.9 -4.17,2.63 -8.3,5.27 -12.4,7.9 0.44,6.68 0.88,13.36 1.32,20.04 3.98,-2.63 8,-5.27 12.04,-7.9 4.07,-2.64 8.2,-5.27 12.35,-7.91zm-1.05 -34.58c11.93,0 23.88,0 35.83,0 11.93,0 23.88,0 35.83,0 0.43,-6.67 0.86,-13.35 1.31,-20.04 -12.27,0 -24.54,0 -36.79,0 -12.26,0 -24.53,0 -36.78,0 -4.48,2.64 -8.93,5.27 -13.31,7.91 -4.38,2.62 -8.71,5.26 -13.02,7.9 0.44,6.68 0.87,13.35 1.31,20.04 4.18,-2.63 8.41,-5.27 12.66,-7.9 4.28,-2.64 8.6,-5.27 12.96,-7.91z"/>
   <path class="fil8" d="M2195.11 1057.92c-92.33,0 -167.17,74.84 -167.17,167.17 0,92.33 74.85,167.17 167.17,167.17 92.32,0 167.17,-74.84 167.17,-167.17 0,-92.33 -74.85,-167.17 -167.17,-167.17zm90.06 211.71l-5.57 0 0 5.26c-8,0.38 -17,6.02 -17,16 0,10.21 7.85,13.57 16.61,15.93l0 13.34c-3.35,-0.07 -8.08,-2.29 -10.82,-5.26 -2.59,2.82 -5.33,5.64 -8,8.39 5.03,4.5 12.27,6.78 18.82,7.01l0 5.56 5.64 0 0 -5.56c8.92,-0.3 17.61,-5.57 17.61,-16.69 0,-10.9 -9.45,-14.25 -17.3,-16.61l0 -12.2c3.2,0.08 7.17,1.6 9.68,4.12 2.52,-2.74 4.96,-5.49 7.39,-8.31 -4.73,-3.81 -11.36,-5.64 -17.07,-5.8l0 -5.18zm-5.57 26.06c-3.2,-0.84 -5.33,-2.44 -5.33,-5.64 0,-3.35 2.59,-5.1 5.33,-5.41l0 11.05zm5.26 12.5c3.2,0.99 5.56,2.59 5.56,6.1 0,3.5 -2.13,5.79 -5.56,5.94l0 -12.04zm-172.35 -193.88l-5.56 0 0 5.26c-8,0.38 -16.99,6.02 -16.99,16 0,10.21 7.85,13.57 16.61,15.93l0 13.33c-3.35,-0.07 -8.08,-2.28 -10.82,-5.26 -2.59,2.82 -5.33,5.64 -8,8.39 5.03,4.5 12.28,6.78 18.83,7.01l0 5.56 5.64 0 0 -5.56c8.92,-0.31 17.61,-5.57 17.61,-16.69 0,-10.9 -9.45,-14.25 -17.3,-16.61l0 -12.2c3.2,0.07 7.17,1.6 9.68,4.11 2.52,-2.74 4.95,-5.49 7.39,-8.3 -4.72,-3.81 -11.36,-5.64 -17.07,-5.8l0 -5.18zm-5.56 26.06c-3.2,-0.83 -5.33,-2.44 -5.33,-5.64 0,-3.35 2.59,-5.11 5.33,-5.41l0 11.05zm5.26 12.5c3.2,0.99 5.57,2.59 5.57,6.1 0,3.51 -2.13,5.8 -5.57,5.94l0 -12.04zm0.31 116.75l-5.56 0 0 5.26c-8,0.38 -16.99,6.02 -16.99,16 0,10.21 7.85,13.57 16.61,15.93l0 13.34c-3.35,-0.07 -8.08,-2.29 -10.82,-5.26 -2.59,2.82 -5.33,5.64 -8,8.39 5.03,4.5 12.28,6.78 18.83,7.01l0 5.56 5.64 0 0 -5.56c8.92,-0.3 17.61,-5.57 17.61,-16.69 0,-10.9 -9.45,-14.25 -17.3,-16.61l0 -12.2c3.2,0.08 7.17,1.6 9.68,4.12 2.52,-2.74 4.95,-5.49 7.39,-8.31 -4.72,-3.81 -11.36,-5.64 -17.07,-5.8l0 -5.18zm-5.56 26.06c-3.2,-0.84 -5.33,-2.44 -5.33,-5.64 0,-3.35 2.59,-5.1 5.33,-5.41l0 11.05zm5.26 12.5c3.2,0.99 5.57,2.59 5.57,6.1 0,3.5 -2.13,5.79 -5.57,5.94l0 -12.04zm172.96 -193.88l-5.57 0 0 5.26c-8,0.38 -17,6.02 -17,16 0,10.21 7.85,13.57 16.61,15.93l0 13.33c-3.35,-0.07 -8.08,-2.28 -10.82,-5.26 -2.59,2.82 -5.33,5.64 -8,8.39 5.03,4.5 12.27,6.78 18.82,7.01l0 5.56 5.64 0 0 -5.56c8.92,-0.31 17.61,-5.57 17.61,-16.69 0,-10.9 -9.45,-14.25 -17.3,-16.61l0 -12.2c3.2,0.07 7.17,1.6 9.68,4.11 2.52,-2.74 4.96,-5.49 7.39,-8.3 -4.73,-3.81 -11.36,-5.64 -17.07,-5.8l0 -5.18zm-5.57 26.06c-3.2,-0.83 -5.33,-2.44 -5.33,-5.64 0,-3.35 2.59,-5.11 5.33,-5.41l0 11.05zm5.26 12.5c3.2,0.99 5.56,2.59 5.56,6.1 0,3.51 -2.13,5.8 -5.56,5.94l0 -12.04zm-81.84 2l-11.8 0 0 11.15c-16.96,0.81 -36.03,12.76 -36.03,33.93 0,21.65 16.65,28.76 35.22,33.77l0 28.28c-7.11,-0.16 -17.13,-4.85 -22.94,-11.15 -5.49,5.98 -11.31,11.96 -16.96,17.78 10.66,9.53 26.02,14.38 39.91,14.87l0 11.79 11.96 0 0 -11.79c18.91,-0.65 37.33,-11.8 37.33,-35.39 0,-23.11 -20.04,-30.22 -36.68,-35.23l0 -25.85c6.79,0.17 15.19,3.39 20.53,8.73 5.33,-5.82 10.5,-11.63 15.67,-17.61 -10.02,-8.08 -24.08,-11.96 -36.2,-12.28l0 -10.98zm-11.8 55.26c-6.78,-1.78 -11.31,-5.17 -11.31,-11.96 0,-7.11 5.49,-10.82 11.31,-11.47l0 23.43zm11.15 26.5c6.79,2.1 11.8,5.5 11.8,12.93 0,7.43 -4.52,12.28 -11.8,12.6l0 -25.53z"/>
   <path class="fil9" d="M1138.22 1057.92c92.33,0 167.17,74.84 167.17,167.17 0,92.33 -74.85,167.17 -167.17,167.17 -92.32,0 -167.17,-74.84 -167.17,-167.17 0,-92.33 74.85,-167.17 167.17,-167.17zm-104.82 90.42l46.93 -46.93 109.28 0 0 19.28 19.29 0 0 19.28 19.28 0c0,68.36 0,136.71 0,205.07 -49.93,0 -99.85,0 -149.78,0l-6.43 0 0 -6.43 0 -12.85 -12.86 0 -6.43 0 0 -6.43 0 -12.86 -12.85 0 -6.43 0 0 -6.43 0 -41.97 0 -37.75 0 -71.99zm175.49 -1.93l0 179.35 -130.5 0 0 12.85c47.78,0 95.57,0 143.35,0 0,-64.07 0,-128.14 0,-192.21l-12.85 0zm-19.29 -19.28l0 12.24 0 14.49 0 11.37 0 89.98 0 17.31 0 17.33 0 16.63 -16.08 0 -23.13 0 -17.42 0 -18.06 0 -26.58 0 -29.23 0 0 12.86 12.86 0 0.58 0 2.24 0 2.24 0 1.37 0 124.07 0 0 -172.93 0 -1.26 0 -3 0 -2.16 0 -12.85 -12.86 0zm-137.88 135l114.74 0c1.77,0 3.22,-1.44 3.22,-3.22l0 0c0,-1.76 -1.44,-3.21 -3.22,-3.21l-114.74 0c-1.77,0 -3.21,1.45 -3.21,3.21l0 0c0,1.77 1.44,3.22 3.21,3.22zm0 -46.93l114.74 0c1.77,0 3.22,-1.45 3.22,-3.21l0 0c0,-1.77 -1.44,-3.22 -3.22,-3.22l-114.74 0c-1.77,0 -3.21,1.44 -3.21,3.22l0 0c0,1.76 1.44,3.21 3.21,3.21zm0 -23.46l114.74 0c1.77,0 3.22,-1.44 3.22,-3.21l0 0c0,-1.77 -1.44,-3.22 -3.22,-3.22l-114.74 0c-1.77,0 -3.21,1.45 -3.21,3.22l0 0c0,1.77 1.44,3.21 3.21,3.21zm0 46.93l114.74 0c1.77,0 3.22,-1.44 3.22,-3.21l0 0c0,-1.76 -1.44,-3.21 -3.22,-3.21l-114.74 0c-1.77,0 -3.21,1.45 -3.21,3.21l0 0c0,1.77 1.44,3.21 3.21,3.21zm0 -70.39l114.74 0c1.77,0 3.22,-1.45 3.22,-3.22l0 0c0,-1.77 -1.44,-3.21 -3.22,-3.21l-114.74 0c-1.77,0 -3.21,1.44 -3.21,3.21l0 0c0,1.77 1.44,3.22 3.21,3.22zm41.53 131.78l21.67 0 18.06 0 3.61 0 22.74 0 14.2 0 9.65 0 0 -10.2 0 -10.2 0 -19.35 0 -89.14 0 -11.37 0 -20.43 0 -12.24 0 -6.43 0 -12.86 -100.19 0 -0.19 43.17 -42.98 0 0 69.32 0 31.55 0 48.17 12.85 0 6.43 0 34.15 0zm-47 -155.47l30.19 -30.19 -0.06 30.19 -30.13 0z"/>
   <path class="fil10" d="M1344.08 675.43c92.33,0 167.17,74.84 167.17,167.17 0,92.32 -74.85,167.17 -167.17,167.17 -92.32,0 -167.17,-74.85 -167.17,-167.17 0,-92.32 74.85,-167.17 167.17,-167.17zm-63.73 209.51c-17.2,-9.92 -23.09,-31.91 -13.16,-49.1l6.81 3.93c-7.76,13.44 -3.15,30.61 10.28,38.37 0.87,0.5 1.74,0.95 2.63,1.35l-3.95 6.84c-0.88,-0.41 -1.75,-0.88 -2.61,-1.37zm-7.87 13.62c-24.72,-14.28 -33.19,-45.88 -18.91,-70.59l6.8 3.93c-12.1,20.96 -4.91,47.75 16.04,59.86 0.86,0.49 1.73,0.95 2.6,1.39l-3.93 6.82c-0.88,-0.44 -1.74,-0.91 -2.6,-1.41zm-25.72 -74.52c-16.45,28.48 -6.69,64.89 21.79,81.33 0.85,0.5 1.72,0.97 2.59,1.42l-3.93 6.81c-0.86,-0.45 -1.73,-0.93 -2.58,-1.42 -32.24,-18.61 -43.29,-59.83 -24.67,-92.07l6.81 3.93zm173.69 23.37c9.93,-17.2 4.04,-39.19 -13.16,-49.11l-3.93 6.81c13.44,7.76 18.04,24.94 10.28,38.37 -0.5,0.86 -1.03,1.69 -1.61,2.48l6.84 3.95c0.55,-0.8 1.07,-1.63 1.57,-2.49zm13.63 7.86c14.27,-24.72 5.8,-56.32 -18.91,-70.59l-3.93 6.81c20.96,12.09 28.14,38.89 16.04,59.85 -0.5,0.86 -1.02,1.69 -1.56,2.5l6.82 3.94c0.54,-0.82 1.05,-1.66 1.55,-2.52zm-14.98 -77.41c28.48,16.44 38.24,52.86 21.8,81.33 -0.5,0.85 -1.01,1.7 -1.54,2.52l6.83 3.94c0.52,-0.82 1.03,-1.67 1.52,-2.52 18.62,-32.24 7.57,-73.46 -24.67,-92.08l-3.93 6.81zm-145.63 -19.66l89.59 -24.01c4.4,-1.17 8.96,1.46 10.15,5.86l47.37 176.8c1.18,4.41 -1.46,8.96 -5.86,10.15l-89.58 24.01c-4.41,1.17 -8.96,-1.46 -10.15,-5.86l-47.37 -176.81c-1.18,-4.4 1.45,-8.96 5.86,-10.15zm2.09 7.14l89.26 -23.92c1.19,-0.32 2.43,0.39 2.74,1.58l43.52 162.43c0.33,1.2 -0.39,2.43 -1.58,2.74l-89.26 23.92c-1.19,0.32 -2.43,-0.39 -2.75,-1.59l-43.52 -162.41c-0.33,-1.2 0.39,-2.43 1.58,-2.75zm89.9 156.98c3.87,-1.04 7.84,1.26 8.87,5.13 1.04,3.87 -1.25,7.83 -5.12,8.87 -3.87,1.03 -7.83,-1.26 -8.88,-5.13 -1.03,-3.87 1.26,-7.83 5.13,-8.87z"/>
   <path class="fil11" d="M1989.24 675.15c92.32,0 167.17,74.84 167.17,167.17 0,92.33 -74.85,167.18 -167.17,167.18 -92.32,0 -167.17,-74.85 -167.17,-167.18 0,-92.32 74.85,-167.17 167.17,-167.17zm0 38.15c71.26,0 129.02,57.77 129.02,129.02 0,71.26 -57.77,129.03 -129.02,129.03 -71.26,0 -129.03,-57.77 -129.03,-129.03 0,-71.26 57.77,-129.02 129.03,-129.02zm0 29.97l0.01 0c2.78,0 5.06,2.27 5.06,5.06l0 79.49c6,2.09 10.3,7.8 10.3,14.5 0,0.98 -0.09,1.94 -0.26,2.87l46.77 27c2.42,1.39 3.25,4.49 1.85,6.91l-0.01 0.01c-1.39,2.41 -4.49,3.25 -6.91,1.85l-46.77 -27.01c-2.69,2.32 -6.2,3.73 -10.03,3.73 -8.48,0 -15.36,-6.88 -15.36,-15.36 0,-6.71 4.3,-12.41 10.3,-14.5l0 -79.49c0,-2.79 2.27,-5.06 5.06,-5.06zm0 -14.61c62.77,0 113.67,50.89 113.67,113.67 0,62.77 -50.89,113.67 -113.67,113.67 -62.77,0 -113.67,-50.89 -113.67,-113.67 0,-62.77 50.89,-113.67 113.67,-113.67z"/>
  </g>
 </g>
</svg>
