<?xml version="1.0" encoding="UTF-8"?>
<!DOCTYPE svg PUBLIC "-//W3C//DTD SVG 1.1//EN" "http://www.w3.org/Graphics/SVG/1.1/DTD/svg11.dtd">
<!-- Creator: CorelDRAW 2019 (64-Bit) -->
<svg xmlns="http://www.w3.org/2000/svg" xml:space="preserve" width="3.33333in" height="2.66666in" version="1.1" style="shape-rendering:geometricPrecision; text-rendering:geometricPrecision; image-rendering:optimizeQuality; fill-rule:evenodd; clip-rule:evenodd"
viewBox="0 0 3333.33 2666.66"
 xmlns:xlink="http://www.w3.org/1999/xlink">
 <defs>
  <style type="text/css">
   <![CDATA[
    .fil0 {fill:none}
    .fil6 {fill:#98AEA2}
    .fil8 {fill:url(#id0)}
    .fil2 {fill:url(#id1)}
    .fil10 {fill:url(#id2)}
    .fil11 {fill:url(#id3)}
    .fil5 {fill:url(#id4)}
    .fil12 {fill:url(#id5)}
    .fil4 {fill:url(#id6)}
    .fil1 {fill:url(#id7)}
    .fil7 {fill:url(#id8)}
    .fil3 {fill:url(#id9)}
    .fil9 {fill:url(#id10)}
   ]]>
  </style>
  <linearGradient id="id0" gradientUnits="userSpaceOnUse" x1="2030.42" y1="1464.8" x2="2030.42" y2="1215.74">
   <stop offset="0" style="stop-opacity:1; stop-color:#414D47"/>
   <stop offset="0.380392" style="stop-opacity:1; stop-color:#54675D"/>
   <stop offset="0.658824" style="stop-opacity:1; stop-color:#727978"/>
   <stop offset="0.768627" style="stop-opacity:1; stop-color:#54675D"/>
   <stop offset="1" style="stop-opacity:1; stop-color:#414D47"/>
  </linearGradient>
  <linearGradient id="id1" gradientUnits="userSpaceOnUse" x1="1503.37" y1="1451.76" x2="1508.44" y2="1237.1">
   <stop offset="0" style="stop-opacity:1; stop-color:#B5846E"/>
   <stop offset="0.458824" style="stop-opacity:1; stop-color:#ECD1B4"/>
   <stop offset="1" style="stop-opacity:1; stop-color:#B5846E"/>
  </linearGradient>
  <linearGradient id="id2" gradientUnits="userSpaceOnUse" xlink:href="#id0" x1="1795.85" y1="1460.72" x2="1795.85" y2="1448.87">
  </linearGradient>
  <linearGradient id="id3" gradientUnits="userSpaceOnUse" xlink:href="#id0" x1="1815" y1="1959.52" x2="1815" y2="626.79">
  </linearGradient>
  <linearGradient id="id4" gradientUnits="userSpaceOnUse" xlink:href="#id0" x1="1915.06" y1="1273.18" x2="1915.06" y2="1120.17">
  </linearGradient>
  <linearGradient id="id5" gradientUnits="userSpaceOnUse" xlink:href="#id0" x1="1530.09" y1="1233.14" x2="1530.09" y2="966.05">
  </linearGradient>
  <linearGradient id="id6" gradientUnits="userSpaceOnUse" xlink:href="#id0" x1="1914.87" y1="1169.87" x2="1914.87" y2="974.24">
  </linearGradient>
  <linearGradient id="id7" gradientUnits="userSpaceOnUse" xlink:href="#id0" x1="1553.25" y1="1459.65" x2="1553.25" y2="1168.33">
  </linearGradient>
  <linearGradient id="id8" gradientUnits="userSpaceOnUse" xlink:href="#id0" x1="1784.37" y1="1464.8" x2="1784.37" y2="1215.74">
  </linearGradient>
  <linearGradient id="id9" gradientUnits="userSpaceOnUse" xlink:href="#id0" x1="1512.59" y1="1384.68" x2="1512.59" y2="1244.36">
  </linearGradient>
  <linearGradient id="id10" gradientUnits="userSpaceOnUse" xlink:href="#id0" x1="1925.8" y1="1463.21" x2="1925.8" y2="1374.44">
  </linearGradient>
 </defs>
 <g id="Layer_x0020_1">
  <metadata id="CorelCorpID_0Corel-Layer"/>
  <g id="_700218048">
   <rect class="fil0" x="901.15" y="539.27" width="1617.46" height="1617.46"/>
   <g>
    <path class="fil1" d="M1319.7 1388.93c-2.83,-31.47 -1.77,-128.74 50.79,-132.81 14.07,-1.09 28.31,-2.7 42.17,-5.18 14.62,-2.62 49.06,-12.62 49.32,-30.47l0.31 -14.8c-2.26,-1.19 -4.46,-2.47 -6.62,-3.83l-0.37 18.54c-0.37,18.41 -65.04,28.07 -85.39,29.65 -45.69,3.54 -63.56,65 -56.87,139.4 1.61,17.91 0.85,39.95 0.28,60.79l6.17 0c0.74,-20.44 2.04,-40.94 0.2,-61.29zm378.84 61.29c-0.58,-20.84 -1.33,-42.89 0.28,-60.79 6.69,-74.4 -11.17,-135.86 -56.87,-139.4 -20.34,-1.57 -85.02,-11.24 -85.39,-29.65l-0.37 -18.65c-2.15,1.37 -4.36,2.65 -6.62,3.85l0.31 14.89c0.26,17.85 34.7,27.85 49.32,30.47 13.86,2.48 28.1,4.09 42.17,5.18 52.56,4.07 53.61,101.35 50.79,132.81 -1.83,20.35 -0.54,40.85 0.2,61.29l6.18 0z"/>
    <path class="fil2" d="M1392.91 1450.22l0.87 -32.7 -2.79 -75.51 6.8 75.51 0.87 32.7 214.56 0 0.87 -32.7 6.81 -75.51 -2.79 75.51 0.87 32.7 70.04 0c-0.73,-20.51 -2.06,-41.05 -0.22,-61.54 2.76,-30.61 1.38,-125.67 -47.7,-129.48 -14.24,-1.11 -28.49,-2.71 -42.53,-5.23 -6.76,-1.21 -16.19,-3.59 -25.17,-7.24l9.07 72.98 -32.22 10.41 14.33 28.97 -58.63 51.85 -58.63 -51.85 14.33 -28.97 -32.22 -10.41 9.07 -72.98c-8.97,3.65 -18.41,6.03 -25.17,7.24 -14.04,2.52 -28.28,4.12 -42.53,5.23 -49.08,3.8 -50.45,98.87 -47.7,129.48 1.84,20.5 0.52,41.03 -0.22,61.54l70.05 0zm177.02 -80.66l34.33 0 0 8.85 -34.33 0 0 -8.85zm-63.99 68.33c-5.65,0 -10.24,-4.19 -10.24,-9.37 0,-5.17 4.58,-9.36 10.24,-9.36 5.65,0 10.24,4.19 10.24,9.36 0,5.17 -4.59,9.37 -10.24,9.37zm0 -32.62l53.29 -47.12 -15.03 -30.4 33.46 -10.8 -8.99 -72.28c-6.09,-2.86 -11.7,-6.34 -15.75,-10.47l-46.98 167.52 -46.97 -167.52c-4.05,4.13 -9.65,7.61 -15.75,10.47l-8.98 72.28 33.45 10.8 -15.03 30.4 53.28 47.12z"/>
    <path class="fil3" d="M1489 1247.5c-5,2.97 -9.04,7.3 -10.4,13.53 2.47,-4.35 5.11,-5.02 8.08,-6.77l10.6 16.59 8.65 0 8.65 0 10.6 -16.59c2.97,1.75 5.61,2.41 8.08,6.77 -1.35,-6.24 -5.39,-10.56 -10.4,-13.53 -4.11,1.3 -10.17,2.11 -16.93,2.11 -6.76,0 -12.82,-0.82 -16.93,-2.11zm16.93 133.67l-18.57 -63.84 9.91 -43.09 8.65 0 8.65 0 9.91 43.09 -18.56 63.84z"/>
    <path class="fil4" d="M1800.17 1103.29c0,-44.18 26.22,-81.61 62.46,-94.49l1.12 14.4 1.39 17.89 1.39 -17.89 1.25 -16.06c6.42,-1.82 13.12,-2.89 20.02,-3.1l1.18 16.98 1.39 20.06 1.39 -20.06 1.18 -16.98c6.89,0.21 13.59,1.28 20.02,3.1l1.25 16.06 1.39 17.89 1.39 -17.89 1.12 -14.4c36.24,12.88 62.46,50.31 62.46,94.49 0,2.81 -0.1,5.59 -0.31,8.34l1.69 -0.56 -5.41 1.78c-6.94,2.27 -13.97,4.1 -21.15,5.45 -12.09,2.27 -24.63,3.2 -37.16,3.58l-1.24 -33.22 -1.39 -37.26 -1.39 37.26 -1.24 33.35c-7.59,0.15 -15.15,0.13 -22.59,0.13 -7.43,0 -15,0.02 -22.59,-0.13l-1.24 -33.35 -1.39 -37.26 -1.39 37.26 -1.24 33.22c-12.53,-0.38 -25.07,-1.31 -37.15,-3.58 -7.18,-1.35 -14.21,-3.18 -21.15,-5.45l-5.41 -1.78 1.69 0.56c-0.21,-2.75 -0.31,-5.53 -0.31,-8.34zm186.63 15.55l0.05 0.09c0.69,-5.11 1.04,-10.33 1.04,-15.64 0,-58.88 -43.67,-106.62 -97.53,-106.62 -53.86,0 -97.53,47.74 -97.53,106.62 0,5.31 0.36,10.53 1.04,15.64l0.05 -0.09c-2.82,4.89 -5.04,10.37 -3.84,16.04 1.51,7.15 7.67,11.41 13.85,14.38 24.98,12 59.07,14.29 86.43,14.29 27.35,0 61.45,-2.29 86.43,-14.29 6.18,-2.97 12.34,-7.23 13.85,-14.38 1.2,-5.67 -1.02,-11.15 -3.84,-16.04zm-8 0.98c6.74,10.57 7.64,16.66 -5.19,22.83 -20.19,9.7 -49.33,13.56 -83.25,13.56 -33.91,0 -63.06,-3.87 -83.25,-13.56 -12.83,-6.17 -11.93,-12.25 -5.19,-22.83 27.24,8.93 50.3,9.66 88.44,9.66 38.14,0 61.2,-0.73 88.44,-9.66z"/>
    <path class="fil5" d="M1881.39 1260.28c-16.83,-2.31 -32.1,-10.88 -43.68,-23.18 -13.42,-14.26 -21.2,-32.59 -23.63,-51.91l-0.58 -4.57 -4.36 -1.47c-5.37,-1.81 -7.72,-2.44 -10.03,-7.89 -2.85,-6.73 -3.19,-16.61 -2.52,-23.81 0.08,-0.82 0.17,-1.63 0.28,-2.45 -2.52,-1.96 -4.64,-4.35 -5.9,-7.3 -0.33,1.02 -0.62,2.13 -0.87,3.34 -0.35,1.72 -0.63,3.65 -0.82,5.74 -0.77,8.3 -0.31,19.35 3.07,27.34 3.38,7.99 7.6,9.68 14.44,11.98 6.29,49.92 44.06,82.03 83.56,82.13 39.5,-0.1 77.27,-32.2 83.56,-82.13 6.83,-2.3 11.06,-3.99 14.44,-11.98 3.38,-7.99 3.84,-19.05 3.07,-27.34 -0.19,-2.09 -0.47,-4.02 -0.82,-5.74 -0.25,-1.21 -0.54,-2.32 -0.86,-3.34 -1.26,2.95 -3.38,5.34 -5.9,7.3 0.11,0.82 0.2,1.63 0.28,2.45 0.67,7.19 0.32,17.08 -2.52,23.81 -2.3,5.45 -4.65,6.07 -10.02,7.89l-4.36 1.47 -0.57 4.57c-2.44,19.32 -10.21,37.66 -23.63,51.91 -11.58,12.3 -26.85,20.87 -43.68,23.18 -2.97,0.41 -5.97,0.61 -8.97,0.61 -3,0 -6,-0.2 -8.97,-0.61z"/>
    <path class="fil6" d="M1860.63 1119.87l2.63 -70.42 3.76 0 2.64 70.64c6.9,0.11 13.8,0.1 20.7,0.1 6.9,0 13.8,0.01 20.71,-0.1l2.63 -70.64 3.76 0 2.63 70.42c11.68,-0.41 23.42,-1.33 34.91,-3.49 7.08,-1.33 14.06,-3.14 20.9,-5.39l2.47 -0.81c0.15,-2.3 0.22,-4.59 0.22,-6.89 0,-18.77 -4.84,-37.29 -14.47,-53.43 -8.92,-14.95 -21.74,-27.43 -37.35,-35.25 -2.26,-1.13 -4.58,-2.17 -6.94,-3.09l-2.45 31.51 -3.61 0 -2.67 -34.37c-5.35,-1.42 -10.83,-2.29 -16.36,-2.59l-2.56 36.96 -3.65 0 -2.56 -36.96c-5.53,0.3 -11.01,1.17 -16.36,2.59l-2.67 34.37 -3.61 0 -2.45 -31.5c-2.36,0.92 -4.67,1.95 -6.94,3.08 -15.61,7.81 -28.43,20.3 -37.35,35.25 -9.63,16.14 -14.48,34.66 -14.48,53.43 0,2.3 0.07,4.6 0.22,6.89l2.48 0.81c6.85,2.24 13.82,4.06 20.9,5.39 11.49,2.16 23.23,3.08 34.91,3.49zm23.38 -25.68l18.97 0 0 -5.44 -18.97 0 -7.43 4.29 0 5.44 7.43 -4.29zm0 -9.4l19.99 0 0 -5.44 -19.99 0 -7.43 4.3 0 5.44 7.43 -4.3zm20.13 13.36l-20.13 0 -7.43 4.3 0 1.66 27.56 0 0 -5.95z"/>
    <path class="fil6" d="M1802.77 1122.14c-1.91,3.09 -4.3,7.5 -3.59,10.81 0.8,3.79 5.63,6.41 8.78,7.93 11.11,5.34 23.8,8.37 35.93,10.25 15.29,2.37 31.02,3.13 46.47,3.13 15.46,0 31.19,-0.75 46.48,-3.13 12.13,-1.88 24.82,-4.91 35.93,-10.25 3.16,-1.52 7.98,-4.14 8.79,-7.93 0.7,-3.32 -1.69,-7.72 -3.6,-10.81 -6.85,2.19 -13.8,3.96 -20.87,5.29 -10,1.88 -20.1,2.85 -30.26,3.36 -12.13,0.61 -24.32,0.64 -36.46,0.64 -12.14,0 -24.33,-0.03 -36.46,-0.64 -10.16,-0.51 -20.26,-1.48 -30.26,-3.36 -7.07,-1.33 -14.02,-3.1 -20.87,-5.29z"/>
    <path class="fil7" d="M1788.9 1253c-33.39,6.96 -55.46,26.72 -57.76,54.38l-33.7 149.37 6.52 0 33.7 -143.74c0.85,-27.56 19.95,-45.77 52.79,-52.62l46.8 -9.76c-2.31,-1.99 -4.53,-4.11 -6.65,-6.33l-41.7 8.7z"/>
    <path class="fil6" d="M1890.36 1456.75l19.77 0 80.22 0 -2.39 -43.07 3.79 -63.15 18.12 106.23 62.14 0 -33.7 -150.87c-6.03,-21.77 -20.35,-36.56 -48.66,-42.46l-49.23 -10.27c-11.48,9.03 -25.09,15.15 -39.72,17.15 -3.43,0.47 -6.88,0.71 -10.34,0.71 -3.46,0 -6.92,-0.24 -10.34,-0.71 -14.63,-2 -28.23,-8.13 -39.72,-17.15l-49.23 10.27c-28.31,5.91 -42.63,20.69 -48.65,42.46l-33.71 150.87 62.14 0 18.12 -106.23 3.79 63.15 -2.39 43.07 80.22 0 19.77 0zm68.2 -79.81l-25.72 0 -9.5 5.49 0 2.11 35.22 0 0 -7.6zm-25.72 -5.07l24.24 0 0 -6.95 -24.24 0 -9.5 5.48 0 6.95 9.5 -5.48zm0 -12.01l25.54 0 0 -6.95 -25.54 0 -9.5 5.48 0 6.96 9.5 -5.49z"/>
    <path class="fil8" d="M1991.83 1253c33.39,6.96 55.46,26.72 57.76,54.38l33.71 149.37 -6.52 0 -33.7 -143.74c-0.84,-27.56 -19.94,-45.77 -52.78,-52.62l-46.81 -9.76c2.31,-1.99 4.53,-4.11 6.65,-6.33l41.7 8.7z"/>
    <polygon class="fil9" points="2100.08,1450.22 2100.08,1460.33 2006.24,1460.33 1995.05,1460.33 1785.68,1460.33 1774.49,1460.33 1639.26,1460.33 1639.26,1450.22 1776.21,1450.22 1787.41,1384.62 1787.7,1423.79 1786.24,1450.22 1994.49,1450.22 1993.02,1423.79 1993.32,1384.62 2004.51,1450.22 "/>
    <rect class="fil10" x="1295.69" y="1450.23" width="804.41" height="10.11"/>
    <path class="fil6" d="M1713.37 1488.1l3.95 3.61c1.72,1.57 4.18,1.81 6.17,0.61l4.58 -2.77c2.3,-1.39 5.26,-0.8 6.85,1.36l3.17 4.31c1.38,1.88 3.74,2.59 5.93,1.8l5.04 -1.83c2.52,-0.92 5.31,0.24 6.45,2.67l2.26 4.85c0.99,2.11 3.17,3.28 5.47,2.93l5.29 -0.81c2.66,-0.4 5.17,1.27 5.81,3.88l1.28 5.2c0.56,2.26 2.46,3.83 4.8,3.94l5.35 0.24c2.69,0.12 4.82,2.26 4.94,4.94l0.24 5.35c0.11,2.33 1.67,4.24 3.94,4.8l5.2 1.28c2.61,0.64 4.29,3.15 3.88,5.81l-0.81 5.29c-0.35,2.3 0.81,4.48 2.93,5.47l4.85 2.27c2.43,1.14 3.59,3.93 2.67,6.46l-1.82 5.03c-0.8,2.19 -0.08,4.56 1.8,5.94l4.31 3.17c2.17,1.59 2.76,4.55 1.36,6.85l-2.77 4.58c-1.21,2 -0.96,4.45 0.61,6.17l3.61 3.95c1.81,1.98 1.81,5 0,6.98l-3.61 3.95c-1.57,1.72 -1.82,4.18 -0.61,6.17l2.77 4.58c1.39,2.3 0.8,5.26 -1.36,6.85l-4.31 3.17c-1.88,1.38 -2.6,3.74 -1.8,5.94l1.82 5.03c0.92,2.53 -0.24,5.31 -2.67,6.46l-4.85 2.26c-2.11,0.99 -3.28,3.17 -2.93,5.47l0.81 5.29c0.41,2.66 -1.27,5.17 -3.88,5.81l-5.2 1.28c-2.26,0.56 -3.83,2.46 -3.94,4.8l-0.24 5.34c-0.12,2.69 -2.25,4.82 -4.94,4.94l-5.35 0.24c-2.33,0.11 -4.24,1.67 -4.8,3.93l-1.28 5.2c-0.65,2.61 -3.15,4.29 -5.81,3.88l-5.29 -0.81c-2.31,-0.35 -4.48,0.81 -5.47,2.93l-2.26 4.85c-1.14,2.43 -3.93,3.59 -6.45,2.67l-5.03 -1.83c-2.19,-0.8 -4.56,-0.08 -5.94,1.8l-3.17 4.31c-1.59,2.17 -4.55,2.75 -6.85,1.36l-4.58 -2.77c-1.99,-1.2 -4.45,-0.96 -6.17,0.61l-3.95 3.61c-1.98,1.81 -5,1.81 -6.98,0l-3.95 -3.61c-1.72,-1.57 -4.18,-1.81 -6.17,-0.61l-4.58 2.77c-2.3,1.39 -5.26,0.8 -6.85,-1.36l-3.17 -4.31c-1.38,-1.88 -3.74,-2.6 -5.93,-1.8l-5.03 1.83c-2.53,0.92 -5.31,-0.24 -6.45,-2.67l-2.27 -4.85c-0.99,-2.11 -3.17,-3.28 -5.47,-2.93l-5.29 0.81c-2.66,0.41 -5.17,-1.27 -5.81,-3.88l-1.28 -5.19c-0.56,-2.27 -2.46,-3.83 -4.8,-3.94l-5.35 -0.24c-2.69,-0.12 -4.82,-2.25 -4.94,-4.94l-0.24 -5.34c-0.11,-2.33 -1.67,-4.24 -3.94,-4.8l-5.2 -1.28c-2.61,-0.64 -4.28,-3.15 -3.88,-5.81l0.81 -5.29c0.35,-2.31 -0.81,-4.48 -2.92,-5.47l-4.85 -2.26c-2.43,-1.14 -3.59,-3.93 -2.67,-6.46l1.83 -5.03c0.8,-2.19 0.08,-4.56 -1.8,-5.94l-4.31 -3.17c-2.17,-1.59 -2.75,-4.55 -1.36,-6.85l2.77 -4.58c1.21,-2 0.96,-4.45 -0.61,-6.17l-3.61 -3.95c-1.81,-1.98 -1.81,-5 0,-6.98l3.61 -3.95c1.57,-1.72 1.82,-4.18 0.61,-6.17l-2.77 -4.58c-1.39,-2.3 -0.8,-5.26 1.36,-6.85l4.31 -3.17c1.88,-1.38 2.59,-3.74 1.8,-5.94l-1.83 -5.03c-0.92,-2.53 0.24,-5.31 2.67,-6.46l4.85 -2.26c2.11,-0.99 3.28,-3.17 2.93,-5.47l-0.81 -5.29c-0.41,-2.65 1.27,-5.17 3.88,-5.81l5.2 -1.28c2.26,-0.56 3.83,-2.46 3.94,-4.8l0.24 -5.35c0.12,-2.69 2.25,-4.82 4.94,-4.94l5.35 -0.24c2.33,-0.11 4.24,-1.67 4.8,-3.94l1.28 -5.2c0.65,-2.61 3.15,-4.28 5.81,-3.88l5.29 0.81c2.31,0.35 4.48,-0.81 5.47,-2.93l2.27 -4.85c1.14,-2.43 3.93,-3.59 6.45,-2.67l5.03 1.83c2.19,0.79 4.56,0.08 5.94,-1.8l3.17 -4.31c1.59,-2.17 4.55,-2.76 6.85,-1.36l4.58 2.77c2,1.2 4.45,0.96 6.17,-0.61l3.95 -3.61c1.98,-1.81 5,-1.81 6.98,0zm63.38 206.61l40.15 97.2 -42.46 -18.46 -17.06 43.05 -42.14 -102.03c0.51,-0.32 1,-0.69 1.46,-1.11l3.95 -3.61c0.11,-0.1 0.18,-0.11 0.31,-0.03l4.57 2.77c4.47,2.7 10.26,1.55 13.36,-2.66l3.17 -4.31c0.09,-0.12 0.16,-0.14 0.3,-0.09l5.03 1.82c4.91,1.78 10.37,-0.48 12.58,-5.21l2.26 -4.85c0.07,-0.13 0.13,-0.17 0.28,-0.15l5.29 0.81c3.43,0.52 6.75,-0.74 8.95,-3.14zm-72.22 19.75l-42.14 102.03 -17.06 -43.05 -42.46 18.46 40.15 -97.2c2.21,2.39 5.52,3.67 8.95,3.14l5.29 -0.81c0.15,-0.02 0.21,0.01 0.28,0.15l2.26 4.85c2.22,4.73 7.67,7 12.58,5.21l5.03 -1.82c0.14,-0.05 0.21,-0.03 0.3,0.09l3.17 4.31c3.09,4.21 8.89,5.36 13.36,2.66l4.58 -2.77c0.13,-0.08 0.2,-0.07 0.31,0.03l3.94 3.61c0.46,0.42 0.95,0.79 1.46,1.11zm-8.11 -70.38l29.15 -29.15 39.37 -39.36 -12.32 -12.32 -56.19 56.19 -29.27 -29.26 -12.32 12.32 19.51 19.51 22.07 22.07zm13.46 -137.6c51.05,0 92.44,41.38 92.44,92.43 0,51.05 -41.39,92.43 -92.44,92.43 -51.05,0 -92.43,-41.38 -92.43,-92.43 0,-51.05 41.38,-92.43 92.43,-92.43zm0 3.85c48.92,0 88.58,39.66 88.58,88.58 0,48.93 -39.66,88.58 -88.58,88.58 -48.92,0 -88.58,-39.66 -88.58,-88.58 0,-48.93 39.66,-88.58 88.58,-88.58z"/>
    <path class="fil11" d="M1278.31 895.37l431.57 -115.79 431.57 115.79 0 515.79c-21.51,328 -246.34,481.41 -431.57,505.26 -185.23,-23.85 -410.06,-177.27 -431.57,-505.26l0 -515.79zm70.17 53.83l0 459.61c8.24,119.6 48.12,233.41 133.92,319.5 60.77,60.98 142.08,104.11 227.48,117.25 85.4,-13.14 166.71,-56.27 227.48,-117.25 85.8,-86.1 125.68,-199.91 133.92,-319.5l0 -459.61 -361.4 -96.96 -361.4 96.96z"/>
    <path class="fil12" d="M1497.16 1216.72c-16.45,-2.26 -31.39,-10.64 -42.72,-22.67 -13.13,-13.94 -20.73,-31.87 -23.11,-50.77l-0.56 -4.46 -4.26 -1.44c-5.26,-1.77 -7.55,-2.39 -9.8,-7.72 -1.07,-2.53 -1.78,-5.51 -2.21,-8.63l0.02 -0.02c-0.11,-0.8 -0.2,-1.6 -0.27,-2.4 -0.18,-1.89 -0.28,-3.96 -0.28,-6.12 0,-2.15 0.11,-4.23 0.28,-6.11 0.07,-0.8 0.16,-1.6 0.27,-2.4l-0.02 -0.02c0.43,-3.12 1.14,-6.1 2.21,-8.63 2.25,-5.33 4.55,-5.94 9.8,-7.71l4.26 32.5 7.35 2.32c3.36,-26.65 -4.81,-72.09 22.27,-72.09 19.7,0 78.69,19.73 100.58,4.98 13.13,13.94 15.11,38.15 13.71,66.96l6.43 -2.18 4.26 -32.5c5.25,1.77 7.55,2.39 9.8,7.71 1.07,2.53 1.78,5.52 2.21,8.63l-0.03 0.02c0.11,0.8 0.2,1.6 0.28,2.4 0.17,1.89 0.28,3.96 0.28,6.11 -0,2.16 -0.11,4.23 -0.28,6.12 -0.07,0.8 -0.16,1.6 -0.28,2.4l0.03 0.02c-0.43,3.12 -1.14,6.1 -2.21,8.63 -2.26,5.33 -4.55,5.94 -9.8,7.72l-4.26 1.44 -0.57 4.46c-2.38,18.89 -9.99,36.83 -23.11,50.77 -11.32,12.03 -26.26,20.41 -42.72,22.67 -2.91,0.4 -5.84,0.6 -8.77,0.6l-0 0 -0.01 0c-2.93,0 -5.87,-0.2 -8.77,-0.6zm8.77 -216.22c-38.63,0.1 -71.89,-18.2 -83,24.26 -23.3,6.5 -9.97,60.98 -12.85,67.78 -2.87,6.8 -3.33,13.2 -3.32,19.96 -0.01,6.76 0.87,14.19 3.32,19.96 3.31,7.81 7.44,9.46 14.12,11.72 6.15,48.82 43.09,80.22 81.72,80.31l0.01 0 0 0c38.63,-0.09 75.57,-31.49 81.72,-80.31 6.69,-2.26 10.81,-3.91 14.12,-11.72 2.44,-5.78 3.33,-13.2 3.32,-19.96 0.01,-6.76 -0.87,-14.18 -3.32,-19.96 -3.31,-7.81 -7.44,-9.46 -14.12,-11.72 27.78,-87.35 -43.09,-80.22 -81.72,-80.32l-0.01 0z"/>
   </g>
  </g>
 </g>
</svg>
