<?xml version="1.0" encoding="utf-8"?>
<!-- Generator: Adobe Illustrator 19.0.0, SVG Export Plug-In . SVG Version: 6.00 Build 0)  -->
<svg version="1.1" id="Layer_1" xmlns="http://www.w3.org/2000/svg" xmlns:xlink="http://www.w3.org/1999/xlink" x="0px" y="0px"
	 viewBox="-185 316.7 238.7 160.7" style="enable-background:new -185 316.7 238.7 160.7;" xml:space="preserve">
<style type="text/css">
	.st0{fill:none;}
	.st1{fill:url(#SVGID_1_);}
	.st2{fill:#566A61;}
	.st3{fill:url(#SVGID_2_);}
	.st4{fill:url(#SVGID_3_);}
	.st5{fill:url(#SVGID_4_);}
	.st6{fill:url(#SVGID_5_);}
	.st7{fill:url(#SVGID_6_);}
	.st8{fill:url(#SVGID_7_);}
	.st9{fill:url(#SVGID_8_);}
	.st10{fill:url(#SVGID_9_);}
	.st11{fill:#98AEA2;}
	.st12{fill:url(#SVGID_10_);}
	.st13{fill:url(#SVGID_11_);}
	.st14{fill:url(#SVGID_12_);}
</style>
<g id="Layer_x0020_1">
	<g id="_700247200">
		<rect x="-120.1" y="339.8" class="st0" width="116.5" height="116.5"/>
		
			<linearGradient id="SVGID_1_" gradientUnits="userSpaceOnUse" x1="4103.0293" y1="-4799.9077" x2="4103.0293" y2="-4119.9277" gradientTransform="matrix(7.200000e-002 0 0 -7.200000e-002 -343.36 59.1685)">
			<stop  offset="0" style="stop-color:#414D47"/>
			<stop  offset="0.3804" style="stop-color:#54675D"/>
			<stop  offset="0.6588" style="stop-color:#727978"/>
			<stop  offset="0.7686" style="stop-color:#54675D"/>
			<stop  offset="1" style="stop-color:#414D47"/>
		</linearGradient>
		<path class="st1" d="M-68,372.8v2.5v2.9v12c-0.6-0.6-1.2-1.2-1.8-1.7v-10.3v-3.6v-3.4l0,0l0-0.1l0,0l1.8-1.8l0,0l6.1-6.1l0,0
			l1.8-1.8l0,0h3.4h6H-26v11.5v3.2v3.2v7.1v4.1v12.2l-1.8,0.4v-12.6v-4.1V381v-3.2v-4.9v-9.7h-17.6h-10.4h-2.5l0,0h-1.6v6.1v1.8
			h-1.8H-68V372.8z M-65.5,369.3l3.6-3.6v3.6H-65.5z"/>
		<path class="st2" d="M-64,382.7h32.2c0.5,0,0.9-0.4,0.9-0.9l0,0c0-0.5-0.4-0.9-0.9-0.9H-64c-0.5,0-0.9,0.4-0.9,0.9l0,0
			C-64.9,382.3-64.5,382.7-64,382.7z"/>
		
			<linearGradient id="SVGID_2_" gradientUnits="userSpaceOnUse" x1="4110.1797" y1="-4768.2275" x2="4110.1797" y2="-4738.9077" gradientTransform="matrix(7.200000e-002 0 0 -7.200000e-002 -343.36 59.1685)">
			<stop  offset="0" style="stop-color:#414D47"/>
			<stop  offset="0.3804" style="stop-color:#54675D"/>
			<stop  offset="0.6588" style="stop-color:#727978"/>
			<stop  offset="0.7686" style="stop-color:#54675D"/>
			<stop  offset="1" style="stop-color:#414D47"/>
		</linearGradient>
		<path class="st3" d="M-60,402.4h2.9c0.7-0.1,1.3-0.2,1.9,0h23.3c0.5,0,0.9-0.4,0.9-0.9l0,0c0-0.5-0.4-0.9-0.9-0.9h-32.1
			c0,0.1,0,0.1,0,0.2v0.4c0.3,0.1,0.6,0.1,0.9,0.2C-62,401.8-61,402.1-60,402.4L-60,402.4z"/>
		
			<linearGradient id="SVGID_3_" gradientUnits="userSpaceOnUse" x1="4103.3848" y1="-4676.9077" x2="4103.3848" y2="-4647.5776" gradientTransform="matrix(7.200000e-002 0 0 -7.200000e-002 -343.36 59.1685)">
			<stop  offset="0" style="stop-color:#414D47"/>
			<stop  offset="0.3804" style="stop-color:#54675D"/>
			<stop  offset="0.6588" style="stop-color:#727978"/>
			<stop  offset="0.7686" style="stop-color:#54675D"/>
			<stop  offset="1" style="stop-color:#414D47"/>
		</linearGradient>
		<path class="st4" d="M-64,395.8h32.2c0.5,0,0.9-0.4,0.9-0.9l0,0c0-0.5-0.4-0.9-0.9-0.9H-64c-0.5,0-0.9,0.4-0.9,0.9l0,0
			C-64.9,395.4-64.5,395.8-64,395.8z"/>
		<path class="st2" d="M-64,389.3h32.2c0.5,0,0.9-0.4,0.9-0.9l0,0c0-0.5-0.4-0.9-0.9-0.9H-64c-0.5,0-0.9,0.4-0.9,0.9l0,0
			C-64.9,388.9-64.5,389.3-64,389.3z"/>
		
			<linearGradient id="SVGID_4_" gradientUnits="userSpaceOnUse" x1="3909.3149" y1="-5280.5474" x2="3909.3149" y2="-4702.3677" gradientTransform="matrix(7.200000e-002 0 0 -7.200000e-002 -343.36 59.1685)">
			<stop  offset="0" style="stop-color:#414D47"/>
			<stop  offset="0.3804" style="stop-color:#54675D"/>
			<stop  offset="0.6588" style="stop-color:#727978"/>
			<stop  offset="0.7686" style="stop-color:#54675D"/>
			<stop  offset="1" style="stop-color:#414D47"/>
		</linearGradient>
		<path class="st5" d="M-58.8,404.3c-1.8-0.6-3.4-1.2-4.6-1.5c-1.6-0.4-2.3-0.4-3.5-0.1c-1.2,0.4-3,1.1-4.6,2.1
			c-1.7,1-3.2,2.2-4.3,2.9c-1.1,0.8-1.6,1.1-2,1.2c-0.4,0.1-0.7,0-0.9-0.1c-0.1,0-0.1-0.1-0.2,0.1l-4.4-0.9l0.1-0.4l-17.9-4.4
			l-4.6,23.3l17.9,4.4l0.4-2.2l5,1l1-4.9c0.2,0,0.4,0,0.5,0c0.2,0,0.2-0.1,0.2,0.2s0,0.8,0.3,1.3c0.3,0.5,0.9,0.9,1.4,1.2
			c0.5,0.2,0.9,0.3,1.1,0.7c0.2,0.4,0.1,1.1,0.3,1.7c0.2,0.6,0.7,1.1,1.2,1.4c0.6,0.3,1.2,0.5,1.6,0.6c0.3,0.1,0.4,0.3,0.5,0.6
			c0.1,0.3,0.3,0.7,0.7,1.1c0.4,0.5,0.9,1.1,1.5,1.4c0.7,0.3,1.5,0.4,2,0.4c0.5,0.1,0.6,0.1,0.6,0.3c0.1,0.2,0.1,0.5,0.4,0.9
			c0.4,0.4,1.1,0.8,1.7,1.1c0.7,0.3,1.3,0.4,1.8,0.1c0.5-0.2,0.8-0.8,1.1-1c0.2-0.3,0.4-0.3,0.8-0.2c0.4,0.1,1,0.3,1.6,0.5
			c0.6,0.2,1.3,0.4,1.9,0.3c0.6-0.1,1.1-0.4,1.5-0.6c0.3-0.2,0.5-0.4,0.6-0.5c0.1-0.1,0.2-0.1,0.5,0c0.3,0.1,0.8,0.4,1.4,0.5
			c0.6,0.1,1.4,0.2,2,0c0.6-0.2,1.2-0.6,1.5-1.1c0.4-0.4,0.7-0.8,0.8-1c0.1-0.2,0.1-0.2,0.4-0.2c0.3,0,0.8,0.1,1.4,0
			c0.6-0.1,1.3-0.5,1.9-1c0.6-0.5,1.1-1.3,1.3-1.8c0.3-0.5,0.3-0.7,0.6-1s0.9-0.5,1.5-1c0.6-0.4,1.1-0.9,1.5-1.6
			c0.4-0.6,0.6-1.4,0.7-1.9c0.1-0.6,0-0.9,0.1-1.2c0-0.1,0.1-0.2,0.2-0.3l1,5l4.9-1l0.4,2.2l17.9-4.4l-0.2-1.2l-1.1,0.3l0,0
			l-15.6,3.9l0,0l0,0l-4.1-21l16.8-4.2l-0.2-1.1l-17.9,4.4l0.1,0.4l-4.9,1l0.1,0.6c-0.2-0.1-0.5-0.2-0.7-0.3
			c-0.7-0.4-1.6-1.3-3.2-2.4c-1.6-1-3.8-2.2-5.1-2.8c-1.3-0.6-1.7-0.6-3.2-0.3C-57.9,404.1-58.3,404.2-58.8,404.3L-58.8,404.3z
			 M-44,410l3.7-0.7l3.6,18.5l-3.7,0.7C-40.4,428.5-44,410-44,410z M-79.7,410l-3.7-0.7l-3.6,18.5l3.7,0.7L-79.7,410z M-104.3,425.7
			L-104.3,425.7l15.6,3.9l4.1-21l-16.8-4.2l-4.1,21C-105.5,425.5-104.3,425.7-104.3,425.7z M-47.8,429.1c-1.2-0.5-3.2-1.6-4.8-2.5
			c-1.6-0.9-2.9-1.6-3.6-1.9c-0.8-0.4-1.1-0.5-1.2-0.4c-0.1,0.1,0,0.3,1.4,1.2c1.4,0.9,4,2.6,5.7,3.5c1.6,1,2.3,1.2,2.5,1.5
			c0.3,0.3,0.2,0.5-0.1,0.9c-0.3,0.4-0.7,1-1.2,1.4c-0.4,0.4-0.9,0.6-1.2,0.7c-0.3,0.1-0.6,0.1-1.9-0.5c-1.3-0.6-3.5-2-5.1-2.9
			c-1.6-0.9-2.7-1.4-3.2-1.6c-0.6-0.2-0.6-0.1,0.1,0.4c0.7,0.5,2.1,1.5,3.4,2.4c1.3,0.9,2.3,1.6,3,2c0.7,0.4,1,0.6,1.2,0.7
			c0.2,0.1,0.2,0.2,0,0.5s-0.5,0.7-0.9,0.9c-0.4,0.3-0.8,0.4-1.2,0.5c-0.4,0.1-0.8,0.1-1.2,0c-0.4-0.1-0.7-0.2-1.5-0.7
			c-0.8-0.4-2.2-1.2-3.1-1.7c-0.9-0.5-1.5-0.8-1.7-0.9c-0.3-0.1-0.3,0,0.3,0.5c0.6,0.5,1.9,1.4,2.5,2c0.6,0.5,0.7,0.7,0.3,0.9
			c-0.3,0.2-1,0.5-1.8,0.4c-0.8,0-1.6-0.4-2-0.7c-0.4-0.3-0.4-0.4-0.3-0.9c0.1-0.4,0.2-1.2,0.1-1.8c-0.1-0.6-0.3-1-0.7-1.3
			c-0.3-0.3-0.7-0.4-1.2-0.2c-0.5,0.2-1.1,0.7-1.6,1.3c-0.5,0.6-1,1.2-1.4,1.4c-0.4,0.2-0.6,0.1-0.6-0.1c0.1-0.2,0.4-0.6,0.9-1.2
			c0.5-0.7,1.2-1.7,1.7-2.5c0.5-0.8,0.8-1.4,0.9-1.9c0.1-0.5,0-1.1-0.2-1.5c-0.2-0.5-0.5-0.8-0.9-1c-0.3-0.2-0.7-0.3-1.2,0
			s-1.3,0.8-2.2,1.8c-1,1-2.2,2.4-2.8,3.1c-0.6,0.7-0.7,0.7-0.8,0.6c-0.1-0.1-0.4-0.3,0-0.9c0.3-0.6,1.3-1.5,2-2.4
			c0.8-0.9,1.4-1.9,1.6-2.5c0.3-0.7,0.2-1-0.1-1.3c-0.3-0.3-0.8-0.6-1.2-0.7c-0.5-0.1-1-0.1-1.8,0.6c-0.9,0.6-2.1,1.8-2.9,2.5
			c-0.7,0.7-0.8,0.8-1,0.8c-0.1,0-0.2,0,0-0.4c0.2-0.4,0.8-1,1.2-1.5c0.4-0.6,0.6-1,0.5-1.5c-0.1-0.5-0.5-1-1-1.2
			c-0.5-0.2-1-0.1-1.6,0.1c-0.6,0.2-1.2,0.5-1.6,0.6c-0.4,0.1-0.6,0.1-0.8,0.1s-0.4,0-0.6-0.1c-0.1,0-0.1-0.1,0.3-2.3
			c0.4-2.3,1.2-6.7,1.7-9c0.5-2.3,0.5-2.4,0.8-2.4c0.3,0,0.7,0,1.3-0.4c0.6-0.3,1.4-0.9,2.8-1.8c1.3-0.9,3.2-1.9,4.6-2.7
			c1.3-0.7,2.2-1.1,3.1-1.2c1-0.1,2.1,0.1,3.1,0.3c0.8,0.2,1.6,0.4,2.3,0.7c-0.9,0.3-1.8,0.5-2.5,0.8c-1.7,0.5-2.5,0.7-3.3,1.2
			c-0.7,0.5-1.3,1.2-2.1,2.2c-0.8,1-1.7,2.4-2.3,3.3c-0.7,1-1.1,1.5-1.2,2c-0.1,0.4,0,0.7,0.7,1c0.7,0.3,1.8,0.6,3,0.5
			c1.2-0.1,2.4-0.5,3.4-1.3c1-0.8,1.6-1.9,2.1-2.8c0.5-0.9,0.8-1.5,0.9-1.8c0.1-0.3,0.1-0.1,0,0.3c-0.1,0.4-0.3,1.1-0.4,1.5
			c-0.1,0.4-0.1,0.3,0.6,0.1c0.7-0.2,2-0.7,2.8-1.1c0.8-0.4,1.1-0.9,1.4-1.3c0.3-0.4,0.6-0.9,0.7-1.1c0.1-0.2,0.1-0.3,0,0.2
			c-0.1,0.5-0.3,1.4-0.7,2.1c-0.4,0.7-1,1-1.3,1.4c-0.3,0.3-0.4,0.6,0.6,1.8s3,3.2,5.6,5.2c2.6,2,5.8,4.1,7.4,5.2
			c1.6,1.2,1.7,1.4,1.6,2c-0.1,0.6-0.4,1.5-0.8,2.1c-0.4,0.7-0.9,1.1-1.3,1.3C-46.1,429.6-46.6,429.6-47.8,429.1L-47.8,429.1z"/>
		
			<linearGradient id="SVGID_5_" gradientUnits="userSpaceOnUse" x1="3409.8179" y1="-5130.7178" x2="3487.9177" y2="-4813.5977" gradientTransform="matrix(7.200000e-002 0 0 -7.200000e-002 -343.36 59.1685)">
			<stop  offset="0" style="stop-color:#B5846E"/>
			<stop  offset="0.5412" style="stop-color:#ECD1B4"/>
			<stop  offset="1" style="stop-color:#B5846E"/>
		</linearGradient>
		<polygon class="st6" points="-84.6,408.6 -101.3,404.5 -105.5,425.5 -88.7,429.6 		"/>
		
			<linearGradient id="SVGID_6_" gradientUnits="userSpaceOnUse" x1="3659.0696" y1="-4794.8677" x2="3659.0696" y2="-4390.0977" gradientTransform="matrix(7.200000e-002 0 0 -7.200000e-002 -343.36 59.1685)">
			<stop  offset="0" style="stop-color:#414D47"/>
			<stop  offset="0.3804" style="stop-color:#54675D"/>
			<stop  offset="0.6588" style="stop-color:#727978"/>
			<stop  offset="0.7686" style="stop-color:#54675D"/>
			<stop  offset="1" style="stop-color:#414D47"/>
		</linearGradient>
		<path class="st7" d="M-95.9,403.2v-2.4c0-6.4,3.9-12,9.4-14.5l-3.3-7.7h9.2h9.2l-3.1,7.2c6.2,2.2,10.6,8.1,10.6,15.1v0.4
			c-0.4-0.1-0.7-0.1-1.1-0.2v-0.3c0-8.2-6.7-14.9-14.9-14.9l0,0c-8.2,0-14.9,6.7-14.9,14.9v2.6C-94.8,403.5-95.9,403.2-95.9,403.2z
			 M-87.8,379.9l2.5,5.8c1.7-0.6,3.5-0.9,5.4-0.9c1.4,0,2.8,0.2,4.1,0.5l2.3-5.4H-87.8L-87.8,379.9z"/>
		
			<linearGradient id="SVGID_7_" gradientUnits="userSpaceOnUse" x1="3657.186" y1="-4834.3501" x2="3663.926" y2="-4521.8604" gradientTransform="matrix(7.200000e-002 0 0 -7.200000e-002 -343.36 59.1685)">
			<stop  offset="0" style="stop-color:#B5846E"/>
			<stop  offset="0.4588" style="stop-color:#ECD1B4"/>
			<stop  offset="1" style="stop-color:#B5846E"/>
		</linearGradient>
		<path class="st8" d="M-66,401.1v-0.3c0-7.6-6.3-13.9-13.9-13.9s-13.9,6.3-13.9,13.9v2.9l10,2.5c0.2-0.2,0.3-0.3,0.5-0.5
			c0.3,0.4,0.8,0.7,1.3,0.9l0.5,0.1l0,0.1c0.4,0.1,0.8,0.2,1.1,0.2v-3.5c-2.3-0.6-4.3-1.5-4.3-4.2c0-2.6,2.4-4.1,4.4-4.2v-1.4h1.5
			v1.4c1.5,0,3.2,0.5,4.5,1.5c-0.6,0.7-1.3,1.5-1.9,2.2c-0.7-0.7-1.7-1.1-2.5-1.1v3.2c2,0.6,4.4,1.4,4.5,4.1c0.7-0.5,1.4-1,2.2-1.4
			c1.5-0.9,3.3-1.7,4.9-2.3C-66.8,401.3-66.4,401.2-66,401.1L-66,401.1z M-80.4,400.7c-0.8-0.2-1.4-0.6-1.4-1.5
			c0-0.9,0.7-1.3,1.4-1.4V400.7L-80.4,400.7z M-79,403.9c0.8,0.3,1.5,0.7,1.5,1.6c0,0.9-0.6,1.5-1.5,1.6V403.9z"/>
		
			<linearGradient id="SVGID_8_" gradientUnits="userSpaceOnUse" x1="3646.1951" y1="-4519.1143" x2="3648.925" y2="-4463.8442" gradientTransform="matrix(7.200000e-002 0 0 -7.200000e-002 -343.36 59.1685)">
			<stop  offset="0" style="stop-color:#B5846E"/>
			<stop  offset="0.4588" style="stop-color:#ECD1B4"/>
			<stop  offset="1" style="stop-color:#B5846E"/>
		</linearGradient>
		<path class="st9" d="M-86.3,381l1.5,3.6c1.6-0.5,3.2-0.7,4.8-0.7c1.2,0,2.3,0.1,3.5,0.4l1.4-3.2H-86.3z"/>
		
			<linearGradient id="SVGID_9_" gradientUnits="userSpaceOnUse" x1="3603.8845" y1="-4399.9976" x2="3603.8845" y2="-4130.4175" gradientTransform="matrix(7.200000e-002 0 0 -7.200000e-002 -343.36 59.1685)">
			<stop  offset="0" style="stop-color:#414D47"/>
			<stop  offset="0.3804" style="stop-color:#54675D"/>
			<stop  offset="0.6588" style="stop-color:#727978"/>
			<stop  offset="0.7686" style="stop-color:#54675D"/>
			<stop  offset="1" style="stop-color:#414D47"/>
		</linearGradient>
		<path class="st10" d="M-75.6,366.8v0.6h-1.7v-0.6H-75.6z M-76.9,362.7l0.3,0.5L-78,364l-0.3-0.5L-76.9,362.7L-76.9,362.7z
			 M-80,359.7l0.5,0.3l-0.8,1.4l-0.5-0.3L-80,359.7z M-87.5,372.6l0.5,0.3l-0.8,1.4l-0.5-0.3L-87.5,372.6L-87.5,372.6z M-84.2,358.8
			h0.6v1.7h-0.6V358.8z M-84.2,373.7h0.6v1.7h-0.6C-84.2,375.3-84.2,373.7-84.2,373.7z M-79.5,374.1l-0.5,0.3l-0.8-1.4l0.5-0.3
			L-79.5,374.1L-79.5,374.1z M-86.9,361.2l-0.5,0.3l-0.8-1.4l0.5-0.3L-86.9,361.2L-86.9,361.2z M-76.6,370.9l-0.3,0.5l-1.4-0.8
			l0.3-0.5L-76.6,370.9z M-89.5,363.5l-0.3,0.5l-1.4-0.8l0.3-0.5L-89.5,363.5z M-89.8,370.1l0.3,0.5l-1.4,0.8l-0.3-0.5L-89.8,370.1
			L-89.8,370.1z M-90.5,366.8v0.6h-1.7v-0.6H-90.5z"/>
		<path class="st11" d="M-83.9,365.8c0.6,0,1.2,0.5,1.2,1.2c0,0.6-0.5,1.2-1.2,1.2c-0.6,0-1.2-0.5-1.2-1.2
			C-85.1,366.3-84.5,365.8-83.9,365.8z"/>
		<path class="st11" d="M-83.9,362.5L-83.9,362.5c0.2,0,0.4,0.2,0.4,0.4v4c0,0.2-0.2,0.4-0.4,0.4l0,0c-0.2,0-0.4-0.2-0.4-0.4v-4
			C-84.3,362.7-84.1,362.5-83.9,362.5z"/>
		<path class="st11" d="M-78.7,364L-78.7,364c0.1,0.2,0,0.5-0.2,0.6l-4.8,2.8c-0.2,0.1-0.5,0-0.6-0.2l0,0c-0.1-0.2,0-0.5,0.2-0.6
			l4.8-2.8C-79,363.7-78.8,363.8-78.7,364L-78.7,364z"/>
		
			<linearGradient id="SVGID_10_" gradientUnits="userSpaceOnUse" x1="3603.8794" y1="-4407.2773" x2="3603.8794" y2="-4118.5977" gradientTransform="matrix(7.200000e-002 0 0 -7.200000e-002 -343.36 59.1685)">
			<stop  offset="0" style="stop-color:#414D47"/>
			<stop  offset="0.3804" style="stop-color:#54675D"/>
			<stop  offset="0.6588" style="stop-color:#727978"/>
			<stop  offset="0.7686" style="stop-color:#54675D"/>
			<stop  offset="1" style="stop-color:#414D47"/>
		</linearGradient>
		<path class="st12" d="M-83.9,358.1c4.9,0,8.9,4,8.9,8.9s-4,8.9-8.9,8.9c-4.9,0-8.9-4-8.9-8.9C-92.7,362.1-88.8,358.1-83.9,358.1z
			 M-83.9,359.2c4.3,0,7.8,3.5,7.8,7.8c0,4.3-3.5,7.8-7.8,7.8c-4.3,0-7.8-3.5-7.8-7.8C-91.7,362.7-88.2,359.2-83.9,359.2z"/>
		
			<linearGradient id="SVGID_11_" gradientUnits="userSpaceOnUse" x1="4103.0396" y1="-4419.5176" x2="4103.0396" y2="-4343.8374" gradientTransform="matrix(7.200000e-002 0 0 -7.200000e-002 -343.36 59.1685)">
			<stop  offset="0" style="stop-color:#414D47"/>
			<stop  offset="0.3804" style="stop-color:#54675D"/>
			<stop  offset="0.6588" style="stop-color:#727978"/>
			<stop  offset="0.7686" style="stop-color:#54675D"/>
			<stop  offset="1" style="stop-color:#414D47"/>
		</linearGradient>
		<path class="st13" d="M-60.5,377.1l-1.8-4.4h-1l-1.9,4.4h1.2l0.3-0.9h1.7l0.3,0.9H-60.5z M-62.3,375.4h-1.1l0.6-1.5L-62.3,375.4z
			 M-56.8,374c0-1-0.8-1.4-1.7-1.4h-1.6v4.4h1.1v-1.7h0.5C-57.6,375.4-56.8,375-56.8,374L-56.8,374z M-57.9,374
			c0,0.4-0.4,0.5-0.8,0.5h-0.4v-1h0.5C-58.2,373.5-57.9,373.6-57.9,374z M-52.8,374c0-1-0.8-1.4-1.7-1.4h-1.6v4.4h1.1v-1.7h0.5
			C-53.6,375.4-52.8,375-52.8,374L-52.8,374z M-53.9,374c0,0.4-0.4,0.5-0.8,0.5h-0.4v-1h0.5C-54.2,373.5-53.9,373.6-53.9,374z
			 M-48.6,377.1l-1.2-1.9c0.6-0.2,0.9-0.6,0.9-1.2c0-1-0.8-1.3-1.7-1.3h-1.7v4.4h1v-1.8h0.4l1,1.8L-48.6,377.1L-48.6,377.1z
			 M-49.8,374c0,0.4-0.4,0.5-0.8,0.5h-0.5v-1h0.6C-50.2,373.5-49.8,373.6-49.8,374L-49.8,374z M-43.4,374.9c0-1.4-1-2.3-2.4-2.3
			c-1.4,0-2.4,0.9-2.4,2.3c0,1.4,1,2.3,2.4,2.3C-44.5,377.2-43.4,376.2-43.4,374.9z M-44.6,374.9c0,0.8-0.5,1.4-1.3,1.4
			c-0.7,0-1.3-0.6-1.3-1.4c0-0.8,0.5-1.3,1.3-1.3C-45.1,373.5-44.6,374.1-44.6,374.9z M-38.9,372.7h-1.2l-1,3.1h0l-1-3.1h-1.2
			l1.7,4.4h1.1C-40.6,377.1-38.9,372.7-38.9,372.7z M-35.5,377.1v-0.9h-2v-0.9h1.8v-0.9h-1.8v-0.8h1.9v-0.9h-3v4.4L-35.5,377.1
			L-35.5,377.1z M-30.7,374.9c0-1.7-1.3-2.2-2.5-2.2h-1.6v4.4h1.6C-31.9,377.1-30.7,376.4-30.7,374.9L-30.7,374.9z M-31.8,374.9
			c0,1-0.7,1.3-1.5,1.3h-0.5v-2.6h0.5C-32.5,373.6-31.8,373.9-31.8,374.9z"/>
		
			<linearGradient id="SVGID_12_" gradientUnits="userSpaceOnUse" x1="3663.0396" y1="-4846.9375" x2="3663.0396" y2="-4622.6274" gradientTransform="matrix(7.200000e-002 0 0 -7.200000e-002 -343.36 59.1685)">
			<stop  offset="0" style="stop-color:#414D47"/>
			<stop  offset="0.3804" style="stop-color:#54675D"/>
			<stop  offset="0.6588" style="stop-color:#727978"/>
			<stop  offset="0.7686" style="stop-color:#54675D"/>
			<stop  offset="1" style="stop-color:#414D47"/>
		</linearGradient>
		<path class="st14" d="M-80.5,403.6v3.5c-0.3,0-0.7-0.1-1.1-0.2l0,0.2l2.5,0.5c0.3-0.1,0.7-0.1,1,0.1c0,0,0,0,0.1,0
			c0.4-0.2,1.2-0.8,1.4-0.9c0.7-0.5,1.5-1.1,2.2-1.6c-0.1-2.7-2.5-3.5-4.5-4.1v-3.2c0.8,0,1.9,0.4,2.5,1.1c0.7-0.7,1.3-1.4,1.9-2.2
			c-1.2-1-3-1.5-4.5-1.5v-1.4h-1.5v1.4c-2.1,0.1-4.4,1.6-4.4,4.2C-84.8,402.1-82.8,403-80.5,403.6L-80.5,403.6z M-83.8,406.2
			l1.7,0.4c-0.5-0.2-0.9-0.6-1.3-0.9C-83.5,405.8-83.6,406-83.8,406.2z M-79,407.1v-3.1c0.8,0.3,1.5,0.7,1.5,1.6
			C-77.6,406.4-78.1,407-79,407.1z M-80.4,400.7c-0.8-0.2-1.4-0.6-1.4-1.5c0-0.9,0.7-1.3,1.4-1.4V400.7L-80.4,400.7z"/>
	</g>
</g>
</svg>
