<?xml version="1.0" encoding="UTF-8"?>
<!DOCTYPE svg PUBLIC "-//W3C//DTD SVG 1.1//EN" "http://www.w3.org/Graphics/SVG/1.1/DTD/svg11.dtd">
<!-- Creator: CorelDRAW 2019 (64-Bit) -->
<svg xmlns="http://www.w3.org/2000/svg" xml:space="preserve" width="3.33333in" height="2.66666in" version="1.1" style="shape-rendering:geometricPrecision; text-rendering:geometricPrecision; image-rendering:optimizeQuality; fill-rule:evenodd; clip-rule:evenodd"
viewBox="0 0 3333.33 2666.66"
 xmlns:xlink="http://www.w3.org/1999/xlink">
 <defs>
  <style type="text/css">
   <![CDATA[
    .fil0 {fill:none}
    .fil1 {fill:#494949}
    .fil8 {fill:#98AEA2}
    .fil6 {fill:url(#id0)}
    .fil4 {fill:url(#id1)}
    .fil2 {fill:url(#id2)}
    .fil5 {fill:url(#id3)}
    .fil3 {fill:url(#id4)}
    .fil7 {fill:url(#id5)}
   ]]>
  </style>
  <linearGradient id="id0" gradientUnits="userSpaceOnUse" x1="1325.04" y1="1594.66" x2="1325.04" y2="1385.47">
   <stop offset="0" style="stop-opacity:1; stop-color:#414D47"/>
   <stop offset="0.380392" style="stop-opacity:1; stop-color:#54675D"/>
   <stop offset="0.658824" style="stop-opacity:1; stop-color:#727978"/>
   <stop offset="0.768627" style="stop-opacity:1; stop-color:#54675D"/>
   <stop offset="1" style="stop-opacity:1; stop-color:#414D47"/>
  </linearGradient>
  <linearGradient id="id1" gradientUnits="userSpaceOnUse" xlink:href="#id0" x1="1320.06" y1="1799.83" x2="1320.06" y2="1299.51">
  </linearGradient>
  <linearGradient id="id2" gradientUnits="userSpaceOnUse" xlink:href="#id0" x1="2013.26" y1="1801.32" x2="2013.26" y2="1274.23">
  </linearGradient>
  <linearGradient id="id3" gradientUnits="userSpaceOnUse" xlink:href="#id0" x1="1325.04" y1="1393.93" x2="1325.04" y2="1348.24">
  </linearGradient>
  <linearGradient id="id4" gradientUnits="userSpaceOnUse" x1="2007.72" y1="1584.99" x2="2008.85" y2="1390.06">
   <stop offset="0" style="stop-opacity:1; stop-color:#B5846E"/>
   <stop offset="0.631373" style="stop-opacity:1; stop-color:#ECD1B4"/>
   <stop offset="1" style="stop-opacity:1; stop-color:#B5846E"/>
  </linearGradient>
  <linearGradient id="id5" gradientUnits="userSpaceOnUse" xlink:href="#id4" x1="1658.85" y1="1780.17" x2="1674.32" y2="1386.68">
  </linearGradient>
 </defs>
 <g id="Layer_x0020_1">
  <metadata id="CorelCorpID_0Corel-Layer"/>
  <g id="_871024880">
   <polygon class="fil0" points="857.94,524.61 2475.39,524.61 2475.39,2142.06 857.94,2142.06 "/>
   <g>
    <path class="fil1" d="M1993.05 1275.33c-28.59,-3.92 -54.54,-18.49 -74.2,-39.38 -22.8,-24.22 -36.02,-55.37 -40.16,-88.2 7.28,12.81 10.75,17.85 23.58,34.54 -50.52,-318.87 123.4,-46.56 216.97,-75.06 -2.84,-69.95 -67.49,-119.39 -97.91,-136.14 25.93,8.67 146.68,83.83 87.35,222.49 19.5,-6.59 29.28,-46.28 29.22,-45.83 -4.14,32.83 -17.35,63.98 -40.15,88.2 -19.67,20.89 -45.62,35.46 -74.2,39.38 -5.05,0.69 -10.14,1.04 -15.24,1.04l-0.01 0 -0.01 0c-5.09,0 -10.19,-0.35 -15.24,-1.04zm-167.01 64.7c13.63,-11.8 56.34,-15.32 98.86,-16.15 6.45,-5.99 10.58,-13.17 10.7,-21.8l0.46 -34.22c16.68,11.93 35.91,20.05 56.45,22.87 31.65,4.35 62.65,-4.59 88.2,-22.85l0.46 34.2c0.11,8.19 3.83,15.07 9.72,20.87 42.72,0.26 85.32,3.47 99.46,17.06 -57.56,-85.97 57.69,-422.87 -182.06,-424.92 -223.57,-1.92 -149.21,362.44 -182.25,424.94z"/>
    <path class="fil1" d="M1721.54 1454.78c10.93,-46.35 32.11,-85.65 71.48,-88.99 22.37,-1.89 45,-4.69 67.02,-9 23.24,-4.55 77.97,-21.93 78.39,-52.93l0.51 -37.5c-3.59,-2.07 -7.1,-4.28 -10.52,-6.65l-0.59 44c-0.43,31.97 -103.37,48.76 -135.7,51.5 -40.62,3.44 -67.4,38.35 -81.26,91.07l10.67 8.49zm418.77 333.19l173.05 0c5.22,-47.54 -3.34,-131.88 1.49,-190.58 10.63,-129.26 -17.76,-236.01 -90.4,-242.16 -32.32,-2.74 -135.27,-19.53 -135.7,-51.5l-0.59 -44.2c-3.42,2.37 -6.93,4.61 -10.52,6.69l0.51 37.65c0.42,31 55.15,48.38 78.39,52.93 22.02,4.31 44.65,7.11 67.02,9 83.53,7.07 85.21,176.06 80.72,230.72 -4.94,60.15 4.47,121.05 -0.55,180.85l-176.74 0 13.33 10.61z"/>
    <path class="fil2" d="M1825.05 1537.13l0.54 -22.13 0.56 23 166.79 132.7c-0.6,-1.69 -0.93,-3.52 -0.93,-5.42 0,-8.99 7.28,-16.27 16.27,-16.27 8.99,0 16.27,7.28 16.27,16.27 0,8.99 -7.28,16.27 -16.27,16.27 -0.62,0 -1.23,-0.04 -1.84,-0.1l113.77 90.52 52.73 0 14.85 -125.8 3.19 -131.18 3.19 131.18 -8.73 125.8 113.3 0c4.16,-58.51 -4.65,-117.29 0.17,-175.91 4.37,-53.17 2.19,-218.32 -75.81,-224.92 -22.65,-1.92 -45.29,-4.72 -67.6,-9.08 -10.74,-2.11 -25.73,-6.25 -40,-12.57l14.41 126.77 -51.21 18.07 22.77 50.34 -93.19 90.06 -93.19 -90.06 22.77 -50.34 -51.21 -18.07 14.41 -126.77c-14.26,6.33 -29.25,10.47 -40,12.57 -22.31,4.37 -44.96,7.17 -67.6,9.08 -36.96,3.13 -56.9,41.87 -67.18,87.41l98.75 78.57zm183.24 81.58l64.48 -314.78c0.25,18.36 16.23,32.24 35.21,41.97l14.28 125.56 -53.17 18.77 23.89 52.82 -84.69 81.85 -84.69 -81.85 23.9 -52.82 -53.17 -18.77 14.28 -125.56c18.98,-9.73 34.96,-23.61 35.21,-41.97l64.48 314.78z"/>
    <path class="fil3" d="M2040.61 1408.85c-9.94,2.16 -20.86,3.35 -32.32,3.35 -11.46,0 -22.39,-1.2 -32.32,-3.35l32.32 174.75 32.32 -174.75z"/>
    <path class="fil1" d="M1029.06 1596.51c-4.5,-54.67 -2.82,-223.65 80.72,-230.72 22.37,-1.89 45,-4.69 67.02,-9 23.24,-4.55 77.97,-21.93 78.39,-52.93l0.26 -13.58c-3.58,-2.24 -7.08,-4.66 -10.49,-7.24l-0.38 20.68c-0.59,31.96 -103.38,48.77 -135.7,51.5 -72.63,6.15 -101.02,112.91 -90.39,242.16 4.83,58.7 -3.73,143.05 1.48,190.58l173.05 0 13.33 -10.61 -176.75 0c-5.02,-59.8 4.4,-120.7 -0.55,-180.85zm593.4 -150.22c-13.86,-52.71 -40.64,-87.63 -81.26,-91.07 -32.33,-2.73 -135.12,-19.53 -135.7,-51.5l-0.38 -20.68c-3.41,2.58 -6.91,5 -10.49,7.24l0.26 13.58c0.42,31 55.15,48.38 78.39,52.93 22.02,4.31 44.65,7.11 67.02,9 39.37,3.33 60.56,42.64 71.48,88.99l10.67 -8.49z"/>
    <path class="fil4" d="M1034.58 1771.98l101.51 0 3.06 -125.8 3.19 -131.18 3.19 131.18 3.06 125.8 64.52 0 113.77 -90.52c-0.61,0.07 -1.22,0.11 -1.84,0.11 -8.98,0 -16.27,-7.28 -16.27,-16.27 0,-8.99 7.29,-16.27 16.27,-16.27 8.99,0 16.27,7.28 16.27,16.27 0,1.9 -0.33,3.73 -0.93,5.43l166.8 -132.71 0.56 -23.01 0.54 22.14 98.76 -78.57c-10.28,-45.55 -30.22,-84.29 -67.18,-87.42 -22.65,-1.92 -45.29,-4.72 -67.6,-9.08 -10.74,-2.11 -25.73,-6.25 -39.99,-12.57l14.41 126.77 -51.21 18.07 22.77 50.34 -93.19 90.06 -93.19 -90.06 22.77 -50.34 -51.21 -18.07 14.41 -126.77c-14.26,6.33 -29.25,10.47 -39.99,12.57 -22.31,4.37 -44.96,7.17 -67.6,9.08 -78,6.6 -80.19,171.75 -75.81,224.92 4.82,58.62 -3.99,117.4 0.17,175.91zm290.46 -147.08l84.69 -81.85 -23.89 -52.82 53.17 -18.77 -14.28 -125.56c-9.69,-4.97 -18.6,-11.02 -25.03,-18.19l-74.66 291 -74.66 -291c-6.43,7.17 -15.34,13.22 -25.03,18.19l-14.28 125.56 53.17 18.77 -23.89 52.82 84.69 81.85z"/>
    <path class="fil1" d="M1309.79 1297.35c-28.59,-3.92 -54.53,-18.48 -74.2,-39.38 -22.8,-24.22 -36.02,-55.37 -40.15,-88.2l-0.98 -7.76 -7.41 -2.5c-9.13,-3.08 -13.12,-4.14 -17.03,-13.4 -1.86,-4.39 -3.09,-9.58 -3.84,-14.99l0.04 -0.04c-0.19,-1.39 -0.34,-2.78 -0.47,-4.17 -0.3,-3.28 -0.48,-6.88 -0.49,-10.63 0.01,-3.74 0.19,-7.35 0.49,-10.63 0.13,-1.39 0.28,-2.78 0.47,-4.16l-0.04 -0.04c0.75,-5.42 1.98,-10.6 3.84,-15 3.91,-9.26 7.9,-10.32 17.03,-13.4l7.41 56.45 12.77 4.04c5.84,-46.3 -8.36,-125.22 38.69,-125.22 34.21,0 136.7,34.27 174.73,8.66 22.8,24.22 26.26,66.28 23.82,116.32l11.17 -3.79 7.41 -56.45c9.13,3.08 13.12,4.14 17.03,13.4 1.86,4.39 3.09,9.58 3.84,15l-0.05 0.04c0.19,1.38 0.35,2.78 0.48,4.16 0.3,3.28 0.48,6.88 0.49,10.63 -0.01,3.74 -0.19,7.35 -0.49,10.63 -0.13,1.39 -0.28,2.78 -0.48,4.17l0.05 0.04c-0.75,5.41 -1.98,10.6 -3.84,14.99 -3.91,9.26 -7.9,10.32 -17.03,13.4l-7.41 2.5 -0.98 7.76c-4.14,32.82 -17.35,63.98 -40.16,88.2 -19.67,20.89 -45.62,35.46 -74.2,39.38 -5.05,0.69 -10.15,1.04 -15.24,1.04l-0.01 0 -0.01 0c-5.09,0 -10.19,-0.35 -15.24,-1.04zm15.24 -375.6c-67.11,0.17 -124.89,-31.63 -144.18,42.13 -40.47,11.28 -17.32,105.94 -22.31,117.74 -5,11.81 -5.78,22.94 -5.77,34.68 -0.02,11.74 1.52,24.64 5.77,34.68 5.74,13.57 12.92,16.44 24.53,20.35 10.7,84.81 74.86,139.36 141.97,139.52l0.01 0 0.01 0c67.1,-0.17 131.27,-54.71 141.96,-139.52 11.61,-3.91 18.79,-6.78 24.54,-20.35 4.25,-10.04 5.78,-22.94 5.76,-34.68 0.02,-11.74 -1.52,-24.63 -5.76,-34.68 -5.74,-13.57 -12.92,-16.44 -24.54,-20.35 48.26,-151.74 -74.86,-139.36 -141.96,-139.52l-0.02 0z"/>
    <path class="fil5" d="M1298.13 1350.81c-7.96,5.16 -14.37,12.67 -16.52,23.51 3.92,-7.56 8.11,-8.72 12.84,-11.76l16.84 28.81 13.75 0 13.75 0 16.84 -28.81c4.73,3.04 8.92,4.19 12.84,11.76 -2.15,-10.83 -8.57,-18.35 -16.52,-23.51 -6.53,2.25 -16.17,3.67 -26.91,3.67 -10.74,0 -20.38,-1.42 -26.91,-3.67z"/>
    <polygon class="fil6" points="1325.04,1583.01 1295.54,1472.11 1311.29,1397.26 1325.04,1397.26 1338.79,1397.26 1354.55,1472.11 "/>
    <polygon class="fil1" points="1151.8,1793.78 1666.67,1384.13 2181.53,1793.78 2178.87,1795.89 2150.28,1795.89 1666.67,1411.11 1183.06,1795.89 1154.46,1795.89 "/>
    <polygon class="fil1" points="2126.98,1795.89 2394.3,1795.89 2394.3,1777.35 2126.98,1777.35 "/>
    <polygon class="fil1" points="939.03,1795.89 1206.35,1795.89 1206.35,1777.35 939.03,1777.35 "/>
    <polygon class="fil7" points="1240.27,1777.35 1666.67,1438.1 2093.06,1777.35 2110.02,1777.35 1666.67,1424.6 1223.31,1777.35 "/>
    <path class="fil8" d="M1600.44 1606.7l62.96 0 0 62.96 -62.96 0 0 -62.96zm69.49 0l62.96 0 0 62.96 -62.96 0 0 -62.96zm62.96 69.49l0 62.96 -62.96 0 0 -62.96 62.96 0zm-69.49 62.96l-62.96 0 0 -62.96 62.96 0 0 62.96z"/>
    <polygon class="fil1" points="1666.67,1478.57 2076.1,1777.35 1666.67,1451.59 1257.23,1777.35 "/>
   </g>
  </g>
 </g>
</svg>
