<?xml version="1.0" encoding="utf-8"?>
<!-- Generator: Adobe Illustrator 25.2.3, SVG Export Plug-In . SVG Version: 6.00 Build 0)  -->
<svg version="1.1" id="Layer_1" xmlns="http://www.w3.org/2000/svg" xmlns:xlink="http://www.w3.org/1999/xlink" x="0px" y="0px"
	 viewBox="0 0 81.3 63" style="enable-background:new 0 0 81.3 63;" xml:space="preserve">
<style type="text/css">
	.st0{fill:url(#SVGID_1_);}
	.st1{fill-rule:evenodd;clip-rule:evenodd;fill:url(#SVGID_2_);}
	.st2{fill-rule:evenodd;clip-rule:evenodd;fill:url(#SVGID_3_);}
	.st3{fill-rule:evenodd;clip-rule:evenodd;fill:url(#SVGID_4_);}
	.st4{fill-rule:evenodd;clip-rule:evenodd;fill:url(#SVGID_5_);}
	.st5{fill-rule:evenodd;clip-rule:evenodd;fill:url(#SVGID_6_);}
	.st6{fill:url(#SVGID_7_);}
	.st7{fill:none;}
</style>
<linearGradient id="SVGID_1_" gradientUnits="userSpaceOnUse" x1="40.8191" y1="1039.1293" x2="40.8769" y2="1099.7693" gradientTransform="matrix(1 0 0 1 0 -1016)">
	<stop  offset="0" style="stop-color:#BD8F78"/>
	<stop  offset="0.24" style="stop-color:#D6B499"/>
	<stop  offset="0.47" style="stop-color:#ECD2B5"/>
	<stop  offset="0.68" style="stop-color:#ECD2B5"/>
	<stop  offset="0.89" style="stop-color:#CCA48D"/>
	<stop  offset="1" style="stop-color:#B78771"/>
</linearGradient>
<path class="st0" d="M15.4,34.6L40.8,15l25.3,19.6h5.1l-10.5-8.2v-6.7h-6.2v2L42,12.1c-0.7-0.5-1.6-0.5-2.3,0L10.5,34.6
	C10.5,34.6,15.4,34.6,15.4,34.6z"/>
<linearGradient id="SVGID_2_" gradientUnits="userSpaceOnUse" x1="-1467.6733" y1="8.1496" x2="-1467.6733" y2="18.5631" gradientTransform="matrix(3.41 0 0 -3.41 5047.9902 80.1801)">
	<stop  offset="0" style="stop-color:#BD8F78"/>
	<stop  offset="0.24" style="stop-color:#D6B499"/>
	<stop  offset="0.47" style="stop-color:#ECD2B5"/>
	<stop  offset="0.68" style="stop-color:#ECD2B5"/>
	<stop  offset="0.89" style="stop-color:#CCA48D"/>
	<stop  offset="1" style="stop-color:#B78771"/>
</linearGradient>
<rect x="41.2" y="21.3" class="st1" width="4" height="3.8"/>
<linearGradient id="SVGID_3_" gradientUnits="userSpaceOnUse" x1="-1469.0941" y1="8.1496" x2="-1469.0941" y2="18.5631" gradientTransform="matrix(3.41 0 0 -3.41 5047.9902 80.1801)">
	<stop  offset="0" style="stop-color:#BD8F78"/>
	<stop  offset="0.24" style="stop-color:#D6B499"/>
	<stop  offset="0.47" style="stop-color:#ECD2B5"/>
	<stop  offset="0.68" style="stop-color:#ECD2B5"/>
	<stop  offset="0.89" style="stop-color:#CCA48D"/>
	<stop  offset="1" style="stop-color:#B78771"/>
</linearGradient>
<rect x="36.4" y="21.3" class="st2" width="4" height="3.8"/>
<linearGradient id="SVGID_4_" gradientUnits="userSpaceOnUse" x1="-1468.3988" y1="7.8564" x2="-1468.3988" y2="18.2699" gradientTransform="matrix(3.41 0 0 -3.41 5047.9902 80.1801)">
	<stop  offset="0" style="stop-color:#BD8F78"/>
	<stop  offset="0.24" style="stop-color:#D6B499"/>
	<stop  offset="0.47" style="stop-color:#ECD2B5"/>
	<stop  offset="0.68" style="stop-color:#ECD2B5"/>
	<stop  offset="0.89" style="stop-color:#CCA48D"/>
	<stop  offset="1" style="stop-color:#B78771"/>
</linearGradient>
<path class="st3" d="M40.8,15.9L19.5,32.3v17.9c0,0.7,0.7,1.1,1.5,1.1h4.2V33.6c0-0.9,0.7-1.6,1.6-1.6h27c0.9,0,1.6,0.7,1.6,1.6
	v17.7h5.1c0.8,0,1.5-0.5,1.5-1.2V32.3L40.8,15.9z M46.1,30.7H35.2V20.4h10.9V30.7z"/>
<linearGradient id="SVGID_5_" gradientUnits="userSpaceOnUse" x1="-1469.0941" y1="8.1496" x2="-1469.0941" y2="18.5631" gradientTransform="matrix(3.41 0 0 -3.41 5047.9902 80.1801)">
	<stop  offset="0" style="stop-color:#BD8F78"/>
	<stop  offset="0.24" style="stop-color:#D6B499"/>
	<stop  offset="0.47" style="stop-color:#ECD2B5"/>
	<stop  offset="0.68" style="stop-color:#ECD2B5"/>
	<stop  offset="0.89" style="stop-color:#CCA48D"/>
	<stop  offset="1" style="stop-color:#B78771"/>
</linearGradient>
<rect x="36.4" y="26" class="st4" width="4" height="3.8"/>
<linearGradient id="SVGID_6_" gradientUnits="userSpaceOnUse" x1="-1467.6605" y1="8.1496" x2="-1467.6605" y2="18.5631" gradientTransform="matrix(3.41 0 0 -3.41 5047.9902 80.1801)">
	<stop  offset="0" style="stop-color:#BD8F78"/>
	<stop  offset="0.24" style="stop-color:#D6B499"/>
	<stop  offset="0.47" style="stop-color:#ECD2B5"/>
	<stop  offset="0.68" style="stop-color:#ECD2B5"/>
	<stop  offset="0.89" style="stop-color:#CCA48D"/>
	<stop  offset="1" style="stop-color:#B78771"/>
</linearGradient>
<polygon class="st5" points="45.3,26 41.2,26 41.2,29.8 45.2,29.8 "/>
<linearGradient id="SVGID_7_" gradientUnits="userSpaceOnUse" x1="57.5649" y1="18.3642" x2="57.6064" y2="26.2541">
	<stop  offset="0" style="stop-color:#BD8F78"/>
	<stop  offset="0.24" style="stop-color:#D6B499"/>
	<stop  offset="0.47" style="stop-color:#ECD2B5"/>
	<stop  offset="0.68" style="stop-color:#ECD2B5"/>
	<stop  offset="0.89" style="stop-color:#CCA48D"/>
	<stop  offset="1" style="stop-color:#B78771"/>
</linearGradient>
<polygon class="st6" points="53.6,19 61.5,19 61.5,17.7 53.6,17.7 "/>
<rect x="-70.8" y="-25.5" class="st7" width="72.8" height="55.5"/>
</svg>
