<?xml version="1.0" encoding="UTF-8"?>
<!DOCTYPE svg PUBLIC "-//W3C//DTD SVG 1.1//EN" "http://www.w3.org/Graphics/SVG/1.1/DTD/svg11.dtd">
<!-- Creator: CorelDRAW 2019 (64-Bit) -->
<svg xmlns="http://www.w3.org/2000/svg" xml:space="preserve" width="2.66667in" height="0.859276in" version="1.1" style="shape-rendering:geometricPrecision; text-rendering:geometricPrecision; image-rendering:optimizeQuality; fill-rule:evenodd; clip-rule:evenodd"
viewBox="0 0 478.95 154.33"
 xmlns:xlink="http://www.w3.org/1999/xlink">
 <defs>
  <style type="text/css">
   <![CDATA[
    .fil4 {fill:none}
    .fil0 {fill:url(#id0)}
    .fil1 {fill:url(#id1)}
    .fil3 {fill:url(#id2)}
    .fil2 {fill:url(#id3)}
   ]]>
  </style>
  <linearGradient id="id0" gradientUnits="userSpaceOnUse" x1="42.72" y1="127.79" x2="42.72" y2="107.36">
   <stop offset="0" style="stop-opacity:1; stop-color:#B5846E"/>
   <stop offset="0.501961" style="stop-opacity:1; stop-color:#ECD1B4"/>
   <stop offset="1" style="stop-opacity:1; stop-color:#B5846E"/>
  </linearGradient>
  <linearGradient id="id1" gradientUnits="userSpaceOnUse" xlink:href="#id0" x1="125.65" y1="94.48" x2="125.65" y2="29.15">
  </linearGradient>
  <linearGradient id="id2" gradientUnits="userSpaceOnUse" x1="423.09" y1="50.25" x2="423.09" y2="26.46">
   <stop offset="0" style="stop-opacity:1; stop-color:#B5846E"/>
   <stop offset="0.501961" style="stop-opacity:1; stop-color:#F0CBA0"/>
   <stop offset="1" style="stop-opacity:1; stop-color:#B5846E"/>
  </linearGradient>
  <linearGradient id="id3" gradientUnits="userSpaceOnUse" xlink:href="#id0" x1="147.62" y1="127.91" x2="147.62" y2="107.24">
  </linearGradient>
 </defs>
 <g id="Layer_x0020_1">
  <metadata id="CorelCorpID_0Corel-Layer"/>
  <g id="_1141733216">
   <g>
    <g>
     <path class="fil0" d="M48.81 127.71l3.02 -3.02c0.51,-0.51 0.51,-1.35 0,-1.86 -0.51,-0.51 -1.35,-0.51 -1.86,0l-3.02 3.02c-0.51,0.51 -0.51,1.35 0,1.86 0.51,0.51 1.35,0.51 1.86,0zm2.15 -0.97l-1.35 1.35c0.76,0.02 1.38,-0.59 1.35,-1.35zm-2.79 -7.53c0.21,-0.03 0.41,-0.03 0.62,0l-0.59 -0.59c-0.01,-0.01 -0.02,-0.04 -0.03,-0.08 0.04,0.22 0.04,0.45 0.01,0.67zm2.42 2.42c0.21,-0.03 0.41,-0.03 0.62,0l-0.59 -0.59c-0.01,-0.01 -0.02,-0.04 -0.04,-0.08 0.04,0.22 0.04,0.45 0.01,0.68zm2.41 1.75c0.12,0.67 -0.08,1.38 -0.59,1.9l-0.38 0.38c1.17,0.04 1.78,-1.34 1.01,-2.19 -0.01,-0.02 -0.02,-0.05 -0.04,-0.09zm-1.76 -12.59l7.19 7.19c0.01,0.01 0.03,0.03 0.04,0.04 2.47,-2.52 2.45,-6.57 -0.05,-9.08 -2.08,-2.08 -5.24,-2.45 -7.7,-1.08 -0.99,0.52 -3.3,2.75 -3.99,3.34 -0.21,0.18 -0.35,0.42 -0.42,0.67 -0.32,1.25 1.17,2.15 2.13,1.32l2.79 -2.41zm-5.5 5.99c0.64,-0.09 1.32,0.11 1.82,0.61 0.08,0.08 0.16,0.17 0.23,0.27l0.57 -0.01 3.39 3.39 1.81 1.81c1.21,1.22 3.08,-0.63 1.86,-1.86l-5.2 -5.2c-0.37,-0.37 0.19,-0.94 0.57,-0.57l5.2 5.2c1.19,1.19 3.04,-0.56 1.9,-1.81 -0.01,-0.01 -0.03,-0.03 -0.04,-0.04l-6.64 -6.64 -2.2 1.9c-1.68,1.45 -4.2,-0.33 -3.4,-2.41 0.19,-0.5 1.52,-1.71 2.51,-2.58 -2.53,-2.42 -6.54,-2.38 -9.02,0.11 -2.5,2.5 -2.52,6.55 -0.05,9.08 0.01,-0.01 0.03,-0.03 0.04,-0.04l3.02 -3.02c0.84,-0.84 2.2,-0.84 3.04,0 0.49,0.49 0.7,1.17 0.61,1.82zm-4.21 3.65l3.02 -3.02c0.51,-0.51 0.51,-1.35 0,-1.86 -0.51,-0.51 -1.35,-0.51 -1.86,0l-3.02 3.02c-0.51,0.51 -0.51,1.35 0,1.86 0.51,0.51 1.35,0.51 1.86,0zm2.42 2.42l3.02 -3.02c0.51,-0.51 0.51,-1.35 0,-1.86 -0.51,-0.51 -1.35,-0.51 -1.86,0l-3.02 3.02c-0.51,0.51 -0.51,1.35 0,1.86 0.51,0.51 1.35,0.51 1.86,0zm2.42 2.42l3.02 -3.02c0.51,-0.51 0.51,-1.35 0,-1.86 -0.51,-0.51 -1.35,-0.51 -1.86,0l-3.02 3.02c-0.51,0.51 -0.51,1.35 0,1.86 0.51,0.51 1.35,0.51 1.86,0z"/>
     <path class="fil1" d="M333.33 28.2l74.5 0 0 15.81 -54.3 0 0 9.72 51.54 0 0 14.78 -51.54 0 0 10.78 54.68 0 0 16.16 -74.88 0 0 -67.25zm-275.88 14.78l54.3 0 0 -14.78 -54.3 0 -20.2 11.66 0 14.78 20.2 -11.66zm54.69 36.3l-54.69 0 -20.2 11.66 0 4.5 74.88 0 0 -16.16zm-54.69 -10.78l51.54 0 0 -14.78 -51.54 0 -20.2 11.66 0 14.78 20.2 -11.66zm68.2 -40.31l21.53 0 0 50.1 47.84 0 0 17.15 -69.37 0 0 -67.25zm102.67 0l0 67.25 -21.53 0 0 -67.25 21.53 0zm12.51 0l81.39 0 0 17.15 -29.92 0 0 50.09 -21.53 0 0 -50.09 -29.95 0 0 -17.15z"/>
     <path class="fil2" d="M72.27 107.06l0 20.99 -6.17 0 0 -20.99 6.17 0zm33.51 0l0 20.99 -10.5 0 -11 -16.44 0 16.44 -6.2 0 0 -20.99 10.4 0 10.81 16.41 0 -16.41 6.48 0zm25.48 0l0 20.99 -6.17 0 0 -20.99 6.17 0zm29.14 0l0 4.68 -9.27 0 0 16.31 -6.61 0 0 -16.31 -9.11 0 0 -4.68 24.98 0zm39.8 0l0 4.68 -9.26 0 0 16.31 -6.61 0 0 -16.31 -9.11 0 0 -4.68 24.98 0zm30.69 6.33l0 8.1c0,2.15 -1,3.8 -2.99,4.93 -1.99,1.13 -4.23,1.69 -6.72,1.69 -0.17,0 -0.54,0 -1.12,0 -0.58,0 -1.07,0 -1.47,0 -2.34,0 -3.87,-0.01 -4.6,-0.01 -0.73,-0 -1.37,-0.05 -1.91,-0.05 -2.38,-0.02 -4.44,-0.59 -6.18,-1.77 -1.74,-1.18 -2.61,-2.78 -2.61,-4.81l0 -8.09c0,-1.83 0.9,-3.35 2.69,-4.54 1.79,-1.19 3.71,-1.79 5.75,-1.79l9.74 0c2.53,0 4.74,0.56 6.61,1.68 1.87,1.12 2.81,2.68 2.81,4.66zm-6.64 6.13l0 -3.82c0,-1.45 -0.39,-2.59 -1.17,-3.39 -0.78,-0.81 -2.06,-1.21 -3.82,-1.21l-5.25 0c-1.41,0 -2.46,0.39 -3.15,1.16 -0.68,0.78 -1.03,1.88 -1.03,3.28l0 3.97c0,1.36 0.34,2.43 1.01,3.19 0.67,0.75 1.73,1.13 3.16,1.13l5.25 0c1.79,0 3.08,-0.36 3.84,-1.07 0.77,-0.71 1.15,-1.8 1.15,-3.25zm38.98 1.19c0,2.95 -0.65,4.91 -1.94,5.87 -1.3,0.96 -3.15,1.44 -5.55,1.44 -1.03,0 -2.33,0.03 -3.89,0.1 -1.56,0.06 -2.35,0.1 -2.37,0.1 -5.21,0 -8.89,-0.56 -11.05,-1.68 -2.16,-1.12 -3.24,-3.33 -3.24,-6.64l0 -3.92c0,-3.73 1.04,-6.17 3.11,-7.32 2.07,-1.15 5.48,-1.72 10.2,-1.72l2.78 0c4.45,0 7.55,0.43 9.3,1.28 1.75,0.85 2.62,2.7 2.62,5.55l-6.55 0c0,-0.99 -0.26,-1.68 -0.79,-2.07 -0.53,-0.39 -1.48,-0.59 -2.85,-0.59l-6.39 0c-2.11,0 -3.42,0.39 -3.94,1.17 -0.52,0.78 -0.77,2.01 -0.77,3.7l0 4.01c0,1.87 0.44,3.01 1.31,3.4 0.87,0.39 2.96,0.58 6.24,0.58 2.55,0 4.41,-0.1 5.56,-0.28 1.16,-0.19 1.74,-1.28 1.74,-3.26l-8 0 0 -3.76 14.45 0 0 4.05zm26.71 2.88l0 4.46 -21.97 0 0 -20.99 21.82 0 0 4.65 -15.49 0 0 3.6 14.77 0 0 4.05 -14.77 0 0 4.24 15.65 0zm29.77 -16.54l0 4.68 -9.26 0 0 16.31 -6.61 0 0 -16.31 -9.11 0 0 -4.68 24.98 0zm32.7 0l0 20.99 -6.61 0 0 -8.41 -14.2 0 0 8.41 -6.51 0 0 -20.99 6.51 0 0 8.03 14.2 0 0 -8.03 6.61 0zm25.78 16.54l0 4.46 -21.97 0 0 -20.99 21.82 0 0 4.65 -15.49 0 0 3.6 14.77 0 0 4.05 -14.77 0 0 4.24 15.65 0zm19.52 -16.54c3.81,0 6.53,0.48 8.13,1.41 1.6,0.94 2.4,2.64 2.4,5.12 0,1.37 -0.49,2.59 -1.47,3.63 -0.98,1.04 -2.41,1.66 -4.28,1.85 1.81,0 3.17,0.37 4.05,1.11 0.88,0.73 1.33,1.79 1.33,3.13l0 4.74 -6.61 0 0 -4.08c0,-0.91 -0.38,-1.54 -1.14,-1.88 -0.75,-0.35 -1.89,-0.52 -3.38,-0.52l-8.22 0 0 6.48 -6.39 0 0 -20.99 15.59 0zm-0.98 9.99c1.81,0 3.06,-0.18 3.75,-0.53 0.68,-0.35 1.03,-1.06 1.03,-2.14 0,-1 -0.25,-1.69 -0.74,-2.08 -0.49,-0.39 -1.72,-0.59 -3.65,-0.59l-8.6 0 0 5.34 8.22 0z"/>
    </g>
    <path class="fil3" d="M441.74 38.36c0,-6.76 -5.48,-12.25 -12.25,-12.25 -6.76,0 -12.25,5.48 -12.25,12.25 0,6.76 5.48,12.25 12.25,12.25 6.76,0 12.25,-5.48 12.25,-12.25zm-7.55 -4c-0.71,-0.42 -1.9,-0.62 -3.58,-0.62l-6.87 0 0 9.25 2.81 0 0 -2.86 3.62 0c0.66,0 1.16,0.08 1.49,0.23 0.33,0.15 0.5,0.43 0.5,0.83l0 1.8 2.91 0 0 -2.09c0,-0.59 -0.2,-1.05 -0.58,-1.38 -0.39,-0.32 -0.98,-0.49 -1.78,-0.49 0.83,-0.08 1.46,-0.36 1.89,-0.82 0.43,-0.46 0.65,-0.99 0.65,-1.6 0,-1.09 -0.35,-1.84 -1.06,-2.25zm-3.84 1.42c0.85,0 1.39,0.09 1.61,0.26 0.22,0.17 0.33,0.48 0.33,0.92 0,0.48 -0.15,0.79 -0.45,0.94 -0.3,0.16 -0.85,0.23 -1.65,0.23l-3.62 0 0 -2.35 3.79 0zm-10.58 2.58c0,-5.37 4.36,-9.73 9.73,-9.73 5.37,0 9.73,4.36 9.73,9.73 0,5.37 -4.36,9.73 -9.73,9.73 -5.37,0 -9.73,-4.36 -9.73,-9.73z"/>
   </g>
   <rect class="fil4" x="-0" y="-0" width="478.95" height="154.33"/>
  </g>
 </g>
</svg>
