<?xml version="1.0" encoding="UTF-8"?>
<!DOCTYPE svg PUBLIC "-//W3C//DTD SVG 1.1//EN" "http://www.w3.org/Graphics/SVG/1.1/DTD/svg11.dtd">
<!-- Creator: CorelDRAW 2019 (64-Bit) -->
<svg xmlns="http://www.w3.org/2000/svg" xml:space="preserve" width="3.33333in" height="2.66666in" version="1.1" style="shape-rendering:geometricPrecision; text-rendering:geometricPrecision; image-rendering:optimizeQuality; fill-rule:evenodd; clip-rule:evenodd"
viewBox="0 0 3333.33 2666.66"
 xmlns:xlink="http://www.w3.org/1999/xlink">
 <defs>
  <style type="text/css">
   <![CDATA[
    .fil0 {fill:none}
    .fil3 {fill:#98AEA2}
    .fil1 {fill:url(#id0)}
    .fil2 {fill:url(#id1)}
   ]]>
  </style>
  <linearGradient id="id0" gradientUnits="userSpaceOnUse" x1="1702.68" y1="1736.34" x2="1716.93" y2="763.37">
   <stop offset="0" style="stop-opacity:1; stop-color:#B5846E"/>
   <stop offset="0.458824" style="stop-opacity:1; stop-color:#ECD1B4"/>
   <stop offset="1" style="stop-opacity:1; stop-color:#B5846E"/>
  </linearGradient>
  <linearGradient id="id1" gradientUnits="userSpaceOnUse" x1="1755.5" y1="1957.3" x2="1755.5" y2="1601.22">
   <stop offset="0" style="stop-opacity:1; stop-color:#414D47"/>
   <stop offset="0.380392" style="stop-opacity:1; stop-color:#54675D"/>
   <stop offset="0.658824" style="stop-opacity:1; stop-color:#727978"/>
   <stop offset="0.768627" style="stop-opacity:1; stop-color:#54675D"/>
   <stop offset="1" style="stop-opacity:1; stop-color:#414D47"/>
  </linearGradient>
 </defs>
 <g id="Layer_x0020_1">
  <metadata id="CorelCorpID_0Corel-Layer"/>
  <g id="_992145584">
   <rect class="fil0" x="901.15" y="539.27" width="1617.46" height="1617.46"/>
   <path class="fil1" d="M1533.94 1666.26l0 63.13 47.87 0 0 -57.75 0 -0.08c0.04,-1.72 0.05,-3.45 0,-5.16l0 -0.09 0 -0.05c-0.11,-4.3 -0.48,-8.59 -1.12,-12.83l0 -0c-4.56,-30.47 -22.46,-58.65 -51.2,-75.25 -107.81,-62.37 -180.33,-178.94 -180.33,-312.45 0,-199.23 161.5,-360.73 360.73,-360.73 199.22,0 360.73,161.5 360.73,360.73 0,133.51 -72.53,250.08 -180.33,312.45 -11.44,6.6 -15.35,21.23 -8.76,32.67 6.61,11.43 21.23,15.35 32.67,8.75l0.01 0.01c122.09,-70.64 204.24,-202.66 204.24,-353.87 0,-225.64 -182.91,-408.56 -408.55,-408.56 -225.64,0 -408.56,182.91 -408.56,408.56 0,151.21 82.14,283.23 204.24,353.87l0 0 0.52 0.3c17.11,10.12 27,27.84 27.85,46.37zm-82.57 48.73l0 0c8.24,4.76 18.87,1.91 23.63,-6.33l18.89 -32.71c4.76,-8.25 1.91,-18.88 -6.33,-23.64l-0 -0c-8.24,-4.76 -18.87,-1.91 -23.63,6.33l-18.89 32.72c-4.76,8.24 -1.91,18.87 6.33,23.63zm-189.24 -189.24l0 0.01c4.76,8.24 15.39,11.09 23.63,6.33l32.72 -18.89c8.24,-4.76 11.09,-15.39 6.33,-23.64l-0 -0c-4.76,-8.24 -15.39,-11.09 -23.64,-6.33l-32.71 18.89c-8.25,4.76 -11.09,15.39 -6.33,23.63zm-69.26 -258.51l0 0c0,9.52 7.78,17.3 17.3,17.3l37.78 0c9.52,0 17.3,-7.78 17.3,-17.3l0 -0c0,-9.52 -7.78,-17.3 -17.3,-17.3l-37.78 0c-9.52,0 -17.3,7.78 -17.3,17.3zm69.26 -258.51l0 0c-4.76,8.24 -1.91,18.87 6.33,23.64l32.72 18.89c8.24,4.76 18.87,1.91 23.63,-6.33l0 -0.01c4.76,-8.24 1.91,-18.87 -6.33,-23.63l-32.71 -18.89c-8.25,-4.76 -18.88,-1.91 -23.64,6.33zm964.77 258.51l0 0c0,9.52 -7.78,17.3 -17.3,17.3l-37.78 0c-9.52,0 -17.3,-7.78 -17.3,-17.3l0 -0c0,-9.52 7.78,-17.3 17.3,-17.3l37.78 0c9.52,0 17.3,7.78 17.3,17.3zm-69.27 -258.51l0 0.01c4.76,8.24 1.91,18.87 -6.33,23.63l-32.72 18.89c-8.24,4.76 -18.87,1.91 -23.63,-6.33l-0 -0c-4.76,-8.24 -1.91,-18.87 6.33,-23.63l32.71 -18.89c8.25,-4.76 18.88,-1.91 23.64,6.33zm0 517.02l-0 0c-4.76,8.24 -15.39,11.09 -23.63,6.33l-32.72 -18.89c-8.24,-4.76 -11.09,-15.39 -6.33,-23.63l0 -0.01c4.76,-8.24 15.39,-11.09 23.64,-6.33l32.71 18.89c8.25,4.76 11.09,15.39 6.33,23.63zm-189.24 189.24l-0 0c-8.25,4.76 -18.88,1.91 -23.64,-6.33l-18.89 -32.72c-4.76,-8.24 -1.91,-18.87 6.33,-23.63l0 -0c8.25,-4.76 18.88,-1.91 23.64,6.33l18.89 32.72c4.76,8.24 1.91,18.87 -6.33,23.63zm0 -895.51l0 0c8.24,4.76 11.09,15.39 6.33,23.63l-18.89 32.72c-4.76,8.24 -15.39,11.09 -23.63,6.33l-0.01 -0c-8.24,-4.76 -11.09,-15.39 -6.33,-23.63l18.89 -32.72c4.76,-8.24 15.39,-11.09 23.64,-6.33zm-258.51 -69.27l0.01 0c9.52,0 17.3,7.78 17.3,17.3l0 37.78c0,9.52 -7.78,17.3 -17.3,17.3l-0.01 0c-9.52,0 -17.3,-7.78 -17.3,-17.3l0 -37.78c0,-9.52 7.78,-17.3 17.3,-17.3zm-258.51 69.27l-0 0c-8.25,4.76 -11.09,15.39 -6.33,23.63l18.89 32.72c4.76,8.24 15.39,11.09 23.63,6.33l0 -0c8.25,-4.76 11.09,-15.39 6.33,-23.64l-18.89 -32.71c-4.76,-8.25 -15.39,-11.09 -23.63,-6.33zm130.44 852.07l0 -5.16 0 5.16z"/>
   <path class="fil2" d="M1651.91 1642.05l214.43 0c13.16,0 23.94,10.77 23.94,23.94l0 131.96 0 31.55c0,43.7 -35.74,79.43 -79.43,79.43l-23.14 0c0,20.35 -33.85,36.84 -75.6,36.84 -41.75,0 -75.59,-16.49 -75.59,-36.84l-23.14 0c-43.69,0 -79.43,-35.74 -79.43,-79.43l0 -31.55 0 -47.89 228.27 0c13.18,0 23.94,10.77 23.94,23.94l0 0c0,13.18 -10.76,23.95 -23.94,23.95l-180.38 0 0 31.55c0,17.26 14.28,31.55 31.54,31.55l197.47 0c17.26,0 31.54,-14.29 31.54,-31.55l0 -31.55 0 -108.02 -190.48 0c-13.16,0 -23.94,-10.77 -23.94,-23.94l0 0c0,-13.17 10.78,-23.94 23.94,-23.94z"/>
   <path class="fil3" d="M1695.06 999.55c0,-31.8 -25.78,-57.59 -57.59,-57.59 -28.4,0 -51.99,20.56 -56.72,47.6 -8.29,-3.04 -17.25,-4.69 -26.59,-4.69 -42.77,0 -77.43,34.67 -77.43,77.44 0,9.15 1.59,17.93 4.5,26.08 -0.11,0 -0.22,0 -0.33,0 -48.44,0 -87.7,39.26 -87.7,87.7 0,22.26 8.3,42.59 21.96,58.06 -22.23,10.54 -37.61,33.19 -37.61,59.44 0,30.85 21.23,56.72 49.88,63.82 -7.31,12.64 -11.5,27.31 -11.5,42.97 0,43.93 32.95,80.16 75.49,85.32 0.08,36.24 29.48,65.59 65.74,65.59 8.71,0 17.03,-1.69 24.64,-4.77 6.48,24.71 28.96,42.93 55.7,42.93 31.81,0 57.59,-25.78 57.59,-57.59l0 -129.88 0 -95.09c0,-8.23 -6.73,-14.96 -14.96,-14.96l-0 0c-8.23,0 -14.96,6.73 -14.96,14.96l0 44.36c-8.31,-4.61 -17.87,-7.23 -28.05,-7.23 -19.58,0 -36.89,9.71 -47.38,24.57l-0.1 0.13 0 0 -0.13 0.17c-4.72,6.78 -3.05,16.11 3.73,20.83 6.78,4.72 16.11,3.05 20.83,-3.73 5.07,-7.29 13.5,-12.06 23.05,-12.06 15.49,0 28.05,12.56 28.05,28.05l0 129.88 0 0c0,15.28 -12.39,27.67 -27.67,27.67 -15.28,0 -27.67,-12.39 -27.67,-27.67 0,-5.71 1.73,-11.03 4.7,-15.44 4.61,-6.85 2.8,-16.15 -4.05,-20.76 -6.85,-4.61 -16.15,-2.8 -20.76,4.05 -1.76,2.62 -3.32,5.39 -4.64,8.29 -6.57,8.15 -16.63,13.37 -27.92,13.37 -19.79,0 -35.83,-16.04 -35.83,-35.83 0,-0.48 0.01,-0.96 0.03,-1.43 0.47,-12.11 6.95,-22.67 16.54,-28.8 6.96,-4.44 9,-13.69 4.56,-20.66 -4.45,-6.96 -13.7,-9 -20.66,-4.56l-0.13 0.08c-9.97,6.41 -18.1,15.43 -23.41,26.11 -29.26,-1.87 -52.42,-26.19 -52.42,-55.93 0,-21.2 11.78,-39.67 29.16,-49.19 7.25,-3.97 9.91,-13.06 5.93,-20.31 -3.97,-7.25 -13.06,-9.9 -20.31,-5.93l-0.27 0.15c-5.07,2.76 -10.89,4.32 -17.07,4.32 -19.79,0 -35.83,-16.04 -35.83,-35.83 0,-19.79 16.04,-35.83 35.83,-35.83 2.7,0 5.33,0.3 7.85,0.86 2.09,0.47 4.12,1.12 6.06,1.94 7.54,2.11 15.48,3.24 23.7,3.24 6.81,0 13.45,-0.78 19.82,-2.24 6.25,-1.44 12.24,-3.56 17.9,-6.26 7.46,-3.56 10.62,-12.49 7.06,-19.94 -3.56,-7.46 -12.49,-10.62 -19.94,-7.06l-0.13 0.06c-7.49,3.55 -15.87,5.54 -24.7,5.54 -4.92,0 -9.7,-0.62 -14.26,-1.77 -2.28,-0.58 -4.5,-1.29 -6.65,-2.13 -21.58,-8.38 -36.87,-29.35 -36.87,-53.89 0,-31.91 25.87,-57.79 57.79,-57.79 19.35,0 36.48,9.51 46.97,24.11l-0.18 -0.25 0.19 0.26 0.04 0.05c4.81,6.72 14.16,8.26 20.87,3.46 6.72,-4.81 8.26,-14.16 3.45,-20.87 -6.61,-9.23 -14.98,-17.13 -24.61,-23.2 -12.71,-8.52 -21.03,-23.06 -20.98,-39.55 0,-11.72 4.24,-22.46 11.28,-30.74 8.71,-10.27 21.7,-16.78 36.24,-16.78 20.89,0 38.63,13.48 45,32.21 2.66,7.82 11.16,12.01 18.98,9.35 7.82,-2.66 12.01,-11.16 9.35,-18.98l-0.02 -0.06c-3.3,-9.69 -8.47,-18.51 -15.07,-26.04 -1.67,-3.56 -2.6,-7.53 -2.6,-11.72 0,-15.28 12.39,-27.67 27.67,-27.67 15.28,0 27.67,12.39 27.67,27.67l0.03 0 0 192.12 0 0c0,15.49 -12.56,28.05 -28.05,28.05 -3.63,0 -7.1,-0.69 -10.28,-1.94 -7.69,-3.03 -16.37,0.74 -19.41,8.43 -3.04,7.69 0.74,16.38 8.43,19.41l0.05 0.02c6.57,2.58 13.72,4 21.21,4 32.02,0 57.97,-25.95 57.97,-57.97l0 -192.12 -0.04 0zm-234.79 325.6l0.02 -0.01 -0.28 0.17 0.26 -0.15zm-0.31 0.19c-3.31,2.04 -5.57,5.19 -6.55,8.7 0.98,-3.52 3.23,-6.68 6.55,-8.7zm43.2 -95.49c0.2,-0.15 0.4,-0.29 0.6,-0.43l-0.6 0.43z"/>
   <path class="fil3" d="M1724.69 1531.87c0,31.81 25.78,57.59 57.59,57.59 28.4,0 51.99,-20.55 56.72,-47.59 8.29,3.03 17.25,4.69 26.59,4.69 42.77,0 77.43,-34.67 77.43,-77.43 0,-9.15 -1.59,-17.93 -4.5,-26.08 0.11,0 0.22,0 0.33,0 48.44,0 87.7,-39.26 87.7,-87.7 0,-22.26 -8.3,-42.59 -21.96,-58.06 22.23,-10.54 37.61,-33.19 37.61,-59.44 0,-30.84 -21.23,-56.72 -49.88,-63.82 7.31,-12.64 11.5,-27.31 11.5,-42.97 0,-43.93 -32.95,-80.17 -75.49,-85.33 -0.08,-36.24 -29.48,-65.59 -65.74,-65.59 -8.71,0 -17.03,1.69 -24.64,4.77 -6.48,-24.71 -28.96,-42.94 -55.7,-42.94 -31.81,0 -57.59,25.78 -57.59,57.59l0 129.88 0 95.09c0,8.23 6.73,14.96 14.96,14.96l0 0c8.23,0 14.96,-6.73 14.96,-14.96l0 -44.35c8.31,4.6 17.87,7.23 28.05,7.23 19.58,0 36.89,-9.7 47.38,-24.57l0.1 -0.14 0 0 0.13 -0.18c4.72,-6.78 3.05,-16.1 -3.73,-20.82 -6.78,-4.72 -16.11,-3.05 -20.83,3.73 -5.07,7.29 -13.5,12.06 -23.05,12.06 -15.49,0 -28.05,-12.56 -28.05,-28.05l0 -129.88 -0 0c0,-15.28 12.39,-27.67 27.67,-27.67 15.28,0 27.67,12.39 27.67,27.67 0,5.72 -1.73,11.03 -4.7,15.44 -4.61,6.85 -2.8,16.15 4.05,20.76 6.85,4.61 16.15,2.8 20.76,-4.06 1.76,-2.61 3.32,-5.39 4.64,-8.29 6.57,-8.15 16.63,-13.37 27.92,-13.37 19.79,0 35.83,16.04 35.83,35.83 0,0.48 -0.01,0.96 -0.03,1.43 -0.47,12.11 -6.95,22.67 -16.54,28.8 -6.96,4.44 -9,13.69 -4.56,20.66 4.45,6.96 13.7,9 20.66,4.56l0.13 -0.09c9.97,-6.41 18.1,-15.43 23.41,-26.11 29.26,1.87 52.42,26.19 52.42,55.93 0,21.2 -11.78,39.67 -29.16,49.19 -7.25,3.97 -9.91,13.06 -5.93,20.31 3.97,7.25 13.06,9.91 20.31,5.94l0.27 -0.15c5.07,-2.75 10.89,-4.32 17.07,-4.32 19.79,0 35.83,16.04 35.83,35.83 0,19.79 -16.04,35.83 -35.83,35.83 -2.7,0 -5.33,-0.3 -7.85,-0.87 -2.09,-0.46 -4.12,-1.12 -6.06,-1.93 -7.54,-2.11 -15.48,-3.24 -23.7,-3.24 -6.81,0 -13.45,0.78 -19.82,2.25 -6.25,1.44 -12.24,3.56 -17.9,6.26 -7.46,3.56 -10.62,12.49 -7.06,19.95 3.56,7.46 12.49,10.62 19.94,7.06l0.13 -0.06c7.49,-3.55 15.87,-5.54 24.7,-5.54 4.92,0 9.7,0.61 14.26,1.77 2.28,0.58 4.5,1.29 6.65,2.13 21.58,8.38 36.87,29.35 36.87,53.89 0,31.91 -25.87,57.79 -57.79,57.79 -19.35,0 -36.48,-9.51 -46.97,-24.11l0.18 0.25 -0.19 -0.26 -0.04 -0.06c-4.81,-6.72 -14.16,-8.26 -20.87,-3.45 -6.72,4.81 -8.26,14.16 -3.45,20.87 6.61,9.23 14.98,17.13 24.61,23.2 12.71,8.52 21.03,23.06 20.98,39.56 0,11.72 -4.24,22.46 -11.28,30.74 -8.71,10.28 -21.7,16.78 -36.24,16.78 -20.89,0 -38.63,-13.48 -45,-32.21 -2.66,-7.82 -11.16,-12.01 -18.98,-9.35 -7.82,2.67 -12.01,11.16 -9.35,18.98l0.02 0.06c3.3,9.68 8.47,18.5 15.07,26.04 1.67,3.56 2.6,7.53 2.6,11.72 0,15.28 -12.39,27.67 -27.67,27.67 -15.28,0 -27.67,-12.39 -27.67,-27.67l-0.03 0 0 -192.12 -0 0c0,-15.49 12.56,-28.05 28.05,-28.05 3.63,0 7.1,0.69 10.28,1.94 7.69,3.03 16.37,-0.74 19.41,-8.43 3.04,-7.69 -0.74,-16.38 -8.43,-19.41l-0.05 -0.02c-6.57,-2.59 -13.72,-4 -21.21,-4 -32.02,0 -57.97,25.95 -57.97,57.97l0 192.12 0.04 0zm234.79 -325.6l-0.02 0.01 0.28 -0.17 -0.26 0.15zm0.31 -0.19c3.31,-2.04 5.57,-5.19 6.55,-8.7 -0.98,3.52 -3.23,6.67 -6.55,8.7zm-43.2 95.49c-0.2,0.15 -0.4,0.29 -0.6,0.43l0.6 -0.43z"/>
  </g>
 </g>
</svg>
