<?xml version="1.0" encoding="UTF-8"?>
<!DOCTYPE svg PUBLIC "-//W3C//DTD SVG 1.1//EN" "http://www.w3.org/Graphics/SVG/1.1/DTD/svg11.dtd">
<!-- Creator: CorelDRAW 2019 (64-Bit) -->
<svg xmlns="http://www.w3.org/2000/svg" xml:space="preserve" width="3.33333in" height="2.66666in" version="1.1" style="shape-rendering:geometricPrecision; text-rendering:geometricPrecision; image-rendering:optimizeQuality; fill-rule:evenodd; clip-rule:evenodd"
viewBox="0 0 3333.33 2666.66"
 xmlns:xlink="http://www.w3.org/1999/xlink">
 <defs>
  <style type="text/css">
   <![CDATA[
    .fil0 {fill:none}
    .fil5 {fill:#494949}
    .fil6 {fill:#566A61}
    .fil4 {fill:url(#id0)}
    .fil2 {fill:url(#id1)}
    .fil3 {fill:url(#id2)}
    .fil7 {fill:url(#id3)}
    .fil1 {fill:url(#id4)}
   ]]>
  </style>
  <linearGradient id="id0" gradientUnits="userSpaceOnUse" x1="1905.04" y1="1213.7" x2="1905.04" y2="775.85">
   <stop offset="0" style="stop-opacity:1; stop-color:#414D47"/>
   <stop offset="0.380392" style="stop-opacity:1; stop-color:#54675D"/>
   <stop offset="0.658824" style="stop-opacity:1; stop-color:#727978"/>
   <stop offset="0.768627" style="stop-opacity:1; stop-color:#54675D"/>
   <stop offset="1" style="stop-opacity:1; stop-color:#414D47"/>
  </linearGradient>
  <linearGradient id="id1" gradientUnits="userSpaceOnUse" xlink:href="#id0" x1="1474.95" y1="1927.73" x2="1474.95" y2="821.54">
  </linearGradient>
  <linearGradient id="id2" gradientUnits="userSpaceOnUse" xlink:href="#id0" x1="1528.59" y1="889.11" x2="1724.26" y2="795.24">
  </linearGradient>
  <linearGradient id="id3" gradientUnits="userSpaceOnUse" xlink:href="#id0" x1="1659.68" y1="1834.74" x2="1659.68" y2="1625.6">
  </linearGradient>
  <linearGradient id="id4" gradientUnits="userSpaceOnUse" x1="1523.1" y1="1842.55" x2="1532.13" y2="791.26">
   <stop offset="0" style="stop-opacity:1; stop-color:#B5846E"/>
   <stop offset="0.631373" style="stop-opacity:1; stop-color:#ECD1B4"/>
   <stop offset="1" style="stop-opacity:1; stop-color:#B5846E"/>
  </linearGradient>
 </defs>
 <g id="Layer_x0020_1">
  <metadata id="CorelCorpID_0Corel-Layer"/>
  <g id="_992182352">
   <polygon class="fil0" points="857.93,524.61 2475.39,524.61 2475.39,2142.06 857.93,2142.06 "/>
   <path class="fil1" d="M1268.89 892.59l114.46 0 0 117.57 -114.46 0 0 -117.57zm134.37 0l114.46 0 0 117.57 -114.46 0 0 -117.57zm134.36 0l114.46 0 0 117.57 -114.46 0 0 -117.57zm134.37 0l114.46 0 0 117.57 -114.46 0 0 -117.57zm114.46 137.48l0 117.57 -114.46 0 0 -117.57 114.46 0zm0 137.48l0 21.78 -71.16 0 -43.3 43.3 0 -65.08 114.46 0zm-161.07 667.48l-87.76 0 0 -117.57 12.56 0c-0.48,4.19 -0.74,8.46 -0.74,12.78 0,48.9 31.85,90.36 75.94,104.79zm-107.67 0l-114.46 0 0 -117.57 114.46 0 0 117.57zm-134.36 0l-114.46 0 0 -117.57 114.46 0 0 117.57zm-114.46 -137.48l0 -117.57 114.46 0 0 117.57 -114.46 0zm0 -137.48l0 -117.57 114.46 0 0 117.57 -114.46 0zm0 -137.48l0 -117.57 114.46 0 0 117.57 -114.46 0zm0 -137.48l0 -117.57 114.46 0 0 117.57 -114.46 0zm0 -137.48l0 -117.57 114.46 0 0 117.57 -114.46 0zm305.18 513.11l0 -56.98 0 -23.8 -36.45 0 0 117.57 16.75 0c4.21,-13.56 10.96,-26 19.7,-36.76l0 -0.04zm-56.36 36.8l0 -117.57 -114.46 0 0 117.57 114.46 0zm56.36 -255.05l-36.45 0 0 117.57 36.45 0 0 -117.57zm-56.36 117.57l0 -117.57 -114.46 0 0 117.57 114.46 0zm81.87 -255.05l-61.96 0 0 117.57 36.45 0 0 -92.06 25.51 -25.51zm-81.87 117.57l0 -117.57 -114.46 0 0 117.57 114.46 0zm134.37 -170.07l0 -84.98 -114.46 0 0 117.57 81.87 0 32.59 -32.59zm-134.37 32.59l0 -117.57 -114.46 0 0 117.57 114.46 0zm134.37 -137.48l0 -117.57 -114.46 0 0 117.57 114.46 0zm-134.37 0l0 -117.57 -114.46 0 0 117.57 114.46 0z"/>
   <path class="fil2" d="M1260.81 883.89l19.9 0 114.46 0 19.91 0 114.46 0 19.9 0 114.46 0 19.91 0 114.46 0 19.91 0 0 19.9 0 117.57 0 19.91 0 117.57 0 19.91 0 10.58 -19.91 0 0 -10.58 -114.46 0 0 42.06 -19.91 19.9 0 -61.96 -114.46 0 0 117.57 58.85 0 -19.91 19.9 -38.95 0 0 117.57 24.63 0 0 19.91 -24.63 0 0 117.57 24.63 0 0 19.91 -24.63 0 0 117.57 2.1 0c-1.28,6.45 -1.98,13.1 -2.08,19.91l-0.02 0 0 1.59 0 115.99 76.87 0 0 19.9 -494.57 0 0 -19.9 129.08 0 0 -117.57 0 -19.91 0 -117.57 0 -19.91 0 -117.57 0 -19.91 0 -117.57 0 -19.9 0 -117.57 0 -19.91 0 -117.57 0 -19.91 0 -117.57 0 -19.9zm268.73 962.34l0 -117.57 -114.46 0 0 117.57 114.46 0zm-134.37 0l0 -117.57 -114.46 0 0 117.57 114.46 0zm134.37 -137.48l0 -117.57 -114.46 0 0 117.57 114.46 0zm-134.37 0l0 -117.57 -114.46 0 0 117.57 114.46 0zm134.37 -137.48l0 -117.57 -114.46 0 0 117.57 114.46 0zm-134.37 0l0 -117.57 -114.46 0 0 117.57 114.46 0zm134.37 -137.48l0 -117.57 -114.46 0 0 117.57 114.46 0zm-134.37 0l0 -117.57 -114.46 0 0 117.57 114.46 0zm134.37 -137.48l0 -117.57 -114.46 0 0 117.57 114.46 0zm-134.37 0l0 -117.57 -114.46 0 0 117.57 114.46 0zm403.09 -137.48l0 -117.57 -114.46 0 0 117.57 114.46 0zm-134.37 0l0 -117.57 -114.46 0 0 117.57 114.46 0zm-134.36 0l0 -117.57 -114.46 0 0 117.57 114.46 0zm-134.37 0l0 -117.57 -114.46 0 0 117.57 114.46 0zm403.09 -137.48l0 -117.57 -114.46 0 0 117.57 114.46 0zm-134.37 0l0 -117.57 -114.46 0 0 117.57 114.46 0zm-134.36 0l0 -117.57 -114.46 0 0 117.57 114.46 0zm-134.37 0l0 -117.57 -114.46 0 0 117.57 114.46 0z"/>
   <polygon class="fil3" points="1260.81,883.89 1818.17,883.89 1991.91,800.53 1434.55,800.53 "/>
   <polygon class="fil4" points="1818.17,1189.33 1818.17,883.89 1991.91,800.53 1991.91,1189.33 "/>
   <path class="fil5" d="M1574.07 1330.54l141.22 -141.21 328.85 0 0 158.38 -19.34 17.86 0 -156.9 -301.5 0 -0.55 129.88 -129.33 0 0 303.56c-7.18,5.41 -13.68,11.68 -19.35,18.65l0 -330.22zm470.07 51.4l0 424.47 -304.74 0c5.61,-5.87 10.57,-12.35 14.78,-19.34l270.61 0 0 -387.27 19.34 -17.86zm-431.38 -62.73l90.85 -90.85 -0.2 90.85 -90.65 0z"/>
   <path class="fil5" d="M1629.22 1390.51l345.3 0c5.32,0 9.67,-4.35 9.67,-9.67l0 0c0,-5.32 -4.35,-9.67 -9.67,-9.67l-345.3 0c-5.32,0 -9.67,4.35 -9.67,9.67l0 0c0,5.32 4.35,9.67 9.67,9.67z"/>
   <path class="fil5" d="M1629.22 1461.11l292.09 0 20.95 -19.34 -313.05 0c-5.32,0 -9.67,4.35 -9.67,9.67l0 0c0,5.32 4.35,9.67 9.67,9.67zm329.17 0l16.13 0c5.32,0 9.67,-4.35 9.67,-9.67l0 0c0,-3.93 -2.37,-7.32 -5.76,-8.83l-20.05 18.51z"/>
   <path class="fil5" d="M1629.22 1531.72l215.63 0 20.95 -19.34 -236.57 0c-5.32,0 -9.67,4.35 -9.67,9.67l0 0c0,5.32 4.35,9.67 9.67,9.67zm252.7 0l92.6 0c5.32,0 9.67,-4.35 9.67,-9.67l0 0c0,-5.32 -4.35,-9.67 -9.67,-9.67l-71.65 0 -20.95 19.34z"/>
   <path class="fil5" d="M1629.21 1602.33l345.3 0c5.32,0 9.67,-4.35 9.67,-9.67l0 0c0,-5.32 -4.35,-9.67 -9.67,-9.67l-345.3 0c-5.32,0 -9.67,4.35 -9.67,9.67l0 0c0,5.32 4.35,9.67 9.67,9.67z"/>
   <polygon class="fil5" points="2142.6,1267.83 2159.66,1286.3 1866.88,1556.63 1839.7,1573.17 1812.52,1589.71 1831.17,1563.93 1849.82,1538.15 "/>
   <polygon class="fil6" points="2147.93,1262.91 2164.99,1281.39 2201.59,1247.59 2184.53,1229.12 "/>
   <path class="fil5" d="M2024.8 1249.06l71.57 0 0 50.43 -19.35 17.86 0 -48.95 -52.23 0 0 -19.34zm71.57 84.66l0 532.42 -450.72 0 -19.34 0 0 -30.04c6.23,1.96 12.69,3.39 19.34,4.23l0 6.46 431.38 0 0 -495.22 19.35 -17.86z"/>
   <path class="fil7" d="M1659.68 1637.39c51.28,0 92.85,41.57 92.85,92.85 0,51.28 -41.57,92.85 -92.85,92.85 -51.28,0 -92.85,-41.57 -92.85,-92.85 0,-51.28 41.57,-92.85 92.85,-92.85zm-55.2 93.08l16.29 -16.29 25.79 25.8 52.04 -52.04 16.29 16.29 -52.04 52.04 -16.29 16.29 -16.29 -16.29 -25.79 -25.79z"/>
  </g>
 </g>
</svg>
