<?xml version="1.0" encoding="UTF-8"?>
<!DOCTYPE svg PUBLIC "-//W3C//DTD SVG 1.1//EN" "http://www.w3.org/Graphics/SVG/1.1/DTD/svg11.dtd">
<!-- Creator: CorelDRAW 2019 (64-Bit) -->
<svg xmlns="http://www.w3.org/2000/svg" xml:space="preserve" width="2.66667in" height="2in" version="1.1" style="shape-rendering:geometricPrecision; text-rendering:geometricPrecision; image-rendering:optimizeQuality; fill-rule:evenodd; clip-rule:evenodd"
viewBox="0 0 4067.51 3050.64"
 xmlns:xlink="http://www.w3.org/1999/xlink">
 <defs>
  <style type="text/css">
   <![CDATA[
    .fil22 {fill:none}
    .fil11 {fill:#999999}
    .fil8 {fill:#E2E9DB}
    .fil2 {fill:url(#id2)}
    .fil10 {fill:url(#id3)}
    .fil3 {fill:url(#id4)}
    .fil17 {fill:url(#id5)}
    .fil0 {fill:url(#id6)}
    .fil6 {fill:url(#id7)}
    .fil1 {fill:url(#id8)}
    .fil4 {fill:url(#id9)}
    .fil15 {fill:url(#id10)}
    .fil16 {fill:url(#id11)}
    .fil21 {fill:url(#id12)}
    .fil13 {fill:url(#id13)}
    .fil9 {fill:url(#id14)}
    .fil7 {fill:url(#id15)}
    .fil5 {fill:url(#id16)}
    .fil18 {fill:url(#id17)}
    .fil14 {fill:url(#id18)}
    .fil19 {fill:url(#id19)}
    .fil20 {fill:url(#id20);fill-rule:nonzero}
    .fil12 {fill:url(#id21);fill-rule:nonzero}
   ]]>
  </style>
     <mask id="id0">
  <linearGradient id="id1" gradientUnits="userSpaceOnUse" x1="2057.6" y1="1809.45" x2="2057.62" y2="2032.03">
   <stop offset="0" style="stop-opacity:1; stop-color:white"/>
   <stop offset="1" style="stop-opacity:0; stop-color:white"/>
  </linearGradient>
      <rect style="fill:url(#id1)" x="2009.92" y="1226.16" width="47.68" height="805.87"/>
     </mask>
  <linearGradient id="id2" gradientUnits="userSpaceOnUse" x1="2006.91" y1="531.06" x2="2057.51" y2="531.06">
   <stop offset="0" style="stop-opacity:1; stop-color:#414D47"/>
   <stop offset="0.380392" style="stop-opacity:1; stop-color:#54675D"/>
   <stop offset="0.658824" style="stop-opacity:1; stop-color:#727978"/>
   <stop offset="0.768627" style="stop-opacity:1; stop-color:#54675D"/>
   <stop offset="1" style="stop-opacity:1; stop-color:#414D47"/>
  </linearGradient>
  <linearGradient id="id3" gradientUnits="userSpaceOnUse" x1="521.12" y1="1449.36" x2="1850.01" y2="622.89">
   <stop offset="0" style="stop-opacity:1; stop-color:#BBC0A0"/>
   <stop offset="1" style="stop-opacity:1; stop-color:#DAE2D2"/>
  </linearGradient>
  <linearGradient id="id4" gradientUnits="userSpaceOnUse" xlink:href="#id2" x1="2009.3" y1="1697.15" x2="2057.6" y2="1697.15">
  </linearGradient>
  <linearGradient id="id5" gradientUnits="userSpaceOnUse" x1="3687.21" y1="1408.81" x2="2759.14" y2="783.96">
   <stop offset="0" style="stop-opacity:1; stop-color:#A1A97D"/>
   <stop offset="1" style="stop-opacity:1; stop-color:#BBC0A0"/>
  </linearGradient>
  <linearGradient id="id6" gradientUnits="userSpaceOnUse" x1="1815.93" y1="1296.02" x2="1666.72" y2="1861.7">
   <stop offset="0" style="stop-opacity:1; stop-color:#7F885C"/>
   <stop offset="1" style="stop-opacity:1; stop-color:#BBC0A0"/>
  </linearGradient>
  <linearGradient id="id7" gradientUnits="userSpaceOnUse" xlink:href="#id3" x1="615.43" y1="2318.78" x2="512.11" y2="982.5">
  </linearGradient>
  <linearGradient id="id8" gradientUnits="userSpaceOnUse" xlink:href="#id6" x1="2347.09" y1="1296.02" x2="2197.89" y2="1861.7">
  </linearGradient>
  <linearGradient id="id9" gradientUnits="userSpaceOnUse" xlink:href="#id6" x1="1196.53" y1="1314.4" x2="1118.26" y2="1867.61">
  </linearGradient>
  <linearGradient id="id10" gradientUnits="userSpaceOnUse" xlink:href="#id6" x1="2857.69" y1="1314.4" x2="2779.42" y2="1867.61">
  </linearGradient>
  <linearGradient id="id11" gradientUnits="userSpaceOnUse" xlink:href="#id6" x1="3416.16" y1="1426.61" x2="3371.73" y2="1764.52">
  </linearGradient>
  <linearGradient id="id12" gradientUnits="userSpaceOnUse" xlink:href="#id2" x1="457.4" y1="2676.27" x2="457.4" y2="2411.5">
  </linearGradient>
  <linearGradient id="id13" gradientUnits="userSpaceOnUse" xlink:href="#id2" x1="1828.55" y1="1055.01" x2="1828.55" y2="962.17">
  </linearGradient>
  <linearGradient id="id14" gradientUnits="userSpaceOnUse" xlink:href="#id3" x1="1241.52" y1="1202.65" x2="2471.58" y2="655.59">
  </linearGradient>
  <linearGradient id="id15" gradientUnits="userSpaceOnUse" xlink:href="#id3" x1="510.82" y1="1501.16" x2="991.25" y2="1335.84">
  </linearGradient>
  <linearGradient id="id16" gradientUnits="userSpaceOnUse" xlink:href="#id6" x1="634.93" y1="1426.61" x2="590.5" y2="1764.52">
  </linearGradient>
  <linearGradient id="id17" gradientUnits="userSpaceOnUse" xlink:href="#id3" x1="2898.77" y1="1501.16" x2="3379.2" y2="1335.84">
  </linearGradient>
  <linearGradient id="id18" gradientUnits="userSpaceOnUse" xlink:href="#id2" x1="1828.53" y1="880" x2="1828.53" y2="728.12">
  </linearGradient>
  <linearGradient id="id19" gradientUnits="userSpaceOnUse" x1="2167.8" y1="1353.13" x2="3337.61" y2="412.77">
   <stop offset="0" style="stop-opacity:1; stop-color:#A1A97D"/>
   <stop offset="1" style="stop-opacity:1; stop-color:#DAE2D2"/>
  </linearGradient>
  <linearGradient id="id20" gradientUnits="userSpaceOnUse" x1="1110.13" y1="2372.62" x2="1115.7" y2="2068.84">
   <stop offset="0" style="stop-opacity:1; stop-color:#B5846E"/>
   <stop offset="0.458824" style="stop-opacity:1; stop-color:#ECD1B4"/>
   <stop offset="1" style="stop-opacity:1; stop-color:#B5846E"/>
  </linearGradient>
  <linearGradient id="id21" gradientUnits="userSpaceOnUse" x1="1914.73" y1="1009.65" x2="1915.28" y2="835.39">
   <stop offset="0" style="stop-opacity:1; stop-color:#B5846E"/>
   <stop offset="0.619608" style="stop-opacity:1; stop-color:#ECD1B4"/>
   <stop offset="1" style="stop-opacity:1; stop-color:#B5846E"/>
  </linearGradient>
 </defs>
 <g id="Layer_x0020_1">
  <metadata id="CorelCorpID_0Corel-Layer"/>
  <g id="_1879627744">
   <g>
    <path class="fil0" d="M2009.92 1683.53c0,-23.41 0,-426.51 0,-449.91 -29.97,0.2 -64.76,0.86 -99.45,2.52 -40.47,1.94 -80.79,5.24 -119.03,9.19 -38.24,3.95 -74.4,8.54 -100.23,12.2 -12.6,1.78 -22.74,3.34 -30.75,4.65 0,0 0,0 -19.31,3.65 -1.77,0.34 -3.7,0.7 -5.78,1.1 -2.28,1.07 -3.09,2.94 -4.64,7.68 -2.52,7.67 -6.96,22.89 -13.64,47.42 -6.67,24.54 -15.57,58.41 -24.75,96.44 -9.19,38.02 -18.66,80.22 -28.63,130.16 -9.97,49.93 -20.45,107.63 -27.41,147.23 -6.96,39.6 -10.4,61.13 -11.69,72.92 -1.3,11.78 -0.43,13.83 1.5,13.61 1.94,-0.21 4.95,-2.69 14.42,-6.94 135.19,-60.71 325.95,-89.5 469.39,-91.9z"/>
    <path class="fil1" d="M2055.15 1683.53c0,-23.41 0,-426.51 0,-449.91 29.97,0.2 64.76,0.86 99.45,2.52 40.47,1.94 80.79,5.24 119.03,9.19 38.24,3.95 74.4,8.54 100.23,12.2 12.6,1.78 22.74,3.34 30.75,4.65 0,0 0,0 19.31,3.65 1.77,0.34 3.7,0.7 5.78,1.1 2.28,1.07 3.09,2.94 4.64,7.68 2.52,7.67 6.96,22.89 13.64,47.42 6.67,24.54 15.57,58.41 24.75,96.44 9.19,38.02 18.66,80.22 28.63,130.16 9.97,49.93 20.45,107.63 27.41,147.23 6.96,39.6 10.4,61.13 11.69,72.92 1.3,11.78 0.43,13.83 -1.5,13.61 -1.94,-0.21 -4.95,-2.69 -14.42,-6.94 -135.19,-60.71 -325.95,-89.5 -469.39,-91.9z"/>
    <path class="fil2" d="M2032.53 392.93l0.01 0c13.73,0 24.97,11.23 24.97,24.98l0 211.36 -49.95 0 0 -211.36c0,-13.75 11.24,-24.98 24.97,-24.98z"/>
    <polygon class="fil3" style="mask:url(#id0)" points="2009.92,1226.16 2057.6,1226.16 2057.6,2032.03 2009.92,2032.03 "/>
    <path class="fil4" d="M1536.31 1650.8c9.83,-54.83 23.61,-125.01 36.37,-182.34 12.77,-57.33 24.54,-101.82 33.51,-134.68 7.49,-27.44 13.03,-46.77 18.24,-64.77 -21.34,4.16 -52.76,10.61 -90.34,19.88 -49.15,12.12 -108.85,29.05 -158.36,45.12 -49.51,16.08 -88.83,31.28 -127.29,48.07 -14.89,6.5 -29.65,13.24 -44.33,20.12 -7.87,3.69 -15.72,7.42 -23.56,11.18 -0.7,0.34 -1.4,0.67 -2.1,1.01 0.03,-0.26 0.07,-0.52 0.1,-0.78 0.02,-0.19 0.05,-0.4 0.08,-0.59 -6.63,-1.25 -13.26,-2.45 -19.9,-3.59 -6.8,-1.18 -13.62,-2.29 -20.44,-3.32 -32.15,-4.88 -64.43,-8.04 -94.64,-9.33 -30.21,-1.29 -58.33,-0.71 -82.01,0.07 -11.72,0.39 -22.34,0.83 -34.78,1.84 -17.32,30.69 -34.87,62.14 -54.62,101.27 -21.96,43.48 -46.64,96.43 -64.44,137.69 -11.82,27.4 -20.59,49.63 -28.35,70.14 12.11,-3.57 24.03,-7.03 35.66,-10.3 35.45,-9.97 68.31,-18.3 109.28,-24.25 40.97,-5.96 90.04,-9.55 143.93,-9.76 53.88,-0.22 112.58,2.94 174.28,14.92 61.71,11.98 126.43,32.79 168.97,49.07 42.55,16.29 62.92,28.06 78.49,37.45 10.06,6.08 18.12,11.16 25.46,15.9 0.35,-2.49 0.71,-5.08 1.09,-7.78 3.95,-27.91 9.83,-67.41 19.66,-122.25z"/>
    <path class="fil5" d="M812.35 1606.38c24.61,-54.75 54.17,-114.16 73.97,-151.25 15.06,-28.19 24.47,-43.5 32.53,-55.71 -10.83,1.03 -23.26,2.5 -38.84,4.7 -38.75,5.45 -97.01,15.36 -154.23,29.06 -57.22,13.7 -113.4,31.21 -151.35,44.2 -37.96,12.99 -57.69,21.45 -67.55,25.55 -6.47,2.68 -8.7,3.48 -10.68,3.53 -1.04,0.02 -2.01,-0.16 -3.49,-0.37 -4.31,-0.65 -12.92,-1.65 -26.48,1.79 -13.56,3.45 -32.07,11.34 -45.13,20.45 -13.06,9.12 -20.67,19.44 -33.65,36.02 -5.06,6.46 -10.95,13.87 -17.32,21.86 -1.74,4.17 -3.43,8.32 -5.12,12.47 0.09,-0.01 0.18,-0.02 0.27,-0.04 20.66,-2.37 53.38,-5.52 82.08,-6.1 28.7,-0.58 53.39,1.44 78.79,4.66 25.4,3.23 51.51,7.68 74.04,14.35 22.53,6.67 41.47,15.57 66.59,29.35 25.11,13.78 56.39,32.43 77.13,48.43 10.14,7.82 17.76,15.02 24.09,21.88 0.08,-0.02 0.16,-0.04 0.23,-0.07 13.49,-33.77 27.7,-68.22 44.13,-104.76z"/>
    <path class="fil6" d="M505.16 1484.69c8.83,-20.77 19.26,-43.26 33.53,-69.88 24.54,-45.78 60.42,-103.75 95.5,-152.4 35.09,-48.65 69.38,-87.97 104.9,-125.85 35.52,-37.89 72.25,-74.34 116.31,-112.29 44.05,-37.96 95.43,-77.42 143.79,-111.86 12.5,-8.9 24.79,-17.46 36.85,-25.66 -35.15,21.43 -81.27,50.97 -121.3,78.93 -44.97,31.4 -82.28,60.81 -116.21,88.44 -33.94,27.62 -64.51,53.46 -103.18,91.27 -38.67,37.81 -85.45,87.6 -120.47,127.07 -35.02,39.46 -58.26,68.59 -85.53,106.68 -27.27,38.08 -58.56,85.11 -81.8,127.83 -15.15,27.84 -26.88,53.85 -37.42,79.22 6.38,-7.99 12.26,-15.4 17.32,-21.86 12.98,-16.57 20.59,-26.9 33.65,-36.02 13.06,-9.11 31.57,-17 45.13,-20.45 13.56,-3.44 22.17,-2.44 26.48,-1.79 1.48,0.22 2.45,0.4 3.49,0.37 2.85,-7.1 5.81,-14.32 8.97,-21.75z"/>
    <path class="fil7" d="M533.89 1474.51c-10.27,3.55 -19.81,6.94 -28.73,10.18 -3.16,7.43 -6.12,14.65 -8.97,21.75 1.98,-0.05 4.21,-0.85 10.68,-3.53 9.86,-4.1 29.59,-12.56 67.55,-25.55 37.95,-12.99 94.14,-30.49 151.35,-44.2 57.22,-13.7 115.49,-23.61 154.23,-29.06 15.58,-2.19 28.01,-3.67 38.84,-4.7 2.77,-0.26 5.45,-0.5 8.03,-0.71 12.44,-1.01 23.06,-1.45 34.78,-1.84 23.68,-0.79 51.8,-1.36 82.01,-0.07 30.21,1.29 62.5,4.45 94.64,9.33 6.82,1.03 13.63,2.14 20.44,3.32 6.64,1.14 13.27,2.34 19.9,3.59 0.66,-4.88 1.38,-9.85 2.14,-14.91 0.05,-0.35 0.1,-0.69 0.16,-1.04 -10.8,-2.18 -22.34,-4.23 -34.88,-6.1 -46.28,-6.89 -106.26,-11.26 -169.48,-10 -63.21,1.26 -129.65,8.15 -208.65,25.73 -78.99,17.58 -170.55,45.84 -234.05,67.8z"/>
    <path class="fil8" d="M1204.12 1402.21c14.68,-6.88 29.44,-13.62 44.33,-20.12 38.46,-16.79 77.78,-32 127.29,-48.07 49.51,-16.07 109.2,-33 158.36,-45.12 37.59,-9.27 69.01,-15.72 90.34,-19.88 4.01,-0.78 7.66,-1.48 10.93,-2.1 1.41,-0.67 3.4,-1.03 6.47,-1.58 4.12,-0.73 10.2,-1.81 18.62,-3.17 8.01,-1.3 18.15,-2.86 30.75,-4.65 25.83,-3.66 61.99,-8.25 100.23,-12.2 38.25,-3.95 78.57,-7.25 119.03,-9.19 34.69,-1.66 69.47,-2.32 99.45,-2.52 5,-0.04 9.86,-0.05 14.57,-0.07l8.05 -0.01 8.05 0.01c4.71,0.01 9.57,0.03 14.57,0.07 29.97,0.2 64.76,0.86 99.45,2.52 40.47,1.94 80.79,5.24 119.03,9.19 38.24,3.95 74.4,8.54 100.23,12.2 12.6,1.78 22.74,3.34 30.75,4.65 8.42,1.36 14.5,2.44 18.62,3.17 3.07,0.55 5.06,0.91 6.47,1.58 3.27,0.62 6.92,1.32 10.93,2.1 21.34,4.16 52.76,10.61 90.34,19.88 49.15,12.12 108.85,29.05 158.36,45.12 49.51,16.08 88.83,31.28 127.29,48.07 14.89,6.5 29.65,13.24 44.33,20.12 7.87,3.69 15.72,7.42 23.56,11.18 0.64,-0.12 1.28,-0.24 1.92,-0.36 -0.66,-4.88 -1.38,-9.85 -2.14,-14.91 -0.5,-0.26 -1,-0.51 -1.5,-0.76 -25.2,-12.71 -50.95,-24.92 -77.79,-36.12 -53.09,-22.14 -110.5,-40.29 -160.65,-55.36 -50.15,-15.07 -93.06,-27.04 -140.77,-38.58 -47.71,-11.54 -100.24,-22.65 -158.64,-30.69 -58.41,-8.03 -122.7,-13 -174.79,-15.92 -51.15,-2.86 -90.55,-3.74 -137.61,-2.82 -47.06,-0.92 -86.46,-0.04 -137.61,2.82 -52.09,2.92 -116.38,7.88 -174.79,15.92 -58.4,8.03 -110.93,19.14 -158.64,30.69 -47.71,11.54 -90.62,23.52 -140.77,38.58 -50.16,15.07 -107.56,33.23 -160.65,55.36 -26.84,11.19 -52.59,23.4 -77.79,36.12 -0.5,0.25 -1,0.5 -1.5,0.76 -0.76,5.06 -1.48,10.03 -2.14,14.91 0.64,0.12 1.28,0.24 1.92,0.36 7.84,-3.76 15.69,-7.49 23.56,-11.18z"/>
    <path class="fil9" d="M2032.54 611.92c-16.3,0.24 -32.14,0.61 -47.42,1.07 -16.78,0.5 -32.89,1.11 -48.37,1.81 -28.81,1.87 -59.97,4.4 -86.73,8.09 -36.88,5.1 -65.43,12.41 -99.01,22.17 -33.58,9.76 -72.18,21.95 -115.88,43.34 -43.7,21.38 -92.49,51.94 -130.44,79.29 -37.96,27.34 -65.08,51.44 -99.01,91.98 -33.94,40.54 -74.7,97.51 -108.42,163.59 -33.73,66.08 -60.42,141.28 -79.93,209.58 -17.46,61.08 -29.17,116.66 -36.37,164.24l1.35 0.28c25.2,-12.71 50.95,-24.92 77.79,-36.12 53.09,-22.14 110.5,-40.29 160.65,-55.36 50.15,-15.07 93.06,-27.04 140.77,-38.58 47.71,-11.54 100.24,-22.65 158.64,-30.69 58.41,-8.03 122.7,-13 174.79,-15.92 51.15,-2.86 90.55,-3.74 137.61,-2.82 47.06,-0.92 86.46,-0.04 137.61,2.82 52.09,2.92 116.38,7.88 174.79,15.92 58.4,8.03 110.93,19.14 158.64,30.69 47.71,11.54 90.62,23.52 140.77,38.58 50.16,15.07 107.56,33.23 160.65,55.36 26.84,11.19 52.59,23.4 77.79,36.12l1.35 -0.28c-7.21,-47.57 -18.92,-103.15 -36.37,-164.24 -19.51,-68.3 -46.2,-143.5 -79.93,-209.58 -33.72,-66.08 -74.48,-123.05 -108.42,-163.59 -33.94,-40.54 -61.05,-64.65 -99.01,-91.98 -37.95,-27.34 -86.74,-57.91 -130.44,-79.29 -43.69,-21.38 -82.3,-33.58 -115.88,-43.34 -33.58,-9.76 -62.14,-17.07 -99.01,-22.17 -26.77,-3.69 -57.92,-6.22 -86.73,-8.09 -15.48,-0.7 -31.59,-1.3 -48.37,-1.81 -15.28,-0.46 -31.12,-0.83 -47.42,-1.07z"/>
    <path class="fil10" d="M1180.94 1397.08c7.21,-47.57 18.92,-103.15 36.37,-164.24 19.51,-68.3 46.2,-143.5 79.93,-209.58 33.72,-66.08 74.48,-123.05 108.42,-163.59 33.94,-40.54 61.05,-64.65 99.01,-91.98 37.95,-27.34 86.74,-57.91 130.44,-79.29 43.69,-21.38 82.3,-33.58 115.88,-43.34 33.58,-9.76 62.14,-17.07 99.01,-22.17 26.77,-3.69 57.92,-6.22 86.73,-8.09 -73.29,3.28 -132.51,8.53 -182.09,14.14 -60.06,6.8 -105.98,14.12 -164.17,27.89 -58.19,13.77 -128.65,34.01 -188.7,54.38 -60.06,20.38 -109.71,40.9 -151.9,58.91 -42.19,18.01 -76.92,33.5 -116.96,55.96 -29.69,16.66 -62.3,37.14 -96.89,60.66 -12.06,8.2 -24.35,16.76 -36.85,25.66 -48.36,34.44 -99.73,73.9 -143.79,111.86 -44.05,37.95 -80.79,74.4 -116.31,112.29 -35.51,37.88 -69.81,77.2 -104.9,125.85 -35.08,48.65 -70.96,106.62 -95.5,152.4 -14.27,26.62 -24.71,49.11 -33.53,69.88 8.92,-3.25 18.46,-6.64 28.73,-10.18 63.5,-21.95 155.05,-50.22 234.05,-67.8 79,-17.58 145.44,-24.47 208.65,-25.73 63.22,-1.26 123.2,3.11 169.48,10 12.54,1.87 24.07,3.92 34.88,6.1z"/>
    <path class="fil11" d="M779.47 1707.8c7.76,-20.51 16.53,-42.74 28.35,-70.14 17.79,-41.26 42.47,-94.21 64.44,-137.69 19.75,-39.12 37.3,-70.58 54.62,-101.27 -2.59,0.21 -5.26,0.44 -8.03,0.71 -8.06,12.21 -17.48,27.52 -32.53,55.71 -19.8,37.09 -49.36,96.5 -73.97,151.25 -16.43,36.54 -30.64,70.99 -44.13,104.76 3.77,-1.12 7.52,-2.24 11.26,-3.34z"/>
    <path class="fil11" d="M1515.55 1780.83c1.92,1.24 3.79,2.45 5.63,3.65 1.5,-0.7 2.98,-1.4 4.48,-2.1 -1.62,-0.18 -2.25,-2.79 -1.06,-13.62 1.29,-11.79 4.73,-33.32 11.69,-72.92 6.96,-39.6 17.43,-97.3 27.41,-147.23 9.97,-49.94 19.44,-92.13 28.63,-130.16 9.18,-38.03 18.08,-71.89 24.75,-96.44 6.68,-24.54 11.12,-39.75 13.64,-47.42 0.77,-2.37 1.36,-4.02 2.05,-5.21 0.68,-1.2 1.45,-1.93 2.59,-2.47 -3.27,0.62 -6.92,1.32 -10.93,2.1 -5.22,18 -10.76,37.33 -18.24,64.77 -8.97,32.86 -20.74,77.35 -33.51,134.68 -12.77,57.33 -26.54,127.5 -36.37,182.34 -9.83,54.84 -15.72,94.34 -19.66,122.25 -0.38,2.7 -0.74,5.29 -1.09,7.78z"/>
    <g>
     <path class="fil12" d="M1931 922.43c41.22,-2.07 82.37,-3.81 123.47,-3.54 41.2,0.26 82.56,2.63 124.24,5.73 -2.26,-20.93 -4.9,-41.9 -7.8,-62.83 -39.72,-1.95 -79.17,-3.47 -118.51,-3.63 -39.3,-0.16 -78.67,0.95 -118.01,2.25 -16.09,8.86 -32.51,17.86 -48.91,27.13 -16.75,9.47 -33.65,19.19 -50.68,29.05 -2.26,21.64 -4.14,43.28 -5.76,64.89 17.34,-10.42 34.49,-20.71 51.58,-30.64 16.9,-9.82 33.73,-19.19 50.38,-28.4z"/>
     <path class="fil13" d="M2198.49 972.27c-45.52,-4.76 -90.49,-8.43 -135.27,-9.01 -44.53,-0.57 -89.19,1.66 -133.88,4.37 -16.88,9.51 -33.94,19.17 -50.98,29.32 -17.28,10.28 -34.52,20.99 -51.96,31.82 -0.26,6.56 -0.49,13.14 -0.79,19.72 63.41,-8.91 125.99,-16.84 188.32,-18.51 62.14,-1.67 124.87,3.75 188.48,11.63 -1.02,-23.11 -2.26,-46.23 -3.92,-69.35z"/>
     <path class="fil14" d="M1937.78 815.35c39.56,-0.8 79.17,-1.47 118.66,-1.3 39.6,0.16 79.27,1.21 119.06,2.57 -4.26,-21.11 -8.82,-42.22 -13.72,-63.36 -36.32,0 -72.64,0 -108.93,0 -36.28,0 -72.57,0 -108.86,0 -14.62,8.24 -29.53,16.57 -44.76,25.01 -15.52,8.59 -31.39,17.33 -47.4,26.18 -4.11,21.67 -7.76,43.32 -11.04,64.98 16.69,-9.48 33.26,-18.76 49.51,-27.84 16.04,-8.96 31.88,-17.69 47.48,-26.24z"/>
    </g>
    <path class="fil15" d="M2528.76 1650.8c-9.83,-54.83 -23.61,-125.01 -36.37,-182.34 -12.77,-57.33 -24.54,-101.82 -33.51,-134.68 -7.49,-27.44 -13.03,-46.77 -18.24,-64.77 21.34,4.16 52.76,10.61 90.34,19.88 49.15,12.12 108.85,29.05 158.36,45.12 49.51,16.08 88.83,31.28 127.29,48.07 14.89,6.5 29.65,13.24 44.33,20.12 7.87,3.69 15.72,7.42 23.56,11.18 0.7,0.34 1.4,0.67 2.1,1.01 -0.03,-0.26 -0.07,-0.52 -0.1,-0.78 -0.02,-0.19 -0.05,-0.4 -0.08,-0.59 6.63,-1.25 13.26,-2.45 19.9,-3.59 6.8,-1.18 13.62,-2.29 20.44,-3.32 32.15,-4.88 64.43,-8.04 94.64,-9.33 30.21,-1.29 58.33,-0.71 82.01,0.07 11.72,0.39 22.34,0.83 34.78,1.84 17.32,30.69 34.87,62.14 54.62,101.27 21.96,43.48 46.64,96.43 64.44,137.69 11.82,27.4 20.59,49.63 28.35,70.14 -12.11,-3.57 -24.03,-7.03 -35.66,-10.3 -35.45,-9.97 -68.31,-18.3 -109.28,-24.25 -40.97,-5.96 -90.04,-9.55 -143.93,-9.76 -53.88,-0.22 -112.58,2.94 -174.28,14.92 -61.71,11.98 -126.43,32.79 -168.97,49.07 -42.55,16.29 -62.92,28.06 -78.49,37.45 -10.06,6.08 -18.12,11.16 -25.46,15.9 -0.35,-2.49 -0.71,-5.08 -1.09,-7.78 -3.95,-27.91 -9.83,-67.41 -19.66,-122.25z"/>
    <path class="fil16" d="M3252.72 1606.38c-24.61,-54.75 -54.17,-114.16 -73.97,-151.25 -15.06,-28.19 -24.47,-43.5 -32.53,-55.71 10.83,1.03 23.26,2.5 38.84,4.7 38.75,5.45 97.01,15.36 154.23,29.06 57.22,13.7 113.4,31.21 151.35,44.2 37.96,12.99 57.69,21.45 67.55,25.55 6.47,2.68 8.7,3.48 10.68,3.53 1.04,0.02 2.01,-0.16 3.49,-0.37 4.31,-0.65 12.92,-1.65 26.48,1.79 13.56,3.45 32.07,11.34 45.13,20.45 13.06,9.12 20.67,19.44 33.65,36.02 5.06,6.46 10.95,13.87 17.32,21.86 1.74,4.17 3.43,8.32 5.12,12.47 -0.09,-0.01 -0.18,-0.02 -0.27,-0.04 -20.66,-2.37 -53.38,-5.52 -82.08,-6.1 -28.7,-0.58 -53.39,1.44 -78.79,4.66 -25.4,3.23 -51.51,7.68 -74.04,14.35 -22.53,6.67 -41.47,15.57 -66.59,29.35 -25.11,13.78 -56.39,32.43 -77.13,48.43 -10.14,7.82 -17.76,15.02 -24.09,21.88 -0.08,-0.02 -0.16,-0.04 -0.23,-0.07 -13.49,-33.77 -27.7,-68.22 -44.13,-104.76z"/>
    <path class="fil17" d="M3559.91 1484.69c-8.83,-20.77 -19.26,-43.26 -33.53,-69.88 -24.54,-45.78 -60.42,-103.75 -95.5,-152.4 -35.09,-48.65 -69.38,-87.97 -104.9,-125.85 -35.52,-37.89 -72.25,-74.34 -116.31,-112.29 -44.05,-37.96 -95.43,-77.42 -143.79,-111.86 -12.5,-8.9 -24.79,-17.46 -36.85,-25.66 35.15,21.43 81.27,50.97 121.3,78.93 44.97,31.4 82.28,60.81 116.21,88.44 33.94,27.62 64.51,53.46 103.18,91.27 38.67,37.81 85.45,87.6 120.47,127.07 35.02,39.46 58.26,68.59 85.53,106.68 27.27,38.08 58.56,85.11 81.8,127.83 15.15,27.84 26.88,53.85 37.42,79.22 -6.38,-7.99 -12.26,-15.4 -17.32,-21.86 -12.98,-16.57 -20.59,-26.9 -33.65,-36.02 -13.06,-9.11 -31.57,-17 -45.13,-20.45 -13.56,-3.44 -22.17,-2.44 -26.48,-1.79 -1.48,0.22 -2.45,0.4 -3.49,0.37 -2.85,-7.1 -5.81,-14.32 -8.97,-21.75z"/>
    <path class="fil18" d="M3531.18 1474.51c10.27,3.55 19.81,6.94 28.73,10.18 3.16,7.43 6.12,14.65 8.97,21.75 -1.98,-0.05 -4.21,-0.85 -10.68,-3.53 -9.86,-4.1 -29.59,-12.56 -67.55,-25.55 -37.95,-12.99 -94.14,-30.49 -151.35,-44.2 -57.22,-13.7 -115.49,-23.61 -154.23,-29.06 -15.58,-2.19 -28.01,-3.67 -38.84,-4.7 -2.77,-0.26 -5.45,-0.5 -8.03,-0.71 -12.44,-1.01 -23.06,-1.45 -34.78,-1.84 -23.68,-0.79 -51.8,-1.36 -82.01,-0.07 -30.21,1.29 -62.5,4.45 -94.64,9.33 -6.82,1.03 -13.63,2.14 -20.44,3.32 -6.64,1.14 -13.27,2.34 -19.9,3.59 -0.66,-4.88 -1.38,-9.85 -2.14,-14.91 -0.05,-0.35 -0.1,-0.69 -0.16,-1.04 10.8,-2.18 22.34,-4.23 34.88,-6.1 46.28,-6.89 106.26,-11.26 169.48,-10 63.21,1.26 129.65,8.15 208.65,25.73 78.99,17.58 170.55,45.84 234.05,67.8z"/>
    <path class="fil19" d="M2884.13 1397.08c-7.21,-47.57 -18.92,-103.15 -36.37,-164.24 -19.51,-68.3 -46.2,-143.5 -79.93,-209.58 -33.72,-66.08 -74.48,-123.05 -108.42,-163.59 -33.94,-40.54 -61.05,-64.65 -99.01,-91.98 -37.95,-27.34 -86.74,-57.91 -130.44,-79.29 -43.69,-21.38 -82.3,-33.58 -115.88,-43.34 -33.58,-9.76 -62.14,-17.07 -99.01,-22.17 -26.77,-3.69 -57.92,-6.22 -86.73,-8.09 73.29,3.28 132.51,8.53 182.09,14.14 60.06,6.8 105.98,14.12 164.17,27.89 58.19,13.77 128.65,34.01 188.7,54.38 60.06,20.38 109.71,40.9 151.9,58.91 42.19,18.01 76.92,33.5 116.96,55.96 29.69,16.66 62.3,37.14 96.89,60.66 12.06,8.2 24.35,16.76 36.85,25.66 48.36,34.44 99.73,73.9 143.79,111.86 44.05,37.95 80.79,74.4 116.31,112.29 35.51,37.88 69.81,77.2 104.9,125.85 35.08,48.65 70.96,106.62 95.5,152.4 14.27,26.62 24.71,49.11 33.53,69.88 -8.92,-3.25 -18.46,-6.64 -28.73,-10.18 -63.5,-21.95 -155.05,-50.22 -234.05,-67.8 -79,-17.58 -145.44,-24.47 -208.65,-25.73 -63.22,-1.26 -123.2,3.11 -169.48,10 -12.54,1.87 -24.07,3.92 -34.88,6.1z"/>
    <path class="fil11" d="M3285.6 1707.8c-7.76,-20.51 -16.53,-42.74 -28.35,-70.14 -17.79,-41.26 -42.47,-94.21 -64.44,-137.69 -19.75,-39.12 -37.3,-70.58 -54.62,-101.27 2.59,0.21 5.26,0.44 8.03,0.71 8.06,12.21 17.48,27.52 32.53,55.71 19.8,37.09 49.36,96.5 73.97,151.25 16.43,36.54 30.64,70.99 44.13,104.76 -3.77,-1.12 -7.52,-2.24 -11.26,-3.34z"/>
    <path class="fil11" d="M2549.52 1780.83c-1.92,1.24 -3.79,2.45 -5.63,3.65 -1.5,-0.7 -2.98,-1.4 -4.48,-2.1 1.62,-0.18 2.25,-2.79 1.06,-13.62 -1.29,-11.79 -4.73,-33.32 -11.69,-72.92 -6.96,-39.6 -17.43,-97.3 -27.41,-147.23 -9.97,-49.94 -19.44,-92.13 -28.63,-130.16 -9.18,-38.03 -18.08,-71.89 -24.75,-96.44 -6.68,-24.54 -11.12,-39.75 -13.64,-47.42 -0.77,-2.37 -1.36,-4.02 -2.05,-5.21 -0.68,-1.2 -1.45,-1.93 -2.59,-2.47 3.27,0.62 6.92,1.32 10.93,2.1 5.22,18 10.76,37.33 18.24,64.77 8.97,32.86 20.74,77.35 33.51,134.68 12.77,57.33 26.54,127.5 36.37,182.34 9.83,54.84 15.72,94.34 19.66,122.25 0.38,2.7 0.74,5.29 1.09,7.78z"/>
    <g>
     <path class="fil20" d="M539.32 2121.93l0 199.96 -59.63 0 0 -150.57 -77.7 150.57 -54.81 0 -79.2 -150.27 0 150.27 -58.72 0 0 -199.96 97.57 0 66.86 139.13 72.87 -139.13 92.76 0zm302.65 60.33l0 77.2c0,20.53 -9.49,36.13 -28.46,46.92 -18.98,10.74 -40.31,16.11 -63.99,16.11 -1.61,0 -5.17,0 -10.7,0 -5.52,0 -10.18,0 -14,0 -22.28,0 -36.88,-0.05 -43.81,-0.1 -6.92,-0.04 -13,-0.25 -18.21,-0.5 -22.69,0 -42.31,-5.62 -58.88,-16.86 -16.56,-11.25 -24.84,-26.5 -24.84,-45.77l0 -77.09c0,-17.46 8.53,-31.88 25.6,-43.21 17.06,-11.34 35.33,-17.02 54.81,-17.02l92.75 0c24.09,0 45.07,5.32 62.94,15.96 17.87,10.69 26.8,25.44 26.8,44.37zm-63.24 58.42l0 -36.34c0,-13.81 -3.72,-24.59 -11.14,-32.33 -7.43,-7.67 -19.58,-11.54 -36.44,-11.54l-49.99 0c-13.45,0 -23.44,3.71 -29.97,11.09 -6.52,7.43 -9.78,17.87 -9.78,31.27l0 37.84c0,13 3.21,23.14 9.64,30.36 6.42,7.18 16.46,10.79 30.12,10.79l49.99 0c17.06,0 29.26,-3.41 36.58,-10.18 7.33,-6.82 11,-17.17 11,-30.97zm251.16 -118.75c36.34,0 62.14,4.47 77.39,13.45 15.26,8.93 22.89,25.2 22.89,48.74 0,13.1 -4.67,24.65 -14,34.58 -9.34,9.98 -22.94,15.85 -40.81,17.66 17.26,0 30.12,3.51 38.55,10.54 8.44,7.03 12.65,16.97 12.65,29.82l0 45.17 -62.93 0 0 -38.85c0,-8.63 -3.62,-14.6 -10.84,-17.91 -7.23,-3.31 -17.97,-4.97 -32.23,-4.97l-78.3 0 0 61.73 -60.83 0 0 -199.96 148.46 0zm-9.34 95.16c17.27,0 29.16,-1.66 35.69,-5.02 6.53,-3.31 9.78,-10.14 9.78,-20.43 0,-9.48 -2.35,-16.11 -7.07,-19.82 -4.72,-3.77 -16.31,-5.63 -34.78,-5.63l-81.92 0 0 50.9 78.3 0zm358.67 62.34l0 42.46 -209.3 0 0 -199.96 207.79 0 0 44.26 -147.57 0 0 34.34 140.64 0 0 38.55 -140.64 0 0 40.35 149.07 0zm388.48 -157.5l0 44.57 -88.24 0 0 155.39 -62.93 0 0 -155.39 -86.73 0 0 -44.57 237.91 0zm288.8 0l0 199.96 -62.95 0 0 -80.1 -135.21 0 0 80.1 -62.03 0 0 -199.96 62.03 0 0 76.49 135.21 0 0 -76.49 62.95 0zm213.81 0l103.6 199.96 -63.54 0 -19.27 -37.04 -125.88 0 -18.37 37.04 -65.35 0 101.78 -199.96 87.03 0zm-85.83 119.86l87.63 0 -44.26 -83.42 -43.37 83.42zm467.98 -119.86l0 199.96 -99.97 0 -104.8 -156.6 0 156.6 -59.03 0 0 -199.96 99.07 0 103 156.3 0 -156.3 61.73 0zm357.77 0l0 138.73c0,23.34 -7.03,39.6 -21.08,48.88 -14.05,9.24 -39.15,13.85 -75.29,13.85 -35.74,0 -62.14,-3.57 -79.2,-10.69 -17.07,-7.13 -25.59,-21.83 -25.59,-44.12l0 -28 58.72 0 0 18.37c0,11.04 2.1,18.32 6.32,21.83 4.21,3.51 14.75,5.27 31.62,5.27 16.26,0 27.41,-1.61 33.42,-4.82 6.02,-3.21 9.04,-9.99 9.04,-20.23l0 -139.08 62.04 0zm308.97 0.61l0 131.9c0,24.09 -10.29,41.61 -30.87,52.55 -20.59,10.94 -51.85,16.41 -93.81,16.41 -45.17,0 -78.04,-4.92 -98.62,-14.76 -20.57,-9.84 -30.87,-29.5 -30.87,-59.02l0 -127.08 62.34 0 0 127.08c0,12.65 3.96,20.83 11.9,24.54 7.93,3.71 22.14,5.57 42.61,5.57l19.87 0c21.89,0 36.54,-1.2 43.97,-3.61 7.42,-2.41 11.14,-9.64 11.14,-21.68l0 -131.9 62.34 0zm141.54 79.5l29.51 0c25.3,0 45.88,1.15 61.74,3.46 15.86,2.26 28.86,7.53 39,15.71 10.14,8.19 15.21,20.78 15.21,37.75 0,20.77 -5.37,35.73 -16.11,44.82 -10.74,9.09 -24.09,14.45 -40.05,16.16 -15.96,1.71 -39.7,2.56 -71.22,2.56 -28.71,0 -50.94,-1.1 -66.71,-3.26 -15.76,-2.2 -28.51,-7.48 -38.24,-15.86 -9.74,-8.33 -14.61,-21.28 -14.61,-38.8 0,-1 0.15,-2.61 0.45,-4.92 0.3,-2.26 0.46,-3.81 0.46,-4.62l59.33 0c0,10.95 1.9,18.53 5.72,22.79 3.81,4.26 13.15,6.43 28,6.43l43.37 0c15.66,0 27.6,-0.61 35.83,-1.76 8.23,-1.21 12.35,-7.98 12.35,-20.38 0,-10.09 -3.62,-16.61 -10.85,-19.68 -7.28,-3.06 -18.72,-4.56 -34.38,-4.56 -4.27,0 -8.58,0 -13,0 -4.42,0 -8.83,0 -13.25,0 -41.05,0 -70.16,-3.57 -87.33,-10.74 -17.22,-7.13 -25.8,-23.59 -25.8,-49.34 0,-21.94 8.48,-36.9 25.5,-44.82 16.96,-7.98 48.88,-11.94 95.71,-11.94 25.95,0 46.93,1.2 63.04,3.62 16.06,2.46 29.21,7.78 39.5,16.06 10.24,8.28 15.36,20.58 15.36,36.89l0 10.29 -60.23 0c0,-11.79 -3.66,-19.02 -10.99,-21.78 -7.33,-2.76 -23.74,-4.11 -49.24,-4.11 -21.68,0 -36.49,1.41 -44.41,4.26 -7.93,2.82 -11.9,7.88 -11.9,15.16 0,8.69 2.61,14.3 7.84,16.81 5.22,2.56 15.36,3.82 30.41,3.82zm397.51 -80.11l0 44.57 -88.24 0 0 155.39 -62.93 0 0 -155.39 -86.73 0 0 -44.57 237.91 0z"/>
     <path class="fil21" d="M554.98 2456.24c44.56,0 75.79,4.37 93.65,13.15 17.87,8.73 26.8,27.31 26.8,55.66 0,27.76 -8.78,46.08 -26.35,54.91 -17.57,8.89 -47.83,13.31 -90.79,13.31l-64.75 0 0 62.93 -61.13 0 0 -199.96 122.57 0zm0.9 96.07c18.47,0 32.42,-0.75 41.86,-2.26 9.44,-1.5 14.16,-9.84 14.16,-24.99 0,-11.1 -2.97,-18.17 -8.89,-21.18 -5.93,-3.06 -19.62,-4.56 -41.11,-4.56l-68.36 0 0 53 62.34 0zm359.87 61.44l0 42.46 -209.3 0 0 -199.96 207.79 0 0 44.27 -147.56 0 0 34.33 140.64 0 0 38.55 -140.64 0 0 40.35 149.07 0zm209.29 -157.5l103.6 199.96 -63.54 0 -19.27 -37.04 -125.88 0 -18.37 37.04 -65.35 0 101.78 -199.96 87.03 0zm-85.83 119.86l87.63 0 -44.27 -83.42 -43.36 83.42zm462.26 4.82c0,3.62 0.1,6.92 0.3,9.84 0.2,2.91 0.4,5.78 0.6,8.59 0,21.78 -9.59,36.94 -28.76,45.52 -19.17,8.59 -44.72,12.85 -76.64,12.85l-44.87 0c-41.35,0 -69.46,-6.58 -84.32,-19.72 -14.86,-13.15 -22.29,-33.79 -22.29,-61.89l0 -42.76c0,-30.12 9.49,-50.64 28.46,-61.58 18.98,-10.94 43.72,-16.41 74.24,-16.41l53.6 0c19.68,0 36.34,1.26 49.99,3.76 13.65,2.46 24.19,7.33 31.61,14.51 7.43,7.23 12.05,14.75 13.86,22.69 1.81,7.88 2.71,17.82 2.71,29.82l-61.13 0c-1.41,-6.38 -2.46,-11.15 -3.16,-14.3 -0.7,-3.16 -3.26,-5.83 -7.68,-7.88 -4.41,-2.11 -10.33,-3.41 -17.76,-4.01 -7.43,-0.6 -17.47,-0.9 -30.12,-0.9l-9.34 0c-13.85,0 -24.64,0.3 -32.37,0.9 -7.73,0.6 -13.85,2.76 -18.37,6.47 -4.52,3.72 -7.48,8.14 -8.89,13.25 -1.41,5.12 -2.1,12.6 -2.1,22.44l0 27.71c0,19.67 2.86,31.97 8.58,36.89 5.73,4.92 17.62,7.38 35.69,7.38 3.62,0 7.33,0 11.15,0 3.81,0 7.72,0 11.75,0l3.91 0c4.02,0 7.93,0 11.75,0 3.81,0 7.63,0 11.45,0 12.44,0 21.78,-1.15 28,-3.51 6.23,-2.31 9.34,-7.23 9.34,-14.71l0 -14.91 60.83 0zm240.31 32.83l0 42.46 -209.3 0 0 -199.96 207.8 0 0 44.27 -147.57 0 0 34.33 140.64 0 0 38.55 -140.64 0 0 40.35 149.07 0zm429.43 -97.18l0 77.2c0,20.53 -9.48,36.13 -28.45,46.92 -18.98,10.74 -40.31,16.11 -64,16.11 -1.6,0 -5.16,0 -10.69,0 -5.52,0 -10.18,0 -14,0 -22.29,0 -36.89,-0.05 -43.81,-0.1 -6.93,-0.04 -13,-0.25 -18.22,-0.5 -22.69,0 -42.31,-5.62 -58.87,-16.86 -16.56,-11.25 -24.84,-26.5 -24.84,-45.77l0 -77.09c0,-17.46 8.53,-31.88 25.59,-43.21 17.07,-11.34 35.33,-17.02 54.81,-17.02l92.76 0c24.09,0 45.07,5.32 62.93,15.96 17.87,10.69 26.8,25.44 26.8,44.37zm-63.23 58.42l0 -36.34c0,-13.81 -3.72,-24.59 -11.15,-32.32 -7.43,-7.68 -19.58,-11.55 -36.44,-11.55l-49.99 0c-13.45,0 -23.44,3.71 -29.97,11.09 -6.53,7.43 -9.79,17.87 -9.79,31.27l0 37.84c0,13 3.21,23.14 9.64,30.36 6.42,7.18 16.46,10.79 30.12,10.79l49.99 0c17.07,0 29.26,-3.41 36.59,-10.18 7.33,-6.82 11,-17.17 11,-30.97zm305.66 -118.75l0 44.27 -140.33 0 0 36.14 133.11 0 0 42.76 -133.11 0 0 76.79 -62.34 0 0 -199.96 202.67 0zm493.27 0l0 199.96 -59.62 0 0 -150.57 -77.7 150.57 -54.82 0 -79.2 -150.27 0 150.27 -58.72 0 0 -199.96 97.57 0 66.86 139.13 72.87 -139.13 92.75 0zm108.11 0l0 199.96 -58.72 0 0 -199.96 58.72 0zm307.77 0l0 199.96 -99.98 0 -104.8 -156.59 0 156.59 -59.03 0 0 -199.96 99.08 0 102.99 156.3 0 -156.3 61.73 0zm311.69 74.18l0.61 33.48c0,29.56 -7.03,52.35 -21.08,68.31 -14.05,16.01 -42.56,23.99 -85.53,23.99l-159.91 0 0 -199.96 149.97 0c40.16,0 69.52,5.83 88.09,17.52 18.57,11.64 27.85,30.52 27.85,56.66zm-124.97 86.02c26.1,0 42.86,-4.16 50.29,-12.54 7.42,-8.33 11.14,-21.78 11.14,-40.31l0 -29.86c0,-11.3 -4.01,-19.73 -12.05,-25.4 -8.03,-5.62 -23.29,-8.43 -45.77,-8.43l-82.52 0 0 116.54 78.9 0z"/>
    </g>
   </g>
   <rect class="fil22" x="-0" y="0" width="4067.51" height="3050.64"/>
  </g>
 </g>
</svg>
