<?xml version="1.0" encoding="UTF-8"?>
<!DOCTYPE svg PUBLIC "-//W3C//DTD SVG 1.1//EN" "http://www.w3.org/Graphics/SVG/1.1/DTD/svg11.dtd">
<!-- Creator: CorelDRAW 2019 (64-Bit) -->
<svg xmlns="http://www.w3.org/2000/svg" xml:space="preserve" width="3.33333in" height="2.66666in" version="1.1" style="shape-rendering:geometricPrecision; text-rendering:geometricPrecision; image-rendering:optimizeQuality; fill-rule:evenodd; clip-rule:evenodd"
viewBox="0 0 3333.33 2666.66"
 xmlns:xlink="http://www.w3.org/1999/xlink">
 <defs>
  <style type="text/css">
   <![CDATA[
    .fil0 {fill:none}
    .fil1 {fill:#494949}
    .fil17 {fill:#566A61}
    .fil16 {fill:#98AEA2}
    .fil18 {fill:#999999}
    .fil2 {fill:url(#id0)}
    .fil9 {fill:url(#id1)}
    .fil11 {fill:url(#id2)}
    .fil15 {fill:url(#id3)}
    .fil13 {fill:url(#id4)}
    .fil6 {fill:url(#id5)}
    .fil4 {fill:url(#id6)}
    .fil8 {fill:url(#id7)}
    .fil12 {fill:url(#id8)}
    .fil7 {fill:url(#id9)}
    .fil10 {fill:url(#id10)}
    .fil5 {fill:url(#id11)}
    .fil3 {fill:url(#id12)}
    .fil14 {fill:url(#id13)}
   ]]>
  </style>
  <linearGradient id="id0" gradientUnits="userSpaceOnUse" x1="1157.17" y1="1263.24" x2="1157.17" y2="1084.01">
   <stop offset="0" style="stop-opacity:1; stop-color:#414D47"/>
   <stop offset="0.380392" style="stop-opacity:1; stop-color:#54675D"/>
   <stop offset="0.658824" style="stop-opacity:1; stop-color:#727978"/>
   <stop offset="0.768627" style="stop-opacity:1; stop-color:#54675D"/>
   <stop offset="1" style="stop-opacity:1; stop-color:#414D47"/>
  </linearGradient>
  <linearGradient id="id1" gradientUnits="userSpaceOnUse" xlink:href="#id0" x1="1195.54" y1="1103.08" x2="1195.54" y2="941.98">
  </linearGradient>
  <linearGradient id="id2" gradientUnits="userSpaceOnUse" xlink:href="#id0" x1="1513.66" y1="1103.08" x2="1513.66" y2="941.98">
  </linearGradient>
  <linearGradient id="id3" gradientUnits="userSpaceOnUse" xlink:href="#id0" x1="1827.06" y1="1103.08" x2="1827.06" y2="941.98">
  </linearGradient>
  <linearGradient id="id4" gradientUnits="userSpaceOnUse" xlink:href="#id0" x1="2134.41" y1="1103.08" x2="2134.41" y2="941.98">
  </linearGradient>
  <linearGradient id="id5" gradientUnits="userSpaceOnUse" xlink:href="#id0" x1="1836.49" y1="1263.24" x2="1836.49" y2="1084.01">
  </linearGradient>
  <linearGradient id="id6" gradientUnits="userSpaceOnUse" xlink:href="#id0" x1="1496.83" y1="1263.24" x2="1496.83" y2="1084.01">
  </linearGradient>
  <linearGradient id="id7" gradientUnits="userSpaceOnUse" xlink:href="#id0" x1="2176.14" y1="1263.24" x2="2176.14" y2="1084.01">
  </linearGradient>
  <linearGradient id="id8" gradientUnits="userSpaceOnUse" x1="1665.16" y1="1095.25" x2="1668.13" y2="935.67">
   <stop offset="0" style="stop-opacity:1; stop-color:#B5846E"/>
   <stop offset="0.631373" style="stop-opacity:1; stop-color:#ECD1B4"/>
   <stop offset="1" style="stop-opacity:1; stop-color:#B5846E"/>
  </linearGradient>
  <linearGradient id="id9" gradientUnits="userSpaceOnUse" xlink:href="#id8" x1="2004.81" y1="1254.54" x2="2007.78" y2="1077">
  </linearGradient>
  <linearGradient id="id10" gradientUnits="userSpaceOnUse" xlink:href="#id8" x1="1352.62" y1="1095.25" x2="1356.54" y2="935.67">
  </linearGradient>
  <linearGradient id="id11" gradientUnits="userSpaceOnUse" xlink:href="#id8" x1="1665.16" y1="1254.54" x2="1668.13" y2="1077">
  </linearGradient>
  <linearGradient id="id12" gradientUnits="userSpaceOnUse" xlink:href="#id8" x1="1325.5" y1="1254.54" x2="1328.47" y2="1077">
  </linearGradient>
  <linearGradient id="id13" gradientUnits="userSpaceOnUse" xlink:href="#id8" x1="1973.31" y1="1095.25" x2="1977.35" y2="935.67">
  </linearGradient>
 </defs>
 <g id="Layer_x0020_1">
  <metadata id="CorelCorpID_0Corel-Layer"/>
  <g id="_1164208160">
   <polygon class="fil0" points="857.93,524.61 2475.39,524.61 2475.39,2142.06 857.93,2142.06 "/>
   <polygon class="fil1" points="2209.39,1107.8 2209.39,1907.61 2128.43,1907.61 1954.1,1907.61 1379.22,1907.61 1210.64,1907.61 1123.93,1907.61 1123.93,1107.8 1267.15,1107.8 1210.64,1150.79 1210.64,1820.9 1298.55,1820.9 2034.77,1820.9 2122.68,1820.9 2122.68,1150.79 2066.17,1107.8 "/>
   <path class="fil2" d="M1072.26 1094.11l169.83 0 0 79.58c0,43.77 -35.81,79.58 -79.58,79.58l-10.67 0c-43.77,0 -79.58,-35.81 -79.58,-79.58l0 -79.58z"/>
   <path class="fil3" d="M1242.09 1094.11l169.83 0 0 79.58c0,43.77 -35.81,79.58 -79.58,79.58l-10.67 0c-43.77,0 -79.58,-35.81 -79.58,-79.58l0 -79.58z"/>
   <path class="fil4" d="M1411.92 1094.11l169.83 0 0 79.58c0,43.77 -35.81,79.58 -79.58,79.58l-10.67 0c-43.77,0 -79.58,-35.81 -79.58,-79.58l0 -79.58z"/>
   <path class="fil5" d="M1581.74 1094.11l169.83 0 0 79.58c0,43.77 -35.81,79.58 -79.58,79.58l-10.67 0c-43.77,0 -79.58,-35.81 -79.58,-79.58l0 -79.58z"/>
   <path class="fil6" d="M1751.57 1094.11l169.83 0 0 79.58c0,43.77 -35.81,79.58 -79.57,79.58l-10.67 0c-43.77,0 -79.58,-35.81 -79.58,-79.58l0 -79.58z"/>
   <path class="fil7" d="M1921.4 1094.11l169.83 0 0 79.58c0,43.77 -35.81,79.58 -79.58,79.58l-10.67 0c-43.77,0 -79.57,-35.81 -79.57,-79.58l0 -79.58z"/>
   <path class="fil8" d="M2091.23 1094.11l169.83 0 0 79.58c0,43.77 -35.81,79.58 -79.58,79.58l-10.67 0c-43.77,0 -79.58,-35.81 -79.58,-79.58l0 -79.58z"/>
   <polygon class="fil9" points="1072.26,1094.11 1242.09,1094.11 1318.83,951.06 1170.54,951.06 "/>
   <polygon class="fil10" points="1242.09,1094.11 1411.92,1094.11 1467.12,951.06 1318.83,951.06 "/>
   <polygon class="fil11" points="1411.92,1094.11 1581.74,1094.11 1615.4,951.06 1467.11,951.06 "/>
   <polygon class="fil12" points="1581.74,1094.11 1751.57,1094.11 1732.72,951.06 1615.4,951.06 "/>
   <polygon class="fil13" points="2261.06,1094.11 2091.23,1094.11 2007.76,951.06 2156.05,951.06 "/>
   <polygon class="fil14" points="2091.23,1094.11 1921.4,1094.11 1859.47,951.06 2007.76,951.06 "/>
   <polygon class="fil15" points="1921.4,1094.11 1751.57,1094.11 1732.72,951.06 1859.47,951.06 "/>
   <polygon class="fil1" points="1344.42,932.93 1966.61,932.93 1966.61,759.06 1344.42,759.06 "/>
   <path class="fil16" d="M1730.76 1281.32l100.48 0 0 78.94 -24.7 0 0 87.44 -74.25 0 0 122.44 74.25 0 0 81.98 24.7 0 0 138.34 -100.48 0c-12.74,0 -23.17,-10.43 -23.17,-23.17l0 -462.81c0,-12.74 10.43,-23.17 23.17,-23.17zm111.39 0l164.72 0c12.74,0 23.17,10.43 23.17,23.17l0 462.81c0,12.74 -10.43,23.17 -23.17,23.17l-164.72 0 0 -138.34 24.7 0 0 -291.86 -24.7 0 0 -78.94z"/>
   <path class="fil17" d="M1842.15 1367.39l17.57 0 0 277.61 -17.57 0 0 -277.61zm-28.49 0l17.57 0 0 277.61 -17.57 0 0 -277.61z"/>
   <path class="fil18" d="M1806.54 1453.16l-69.41 0 0 111.53 69.41 0 0 -111.53zm-61.52 7.88l53.64 0 0 95.77 -53.64 0 0 -95.77z"/>
   <path class="fil17" d="M1748.35 1464.67l46.97 0 0 90.16 -6.97 0 0 -40.46 -33.03 0 0 40.46 -6.97 0 0 -90.16zm23.51 7.51l0 0c0.31,0 0.56,0.25 0.56,0.56l0 4.1 2.49 -2.49c0.22,-0.22 0.58,-0.22 0.8,0l0 0c0.22,0.22 0.22,0.58 0,0.8l-3.29 3.29 0 3.92 2.49 -2.49c0.22,-0.22 0.58,-0.22 0.8,0l0 0c0.22,0.22 0.22,0.58 0,0.8l-3.29 3.29 0 2.87 0 2.73 2.33 -1.35 2.45 -1.41 1.22 -4.56c0.08,-0.3 0.39,-0.48 0.69,-0.4l0 0c0.3,0.08 0.48,0.39 0.4,0.69l-0.93 3.47 3.4 -1.96 1.22 -4.56c0.08,-0.3 0.39,-0.48 0.69,-0.4l0 0c0.3,0.08 0.48,0.39 0.4,0.69l-0.93 3.47 3.6 -2.08c0.27,-0.15 0.61,-0.06 0.77,0.21l0 0c0.15,0.27 0.06,0.61 -0.21,0.77l-3.55 2.05 3.4 0.91c0.3,0.08 0.48,0.39 0.4,0.69l0 0c-0.08,0.3 -0.39,0.48 -0.69,0.4l-4.49 -1.2 -3.39 1.96 3.4 0.91c0.3,0.08 0.48,0.39 0.4,0.69l0 0c-0.08,0.3 -0.39,0.48 -0.69,0.4l-4.49 -1.2 -2.49 1.44 -2.35 1.36 2.33 1.35 2.45 1.41 4.56 -1.22c0.3,-0.08 0.61,0.1 0.69,0.4l0 0c0.08,0.3 -0.1,0.61 -0.4,0.69l-3.47 0.93 3.4 1.96 4.56 -1.22c0.3,-0.08 0.61,0.1 0.69,0.4l0 0c0.08,0.3 -0.1,0.61 -0.4,0.69l-3.47 0.93 3.6 2.07c0.27,0.15 0.36,0.5 0.2,0.77l0 0c-0.15,0.27 -0.5,0.36 -0.77,0.2l-3.55 -2.05 0.91 3.4c0.08,0.3 -0.1,0.61 -0.4,0.69l0 0c-0.3,0.08 -0.61,-0.1 -0.69,-0.4l-1.2 -4.49 -3.39 -1.96 0.91 3.4c0.08,0.3 -0.1,0.61 -0.4,0.69l0 0c-0.3,0.08 -0.61,-0.1 -0.69,-0.4l-1.2 -4.49 -2.49 -1.44 -2.31 -1.34 0 2.68 0 2.88 3.29 3.29c0.22,0.22 0.22,0.58 0,0.8l0 0c-0.22,0.22 -0.58,0.22 -0.8,0l-2.49 -2.49 0 3.92 3.29 3.29c0.22,0.22 0.22,0.58 0,0.8l0 0c-0.22,0.22 -0.58,0.22 -0.8,0l-2.49 -2.49 0 4.1c0,0.31 -0.26,0.57 -0.56,0.57l0 0c-0.31,0 -0.57,-0.26 -0.57,-0.57l0 -4.15 -2.54 2.54c-0.22,0.22 -0.58,0.22 -0.8,0l0 0c-0.22,-0.22 -0.22,-0.58 0,-0.8l3.34 -3.34 0 -3.92 -2.54 2.54c-0.22,0.22 -0.58,0.22 -0.8,0l0 0c-0.22,-0.22 -0.22,-0.58 0,-0.8l3.34 -3.34 0 -2.83 0 -2.7 -2.36 1.36 -2.49 1.44 -1.2 4.49c-0.08,0.3 -0.39,0.48 -0.69,0.4l0 0c-0.3,-0.08 -0.48,-0.39 -0.4,-0.69l0.91 -3.4 -3.39 1.96 -1.2 4.49c-0.08,0.3 -0.39,0.48 -0.69,0.4l0 0c-0.3,-0.08 -0.48,-0.39 -0.4,-0.69l0.91 -3.4 -3.55 2.05c-0.27,0.16 -0.62,0.06 -0.77,-0.2l0 0c-0.16,-0.27 -0.06,-0.62 0.2,-0.77l3.6 -2.08 -3.47 -0.93c-0.3,-0.08 -0.48,-0.39 -0.4,-0.69l0 0c0.08,-0.3 0.39,-0.48 0.69,-0.4l4.56 1.22 3.4 -1.96 -3.47 -0.93c-0.3,-0.08 -0.48,-0.39 -0.4,-0.69l0 0c0.08,-0.3 0.39,-0.48 0.69,-0.4l4.56 1.22 2.45 -1.41 2.34 -1.35 -2.37 -1.37 -2.49 -1.44 -4.49 1.2c-0.3,0.08 -0.61,-0.1 -0.69,-0.4l0 0c-0.08,-0.3 0.1,-0.61 0.4,-0.69l3.4 -0.91 -3.39 -1.96 -4.49 1.2c-0.3,0.08 -0.61,-0.1 -0.69,-0.4l0 0c-0.08,-0.3 0.1,-0.61 0.4,-0.69l3.4 -0.91 -3.55 -2.05c-0.27,-0.15 -0.36,-0.5 -0.21,-0.77l0 0c0.16,-0.27 0.5,-0.36 0.77,-0.21l3.6 2.08 -0.93 -3.47c-0.08,-0.3 0.1,-0.61 0.4,-0.69l0 0c0.3,-0.08 0.61,0.1 0.69,0.4l1.22 4.56 3.4 1.96 -0.93 -3.47c-0.08,-0.3 0.1,-0.61 0.4,-0.69l0 0c0.3,-0.08 0.61,0.1 0.69,0.4l1.22 4.56 2.45 1.41 2.38 1.37 0 -2.75 0 -2.82 -3.34 -3.34c-0.22,-0.22 -0.22,-0.58 0,-0.8l0 0c0.22,-0.22 0.58,-0.22 0.8,0l2.54 2.54 0 -3.92 -3.34 -3.34c-0.22,-0.22 -0.22,-0.58 0,-0.8l0 0c0.22,-0.22 0.58,-0.22 0.8,0l2.54 2.54 0 -4.15c0,-0.31 0.25,-0.56 0.57,-0.56z"/>
   <path class="fil17" d="M1733.19 1790.46l20.01 0 0 18.8 -20.01 0 0 -18.8zm251.25 0l20.02 0 0 18.8 -20.02 0 0 -18.8z"/>
   <path class="fil17" d="M1396.48 1554.84c24.22,0 43.86,19.64 43.86,43.86 0,24.22 -19.64,43.86 -43.86,43.86 -24.22,0 -43.86,-19.64 -43.86,-43.86 0,-24.22 19.64,-43.86 43.86,-43.86zm0 20.02c13.17,0 23.84,10.68 23.84,23.84 0,13.17 -10.68,23.84 -23.84,23.84 -13.17,0 -23.84,-10.67 -23.84,-23.84 0,-13.17 10.67,-23.84 23.84,-23.84zm0 4.17c10.86,0 19.67,8.81 19.67,19.67 0,10.87 -8.81,19.67 -19.67,19.67 -10.87,0 -19.67,-8.81 -19.67,-19.67 0,-10.86 8.81,-19.67 19.67,-19.67zm0 -18.95c21.33,0 38.62,17.29 38.62,38.62 0,21.33 -17.29,38.62 -38.62,38.62 -21.33,0 -38.62,-17.29 -38.62,-38.62 0,-21.33 17.29,-38.62 38.62,-38.62z"/>
   <path class="fil17" d="M1423.17 1554.84c24.22,0 43.86,19.64 43.86,43.86 0,24.22 -19.64,43.86 -43.86,43.86 -4.65,0 -9.14,-0.72 -13.35,-2.07 2.84,-0.91 5.55,-2.09 8.11,-3.53 1.71,0.23 3.46,0.35 5.24,0.35 21.33,0 38.62,-17.29 38.62,-38.62 0,-21.33 -17.29,-38.62 -38.62,-38.62 -1.78,0 -3.53,0.12 -5.24,0.35 -2.56,-1.43 -5.27,-2.62 -8.11,-3.53 4.21,-1.34 8.69,-2.07 13.35,-2.07zm12.05 23.28c7.06,4.14 11.8,11.81 11.8,20.58 0,8.78 -4.74,16.44 -11.8,20.58 1.41,-2.65 2.56,-5.46 3.41,-8.41 2.64,-3.35 4.22,-7.57 4.22,-12.17 0,-4.59 -1.57,-8.82 -4.22,-12.17 -0.85,-2.94 -2,-5.76 -3.41,-8.41z"/>
   <path class="fil16" d="M1635.84 1504.49l0 246.65 0 8.62 0 23.63c0,4.74 -3.88,8.62 -8.62,8.62l-23.63 0 -268.06 0 -23.64 0c-4.74,0 -8.62,-3.88 -8.62,-8.62l0 -23.63 0 -8.62 0 -246.65 332.57 0zm-297.24 22.54l261.92 0c5.96,0 10.84,4.88 10.84,10.84l0 210.79c0,5.95 -4.89,10.84 -10.84,10.84l-261.92 0c-5.95,0 -10.83,-4.88 -10.83,-10.84l0 -210.79c0,-5.96 4.87,-10.84 10.83,-10.84z"/>
   <path class="fil17" d="M1335.53 1440.54l268.06 0 23.63 0c4.74,0 8.62,3.88 8.62,8.62l0 10.29 0 8.62 0 28.09 -332.57 0 0 -28.09 0 -8.62 0 -10.29c0,-4.74 3.88,-8.62 8.62,-8.62l23.64 0zm254.85 21.28l0 12.24c0,1.83 1.52,3.34 3.34,3.34l0.55 0c1.83,0 3.34,-1.52 3.34,-3.34l0 -12.24c0,-1.82 -1.5,-3.34 -3.34,-3.34l-0.55 0c-1.83,0 -3.34,1.51 -3.34,3.34zm-13.35 0l0 12.24c0,1.83 1.52,3.34 3.34,3.34l0.56 0c1.82,0 3.33,-1.52 3.33,-3.34l0 -12.24c0,-1.82 -1.5,-3.34 -3.33,-3.34l-0.56 0c-1.83,0 -3.34,1.51 -3.34,3.34zm-13.35 0l0 12.24c0,1.83 1.52,3.34 3.34,3.34l0.55 0c1.83,0 3.34,-1.52 3.34,-3.34l0 -12.24c0,-1.82 -1.5,-3.34 -3.34,-3.34l-0.55 0c-1.83,0 -3.34,1.51 -3.34,3.34zm-13.35 0l0 12.24c0,1.83 1.51,3.34 3.33,3.34l0.56 0c1.82,0 3.34,-1.52 3.34,-3.34l0 -12.24c0,-1.82 -1.5,-3.34 -3.34,-3.34l-0.56 0c-1.83,0 -3.33,1.51 -3.33,3.34zm-121.52 6.67c0,-7.68 -6.22,-13.91 -13.9,-13.91 -7.68,0 -13.91,6.22 -13.91,13.91 0,7.68 6.22,13.9 13.91,13.9 7.68,0 13.9,-6.22 13.9,-13.9zm111.5 -10.01l0.56 0c1.83,0 3.33,1.52 3.33,3.34l0 12.24c0,1.82 -1.52,3.34 -3.33,3.34l-0.56 0c-1.82,0 -3.34,-1.5 -3.34,-3.34l0 -12.24c0,-1.83 1.5,-3.34 3.34,-3.34zm-205.49 -3.9c7.68,0 13.9,6.22 13.9,13.91 0,7.68 -6.22,13.9 -13.9,13.9 -7.68,0 -13.91,-6.22 -13.91,-13.9 0,-7.68 6.22,-13.91 13.91,-13.91zm38.93 0c7.68,0 13.9,6.22 13.9,13.91 0,7.68 -6.22,13.9 -13.9,13.9 -7.68,0 -13.91,-6.22 -13.91,-13.9 0,-7.68 6.23,-13.91 13.91,-13.91z"/>
   <path class="fil17" d="M1341.35 1540.61l256.41 0 0 25.21 0 41.01 0 5.43 0 97.6 0 36.04 -256.41 0 0 -36.04 0 -97.6 0 -5.43 0 -41.01 0 -25.21zm259.17 -5.24l-261.92 0c-1.37,0 -2.49,1.13 -2.49,2.5l0 68.97 0 5.43 0 136.4c0,1.37 1.12,2.5 2.49,2.5l261.92 0c1.37,0 2.5,-1.12 2.5,-2.5l0 -136.4 0 -5.43 0 -68.97c0,-1.37 -1.13,-2.5 -2.5,-2.5z"/>
   <path class="fil17" d="M1345.11 1792.02l18.36 0 0 17.24 -18.36 0 0 -17.24zm230.52 0l18.37 0 0 17.24 -18.37 0 0 -17.24z"/>
   <path class="fil17" d="M1349.72 1642.57l5.25 0 229.19 0 5.24 0 0 -5.25 0 -6.42 -5.24 0 0 6.42 -229.19 0 0 -6.42 -5.25 0 0 6.42 0 5.25zm234.44 72.87l0 6.42 -229.19 0 0 -6.42 -5.25 0 0 6.42 0 5.24 5.25 0 229.19 0 5.24 0 0 -5.24 0 -6.42 -5.24 0z"/>
   <path class="fil17" d="M1516.62 1554.84c24.22,0 43.86,19.64 43.86,43.86 0,24.22 -19.64,43.86 -43.86,43.86 -24.22,0 -43.86,-19.64 -43.86,-43.86 0,-24.22 19.64,-43.86 43.86,-43.86zm0 20.02c13.17,0 23.84,10.68 23.84,23.84 0,13.17 -10.67,23.84 -23.84,23.84 -13.17,0 -23.84,-10.67 -23.84,-23.84 0,-13.17 10.67,-23.84 23.84,-23.84zm0 4.17c10.87,0 19.67,8.81 19.67,19.67 0,10.87 -8.81,19.67 -19.67,19.67 -10.87,0 -19.67,-8.81 -19.67,-19.67 0,-10.86 8.81,-19.67 19.67,-19.67zm0 -18.95c21.33,0 38.62,17.29 38.62,38.62 0,21.33 -17.29,38.62 -38.62,38.62 -21.33,0 -38.62,-17.29 -38.62,-38.62 0,-21.33 17.29,-38.62 38.62,-38.62z"/>
   <path class="fil17" d="M1543.32 1554.84c24.22,0 43.86,19.64 43.86,43.86 0,24.22 -19.64,43.86 -43.86,43.86 -4.66,0 -9.14,-0.72 -13.35,-2.07 2.84,-0.91 5.55,-2.09 8.11,-3.53 1.72,0.23 3.46,0.35 5.24,0.35 21.33,0 38.62,-17.29 38.62,-38.62 0,-21.33 -17.29,-38.62 -38.62,-38.62 -1.78,0 -3.53,0.12 -5.24,0.35 -2.56,-1.43 -5.27,-2.62 -8.11,-3.53 4.21,-1.34 8.69,-2.07 13.35,-2.07zm12.05 23.28c7.06,4.14 11.8,11.81 11.8,20.58 0,8.78 -4.74,16.44 -11.8,20.58 1.41,-2.65 2.56,-5.46 3.41,-8.41 2.64,-3.35 4.22,-7.57 4.22,-12.17 0,-4.59 -1.57,-8.82 -4.22,-12.17 -0.85,-2.94 -2,-5.76 -3.41,-8.41z"/>
   <path class="fil17" d="M1484.88 1675.87l0 -2.07c0,-0.83 0.68,-1.5 1.5,-1.5l82.04 0c0.83,0 1.51,0.68 1.51,1.5l0 2.07c0,0.83 -0.68,1.5 -1.51,1.5l-2.18 0c-0.19,2.85 -0.68,5.62 -1.44,8.27l3.62 0c0.83,0 1.51,0.68 1.51,1.51l0 2.07c0,0.83 -0.68,1.5 -1.51,1.5l-2.18 0c-0.86,13.31 -8.41,24.8 -19.31,31.14 -5.74,3.33 -12.41,5.24 -19.52,5.24 -7.12,0 -13.79,-1.91 -19.53,-5.24 -10.91,-6.34 -18.46,-17.83 -19.31,-31.14l-2.18 0c-0.83,0 -1.5,-0.68 -1.5,-1.5l0 -2.07c0,-0.83 0.68,-1.51 1.5,-1.51l3.62 0c-0.76,-2.65 -1.26,-5.42 -1.44,-8.27l-2.18 0c-0.83,0 -1.5,-0.68 -1.5,-1.5zm-115.7 -13.35l0 -2.07c0,-0.83 0.68,-1.5 1.51,-1.5l82.04 0c0.83,0 1.51,0.68 1.51,1.5l0 2.07c0,0.83 -0.68,1.51 -1.51,1.51l-2.18 0c-0.19,2.85 -0.68,5.61 -1.44,8.27l3.62 0c0.83,0 1.51,0.68 1.51,1.5l0 2.07c0,0.83 -0.68,1.5 -1.51,1.5l-2.18 0c-0.19,2.85 -0.68,5.62 -1.44,8.27l3.62 0c0.83,0 1.51,0.68 1.51,1.51l0 2.07c0,0.83 -0.68,1.5 -1.51,1.5l-2.18 0c-0.86,13.31 -8.41,24.8 -19.31,31.14 -5.74,3.33 -12.41,5.24 -19.53,5.24 -7.11,0 -13.78,-1.91 -19.52,-5.24 -10.91,-6.34 -18.46,-17.83 -19.31,-31.14l-2.18 0c-0.83,0 -1.51,-0.68 -1.51,-1.5l0 -2.07c0,-0.83 0.68,-1.51 1.51,-1.51l3.62 0c-0.76,-2.65 -1.26,-5.42 -1.44,-8.27l-2.18 0c-0.83,0 -1.51,-0.68 -1.51,-1.5l0 -2.07c0,-0.83 0.68,-1.5 1.51,-1.5l3.62 0c-0.76,-2.65 -1.26,-5.42 -1.44,-8.27l-2.18 0c-0.83,0 -1.51,-0.68 -1.51,-1.51zm74.61 9.78c0.89,-2.63 1.46,-5.4 1.67,-8.27l-67.49 0c0.21,2.87 0.78,5.64 1.67,8.27l64.15 0zm0 13.35c0.89,-2.63 1.46,-5.4 1.67,-8.27l-3.86 0 -59.77 0 -3.86 0c0.21,2.87 0.78,5.64 1.67,8.27l64.15 0zm-35.42 36.22c1.1,0.11 2.21,0.16 3.34,0.16 1.13,0 2.24,-0.06 3.34,-0.16 16.29,-1.6 29.19,-14.74 30.41,-31.14l-3.86 0 -59.77 0 -3.86 0c1.22,16.4 14.11,29.54 30.41,31.14zm152.78 -31.14l-3.86 0 -59.77 0 -3.86 0c1.22,16.4 14.12,29.54 30.41,31.14 1.1,0.11 2.21,0.16 3.34,0.16 1.13,0 2.24,-0.06 3.34,-0.16 16.29,-1.6 29.19,-14.74 30.4,-31.14zm-1.67 -5.08c0.89,-2.63 1.46,-5.4 1.67,-8.27l-67.49 0c0.21,2.87 0.78,5.64 1.67,8.27l64.15 0z"/>
  </g>
 </g>
</svg>
